<?xml version="1.0" standalone="no"?>
<!DOCTYPE svg PUBLIC "-//W3C//DTD SVG 1.1//EN" "http://www.w3.org/Graphics/SVG/1.1/DTD/svg11.dtd" >
<svg xmlns="http://www.w3.org/2000/svg" xmlns:xlink="http://www.w3.org/1999/xlink" version="1.1">
<metadata>
Created by FontForge 20190801 at Tue Feb 15 20:53:24 2011
 By Jimmy Wärting
Copyright (C) 2011 Markanna Studios Inc.www.SweetFonts.com
</metadata>
<defs>
<font id="SweetSansPro-Thin" horiz-adv-x="500" >
  <font-face 
    font-family="Sweet Sans Pro Thin"
    font-weight="200"
    font-stretch="normal"
    units-per-em="1000"
    panose-1="2 0 0 0 0 0 0 0 0 0"
    ascent="770"
    descent="-230"
    x-height="444"
    cap-height="653"
    bbox="-115 -303 1487 1022"
    underline-thickness="56"
    underline-position="-128"
    stemh="34"
    stemv="39"
    unicode-range="U+000D-FB04"
  />
<missing-glyph horiz-adv-x="579" 
d="M579 0h-579v653h579v-653zM289 301l-238 -269h476zM51 621l238 -269l238 269h-476zM312 327l231 -260v520zM266 327l-230 259v-519z" />
    <glyph glyph-name="f_i" unicode="fi" horiz-adv-x="573" 
d="M44 444h97v109c0 116 73 157 134 157c22 0 49 -5 66 -13l-8 -29c-14 6 -36 10 -53 10c-48 0 -103 -34 -103 -125v-109h160v-29h-160v-415h-36v415h-97v29zM469 0h-37v444h37v-444zM422 642c0 15 12 27 28 27c17 0 29 -12 29 -27s-12 -27 -29 -27c-16 0 -28 12 -28 27z
" />
    <glyph glyph-name="f_l" unicode="fl" horiz-adv-x="601" 
d="M44 444h97v109c0 116 73 157 134 157c22 0 49 -5 66 -13l-8 -29c-14 6 -36 10 -53 10c-48 0 -103 -34 -103 -125v-109h160v-29h-160v-415h-36v415h-97v29zM486 0h-36v700h36v-700z" />
    <glyph glyph-name="f_f" unicode="ff" horiz-adv-x="655" 
d="M44 444h97v109c0 116 72 157 137 157c36 0 84 -12 112 -41l-11 -28c-23 25 -64 37 -95 37c-54 0 -107 -34 -107 -125v-109h276v109c0 116 72 157 138 157c35 0 83 -12 111 -41l-11 -28c-23 25 -63 37 -95 37c-54 0 -107 -34 -107 -125v-109h160v-29h-160v-415h-36v415
h-276v-415h-36v415h-97v29z" />
    <glyph glyph-name="f_f_i" unicode="ffi" horiz-adv-x="885" 
d="M453 0v415h-276v-415h-36v415h-97v29h97v109c0 116 72 157 137 157c36 0 84 -12 112 -41l-11 -28c-23 25 -64 37 -95 37c-54 0 -107 -34 -107 -125v-109h276v109c0 116 74 157 134 157c23 0 49 -5 67 -13l-9 -29c-14 6 -36 10 -53 10c-48 0 -103 -34 -103 -125v-109h160
v-29h-160v-415h-36zM744 0v444h37v-444h-37zM763 615c-17 0 -29 12 -29 27s12 27 29 27c16 0 28 -12 28 -27s-12 -27 -28 -27z" />
    <glyph glyph-name="f_f_l" unicode="ffl" horiz-adv-x="913" 
d="M453 0v415h-276v-415h-36v415h-97v29h97v109c0 116 72 157 137 157c36 0 84 -12 112 -41l-11 -28c-23 25 -64 37 -95 37c-54 0 -107 -34 -107 -125v-109h276v109c0 116 74 157 134 157c23 0 49 -5 67 -13l-9 -29c-14 6 -36 10 -53 10c-48 0 -103 -34 -103 -125v-109h160
v-29h-160v-415h-36zM762 0v700h36v-700h-36z" />
    <glyph glyph-name="f_j" unicode="fj" horiz-adv-x="573" 
d="M44 444h97v109c0 116 73 157 134 157c22 0 49 -5 66 -13l-8 -29c-14 6 -36 10 -53 10c-48 0 -103 -34 -103 -125v-109h160v-29h-160v-415h-36v415h-97v29zM320 -227l-8 29c54 3 120 37 120 139v503h37v-503c0 -124 -83 -168 -149 -168zM422 642c0 15 12 27 28 27
c17 0 29 -12 29 -27s-12 -27 -29 -27c-16 0 -28 12 -28 27z" />
    <glyph glyph-name="f_f_j" unicode="ffj" horiz-adv-x="885" 
d="M453 0v415h-276v-415h-36v415h-97v29h97v109c0 116 72 157 137 157c36 0 84 -12 112 -41l-11 -28c-23 25 -64 37 -95 37c-54 0 -107 -34 -107 -125v-109h276v109c0 116 74 157 134 157c23 0 49 -5 67 -13l-9 -29c-14 6 -36 10 -53 10c-48 0 -103 -34 -103 -125v-109h160
v-29h-160v-415h-36zM632 -227l-8 29c54 3 120 37 120 139v503h37v-503c0 -124 -83 -168 -149 -168zM763 615c-17 0 -29 12 -29 27s12 27 29 27c16 0 28 -12 28 -27s-12 -27 -28 -27z" />
    <glyph glyph-name="f_t" unicode="ft" horiz-adv-x="695" 
d="M341 697l-8 -29c-14 6 -36 10 -53 10c-48 0 -103 -34 -103 -125v-109h273v140h37v-140h167v-29h-167v-307c0 -65 42 -89 81 -89c34 0 73 14 93 29l9 -27c-22 -18 -67 -34 -107 -34c-51 0 -113 30 -113 121v307h-273v-415h-36v415h-97v29h97v109c0 116 73 157 134 157
c22 0 49 -5 66 -13z" />
    <glyph glyph-name="f_f_t" unicode="fft" horiz-adv-x="1008" 
d="M44 444h97v109c0 116 72 157 137 157c36 0 84 -12 112 -41l-11 -28c-23 25 -64 37 -95 37c-54 0 -107 -34 -107 -125v-109h276v109c0 116 74 157 134 157c23 0 49 -5 67 -13l-9 -29c-14 6 -36 10 -53 10c-48 0 -103 -34 -103 -125v-109h273v140h37v-140h167v-29h-167
v-307c0 -65 42 -89 81 -89c34 0 73 14 93 29l9 -27c-22 -18 -67 -34 -107 -34c-50 0 -113 30 -113 121v307h-273v-415h-36v415h-276v-415h-36v415h-97v29z" />
    <glyph glyph-name="t_t" unicode="tt" horiz-adv-x="737" 
d="M34 415v29h98v140h36v-140h319v140h36v-140h167v-29h-167v-307c0 -65 43 -89 81 -89c34 0 74 14 94 29l8 -27c-22 -18 -67 -34 -107 -34c-50 0 -112 30 -112 121v307h-319v-307c0 -65 43 -89 81 -89c34 0 74 14 94 29l8 -27c-22 -18 -67 -34 -107 -34
c-50 0 -112 30 -112 121v307h-98z" />
    <glyph glyph-name=".notdef" horiz-adv-x="579" 
d="M579 0h-579v653h579v-653zM289 301l-238 -269h476zM51 621l238 -269l238 269h-476zM312 327l231 -260v520zM266 327l-230 259v-519z" />
    <glyph glyph-name="space" unicode=" " horiz-adv-x="225" 
 />
    <glyph glyph-name="A" unicode="A" horiz-adv-x="749" 
d="M90 0h-40l303 653h43l303 -653h-42l-108 234h-351zM371 610l-159 -344h323l-158 344h-6z" />
    <glyph glyph-name="B" unicode="B" horiz-adv-x="819" 
d="M500 0h-363v653h348c71 0 125 -18 164 -58c27 -28 44 -62 44 -103c0 -67 -46 -131 -112 -147c84 -10 141 -81 141 -162c0 -45 -18 -89 -56 -126c-41 -40 -93 -57 -166 -57zM537 322h-361v-288h325c51 0 100 12 136 47c29 29 44 66 44 103s-14 70 -38 94
c-27 27 -64 44 -106 44zM481 619h-305v-265h341c38 0 72 15 97 39c24 24 39 58 39 94c0 33 -14 63 -37 86c-31 31 -74 46 -135 46z" />
    <glyph glyph-name="C" unicode="C" horiz-adv-x="793" 
d="M708 133l26 -26c-73 -69 -176 -120 -296 -120c-205 0 -362 153 -362 340c0 186 158 339 360 339c112 0 215 -42 286 -107l-27 -26c-65 60 -160 98 -258 98c-180 0 -320 -137 -320 -304c0 -168 140 -305 321 -305c107 0 202 45 270 111z" />
    <glyph glyph-name="D" unicode="D" horiz-adv-x="822" 
d="M384 0h-247v653h247c128 0 199 -37 265 -98c59 -58 94 -139 94 -228c0 -90 -37 -172 -96 -231c-67 -59 -134 -96 -263 -96zM176 34h207c116 0 174 33 233 86c53 53 86 127 86 207s-31 152 -85 205c-59 53 -119 87 -234 87h-207v-585z" />
    <glyph glyph-name="E" unicode="E" horiz-adv-x="721" 
d="M466 365v-34h-290v-297h497v-34h-536v653h515v-34h-476v-254h290z" />
    <glyph glyph-name="F" unicode="F" horiz-adv-x="649" 
d="M176 0h-39v653h498v-34h-459v-272h290v-34h-290v-313z" />
    <glyph glyph-name="G" unicode="G" horiz-adv-x="824" 
d="M708 570l-26 -24c-64 52 -154 85 -245 85c-179 0 -320 -136 -320 -304c0 -166 137 -305 323 -305c94 0 185 33 247 86v198h-227v34h264v-250c-75 -63 -179 -103 -286 -103c-201 0 -362 152 -362 340s161 339 361 339c101 0 198 -36 271 -96z" />
    <glyph glyph-name="H" unicode="H" horiz-adv-x="839" 
d="M176 0h-39v653h39v-284h486v284h39v-653h-39v335h-486v-335z" />
    <glyph glyph-name="I" unicode="I" horiz-adv-x="313" 
d="M176 0h-39v653h39v-653z" />
    <glyph glyph-name="J" unicode="J" horiz-adv-x="689" 
d="M527 653h39v-421c0 -157 -118 -245 -277 -245c-164 0 -223 94 -256 160l33 16c27 -59 80 -141 223 -141c137 0 238 75 238 210v421z" />
    <glyph glyph-name="K" unicode="K" horiz-adv-x="735" 
d="M608 653h47l-246 -247l296 -406h-50l-274 379l-205 -208v-171h-39v653h39v-438z" />
    <glyph glyph-name="L" unicode="L" horiz-adv-x="631" 
d="M137 653h39v-619h432v-34h-471v653z" />
    <glyph glyph-name="M" unicode="M" horiz-adv-x="922" 
d="M785 0h-39v589h-5l-272 -453h-18l-271 453h-5v-589h-38v653h49l275 -458h2l274 458h48v-653z" />
    <glyph glyph-name="N" unicode="N" horiz-adv-x="841" 
d="M665 653h39v-653h-40l-487 592h-1v-592h-39v653h41l486 -592h1v592z" />
    <glyph glyph-name="O" unicode="O" horiz-adv-x="861" 
d="M77 328c0 187 155 338 352 338c198 0 356 -151 356 -338c0 -190 -158 -341 -356 -341c-197 0 -352 151 -352 341zM118 328c0 -170 136 -306 311 -306c176 0 315 136 315 306c0 167 -139 303 -315 303c-175 0 -311 -136 -311 -303z" />
    <glyph glyph-name="P" unicode="P" horiz-adv-x="746" 
d="M176 0h-39v653h338c73 0 129 -17 172 -62c30 -32 47 -72 47 -116c0 -48 -20 -92 -53 -124c-41 -40 -96 -56 -166 -56h-299v-295zM475 619h-299v-290h299c54 0 101 10 137 45c29 28 43 63 43 101c0 34 -12 66 -38 93c-33 35 -78 51 -142 51z" />
    <glyph glyph-name="Q" unicode="Q" horiz-adv-x="861" 
d="M77 328c0 187 155 338 352 338c198 0 356 -151 356 -338c0 -128 -72 -239 -179 -297l95 -129l-38 -13l-92 125c-44 -17 -92 -27 -142 -27c-197 0 -352 151 -352 341zM449 181l38 12l97 -132c96 52 160 151 160 267c0 167 -139 303 -315 303c-175 0 -311 -136 -311 -303
c0 -170 136 -306 311 -306c42 0 83 8 120 22z" />
    <glyph glyph-name="R" unicode="R" horiz-adv-x="801" 
d="M176 0h-39v653h359c78 0 133 -21 171 -61c29 -31 48 -73 48 -121c0 -88 -63 -163 -168 -172l170 -299h-44l-166 295h-331v-295zM496 619h-320v-290h347c95 0 153 67 153 143c0 38 -15 73 -39 98c-32 33 -77 49 -141 49z" />
    <glyph glyph-name="S" unicode="S" horiz-adv-x="749" 
d="M630 571l-24 -27c-43 39 -130 88 -251 88c-96 0 -214 -37 -214 -145c0 -107 129 -113 247 -119c112 -6 294 -16 294 -176c0 -142 -140 -205 -299 -205c-156 0 -251 67 -317 130l25 27c59 -58 148 -123 293 -123c138 0 259 52 259 167c0 126 -147 137 -255 143
c-134 7 -286 16 -286 153s143 182 254 182c128 0 227 -54 274 -95z" />
    <glyph glyph-name="T" unicode="T" horiz-adv-x="603" 
d="M33 619v34h537v-34h-248v-619h-39v619h-250z" />
    <glyph glyph-name="U" unicode="U" horiz-adv-x="810" 
d="M648 653h39v-421c0 -157 -121 -245 -283 -245c-160 0 -281 88 -281 245v421h39v-421c0 -135 104 -210 242 -210c140 0 244 75 244 210v421z" />
    <glyph glyph-name="V" unicode="V" horiz-adv-x="749" 
d="M659 653h42l-305 -653h-43l-305 653h43l281 -607h6z" />
    <glyph glyph-name="W" unicode="W" horiz-adv-x="1008" 
d="M56 653h43l192 -599h4l190 599h39l190 -599h4l192 599h42l-212 -653h-47l-187 587h-4l-187 -587h-47z" />
    <glyph glyph-name="X" unicode="X" horiz-adv-x="689" 
d="M577 653h47l-255 -310l280 -343h-49l-256 316l-258 -316h-47l282 342l-253 311h49l229 -283z" />
    <glyph glyph-name="Y" unicode="Y" horiz-adv-x="660" 
d="M571 653h46l-268 -337v-316h-39v316l-268 337h49l240 -302z" />
    <glyph glyph-name="Z" unicode="Z" horiz-adv-x="689" 
d="M626 34v-34h-580v26l516 593h-471v34h524v-26l-516 -593h527z" />
    <glyph glyph-name="a" unicode="a" horiz-adv-x="591" 
d="M119 370l-14 28c36 24 104 58 192 58c91 0 193 -34 193 -133v-242c0 -23 4 -56 19 -81h-38c-14 21 -17 53 -17 78c-33 -33 -115 -88 -217 -88c-114 0 -179 67 -179 151c0 85 71 152 202 152c68 0 152 -17 194 -72v94c0 80 -82 110 -159 110c-79 0 -143 -32 -176 -55z
M243 21c114 0 204 76 211 90v77c-37 56 -117 76 -189 76c-114 0 -170 -54 -170 -123c0 -66 52 -120 148 -120z" />
    <glyph glyph-name="b" unicode="b" horiz-adv-x="623" 
d="M133 0h-35c6 33 8 65 8 95v605h37v-327c53 52 119 83 186 83c123 0 227 -93 227 -233c0 -142 -110 -234 -241 -234c-86 0 -150 51 -175 84c-1 -24 -3 -49 -7 -73zM326 424c-64 0 -130 -33 -183 -82v-238c18 -23 80 -84 169 -84c112 0 204 80 204 203
c0 121 -86 201 -190 201z" />
    <glyph glyph-name="c" unicode="c" horiz-adv-x="563" 
d="M502 382l-25 -24c-47 44 -110 66 -168 66c-112 0 -202 -80 -202 -201c0 -123 95 -202 207 -202c91 0 151 51 173 76l26 -21c-18 -23 -88 -87 -202 -87c-131 0 -244 92 -244 234c0 140 109 233 242 233c68 0 138 -24 193 -74z" />
    <glyph glyph-name="d" unicode="d" horiz-adv-x="624" 
d="M526 0h-35c-4 24 -6 49 -7 73c-26 -33 -93 -84 -182 -84c-128 0 -234 92 -234 234c0 140 108 233 234 233c64 0 128 -30 179 -80v324h37v-605c0 -30 2 -62 8 -95zM305 424c-107 0 -197 -80 -197 -201c0 -123 88 -203 196 -203c93 0 158 61 177 84v238
c-51 49 -114 82 -176 82z" />
    <glyph glyph-name="e" unicode="e" horiz-adv-x="592" 
d="M492 96l24 -22c-47 -49 -121 -85 -213 -85c-145 0 -236 101 -236 227c0 134 106 240 238 240c103 0 221 -65 224 -209c0 -4 0 -9 -1 -13h-424v-17c0 -109 77 -196 202 -196c80 0 144 31 186 75zM304 425c-98 0 -176 -70 -195 -162h380c-3 109 -100 162 -185 162z" />
    <glyph glyph-name="f" unicode="f" horiz-adv-x="342" 
d="M44 444h97v109c0 116 72 157 137 157c36 0 84 -12 112 -41l-11 -28c-23 25 -64 37 -95 37c-54 0 -107 -34 -107 -125v-109h160v-29h-160v-415h-36v415h-97v29z" />
    <glyph glyph-name="g" unicode="g" horiz-adv-x="625" 
d="M481 -38v109c-54 -52 -119 -82 -186 -82c-123 0 -227 92 -227 232c0 142 110 235 241 235c86 0 150 -53 175 -86c1 25 4 50 14 75h35c-11 -33 -15 -65 -15 -95v-388c0 -104 -75 -189 -219 -189c-101 0 -161 37 -200 81l23 22c35 -40 88 -72 177 -72c120 0 182 71 182 158
zM298 20c64 0 130 33 183 83v238c-19 23 -80 83 -169 83c-112 0 -204 -80 -204 -203c0 -121 86 -201 190 -201z" />
    <glyph glyph-name="h" unicode="h" horiz-adv-x="605" 
d="M142 0h-37v700h37v-327c40 40 107 83 191 83c104 0 174 -65 174 -154v-302h-37v302c0 70 -57 122 -140 122s-148 -47 -188 -85v-339z" />
    <glyph glyph-name="i" unicode="i" horiz-adv-x="247" 
d="M142 0h-37v444h37v-444zM95 642c0 15 12 27 28 27c17 0 29 -12 29 -27s-12 -27 -29 -27c-16 0 -28 12 -28 27z" />
    <glyph glyph-name="j" unicode="j" horiz-adv-x="247" 
d="M-7 -227l-8 29c53 3 120 37 120 139v503h37v-503c0 -124 -83 -168 -149 -168zM95 642c0 15 12 27 28 27c17 0 29 -12 29 -27s-12 -27 -29 -27c-16 0 -28 12 -28 27z" />
    <glyph glyph-name="k" unicode="k" horiz-adv-x="546" 
d="M442 444h50l-184 -152l213 -292h-45l-195 270l-139 -115v-155h-37v700h37v-506z" />
    <glyph glyph-name="l" unicode="l" horiz-adv-x="267" 
d="M152 0h-37v700h37v-700z" />
    <glyph glyph-name="m" unicode="m" horiz-adv-x="886" 
d="M143 0h-36v350c0 30 -5 61 -16 94h35c9 -25 13 -48 14 -73c37 41 95 85 173 85c77 0 123 -42 147 -91c34 44 95 91 175 91c90 0 154 -65 154 -154v-302h-37v302c0 70 -50 122 -121 122c-73 0 -129 -46 -165 -84v-340h-37v339c-13 43 -50 85 -121 85
c-72 0 -129 -46 -165 -84v-340z" />
    <glyph glyph-name="n" unicode="n" horiz-adv-x="606" 
d="M143 0h-36v349c0 31 -5 62 -16 95h35c10 -25 13 -49 14 -74c42 41 108 86 197 86c101 0 172 -65 172 -154v-302h-37v302c0 70 -57 122 -140 122s-148 -46 -189 -84v-340z" />
    <glyph glyph-name="o" unicode="o" horiz-adv-x="617" 
d="M67 223c0 129 108 233 240 233c134 0 242 -104 242 -233c0 -131 -108 -234 -242 -234c-132 0 -240 103 -240 234zM105 223c0 -112 90 -204 202 -204c114 0 205 92 205 204c0 111 -91 202 -205 202c-112 0 -202 -91 -202 -202z" />
    <glyph glyph-name="p" unicode="p" horiz-adv-x="625" 
d="M143 -214h-36v557c0 32 -4 66 -15 101h35c9 -25 13 -49 14 -73c47 48 116 85 189 85c123 0 226 -93 226 -234s-109 -233 -240 -233c-80 0 -142 45 -173 82v-285zM143 341v-238c26 -28 87 -83 170 -83c112 0 204 80 204 202s-87 202 -190 202c-71 0 -137 -38 -184 -83z
" />
    <glyph glyph-name="q" unicode="q" horiz-adv-x="625" 
d="M518 -214h-37v285c-31 -37 -96 -82 -179 -82c-128 0 -234 92 -234 233s107 234 234 234c70 0 137 -37 182 -85c1 24 5 48 14 73h35c-11 -35 -15 -69 -15 -101v-557zM481 103v238c-44 45 -108 83 -176 83c-107 0 -197 -80 -197 -202s88 -202 196 -202c87 0 151 55 177 83z
" />
    <glyph glyph-name="r" unicode="r" horiz-adv-x="386" 
d="M143 0h-36v350c0 30 -5 61 -16 94h35c10 -27 13 -52 14 -81c32 46 81 93 146 93c31 0 62 -11 77 -32l-16 -30c-14 18 -43 27 -67 27c-59 0 -106 -51 -137 -93v-328z" />
    <glyph glyph-name="s" unicode="s" horiz-adv-x="541" 
d="M445 396l-16 -27c-30 24 -95 58 -171 58c-63 0 -141 -25 -141 -94c0 -72 88 -75 160 -79c75 -3 204 -10 204 -123c0 -98 -96 -144 -210 -144c-104 0 -168 39 -211 72l16 27c43 -31 102 -68 195 -68c94 0 174 35 174 110c0 83 -104 89 -168 92c-92 5 -197 10 -197 109
c0 97 98 128 177 128c85 0 157 -36 188 -61z" />
    <glyph glyph-name="t" unicode="t" horiz-adv-x="382" 
d="M34 415v29h98v140h36v-140h167v-29h-167v-307c0 -65 43 -89 81 -89c34 0 74 14 94 29l8 -27c-22 -18 -67 -34 -107 -34c-50 0 -112 30 -112 121v307h-98z" />
    <glyph glyph-name="u" unicode="u" horiz-adv-x="605" 
d="M463 444h36v-349c0 -30 2 -62 8 -95h-34c-5 24 -7 50 -7 74c-42 -41 -108 -85 -197 -85c-101 0 -172 64 -172 153v302h37v-302c0 -69 57 -122 140 -122s148 46 189 85v339z" />
    <glyph glyph-name="v" unicode="v" horiz-adv-x="520" 
d="M439 444h38l-197 -444h-40l-196 444h40l174 -398h6z" />
    <glyph glyph-name="w" unicode="w" horiz-adv-x="764" 
d="M673 444h40l-149 -444h-46l-134 396h-4l-135 -396h-46l-149 444h41l129 -400h5l136 400h44l135 -400h5z" />
    <glyph glyph-name="x" unicode="x" horiz-adv-x="520" 
d="M422 444h45l-185 -216l196 -228h-46l-172 204l-172 -204h-46l196 228l-185 216h46l161 -193z" />
    <glyph glyph-name="y" unicode="y" horiz-adv-x="541" 
d="M461 444h37l-326 -658h-37l107 214l-198 444h40l177 -404h2z" />
    <glyph glyph-name="z" unicode="z" horiz-adv-x="513" 
d="M456 29v-29h-411v24l351 391h-314v29h363v-23l-351 -392h362z" />
    <glyph glyph-name="ampersand" unicode="&#x26;" horiz-adv-x="824" 
d="M611 582l-20 -29c-32 18 -80 38 -146 38c-81 0 -160 -34 -160 -99c0 -56 66 -105 101 -137l243 -216c39 33 79 76 119 129l32 -16c-42 -56 -85 -100 -126 -136l131 -116h-53l-106 93c-103 -79 -199 -104 -268 -104c-91 0 -231 44 -231 183c0 122 103 170 189 197
c-38 36 -70 73 -70 122c0 88 99 135 199 135c74 0 128 -25 166 -44zM356 333l-12 11c-71 -22 -178 -58 -178 -170c0 -117 120 -151 194 -151c61 0 148 23 240 93z" />
    <glyph glyph-name="zero" unicode="0" horiz-adv-x="716" 
d="M72 265c0 154 130 278 285 278s287 -124 287 -278c0 -155 -132 -278 -287 -278s-285 123 -285 278zM111 265c0 -135 111 -244 246 -244s248 109 248 244c0 134 -113 244 -248 244s-246 -110 -246 -244z" />
    <glyph glyph-name="one" unicode="1" horiz-adv-x="365" 
d="M30 423l-9 32l173 75h39v-530h-39v495z" />
    <glyph glyph-name="one.alt" horiz-adv-x="303" 
d="M171 0h-39v530h39v-530z" />
    <glyph glyph-name="two" unicode="2" horiz-adv-x="585" 
d="M110 431l-22 26c57 43 117 85 218 85c104 0 209 -45 209 -142c0 -111 -131 -137 -215 -162c-102 -29 -194 -77 -194 -190v-17h403v-31h-441v45c0 136 115 196 229 228c63 17 179 39 179 126c0 75 -86 109 -170 109c-89 0 -144 -37 -196 -77z" />
    <glyph glyph-name="three" unicode="3" horiz-adv-x="669" 
d="M310 267v31h96c33 0 107 31 107 99c0 79 -97 111 -169 111c-85 0 -160 -44 -214 -91l-24 24c57 50 138 101 238 101c89 0 208 -39 208 -140c0 -63 -49 -101 -88 -113c50 -9 135 -41 135 -131c0 -108 -121 -171 -274 -171c-109 0 -198 34 -272 102l24 27
c58 -53 135 -94 249 -94c131 0 234 51 234 138c0 86 -105 107 -143 107h-107z" />
    <glyph glyph-name="four" unicode="4" horiz-adv-x="658" 
d="M613 167v-31h-111v-136h-39v136h-427v32l422 362h44v-363h111zM91 170v-3h372v316h-9c-119 -101 -244 -211 -363 -313z" />
    <glyph glyph-name="five" unicode="5" horiz-adv-x="634" 
d="M519 530v-34h-377v-195c50 26 102 49 188 49c119 0 235 -47 235 -172c0 -136 -132 -191 -258 -191c-125 0 -204 53 -245 85l22 27c37 -30 109 -77 223 -77c107 0 219 45 219 156c0 102 -96 139 -197 139c-86 0 -145 -24 -197 -51l-26 20v244h413z" />
    <glyph glyph-name="six" unicode="6" horiz-adv-x="649" 
d="M545 488l-22 -27c-41 30 -99 47 -165 47c-128 0 -248 -93 -248 -251c47 33 139 86 254 86c152 0 221 -93 221 -169c0 -99 -100 -186 -237 -186c-143 0 -274 92 -274 267c0 181 137 287 285 287c103 0 160 -36 186 -54zM360 311c-111 0 -205 -56 -249 -85
c14 -134 120 -204 237 -204c115 0 199 75 199 153c0 60 -56 136 -187 136z" />
    <glyph glyph-name="seven" unicode="7" horiz-adv-x="582" 
d="M60 496v34h461v-34l-311 -496h-50l317 496h-417z" />
    <glyph glyph-name="eight" unicode="8" horiz-adv-x="651" 
d="M325 -13c-122 0 -255 60 -255 165c0 85 85 132 172 145c-83 11 -130 49 -130 111c0 92 118 135 213 135c96 0 213 -43 213 -135c0 -62 -46 -100 -130 -111c89 -13 174 -60 174 -145c0 -105 -134 -165 -257 -165zM325 21c101 0 215 48 215 134c0 87 -117 126 -215 126
c-96 0 -214 -39 -214 -126c0 -86 114 -134 214 -134zM325 311c109 0 172 34 172 94c0 73 -95 107 -172 107c-76 0 -171 -34 -171 -107c0 -60 63 -94 171 -94z" />
    <glyph glyph-name="nine" unicode="9" horiz-adv-x="646" 
d="M101 42l21 27c41 -30 99 -47 165 -47c128 0 247 92 248 250c-48 -33 -140 -85 -253 -85c-152 0 -222 93 -222 169c0 99 101 186 238 186c142 0 273 -92 273 -267c0 -181 -136 -287 -284 -287c-103 0 -161 36 -186 54zM285 219c110 0 204 55 248 84
c-13 134 -119 205 -235 205c-115 0 -199 -75 -199 -153c0 -60 56 -136 186 -136z" />
    <glyph glyph-name="period" unicode="." horiz-adv-x="271" 
d="M97 29c0 20 16 36 38 36c23 0 40 -16 40 -36c0 -19 -17 -35 -40 -35c-22 0 -38 16 -38 35z" />
    <glyph glyph-name="comma" unicode="," horiz-adv-x="301" 
d="M103 -166l-11 23c37 13 99 47 99 106c0 27 -13 47 -33 52c-8 -2 -15 -4 -22 -4c-18 0 -32 11 -32 27c0 15 14 27 32 27c46 0 85 -38 85 -93c0 -84 -68 -120 -118 -138z" />
    <glyph glyph-name="colon" unicode=":" horiz-adv-x="330" 
d="M126 29c0 20 16 36 39 36c22 0 39 -16 39 -36c0 -19 -17 -35 -39 -35c-23 0 -39 16 -39 35zM126 315c0 20 16 36 39 36c22 0 39 -16 39 -36c0 -19 -17 -35 -39 -35c-23 0 -39 16 -39 35z" />
    <glyph glyph-name="semicolon" unicode=";" horiz-adv-x="343" 
d="M126 -166l-11 23c37 13 99 47 99 106c0 27 -13 47 -33 52c-8 -2 -15 -4 -22 -4c-17 0 -32 11 -32 27c0 15 15 27 32 27c46 0 85 -38 85 -93c0 -84 -68 -120 -118 -138zM127 315c0 20 17 36 39 36s39 -16 39 -36c0 -19 -17 -35 -39 -35s-39 16 -39 35z" />
    <glyph glyph-name="exclam" unicode="!" horiz-adv-x="279" 
d="M99 29c0 20 17 36 39 36c23 0 39 -16 39 -36c0 -19 -16 -35 -39 -35c-22 0 -39 16 -39 35zM153 187h-28l-7 308v158h42v-158z" />
    <glyph glyph-name="question" unicode="?" horiz-adv-x="606" 
d="M78 536l-25 23c60 58 131 106 264 106c112 0 221 -35 221 -153c0 -68 -40 -101 -93 -136c-79 -55 -157 -95 -176 -189h-36c18 110 104 153 186 211c49 32 83 56 83 113c0 93 -92 122 -186 122c-117 0 -183 -44 -238 -97zM220 29c0 20 16 36 39 36c22 0 39 -16 39 -36
c0 -19 -17 -35 -39 -35c-23 0 -39 16 -39 35z" />
    <glyph glyph-name="exclamdown" unicode="&#xa1;" horiz-adv-x="261" 
d="M150 420c0 -20 -17 -36 -39 -36c-23 0 -39 16 -39 36c0 19 16 35 39 35c22 0 39 -16 39 -35zM96 262h28l7 -308v-158h-42v158z" />
    <glyph glyph-name="questiondown" unicode="&#xbf;" horiz-adv-x="607" 
d="M529 -87l25 -23c-60 -58 -131 -106 -264 -106c-112 0 -221 35 -221 153c0 68 40 101 93 136c79 55 157 95 176 189h36c-18 -110 -104 -153 -186 -211c-49 -32 -83 -56 -83 -113c0 -93 92 -122 186 -122c117 0 183 44 238 97zM387 420c0 -20 -16 -36 -39 -36
c-22 0 -39 16 -39 36c0 19 17 35 39 35c23 0 39 -16 39 -35z" />
    <glyph glyph-name="quotesingle" unicode="'" horiz-adv-x="199" 
d="M112 450h-25l-7 125v78h39v-78z" />
    <glyph glyph-name="quotedbl" unicode="&#x22;" horiz-adv-x="366" 
d="M112 450h-25l-7 125v78h39v-78zM280 450h-26l-7 125v78h39v-78z" />
    <glyph glyph-name="quoteleft" unicode="&#x2018;" horiz-adv-x="250" 
d="M177 676l11 -23c-37 -13 -94 -45 -94 -104c0 -23 13 -39 33 -44c8 2 15 4 22 4c16 0 30 -10 30 -26c0 -15 -13 -26 -30 -26c-46 0 -84 35 -84 84c0 82 63 117 112 135z" />
    <glyph glyph-name="quoteright" unicode="&#x2019;" horiz-adv-x="253" 
d="M81 447l-11 23c37 12 93 44 93 103c0 23 -13 40 -32 45c-8 -2 -15 -4 -22 -4c-17 0 -31 10 -31 25s13 27 31 27c45 0 83 -35 83 -85c0 -81 -62 -116 -111 -134z" />
    <glyph glyph-name="quotedblleft" unicode="&#x201c;" horiz-adv-x="445" 
d="M372 676l11 -23c-38 -13 -94 -45 -94 -104c0 -23 13 -39 33 -44c8 2 15 4 22 4c16 0 30 -10 30 -26c0 -15 -13 -26 -30 -26c-46 0 -84 35 -84 84c0 82 63 117 112 135zM177 676l11 -23c-37 -13 -94 -45 -94 -104c0 -23 13 -39 33 -44c8 2 15 4 22 4c16 0 30 -10 30 -26
c0 -15 -13 -26 -30 -26c-46 0 -84 35 -84 84c0 82 63 117 112 135z" />
    <glyph glyph-name="quotedblright" unicode="&#x201d;" horiz-adv-x="447" 
d="M81 447l-11 23c37 12 93 44 93 103c0 23 -13 40 -32 45c-8 -2 -15 -4 -22 -4c-17 0 -31 10 -31 25s13 27 31 27c45 0 83 -35 83 -85c0 -81 -62 -116 -111 -134zM276 447l-11 23c37 12 93 44 93 103c0 23 -13 40 -33 45c-8 -2 -14 -4 -21 -4c-17 0 -31 10 -31 25
s13 27 31 27c45 0 83 -35 83 -85c0 -81 -62 -116 -111 -134z" />
    <glyph glyph-name="quotesinglbase" unicode="&#x201a;" horiz-adv-x="301" 
d="M107 -154l-11 23c37 13 93 45 93 104c0 23 -13 39 -32 44c-8 -2 -15 -4 -22 -4c-17 0 -31 10 -31 25c0 16 13 27 31 27c45 0 83 -35 83 -84c0 -82 -62 -117 -111 -135z" />
    <glyph glyph-name="quotedblbase" unicode="&#x201e;" horiz-adv-x="495" 
d="M107 -154l-11 23c37 13 93 45 93 104c0 23 -13 39 -32 44c-8 -2 -15 -4 -22 -4c-17 0 -31 10 -31 25c0 16 13 27 31 27c45 0 83 -35 83 -84c0 -82 -62 -117 -111 -135zM302 -154l-11 23c37 13 93 45 93 104c0 23 -13 39 -33 44c-8 -2 -14 -4 -21 -4c-17 0 -31 10 -31 25
c0 16 13 27 31 27c45 0 83 -35 83 -84c0 -82 -63 -117 -111 -135z" />
    <glyph glyph-name="guilsinglleft" unicode="&#x2039;" horiz-adv-x="305" 
d="M176 373h44l-121 -130v-8l121 -130h-44l-114 122v23z" />
    <glyph glyph-name="guilsinglright" unicode="&#x203a;" horiz-adv-x="305" 
d="M86 373h43l114 -123v-23l-114 -122h-43l121 130v8z" />
    <glyph glyph-name="guillemotleft" unicode="&#xab;" horiz-adv-x="497" 
d="M176 373h44l-121 -130v-8l121 -130h-44l-114 122v23zM368 373h44l-121 -130v-8l121 -130h-44l-118 128v11z" />
    <glyph glyph-name="guillemotright" unicode="&#xbb;" horiz-adv-x="497" 
d="M278 373h43l114 -123v-23l-114 -122h-43l121 130v8zM86 373h43l119 -129v-11l-119 -128h-43l121 130v8z" />
    <glyph glyph-name="hyphen" unicode="-" horiz-adv-x="406" 
d="M74 230v35h257v-35h-257z" />
    <glyph glyph-name="endash" unicode="&#x2013;" horiz-adv-x="643" 
d="M75 233v32h494v-32h-494z" />
    <glyph glyph-name="emdash" unicode="&#x2014;" horiz-adv-x="1123" 
d="M75 233v32h974v-32h-974z" />
    <glyph glyph-name="underscore" unicode="_" horiz-adv-x="600" 
d="M-6 -127v27h612v-27h-612z" />
    <glyph glyph-name="ellipsis" unicode="&#x2026;" horiz-adv-x="1000" 
d="M144 29c0 20 16 36 38 36c23 0 39 -16 39 -36c0 -19 -16 -35 -39 -35c-22 0 -38 16 -38 35zM461 29c0 20 16 36 39 36c22 0 39 -16 39 -36c0 -19 -17 -35 -39 -35c-23 0 -39 16 -39 35zM778 29c0 20 17 36 39 36s39 -16 39 -36c0 -19 -17 -35 -39 -35s-39 16 -39 35z" />
    <glyph glyph-name="parenleft" unicode="(" horiz-adv-x="356" 
d="M328 -142l-19 -26c-160 77 -246 258 -246 432c0 173 86 356 246 433l19 -26c-145 -70 -226 -245 -226 -407c0 -163 81 -336 226 -406z" />
    <glyph glyph-name="parenright" unicode=")" horiz-adv-x="356" 
d="M28 671l19 26c160 -77 246 -260 246 -433c0 -174 -86 -355 -246 -432l-19 26c145 70 226 243 226 406c0 162 -81 337 -226 407z" />
    <glyph glyph-name="bracketleft" unicode="[" horiz-adv-x="329" 
d="M289 -122v-32h-180v843h180v-32h-143v-779h143z" />
    <glyph glyph-name="bracketright" unicode="]" horiz-adv-x="329" 
d="M40 689h179v-843h-179v32h143v779h-143v32z" />
    <glyph glyph-name="braceleft" unicode="{" horiz-adv-x="365" 
d="M329 -122v-32c-138 0 -177 26 -177 162v127c0 97 -59 119 -122 119v44c63 0 123 48 123 124v103c2 137 41 165 176 165v-32c-106 0 -137 -22 -139 -133v-103c0 -84 -61 -138 -124 -142v-8c64 -1 123 -29 123 -137v-127c0 -110 31 -130 140 -130z" />
    <glyph glyph-name="braceright" unicode="}" horiz-adv-x="365" 
d="M36 -154v32c107 0 140 20 140 130v127c0 107 59 135 123 137v8c-64 4 -124 58 -124 142v103c-2 111 -34 133 -139 133v32c135 0 173 -28 175 -165v-103c0 -76 61 -124 124 -124v-44c-63 0 -123 -22 -123 -119v-127c0 -136 -38 -162 -176 -162z" />
    <glyph glyph-name="backslash" unicode="\" horiz-adv-x="488" 
d="M408 -119l-343 772h36l343 -772h-36z" />
    <glyph glyph-name="slash" unicode="/" horiz-adv-x="485" 
d="M431 653l-343 -772h-36l343 772h36z" />
    <glyph glyph-name="asterisk" unicode="*" horiz-adv-x="564" 
d="M67 534l10 27l188 -58l2 197h30l3 -197l187 58l9 -27l-187 -63l114 -161l-24 -17l-117 158l-118 -158l-24 17l114 161z" />
    <glyph glyph-name="bullet" unicode="&#x2022;" horiz-adv-x="445" 
d="M222 152c-83 0 -151 64 -151 143s68 143 151 143s152 -64 152 -143s-69 -143 -152 -143z" />
    <glyph glyph-name="at" unicode="@" horiz-adv-x="997" 
d="M677 472h35l-98 -297c-3 -8 -4 -14 -4 -21c0 -40 28 -63 71 -63c92 0 226 105 226 265c0 164 -142 290 -357 290c-239 0 -453 -157 -453 -397c0 -243 220 -358 402 -358c98 0 220 33 273 61l11 -24c-54 -29 -180 -66 -285 -66c-196 0 -435 125 -435 387
c0 258 231 426 487 426c234 0 388 -139 388 -317c0 -180 -154 -296 -263 -296c-57 0 -95 30 -95 78v8c-47 -56 -103 -85 -159 -85c-72 0 -141 48 -141 155c0 154 142 268 247 268c68 0 112 -47 122 -99zM428 95c51 0 103 28 153 85l56 169c-9 53 -47 105 -110 105
c-87 0 -210 -96 -210 -233c0 -87 52 -126 111 -126z" />
    <glyph glyph-name="copyright" unicode="&#xa9;" horiz-adv-x="1003" 
d="M501 -130c-241 0 -440 179 -440 402c0 224 199 403 440 403c242 0 441 -179 441 -403c0 -223 -199 -402 -441 -402zM501 -104c226 0 410 168 410 376s-184 376 -410 376c-224 0 -409 -168 -409 -376s185 -376 409 -376zM710 416l-16 -24c-48 40 -114 67 -180 67
c-128 0 -212 -83 -212 -186c0 -105 97 -174 215 -174c89 0 136 29 182 64l16 -25c-49 -38 -99 -68 -198 -68c-136 0 -249 80 -249 203c0 120 97 215 246 215c72 0 145 -31 196 -72z" />
    <glyph glyph-name="soundrecordingcopyright" unicode="&#x2117;" horiz-adv-x="1003" 
d="M942 273c0 -224 -199 -403 -441 -403s-440 179 -440 403c0 223 198 402 440 402s441 -179 441 -402zM911 273c0 208 -185 375 -410 375s-409 -168 -409 -375c0 -208 184 -377 409 -377s410 169 410 377zM577 216h-203v-127h-33v384h204c75 0 187 -19 187 -125
c0 -90 -80 -132 -155 -132zM374 444v-199h203c57 0 121 31 121 103c0 81 -86 96 -146 96h-178z" />
    <glyph glyph-name="trademark" unicode="&#x2122;" horiz-adv-x="849" 
d="M752 326h-29v279h-3l-129 -216h-9l-129 216h-2v-279h-28v327h33l131 -220h1l131 220h33v-327zM56 629v24h269v-24h-120v-303h-29v303h-120z" />
    <glyph glyph-name="servicemark" unicode="&#x2120;" horiz-adv-x="905" 
d="M358 613l-17 -20c-21 19 -64 43 -124 43c-46 0 -99 -18 -99 -67s61 -51 117 -54c57 -4 148 -9 148 -92c0 -73 -69 -104 -148 -104c-80 0 -130 34 -163 66l17 19c28 -28 74 -61 146 -61c65 0 120 25 120 76c0 58 -65 65 -120 68c-68 4 -145 9 -145 80s71 93 128 93
c65 0 116 -27 140 -47zM819 326h-29v279h-3l-128 -216h-9l-130 216h-2v-279h-27v327h33l131 -220h1l131 220h32v-327z" />
    <glyph glyph-name="registered" unicode="&#xae;" horiz-adv-x="643" 
d="M320 208c-142 0 -251 101 -251 230c0 125 109 230 251 230c141 0 253 -105 253 -230c0 -129 -112 -230 -253 -230zM237 327h-24v235h152c46 0 82 -28 82 -66c0 -32 -24 -59 -64 -64l66 -105h-27l-64 102h-121v-102zM365 542h-128v-92h130c35 0 57 21 57 46
c0 26 -26 46 -59 46zM320 226c129 0 233 94 233 212c0 115 -104 212 -233 212c-130 0 -230 -97 -230 -212c0 -118 100 -212 230 -212z" />
    <glyph glyph-name="paragraph" unicode="&#xb6;" horiz-adv-x="828" 
d="M544 -206h-34v479h-231c-105 0 -227 53 -227 194c0 149 127 186 264 186h395v-859h-34v827h-133v-827zM316 621c-119 0 -228 -30 -228 -154c0 -117 104 -163 191 -163h231v317h-194z" />
    <glyph glyph-name="dagger" unicode="&#x2020;" horiz-adv-x="509" 
d="M454 513v-30h-183v-403h-33v403h-183v30h183v187h33v-187h183z" />
    <glyph glyph-name="daggerdbl" unicode="&#x2021;" horiz-adv-x="541" 
d="M254 80v192h-183v29h183v182h-183v30h183v187h33v-187h183v-30h-183v-182h183v-29h-183v-192h-33z" />
    <glyph glyph-name="litre" unicode="&#x2113;" 
d="M68 115l-11 26l88 57v230c0 166 69 200 138 200c91 0 145 -62 145 -152c0 -88 -62 -170 -175 -242l-72 -47v-69c0 -81 52 -98 101 -98c48 0 83 16 111 29l9 -29c-36 -18 -70 -31 -121 -31c-66 0 -136 24 -136 129v46zM181 428v-207l66 43c92 61 145 138 145 209
c0 74 -41 124 -109 124c-51 0 -102 -27 -102 -169z" />
    <glyph glyph-name="estimated" unicode="&#x212e;" horiz-adv-x="812" 
d="M184 453v-144c0 -3 4 -6 6 -6h441c3 0 8 1 8 6v144c0 6 -2 13 -6 21c-46 63 -126 98 -220 98c-75 0 -182 -40 -222 -98c-5 -8 -7 -15 -7 -21zM691 114c-71 -91 -176 -132 -278 -132c-170 0 -342 127 -340 308c0 186 171 305 340 305c180 0 338 -119 338 -314h-561
c-2 0 -6 -4 -6 -8v-142c0 -11 0 -19 7 -28c65 -67 140 -98 222 -98c91 0 172 37 234 109h44z" />
    <glyph glyph-name="degree" unicode="&#xb0;" horiz-adv-x="506" 
d="M251 292c-122 0 -187 78 -187 167c0 92 65 169 187 169c121 0 192 -77 192 -169c0 -89 -71 -167 -192 -167zM251 321c99 0 159 65 159 138c0 76 -60 141 -159 141c-100 0 -154 -65 -154 -141c0 -73 54 -138 154 -138z" />
    <glyph glyph-name="dollar" unicode="$" horiz-adv-x="660" 
d="M317 634h29v-95c98 -7 172 -46 212 -77l-23 -25c-34 29 -100 63 -189 70v-206c98 -5 252 -18 252 -146c0 -112 -117 -164 -252 -166v-119h-29v120c-126 5 -205 56 -260 105l23 25c49 -44 121 -93 237 -99v246c-113 6 -229 20 -229 126c0 112 124 148 223 148h6v93z
M561 151c0 98 -120 109 -215 114v-244c115 2 215 43 215 130zM126 395c0 -79 105 -88 191 -92v206h-7c-84 0 -184 -29 -184 -114z" />
    <glyph glyph-name="cent" unicode="&#xa2;" horiz-adv-x="542" 
d="M328 489h29l-22 -97c47 -8 92 -27 129 -59l-23 -24c-33 27 -73 45 -113 52l-75 -338c10 -1 22 -2 33 -2c83 0 138 44 160 66l26 -22c-16 -19 -81 -76 -186 -76c-14 0 -27 1 -40 3l-27 -122h-28l28 128c-91 23 -160 96 -160 196c0 122 100 203 222 203c9 0 18 -1 26 -1z
M98 194c0 -83 54 -143 128 -165l74 336c-6 0 -13 1 -19 1c-101 0 -183 -68 -183 -172z" />
    <glyph glyph-name="Euro" unicode="&#x20ac;" horiz-adv-x="774" 
d="M65 317v25h89c36 115 151 200 287 200c95 0 182 -33 242 -85l-24 -27c-55 47 -133 77 -218 77c-114 0 -211 -70 -246 -165h323v-25h-331c-4 -17 -6 -34 -6 -52c0 -14 1 -29 4 -42h333v-26h-326c32 -100 131 -174 249 -174c87 0 168 33 226 85l24 -27
c-65 -57 -153 -93 -250 -93c-140 0 -257 90 -290 209h-86v26h80c-2 13 -3 28 -3 42c0 17 2 35 5 52h-82z" />
    <glyph glyph-name="sterling" unicode="&#xa3;" horiz-adv-x="712" 
d="M68 270v29h147v89c0 106 102 154 202 154c55 0 141 -26 209 -64l-19 -27c-63 33 -140 56 -190 56c-81 0 -164 -36 -164 -119v-89h267v-29h-267v-117c0 -75 -19 -109 -68 -122h440v-31h-557v31h36c82 0 111 21 111 122v117h-147z" />
    <glyph glyph-name="yen" unicode="&#xa5;" horiz-adv-x="717" 
d="M77 317v25h187l-160 188h49l207 -241l207 241h46l-161 -188h188v-25h-209l-53 -62v-32h262v-26h-262v-197h-39v197h-262v26h262v32l-53 62h-209z" />
    <glyph glyph-name="florin" unicode="&#x192;" horiz-adv-x="476" 
d="M60 299h102l24 108c23 100 103 135 161 135c41 0 83 -18 99 -34l-16 -29c-13 16 -49 31 -84 31c-47 0 -106 -28 -122 -103l-24 -108h129v-29h-136l-60 -270c-24 -108 -107 -146 -170 -146v28c48 3 114 31 133 118l59 270h-95v29z" />
    <glyph glyph-name="colonmonetary" unicode="&#x20a1;" horiz-adv-x="699" 
d="M500 634h25l-25 -112c49 -16 92 -40 127 -71l-24 -22c-31 26 -69 47 -110 61l-104 -469c87 3 166 42 223 95l25 -23c-64 -58 -155 -102 -255 -104l-26 -119h-25l26 120c-37 2 -72 9 -104 20l-31 -140h-25l32 149c-103 46 -171 139 -171 246c0 144 123 262 286 275l21 94
h27l-21 -93h2c36 0 71 -5 103 -13zM97 265c0 -91 55 -170 140 -212l100 454c-137 -16 -240 -119 -240 -242zM260 42c32 -12 67 -20 104 -21l105 476c-30 8 -63 12 -96 12h-9z" />
    <glyph glyph-name="franc" unicode="&#x20a3;" horiz-adv-x="667" 
d="M63 145v26h94v359h438v-34h-399v-174h251v-34h-251v-117h162v-26h-162v-145h-39v145h-94z" />
    <glyph glyph-name="lira" unicode="&#x20a4;" horiz-adv-x="715" 
d="M74 317v25h147v46c0 106 102 154 202 154c55 0 141 -26 209 -64l-19 -27c-63 33 -140 56 -190 56c-80 0 -164 -36 -164 -119v-46h267v-25h-267v-94h267v-26h-267v-44c0 -75 -18 -109 -68 -122h440v-31h-557v31h36c82 0 111 21 111 122v44h-147v26h147v94h-147z" />
    <glyph glyph-name="peso" unicode="&#x20b1;" horiz-adv-x="778" 
d="M60 355v26h95v149h286c78 0 116 -19 151 -51c24 -27 39 -60 42 -98h89v-26h-89c-2 -41 -19 -75 -44 -101c-36 -33 -71 -51 -148 -51h-248v-203h-39v355h-95zM562 278c20 20 31 45 34 77h-402v-117h247c68 0 93 15 121 40zM441 496h-247v-115h402c-2 25 -11 50 -29 72
c-29 27 -56 43 -126 43z" />
    <glyph glyph-name="peseta" unicode="&#x20a7;" horiz-adv-x="1440" 
d="M129 0h-39v530h292c76 0 116 -17 152 -51c10 -11 19 -23 26 -35h100v140h37v-140h167v-29h-167v-307c0 -65 42 -89 81 -89c34 0 73 14 93 29l9 -27c-22 -18 -67 -34 -107 -34c-51 0 -113 30 -113 121v307h-89c2 -11 4 -22 4 -33c0 -38 -16 -71 -42 -96
c-36 -33 -74 -51 -151 -51h-253v-235zM382 496h-253v-227h252c67 0 95 14 124 40c20 20 31 46 31 73s-10 52 -28 71c-30 30 -63 43 -126 43zM1339 396l-16 -27c-30 24 -95 58 -171 58c-63 0 -141 -25 -141 -94c0 -72 89 -75 160 -79c76 -3 205 -10 205 -123
c0 -98 -97 -144 -210 -144c-105 0 -168 39 -212 72l17 27c42 -31 101 -68 194 -68c94 0 174 35 174 110c0 83 -104 89 -168 92c-91 5 -197 10 -197 109c0 97 99 128 177 128c86 0 157 -36 188 -61z" />
    <glyph glyph-name="rupiah" unicode="&#xf6dd;" horiz-adv-x="1257" 
d="M792 -214h-37v557c0 32 -4 67 -15 102h35c9 -26 13 -50 14 -74c47 48 116 85 189 85c123 0 227 -93 227 -234s-110 -233 -241 -233c-80 0 -142 45 -172 82v-285zM792 341v-238c25 -28 86 -83 169 -83c112 0 204 80 204 202s-86 202 -190 202c-70 0 -137 -38 -183 -83z
M132 0h-39v530h308c79 0 120 -20 154 -52c25 -26 40 -59 40 -95c0 -75 -54 -135 -144 -143l145 -240h-43l-142 235h-279v-235zM401 496h-269v-226h293c81 0 131 50 131 112c0 28 -11 53 -30 73c-30 27 -58 41 -125 41z" />
    <glyph glyph-name="Rupee" unicode="&#x20b9;" horiz-adv-x="711" 
d="M108 355v26h399c-2 29 -13 54 -29 72c-22 25 -59 43 -117 43h-253v34h556v-26h-214c59 -19 92 -65 96 -123h118v-26h-117c-2 -42 -18 -75 -45 -102c-34 -33 -76 -47 -148 -47l-174 2l322 -208h-70l-324 212v26h244c61 0 96 11 123 39c20 21 31 46 33 78h-400z" />
    <glyph glyph-name="section" unicode="&#xa7;" horiz-adv-x="688" 
d="M583 89c-26 -24 -63 -41 -97 -50c12 -5 24 -13 32 -21c10 -11 17 -28 17 -49c0 -85 -108 -114 -190 -114c-73 0 -145 21 -198 57l19 27c48 -32 113 -53 179 -53c61 0 151 18 151 83c0 16 -5 27 -14 36c-28 26 -92 29 -165 36c-85 10 -164 27 -213 71
c-30 26 -43 59 -43 96c0 40 17 72 42 97c23 23 61 43 97 54c-12 5 -21 10 -28 17c-12 13 -19 30 -19 51c0 87 108 116 190 116c72 0 144 -22 197 -58l-18 -27c-48 33 -114 54 -179 54c-61 0 -151 -19 -151 -84c0 -16 5 -28 16 -37c29 -25 92 -28 161 -36
c87 -9 168 -25 217 -72c25 -23 41 -55 41 -94c0 -41 -17 -75 -44 -100zM368 322c-47 5 -103 9 -141 21c-32 -9 -69 -26 -91 -47s-36 -50 -36 -84c0 -30 10 -56 35 -78c39 -36 108 -51 184 -59c52 -5 102 -9 139 -21c30 8 66 21 91 45c24 22 39 50 39 86c0 32 -12 56 -33 76
c-39 37 -110 53 -187 61z" />
    <glyph glyph-name="numbersign" unicode="#" horiz-adv-x="858" 
d="M591 576h31l-34 -181h207v-29h-212l-40 -220h200v-29h-206l-37 -207h-31l38 207h-211l-37 -207h-32l38 207h-205v29h210l40 220h-196v29h202l33 181h32l-34 -181h211zM342 366l-40 -220h210l40 220h-210z" />
    <glyph glyph-name="percent" unicode="%" horiz-adv-x="994" 
d="M61 412c0 89 81 163 182 163s184 -74 184 -163c0 -90 -83 -163 -184 -163s-182 73 -182 163zM682 565l-335 -565h-32l335 565h32zM96 412c0 -73 65 -133 147 -133s151 60 151 133s-69 132 -151 132s-147 -59 -147 -132zM570 153c0 88 81 163 182 163
c100 0 184 -75 184 -163c0 -90 -84 -164 -184 -164c-101 0 -182 74 -182 164zM604 153c0 -73 66 -133 148 -133c81 0 150 60 150 133c0 72 -69 132 -150 132c-82 0 -148 -60 -148 -132z" />
    <glyph glyph-name="perthousand" unicode="&#x2030;" horiz-adv-x="1411" 
d="M62 412c0 89 80 163 182 163c101 0 184 -74 184 -163c0 -90 -83 -163 -184 -163c-102 0 -182 73 -182 163zM683 565l-335 -565h-32l334 565h33zM97 412c0 -73 65 -133 147 -133c81 0 150 60 150 133s-69 132 -150 132c-82 0 -147 -59 -147 -132zM570 153
c0 88 81 163 182 163s185 -75 185 -163c0 -90 -84 -164 -185 -164s-182 74 -182 164zM605 153c0 -73 65 -133 147 -133s150 60 150 133c0 72 -68 132 -150 132s-147 -60 -147 -132zM987 153c0 88 81 163 182 163s185 -75 185 -163c0 -90 -84 -164 -185 -164
s-182 74 -182 164zM1022 153c0 -73 66 -133 147 -133c82 0 151 60 151 133c0 72 -69 132 -151 132c-81 0 -147 -60 -147 -132z" />
    <glyph glyph-name="currency" unicode="&#xa4;" horiz-adv-x="735" 
d="M92 258c0 65 25 126 65 172l-78 73l26 25l77 -72c49 43 113 71 184 71s137 -28 186 -72l79 73l25 -25l-79 -74c41 -46 66 -106 66 -171c0 -66 -25 -125 -66 -172l79 -73l-25 -25l-79 72c-49 -44 -115 -71 -186 -71s-136 27 -184 71l-77 -72l-26 25l78 73
c-40 46 -65 106 -65 172zM131 258c0 -129 107 -234 235 -234c130 0 238 105 238 234c0 128 -108 234 -238 234c-128 0 -235 -106 -235 -234z" />
    <glyph glyph-name="dollar.superior" horiz-adv-x="495" 
d="M237 738h25v-77c76 -7 136 -38 167 -63l-21 -23c-27 23 -77 50 -146 56v-163c76 -4 196 -16 196 -121c0 -92 -91 -135 -196 -136v-97h-25v97c-98 5 -160 47 -203 86l21 23c37 -35 93 -75 182 -80v197c-88 5 -178 17 -178 104c0 92 96 121 174 121h4v76zM425 344
c0 77 -89 86 -163 91v-195c88 1 163 33 163 104zM92 543c0 -63 80 -71 145 -74v164h-5c-64 0 -140 -22 -140 -90z" />
    <glyph glyph-name="cent.superior" horiz-adv-x="406" 
d="M248 621h25l-17 -79c37 -7 73 -23 102 -48l-22 -22c-25 21 -55 35 -86 42l-58 -273c8 -1 16 -1 24 -1c63 0 105 35 124 53l23 -19c-13 -17 -64 -62 -147 -62c-10 0 -20 0 -30 2l-21 -100h-25l22 105c-71 19 -125 78 -125 161c0 101 78 166 174 166c7 0 14 -1 21 -1z
M72 380c0 -67 41 -116 96 -133l58 270c-5 1 -10 1 -15 1c-76 0 -139 -55 -139 -138z" />
    <glyph glyph-name="Euro.superior" horiz-adv-x="574" 
d="M38 478v23h69c29 93 119 161 224 161c74 0 142 -26 189 -69l-21 -24c-42 39 -103 63 -168 63c-86 0 -160 -55 -187 -131h247v-23h-254c-3 -14 -4 -27 -4 -41c0 -12 1 -23 3 -34h255v-23h-249c25 -80 100 -139 189 -139c67 0 129 27 174 69l22 -24
c-51 -46 -120 -75 -196 -75c-108 0 -199 72 -226 169h-67v23h62c-2 11 -2 22 -2 34c0 14 1 27 4 41h-64z" />
    <glyph glyph-name="sterling.superior" horiz-adv-x="527" 
d="M43 439v27h112v71c0 87 81 125 160 125c43 0 110 -20 164 -51l-17 -25c-49 27 -109 46 -147 46c-61 0 -125 -29 -125 -95v-71h206v-27h-206v-93c0 -60 -14 -87 -54 -98h342v-28h-435v28h28c62 0 84 17 84 98v93h-112z" />
    <glyph glyph-name="yen.superior" horiz-adv-x="535" 
d="M46 478v23h144l-124 152h44l159 -194l158 194h41l-123 -152h144v-23h-162l-41 -51v-24h203v-23h-203v-160h-36v160h-204v23h204v24l-42 51h-162z" />
    <glyph glyph-name="numbersign.superior" horiz-adv-x="647" 
d="M449 690h27l-26 -147h160v-26h-164l-31 -176h154v-26h-159l-29 -168h-28l29 168h-160l-29 -168h-28l29 168h-158v26h163l31 176h-152v26h156l26 147h28l-26 -147h161zM258 517l-31 -176h160l31 176h-160z" />
    <glyph glyph-name="percent.superior" horiz-adv-x="762" 
d="M36 557c0 72 63 133 142 133c78 0 144 -61 144 -133c0 -74 -66 -134 -144 -134c-79 0 -142 60 -142 134zM526 681l-262 -461h-28l261 461h29zM67 557c0 -58 49 -106 111 -106s114 48 114 106s-52 106 -114 106s-111 -48 -111 -106zM440 345c0 72 63 133 142 133
s144 -61 144 -133c0 -73 -65 -133 -144 -133s-142 60 -142 133zM471 345c0 -59 49 -107 111 -107c61 0 113 48 113 107c0 57 -52 105 -113 105c-62 0 -111 -48 -111 -105z" />
    <glyph glyph-name="period.superior" horiz-adv-x="223" 
d="M80 243c0 16 14 30 32 30s32 -14 32 -30s-14 -29 -32 -29c-17 0 -32 13 -32 29z" />
    <glyph glyph-name="comma.superior" horiz-adv-x="243" 
d="M83 100l-10 21c24 8 61 28 67 65c3 20 -4 36 -16 43c-5 -2 -10 -3 -14 -3c-14 0 -27 10 -27 23s12 24 27 24c34 0 63 -28 63 -69c0 -63 -52 -90 -90 -104z" />
    <glyph glyph-name="hyphen.superior" horiz-adv-x="308" 
d="M63 377v32h182v-32h-182z" />
    <glyph glyph-name="parenleft.superior" unicode="&#x207d;" horiz-adv-x="247" 
d="M235 124l-17 -23c-114 55 -176 181 -176 305s62 251 176 306l17 -23c-100 -49 -158 -169 -158 -283s58 -232 158 -282z" />
    <glyph glyph-name="parenright.superior" unicode="&#x207e;" horiz-adv-x="247" 
d="M12 689l17 23c114 -55 176 -182 176 -306s-62 -250 -176 -305l-17 23c100 50 158 168 158 282s-58 234 -158 283z" />
    <glyph glyph-name="plus" unicode="+" horiz-adv-x="675" 
d="M81 233v32h238v229h36v-229h239v-32h-239v-229h-36v229h-238z" />
    <glyph glyph-name="minus" unicode="&#x2212;" horiz-adv-x="675" 
d="M81 233v32h513v-32h-513z" />
    <glyph glyph-name="multiply" unicode="&#xd7;" horiz-adv-x="675" 
d="M106 445l25 24l206 -197l207 197l23 -23l-206 -197l207 -197l-25 -24l-207 197l-206 -197l-23 23l205 197z" />
    <glyph glyph-name="divide" unicode="&#xf7;" horiz-adv-x="675" 
d="M81 233v32h513v-32h-513zM300 30c0 20 17 35 38 35c22 0 37 -15 37 -35s-16 -33 -37 -33c-20 0 -38 13 -38 33zM300 467c0 20 18 34 38 34c21 0 37 -14 37 -34c0 -19 -15 -35 -37 -35c-21 0 -38 16 -38 35z" />
    <glyph glyph-name="equal" unicode="=" horiz-adv-x="675" 
d="M81 353v33h513v-33h-513zM81 112v33h513v-33h-513z" />
    <glyph glyph-name="approxequal" unicode="&#x2248;" horiz-adv-x="675" 
d="M81 97v35c44 35 86 56 140 56c51 0 84 -18 115 -37c28 -18 63 -38 109 -38c50 0 105 25 149 61v-35c-45 -36 -95 -58 -149 -58c-57 0 -94 24 -115 37c-30 19 -62 37 -110 37c-50 0 -95 -21 -139 -58zM81 339v34c44 35 86 56 140 56c51 0 84 -18 115 -37
c28 -18 63 -38 109 -38c50 0 105 25 149 62v-36c-45 -36 -95 -58 -149 -58c-57 0 -94 24 -115 37c-30 19 -62 38 -110 38c-50 0 -95 -21 -139 -58z" />
    <glyph glyph-name="notequal" unicode="&#x2260;" horiz-adv-x="675" 
d="M81 353v33h312l69 115h37l-69 -115h164v-33h-184l-125 -208h309v-33h-328l-69 -115h-38l69 115h-147v33h167l125 208h-292z" />
    <glyph glyph-name="plusminus" unicode="&#xb1;" horiz-adv-x="675" 
d="M81 285v33h238v194h36v-194h239v-33h-239v-194h-36v194h-238zM81 0v32h513v-32h-513z" />
    <glyph glyph-name="less" unicode="&#x3c;" horiz-adv-x="675" 
d="M594 473v-38l-470 -183v-6l470 -183v-38l-513 204v39z" />
    <glyph glyph-name="greater" unicode="&#x3e;" horiz-adv-x="675" 
d="M81 435v38l513 -205v-39l-513 -204v38l469 183v6z" />
    <glyph glyph-name="lessequal" unicode="&#x2264;" horiz-adv-x="675" 
d="M81 0v32h513v-32h-513zM594 522v-37l-470 -181v-6l470 -181v-37l-513 201v39z" />
    <glyph glyph-name="greaterequal" unicode="&#x2265;" horiz-adv-x="675" 
d="M594 32v-32h-513v32h513zM81 485v37l513 -202v-39l-513 -201v37l469 181v6z" />
    <glyph glyph-name="logicalnot" unicode="&#xac;" horiz-adv-x="675" 
d="M594 101h-37v267h-476v32h513v-299z" />
    <glyph glyph-name="periodcentered" unicode="&#xb7;" horiz-adv-x="675" 
d="M296 249c0 21 18 38 42 38s41 -17 41 -38c0 -22 -18 -37 -41 -37s-42 15 -42 37z" />
    <glyph glyph-name="asciitilde" unicode="~" horiz-adv-x="675" 
d="M93 212l-26 18c50 56 99 91 151 91c60 0 95 -31 125 -60c26 -25 54 -54 104 -54c41 0 91 30 133 78l28 -18c-51 -60 -111 -94 -162 -94c-65 0 -100 36 -129 64c-27 25 -55 50 -100 50c-41 0 -82 -29 -124 -75z" />
    <glyph glyph-name="asciicircum" unicode="^" horiz-adv-x="675" 
d="M144 212h-40l214 401h41l213 -401h-41l-190 363h-5z" />
    <glyph glyph-name="brokenbar" unicode="&#xa6;" horiz-adv-x="350" 
d="M158 380v413h35v-413h-35zM158 -224v420h35v-420h-35z" />
    <glyph glyph-name="bar" unicode="|" horiz-adv-x="350" 
d="M158 -303v1203h35v-1203h-35z" />
    <glyph glyph-name="mu" unicode="&#xb5;" horiz-adv-x="593" 
d="M128 -230h-37v672h37v-307c2 -67 58 -116 140 -116s148 45 189 84v339h36v-347c0 -30 2 -62 8 -95h-35c-5 24 -7 49 -7 73c-42 -42 -107 -86 -196 -86c-63 0 -112 27 -135 73v-290z" />
    <glyph glyph-name="mu" unicode="&#x3bc;" horiz-adv-x="593" 
d="M128 -230h-37v672h37v-307c2 -67 58 -116 140 -116s148 45 189 84v339h36v-347c0 -30 2 -62 8 -95h-35c-5 24 -7 49 -7 73c-42 -42 -107 -86 -196 -86c-63 0 -112 27 -135 73v-290z" />
    <glyph glyph-name="pi" unicode="&#x3c0;" horiz-adv-x="705" 
d="M46 412v30h615v-30h-122l-34 -331c-3 -26 -3 -53 -1 -81h-37c-2 28 -2 53 1 81l34 331h-276l-43 -412h-36l43 412h-144z" />
    <glyph glyph-name="Delta" unicode="&#x394;" horiz-adv-x="733" 
d="M676 0h-619v32l288 621h43l288 -621v-32zM363 610l-267 -578h539l-266 578h-6z" />
    <glyph glyph-name="Delta" unicode="&#x2206;" horiz-adv-x="733" 
d="M676 0h-619v32l288 621h43l288 -621v-32zM363 610l-267 -578h539l-266 578h-6z" />
    <glyph glyph-name="Omega" unicode="&#x3a9;" horiz-adv-x="852" 
d="M79 0v32h209c-134 44 -218 161 -218 301c0 184 156 333 355 333s358 -149 358 -333c0 -137 -90 -256 -221 -301h208v-32h-265v32c139 33 238 154 238 301c0 165 -141 298 -318 298s-314 -133 -314 -298c0 -146 96 -266 233 -301v-32h-265z" />
    <glyph glyph-name="Omega" unicode="&#x2126;" horiz-adv-x="852" 
d="M79 0v32h209c-134 44 -218 161 -218 301c0 184 156 333 355 333s358 -149 358 -333c0 -137 -90 -256 -221 -301h208v-32h-265v32c139 33 238 154 238 301c0 165 -141 298 -318 298s-314 -133 -314 -298c0 -146 96 -266 233 -301v-32h-265z" />
    <glyph glyph-name="product" unicode="&#x220f;" horiz-adv-x="773" 
d="M50 619v34h673v-34h-130v-726h-39v726h-337v-726h-39v726h-128z" />
    <glyph glyph-name="summation" unicode="&#x2211;" horiz-adv-x="666" 
d="M608 653v-34h-494l393 -331v-28l-393 -333h494v-34h-558v26l417 352v6l-417 350v26h558z" />
    <glyph glyph-name="integral" unicode="&#x222b;" horiz-adv-x="375" 
d="M321 723v-32h-51c-41 0 -63 -34 -63 -70v-713c0 -50 -33 -95 -101 -95h-49v32h52c41 0 62 34 62 70v713c0 50 30 95 89 95h61z" />
    <glyph glyph-name="partialdiff" unicode="&#x2202;" horiz-adv-x="614" 
d="M282 452c106 0 167 -64 211 -143v14c0 132 -48 299 -290 299v32c278 0 329 -190 329 -353c0 -220 -94 -313 -238 -313c-127 0 -233 74 -233 231s106 233 221 233zM293 17c117 0 193 74 201 245c-42 84 -104 161 -210 161c-100 0 -186 -67 -186 -204s85 -202 195 -202z
" />
    <glyph glyph-name="infinity" unicode="&#x221e;" horiz-adv-x="1023" 
d="M255 440h12c43 0 92 -15 153 -76l91 -93l91 93c62 61 110 76 153 76h12c103 0 180 -83 180 -173v-37c0 -89 -77 -172 -180 -172h-12c-37 0 -90 14 -153 76l-91 91l-91 -92c-61 -60 -108 -75 -153 -75h-12c-103 0 -179 83 -179 172v37c0 90 76 173 179 173zM627 344
l-94 -95l94 -95c51 -51 92 -65 128 -65h12c84 0 145 69 145 141v37c0 73 -61 141 -145 141h-12c-35 0 -77 -13 -128 -64zM111 267v-37c0 -72 60 -141 144 -141h12c35 0 75 12 128 66l94 94l-94 95c-51 52 -93 64 -128 64h-12c-84 0 -144 -68 -144 -141z" />
    <glyph glyph-name="lozenge" unicode="&#x25ca;" horiz-adv-x="640" 
d="M308 653h24l255 -313v-25l-255 -315h-24l-255 315v25zM319 613l-229 -283v-5l229 -285h1l230 284v6l-230 283h-1z" />
    <glyph glyph-name="radical" unicode="&#x221a;" horiz-adv-x="703" 
d="M42 445h162l152 -396l264 705h37l-288 -754h-29l-162 415h-136v30z" />
    <glyph glyph-name="zero.tos" horiz-adv-x="649" 
d="M62 265c0 154 119 278 261 278c144 0 265 -124 265 -278c0 -155 -121 -278 -265 -278c-142 0 -261 123 -261 278zM101 265c0 -135 100 -244 222 -244c123 0 226 109 226 244c0 134 -103 244 -226 244c-122 0 -222 -110 -222 -244z" />
    <glyph glyph-name="one.tos" horiz-adv-x="649" 
d="M124 0v31h225v464l-217 -63l-11 32l228 66h39v-499h182v-31h-446z" />
    <glyph glyph-name="two.tos" horiz-adv-x="649" 
d="M122 431l-22 26c63 43 128 85 239 85c115 0 229 -45 229 -142c0 -111 -142 -137 -235 -162c-115 -29 -218 -77 -218 -190v-17h448v-31h-487v45c0 136 128 196 254 228c71 17 200 39 200 126c0 75 -96 109 -190 109c-100 0 -161 -37 -218 -77z" />
    <glyph glyph-name="three.tos" horiz-adv-x="649" 
d="M304 267v31h93c32 0 103 31 103 99c0 79 -93 111 -163 111c-83 0 -154 -44 -208 -91l-24 24c57 50 135 101 233 101c85 0 201 -39 201 -140c0 -63 -47 -101 -84 -113c47 -9 130 -41 130 -131c0 -108 -117 -171 -266 -171c-106 0 -193 34 -265 102l24 27
c57 -53 131 -94 241 -94c128 0 228 51 228 138c0 86 -102 107 -139 107h-104z" />
    <glyph glyph-name="four.tos" horiz-adv-x="649" 
d="M601 167v-31h-109v-136h-39v136h-419v32l415 362h43v-363h109zM89 170v-3h364v316h-8c-117 -101 -240 -211 -356 -313z" />
    <glyph glyph-name="five.tos" horiz-adv-x="649" 
d="M531 530v-34h-386v-195c51 26 103 49 191 49c123 0 242 -47 242 -172c0 -136 -136 -191 -265 -191c-127 0 -208 53 -250 85l22 27c38 -30 112 -77 229 -77c109 0 226 45 226 156c0 102 -100 139 -204 139c-88 0 -148 -24 -202 -51l-25 20v244h422z" />
    <glyph glyph-name="six.tos" horiz-adv-x="649" 
d="M544 488l-21 -27c-41 30 -99 47 -165 47c-129 0 -248 -93 -248 -251c47 33 138 86 253 86c153 0 222 -93 222 -169c0 -99 -100 -186 -238 -186c-142 0 -273 92 -273 267c0 181 136 287 285 287c103 0 159 -36 185 -54zM360 311c-111 0 -206 -56 -249 -85
c14 -134 119 -204 237 -204c115 0 198 75 198 153c0 60 -56 136 -186 136z" />
    <glyph glyph-name="seven.tos" horiz-adv-x="649" 
d="M70 496v34h511v-34l-347 -496h-50l353 496h-467z" />
    <glyph glyph-name="eight.tos" horiz-adv-x="649" 
d="M324 -13c-122 0 -255 60 -255 165c0 85 85 132 172 145c-82 11 -130 49 -130 111c0 92 119 135 213 135c96 0 213 -43 213 -135c0 -62 -45 -100 -129 -111c88 -13 173 -60 173 -145c0 -105 -134 -165 -257 -165zM324 21c101 0 215 48 215 134c0 87 -117 126 -215 126
c-96 0 -214 -39 -214 -126c0 -86 114 -134 214 -134zM324 311c109 0 172 34 172 94c0 73 -95 107 -172 107c-76 0 -170 -34 -170 -107c0 -60 62 -94 170 -94z" />
    <glyph glyph-name="nine.tos" horiz-adv-x="649" 
d="M101 42l21 27c42 -30 101 -47 167 -47c128 0 249 92 250 250c-48 -33 -142 -85 -255 -85c-154 0 -224 93 -224 169c0 99 102 186 240 186c142 0 275 -92 275 -267c0 -181 -138 -287 -287 -287c-103 0 -162 36 -187 54zM287 219c111 0 206 55 250 84
c-13 134 -120 205 -237 205c-116 0 -201 -75 -201 -153c0 -60 56 -136 188 -136z" />
    <glyph glyph-name="dollar.tos" horiz-adv-x="649" 
d="M312 634h29v-95c95 -8 168 -46 207 -77l-23 -25c-33 29 -97 63 -184 70v-206c95 -5 245 -18 245 -146c0 -112 -114 -164 -245 -166v-119h-29v120c-123 5 -199 56 -253 105l23 25c48 -44 117 -93 230 -99v246c-110 7 -223 20 -223 126c0 112 121 148 217 148h6v93z
M549 151c0 98 -116 109 -208 114v-244c112 2 208 43 208 130zM127 395c0 -79 102 -88 185 -92v206h-7c-81 0 -178 -29 -178 -114z" />
    <glyph glyph-name="cent.tos" horiz-adv-x="649" 
d="M389 489h30l-26 -96c56 -8 110 -28 154 -60l-24 -24c-40 28 -88 45 -138 53l-89 -339c14 -2 28 -2 42 -2c102 0 168 44 192 66l26 -22c-19 -19 -95 -76 -218 -76c-17 0 -34 2 -50 4l-32 -123h-29l33 128c-107 23 -189 96 -189 196c0 122 117 203 261 203
c11 0 22 -1 32 -2zM110 194c0 -84 68 -145 158 -166l88 337c-8 0 -16 1 -24 1c-122 0 -222 -68 -222 -172z" />
    <glyph glyph-name="Euro.tos" horiz-adv-x="649" 
d="M47 317v25h76c30 115 128 200 244 200c82 0 156 -33 207 -85l-24 -27c-46 47 -111 77 -183 77c-94 0 -175 -70 -204 -165h270v-25h-276c-4 -17 -5 -34 -5 -52c0 -14 1 -29 3 -42h278v-26h-272c26 -100 109 -174 206 -174c74 0 142 33 190 85l24 -27
c-55 -57 -130 -93 -214 -93c-119 0 -218 90 -246 209h-74v26h69c-2 13 -3 28 -3 42c0 17 1 35 4 52h-70z" />
    <glyph glyph-name="sterling.tos" horiz-adv-x="649" 
d="M57 270v29h134v89c0 106 94 154 186 154c51 0 130 -26 193 -64l-19 -27c-58 33 -129 56 -174 56c-73 0 -148 -36 -148 -119v-89h244v-29h-244v-117c0 -75 -18 -109 -63 -122h403v-31h-512v31h34c73 0 100 21 100 122v117h-134z" />
    <glyph glyph-name="yen.tos" horiz-adv-x="649" 
d="M67 317v25h170l-145 188h48l186 -241l185 241h46l-146 -188h171v-25h-190l-48 -62v-32h238v-26h-238v-197h-39v197h-238v26h238v32l-48 62h-190z" />
    <glyph glyph-name="florin.tos" horiz-adv-x="649" 
d="M197 299h101l24 108c23 100 104 135 162 135c40 0 83 -18 98 -34l-16 -29c-13 16 -49 31 -84 31c-47 0 -105 -28 -122 -103l-24 -108h129v-29h-136l-60 -270c-24 -108 -107 -146 -170 -146v28c48 3 114 31 134 118l59 270h-95v29z" />
    <glyph glyph-name="colonmonetary.tos" horiz-adv-x="649" 
d="M464 634h25l-24 -113c45 -15 85 -40 118 -70l-25 -22c-28 26 -62 46 -99 60l-96 -468c80 4 152 43 203 95l25 -23c-59 -58 -142 -102 -235 -104l-24 -119h-24l24 120c-34 2 -66 8 -96 19l-28 -139h-25l30 150c-95 46 -157 138 -157 245c0 144 113 261 262 274l20 95h27
l-19 -93c33 0 66 -5 96 -13zM95 265c0 -90 49 -169 125 -211l92 453c-125 -16 -217 -119 -217 -242zM243 42c29 -12 61 -20 96 -21l97 476c-29 8 -59 12 -90 12h-7z" />
    <glyph glyph-name="franc.tos" horiz-adv-x="649" 
d="M58 145v26h93v359h429v-34h-390v-174h245v-34h-245v-117h158v-26h-158v-145h-39v145h-93z" />
    <glyph glyph-name="lira.tos" horiz-adv-x="649" 
d="M64 317v25h133v46c0 106 94 154 186 154c50 0 129 -26 192 -64l-19 -27c-57 33 -128 56 -173 56c-72 0 -148 -36 -148 -119v-46h243v-25h-243v-94h243v-26h-243v-44c0 -75 -17 -109 -63 -122h402v-31h-510v31h33c74 0 100 21 100 122v44h-133v26h133v94h-133z" />
    <glyph glyph-name="peso.tos" horiz-adv-x="649" 
d="M41 355v26h83v149h231c77 0 116 -19 151 -51c24 -27 39 -60 42 -98h75v-26h-75c-3 -41 -20 -75 -45 -101c-35 -33 -70 -51 -148 -51h-192v-203h-39v355h-83zM476 278c19 20 30 45 33 77h-346v-117h191c68 0 94 15 122 40zM355 496h-192v-115h346c-2 25 -11 50 -29 72
c-28 27 -56 43 -125 43z" />
    <glyph glyph-name="Rupee.tos" horiz-adv-x="649" 
d="M62 355v26h400c-2 29 -13 54 -29 72c-22 25 -59 43 -117 43h-254v34h556v-26h-213c58 -19 91 -65 96 -123h117v-26h-116c-3 -42 -19 -75 -45 -102c-35 -33 -77 -47 -149 -47l-174 2l323 -208h-70l-325 212v26h245c61 0 96 11 122 39c20 21 32 46 34 78h-401z" />
    <glyph glyph-name="section.tos" horiz-adv-x="649" 
d="M544 89c-24 -24 -57 -41 -89 -50c12 -5 22 -13 29 -21c10 -11 15 -28 15 -49c0 -85 -100 -114 -177 -114c-68 0 -134 21 -184 57l19 27c44 -32 104 -53 166 -53c55 0 138 18 138 83c0 16 -4 27 -13 36c-25 26 -85 29 -151 36c-78 10 -153 27 -199 71
c-27 26 -40 59 -40 96c0 40 15 72 39 97c21 23 56 43 89 54c-11 5 -20 10 -25 17c-12 13 -18 30 -18 51c0 87 101 116 178 116c67 0 133 -22 183 -58l-18 -27c-44 33 -105 54 -166 54c-55 0 -138 -19 -138 -84c0 -16 4 -28 14 -37c27 -25 85 -28 149 -36
c79 -9 156 -25 201 -72c24 -23 39 -55 39 -94c0 -41 -16 -75 -41 -100zM344 322c-44 5 -96 9 -131 21c-29 -9 -63 -26 -83 -47s-33 -50 -33 -84c0 -30 9 -56 32 -78c36 -36 100 -51 169 -59c48 -5 95 -9 130 -21c27 8 59 21 82 45c22 22 36 50 36 86c0 32 -11 56 -30 76
c-36 37 -102 53 -172 61z" />
    <glyph glyph-name="numbersign.tos" horiz-adv-x="649" 
d="M446 576h31l-26 -181h157v-29h-161l-32 -220h152v-29h-156l-29 -207h-30l29 207h-156l-29 -207h-30l29 207h-156v29h160l31 220h-149v29h153l26 181h31l-26 -181h155zM261 366l-32 -220h156l31 220h-155z" />
    <glyph glyph-name="percent.tos" horiz-adv-x="649" 
d="M31 412c0 89 54 163 122 163c69 0 125 -74 125 -163c0 -90 -56 -163 -125 -163c-68 0 -122 73 -122 163zM454 565l-225 -565h-31l225 565h31zM62 412c0 -73 41 -133 91 -133c51 0 94 60 94 133s-43 132 -94 132c-50 0 -91 -59 -91 -132zM375 153c0 88 54 163 122 163
c67 0 124 -75 124 -163c0 -90 -57 -164 -124 -164c-68 0 -122 74 -122 164zM406 153c0 -73 40 -133 91 -133s93 60 93 133c0 72 -42 132 -93 132s-91 -60 -91 -132z" />
    <glyph glyph-name="zero.pl" horiz-adv-x="850" 
d="M79 307c0 177 157 319 345 319c189 0 348 -142 348 -319c0 -179 -159 -320 -348 -320c-188 0 -345 141 -345 320zM118 307c0 -159 138 -285 306 -285c169 0 309 126 309 285c0 157 -140 284 -309 284c-168 0 -306 -127 -306 -284z" />
    <glyph glyph-name="one.pl" horiz-adv-x="427" 
d="M29 494l-9 32l213 87h39v-613h-39v578z" />
    <glyph glyph-name="one.pl.alt" horiz-adv-x="350" 
d="M156 0v613h39v-613h-39z" />
    <glyph glyph-name="two.pl" horiz-adv-x="700" 
d="M124 502l-22 27c69 49 141 97 262 97c126 0 253 -52 253 -164c0 -126 -156 -156 -259 -184c-128 -34 -244 -92 -244 -226v-20h497v-32h-536v49c0 158 140 227 279 263c81 22 224 47 224 150c0 90 -108 129 -213 129c-110 0 -178 -43 -241 -89z" />
    <glyph glyph-name="three.pl" horiz-adv-x="804" 
d="M379 312v31h123c38 0 130 35 130 117c0 94 -122 131 -213 131c-105 0 -197 -50 -264 -105l-24 24c70 58 168 116 289 116c106 0 251 -46 251 -161c0 -74 -61 -117 -107 -131c59 -10 164 -48 164 -152c0 -124 -146 -195 -332 -195c-133 0 -240 38 -330 116l24 27
c72 -61 167 -108 307 -108c164 0 292 60 292 162s-130 128 -176 128h-134z" />
    <glyph glyph-name="four.pl" horiz-adv-x="792" 
d="M738 190v-31h-131v-159h-39v159h-523v34l514 420h48v-423h131zM99 194v-4h469v377h-11c-150 -121 -308 -251 -458 -373z" />
    <glyph glyph-name="five.pl" horiz-adv-x="751" 
d="M625 613v-34h-465v-228c61 32 124 57 230 57c146 0 288 -54 288 -199c0 -159 -160 -222 -313 -222c-151 0 -247 64 -296 102l24 27c45 -36 134 -94 273 -94c133 0 273 53 273 187c0 121 -122 166 -250 166c-104 0 -176 -30 -239 -62l-26 21v279h501z" />
    <glyph glyph-name="six.pl" horiz-adv-x="769" 
d="M651 543l-24 -27c-51 48 -122 75 -202 75c-159 0 -307 -108 -307 -295v-2c56 38 169 102 311 102c187 0 270 -107 270 -196c0 -112 -122 -213 -288 -213c-172 0 -330 106 -330 309c0 208 166 330 345 330c125 0 193 -56 225 -83zM427 364c-140 0 -257 -67 -308 -100
c16 -159 147 -242 292 -242c144 0 249 87 249 179c0 73 -70 163 -233 163z" />
    <glyph glyph-name="seven.pl" horiz-adv-x="673" 
d="M52 579v34h558v-34l-382 -579h-50l387 579h-513z" />
    <glyph glyph-name="eight.pl" horiz-adv-x="767" 
d="M384 -15c-147 0 -310 69 -310 191c0 98 107 154 215 168c-103 13 -161 57 -161 128c0 106 141 156 256 156c114 0 255 -50 255 -156c0 -71 -58 -115 -162 -128c109 -14 216 -70 216 -168c0 -122 -163 -191 -309 -191zM384 20c124 0 267 56 267 159
c0 102 -146 149 -267 149s-268 -47 -268 -149c0 -103 143 -159 268 -159zM384 359c135 0 214 39 214 111c0 86 -119 126 -214 126c-96 0 -214 -40 -214 -126c0 -72 78 -111 214 -111z" />
    <glyph glyph-name="nine.pl" horiz-adv-x="767" 
d="M117 70l24 26c52 -47 122 -74 202 -74c159 0 308 108 308 295v2c-55 -38 -170 -102 -312 -102c-186 0 -270 107 -270 196c0 112 123 213 289 213c171 0 329 -106 329 -309c0 -208 -166 -330 -344 -330c-125 0 -194 56 -226 83zM342 249c140 0 257 67 307 100
c-15 159 -147 242 -292 242c-144 0 -249 -87 -249 -179c0 -73 70 -163 234 -163z" />
    <glyph glyph-name="dollar.pl" horiz-adv-x="701" 
d="M341 733h29v-110c108 -8 191 -53 234 -89l-23 -25c-38 34 -111 74 -211 82v-246c108 -5 280 -18 280 -166c0 -130 -130 -188 -280 -191v-138h-29v139c-140 5 -227 64 -288 120l23 26c55 -52 136 -109 265 -115v291c-124 8 -253 23 -253 144c0 129 137 170 245 170h8v108z
M613 175c0 117 -139 129 -243 134v-289c131 2 243 51 243 155zM125 458c0 -95 117 -105 216 -111v246h-9c-93 0 -207 -34 -207 -135z" />
    <glyph glyph-name="cent.pl" horiz-adv-x="580" 
d="M352 562h29l-24 -111c52 -10 102 -33 144 -69l-25 -24c-36 32 -81 52 -126 61l-84 -396c13 -2 26 -3 39 -3c94 0 155 52 179 77l25 -21c-18 -23 -89 -88 -204 -88c-16 0 -31 1 -45 4l-30 -142h-29l31 148c-100 26 -176 109 -176 225c0 140 110 233 244 233
c9 0 19 0 29 -1zM95 223c0 -99 61 -169 144 -194l83 394c-7 0 -15 1 -22 1c-113 0 -205 -80 -205 -201z" />
    <glyph glyph-name="Euro.pl" horiz-adv-x="830" 
d="M63 368v26h97c39 134 167 232 318 232c105 0 201 -37 268 -98l-24 -27c-61 56 -149 90 -244 90c-129 0 -239 -83 -277 -197h362v-26h-369c-5 -20 -7 -40 -7 -61c0 -18 2 -35 5 -51h371v-26h-365c34 -120 147 -208 280 -208c98 0 188 38 253 99l24 -27
c-72 -66 -169 -107 -277 -107c-155 0 -285 104 -321 243h-94v26h89c-3 16 -4 33 -4 51c0 21 2 41 6 61h-91z" />
    <glyph glyph-name="sterling.pl" horiz-adv-x="765" 
d="M68 315v29h163v105c0 122 114 177 224 177c60 0 154 -29 230 -73l-20 -27c-69 38 -156 65 -210 65c-91 0 -185 -43 -185 -142v-105h298v-29h-298v-140c0 -89 -21 -128 -74 -143h488v-32h-616v32h40c91 0 123 24 123 143v140h-163z" />
    <glyph glyph-name="yen.pl" horiz-adv-x="768" 
d="M75 368v26h209l-179 219h48l233 -282l231 282h46l-179 -219h210v-26h-231l-59 -72v-40h290v-26h-290v-230h-39v230h-290v26h290v40l-59 72h-231z" />
    <glyph glyph-name="florin.pl" horiz-adv-x="397" 
d="M56 344h113l27 124c25 117 113 158 177 158c46 0 92 -22 109 -41l-16 -28c-14 18 -55 37 -94 37c-52 0 -119 -34 -139 -126l-27 -124h145v-29h-151l-67 -315c-27 -124 -117 -168 -186 -168v29c54 3 128 36 149 139l67 315h-107v29z" />
    <glyph glyph-name="colonmonetary.pl" horiz-adv-x="745" 
d="M541 733h27l-28 -130c54 -18 102 -46 141 -81l-25 -22c-35 30 -76 54 -123 70l-116 -549c97 3 185 46 249 108l25 -23c-71 -67 -170 -116 -281 -118l-29 -138h-27l29 139c-41 2 -80 10 -116 23l-34 -162h-26l36 172c-114 53 -190 161 -190 285c0 167 136 303 318 317
l23 109h26l-23 -108h4c39 0 78 -5 114 -15zM92 307c0 -107 63 -201 159 -250l113 534c-155 -17 -272 -139 -272 -284zM274 46c35 -14 74 -24 116 -25l118 557c-34 10 -70 15 -107 15h-11z" />
    <glyph glyph-name="franc.pl" horiz-adv-x="693" 
d="M55 172v26h104v415h483v-34h-444v-208h280v-35h-280v-138h179v-26h-179v-172h-39v172h-104z" />
    <glyph glyph-name="lira.pl" horiz-adv-x="768" 
d="M76 368v26h163v55c0 122 114 177 223 177c61 0 155 -29 231 -73l-20 -27c-69 38 -156 65 -211 65c-90 0 -184 -43 -184 -142v-55h298v-26h-298v-112h298v-26h-298v-55c0 -89 -21 -128 -75 -143h489v-32h-616v32h40c91 0 123 24 123 143v55h-163v26h163v112h-163z" />
    <glyph glyph-name="peso.pl" horiz-adv-x="842" 
d="M58 415v26h104v172h317c84 0 128 -21 169 -61c28 -29 45 -68 48 -111h94v-26h-94c-3 -47 -23 -86 -54 -116c-41 -35 -77 -56 -163 -56h-278v-243h-39v415h-104zM479 579h-278v-138h456c-2 35 -16 66 -39 89c-31 30 -68 49 -139 49zM614 323c24 24 40 55 43 92h-456v-137
h278c70 0 102 16 135 45z" />
    <glyph glyph-name="peseta.pl" horiz-adv-x="1521" 
d="M154 0h-39v613h327c75 0 127 -17 167 -57c29 -30 45 -69 45 -111v-1h90v140h36v-140h168v-29h-168v-307c0 -65 42 -89 83 -89c31 0 72 14 92 29l8 -27c-22 -18 -68 -34 -105 -34c-53 0 -114 30 -114 121v307h-93c-6 -34 -23 -63 -47 -86c-38 -37 -91 -54 -162 -54h-288
v-275zM442 579h-288v-269h287c58 0 103 13 135 43c25 24 39 56 39 92c0 31 -11 62 -36 88c-32 33 -78 46 -137 46zM1423 396l-17 -27c-29 24 -95 58 -170 58c-64 0 -142 -25 -142 -94c0 -70 83 -75 161 -79c75 -3 204 -10 204 -123c0 -98 -97 -144 -210 -144
c-104 0 -168 39 -211 72l16 27c42 -31 100 -68 196 -68c92 0 173 35 173 110c0 83 -104 89 -168 92c-92 5 -197 10 -197 109c0 97 98 128 178 128c84 0 155 -36 187 -61z" />
    <glyph glyph-name="rupiah.pl" horiz-adv-x="1338" 
d="M155 0h-39v613h346c88 0 131 -22 169 -59c28 -29 44 -67 44 -108c0 -86 -59 -155 -161 -164l163 -282h-44l-160 278h-318v-278zM462 579h-307v-266h334c92 0 147 60 147 133c0 33 -14 63 -36 86c-32 30 -66 47 -138 47zM866 -214h-37v557c0 32 -4 67 -15 102h35
c9 -26 13 -50 14 -74c47 48 115 85 190 85c122 0 226 -93 226 -233c0 -142 -110 -234 -240 -234c-80 0 -141 43 -173 82v-285zM866 341v-238c25 -28 87 -83 169 -83c112 0 204 80 204 203c0 121 -86 201 -191 201c-68 0 -136 -38 -182 -83z" />
    <glyph glyph-name="Rupee.pl" horiz-adv-x="799" 
d="M132 415v26h483c-2 38 -17 65 -38 89c-31 31 -74 49 -134 49h-311v34h616v-26h-209c61 -21 109 -72 115 -146h94v-26h-93c-3 -51 -24 -87 -54 -116c-41 -39 -89 -53 -163 -53l-233 2l386 -248h-69l-390 251v27h305c63 0 103 13 136 44c22 23 39 52 42 93h-483z" />
    <glyph glyph-name="section.pl" horiz-adv-x="728" 
d="M627 103c-29 -29 -70 -49 -110 -59c15 -6 28 -16 37 -25c10 -13 19 -31 19 -56c0 -97 -118 -131 -209 -131c-80 0 -160 26 -218 68l19 27c53 -38 125 -63 199 -63c69 0 170 23 170 99c0 18 -5 32 -15 42c-31 32 -105 34 -186 44c-95 12 -181 31 -235 81
c-32 31 -48 69 -48 111c0 47 18 84 46 112c26 27 69 51 111 63c-15 6 -26 13 -33 20c-15 16 -22 35 -22 60c0 99 119 132 210 132c80 0 159 -26 218 -69l-19 -27c-53 39 -126 64 -200 64c-68 0 -170 -23 -170 -99c0 -20 6 -35 18 -45c33 -29 104 -33 182 -42
c97 -11 186 -30 239 -83c28 -28 46 -64 46 -109c0 -48 -20 -87 -49 -115zM390 376c-53 6 -114 12 -156 25c-36 -12 -80 -32 -106 -58c-24 -25 -39 -57 -39 -98c-1 -35 11 -67 40 -93c44 -41 120 -60 206 -69c58 -7 113 -11 153 -24c35 9 76 26 106 55c26 26 43 58 43 100
c0 38 -14 67 -37 90c-44 43 -123 63 -210 72z" />
    <glyph glyph-name="numbersign.pl" horiz-adv-x="923" 
d="M643 666h32l-37 -211h230v-29h-235l-46 -260h222v-29h-227l-42 -241h-32l42 241h-236l-42 -241h-32l42 241h-227v29h232l46 260h-219v29h224l37 211h32l-37 -211h236zM365 426l-46 -260h236l46 260h-236z" />
    <glyph glyph-name="percent.pl" horiz-adv-x="1075" 
d="M54 477c0 102 89 188 201 188c111 0 204 -86 204 -188c0 -104 -93 -189 -204 -189c-112 0 -201 85 -201 189zM739 653l-370 -653h-33l370 653h33zM89 477c0 -87 74 -159 166 -159s170 72 170 159c0 86 -78 157 -170 157s-166 -71 -166 -157zM616 177
c0 102 89 188 201 188c111 0 204 -86 204 -188c0 -104 -93 -189 -204 -189c-112 0 -201 85 -201 189zM651 177c0 -86 74 -158 166 -158s169 72 169 158s-77 158 -169 158s-166 -72 -166 -158z" />
    <glyph glyph-name="perthousand.pl" horiz-adv-x="1534" 
d="M55 477c0 102 89 188 201 188c111 0 204 -86 204 -188c0 -104 -93 -189 -204 -189c-112 0 -201 85 -201 189zM739 653l-370 -653h-32l370 653h32zM90 477c0 -87 74 -159 166 -159s169 72 169 159c0 86 -77 157 -169 157s-166 -71 -166 -157zM617 177
c0 102 89 188 201 188c111 0 204 -86 204 -188c0 -104 -93 -189 -204 -189c-112 0 -201 85 -201 189zM652 177c0 -86 74 -158 166 -158s169 72 169 158s-77 158 -169 158s-166 -72 -166 -158zM1078 177c0 102 89 188 201 188c111 0 204 -86 204 -188
c0 -104 -93 -189 -204 -189c-112 0 -201 85 -201 189zM1113 177c0 -86 74 -158 166 -158s170 72 170 158s-78 158 -170 158s-166 -72 -166 -158z" />
    <glyph glyph-name="zero.tl" horiz-adv-x="763" 
d="M67 307c0 177 142 319 313 319s315 -142 315 -319c0 -179 -144 -320 -315 -320s-313 141 -313 320zM106 307c0 -159 123 -285 274 -285s276 126 276 285c0 157 -125 284 -276 284s-274 -127 -274 -284z" />
    <glyph glyph-name="one.tl" horiz-adv-x="763" 
d="M141 0l-1 32h282v546l-270 -74l-11 31l281 78h39v-581h220v-32h-540z" />
    <glyph glyph-name="two.tl" horiz-adv-x="763" 
d="M135 502l-22 27c74 49 152 97 283 97c137 0 273 -52 273 -164c0 -126 -168 -156 -279 -184c-141 -34 -268 -92 -268 -226v-20h542v-32h-581v49c0 158 152 227 302 263c89 22 245 47 245 150c0 90 -118 129 -233 129c-120 0 -194 -43 -262 -89z" />
    <glyph glyph-name="three.tl" horiz-adv-x="763" 
d="M358 312v31h118c36 0 122 35 122 117c0 94 -115 131 -201 131c-100 0 -188 -50 -251 -105l-24 24c66 58 160 116 276 116c101 0 239 -46 239 -161c0 -74 -57 -117 -101 -131c56 -10 156 -48 156 -152c0 -124 -139 -195 -317 -195c-127 0 -229 38 -316 116l25 27
c68 -61 158 -108 292 -108c155 0 277 60 277 162s-124 128 -167 128h-128z" />
    <glyph glyph-name="four.tl" horiz-adv-x="763" 
d="M710 190v-31h-125v-159h-39v159h-505v34l496 420h48v-423h125zM95 194v-4h451v377h-11c-144 -121 -296 -251 -440 -373z" />
    <glyph glyph-name="five.tl" horiz-adv-x="763" 
d="M633 613v-34h-470v-228c61 32 125 57 233 57c148 0 292 -54 292 -199c0 -159 -163 -222 -317 -222s-251 64 -301 102l24 27c46 -36 137 -94 277 -94c136 0 278 53 278 187c0 121 -125 166 -254 166c-106 0 -178 -30 -242 -62l-27 21v279h507z" />
    <glyph glyph-name="six.tl" horiz-adv-x="763" 
d="M645 543l-24 -27c-51 48 -121 75 -200 75c-157 0 -304 -108 -304 -295v-1c55 38 168 101 308 101c184 0 268 -107 268 -196c0 -112 -122 -213 -286 -213c-171 0 -327 106 -327 309c0 208 165 330 341 330c125 0 193 -56 224 -83zM422 364c-138 0 -253 -67 -304 -100
c16 -159 145 -242 289 -242c142 0 247 87 247 179c0 73 -70 163 -232 163z" />
    <glyph glyph-name="seven.tl" horiz-adv-x="763" 
d="M62 579v34h626v-34l-431 -579h-50l437 579h-582z" />
    <glyph glyph-name="eight.tl" horiz-adv-x="763" 
d="M381 -15c-145 0 -307 69 -307 191c0 98 105 154 214 168c-103 13 -161 57 -161 128c0 106 140 156 254 156s255 -50 255 -156c0 -71 -58 -115 -162 -128c109 -14 215 -70 215 -168c0 -122 -162 -191 -308 -191zM381 20c124 0 266 56 266 159c0 102 -146 149 -266 149
s-266 -47 -266 -149c0 -103 142 -159 266 -159zM381 359c135 0 213 39 213 111c0 86 -117 126 -213 126c-95 0 -212 -40 -212 -126c0 -72 78 -111 212 -111z" />
    <glyph glyph-name="nine.tl" horiz-adv-x="763" 
d="M115 70l25 26c51 -47 121 -74 200 -74c158 0 305 108 305 295v1c-56 -38 -169 -101 -309 -101c-185 0 -268 107 -268 196c0 112 121 213 287 213c170 0 327 -106 327 -309c0 -208 -165 -330 -342 -330c-125 0 -193 56 -225 83zM339 249c138 0 254 66 304 100
c-15 159 -146 242 -289 242s-247 -87 -247 -179c0 -73 69 -163 232 -163z" />
    <glyph glyph-name="dollar.tl" horiz-adv-x="763" 
d="M370 733h29v-110c115 -8 202 -53 247 -89l-23 -25c-40 34 -118 74 -224 82v-245c113 -5 296 -18 296 -167c0 -130 -138 -189 -296 -191v-138h-29v139c-148 5 -239 64 -302 120l23 26c58 -52 143 -109 279 -115v291c-131 8 -266 23 -266 144c0 129 145 170 258 170h8v108z
M658 175c0 118 -149 130 -259 135v-290c138 2 259 51 259 155zM141 458c0 -95 124 -105 229 -111v246h-9c-98 0 -220 -34 -220 -135z" />
    <glyph glyph-name="cent.tl" horiz-adv-x="763" 
d="M460 562h30l-30 -111c66 -9 130 -32 182 -69l-24 -24c-48 33 -107 53 -166 62l-107 -397c17 -2 35 -3 53 -3c123 0 202 52 230 77l26 -21c-22 -23 -112 -88 -256 -88c-21 0 -41 1 -61 4l-38 -142h-30l39 148c-127 26 -223 109 -223 225c0 140 138 233 307 233
c13 0 26 -1 39 -2zM125 223c0 -100 82 -171 192 -195l105 395c-10 0 -20 1 -30 1c-148 0 -267 -80 -267 -201z" />
    <glyph glyph-name="Euro.tl" horiz-adv-x="763" 
d="M58 368v26h89c36 134 151 232 289 232c95 0 182 -37 244 -98l-25 -27c-55 56 -134 90 -219 90c-116 0 -214 -83 -248 -197h325v-26h-332c-4 -20 -6 -40 -6 -61c0 -18 1 -35 4 -51h334v-26h-328c31 -120 131 -208 251 -208c88 0 169 38 228 99l24 -27
c-66 -66 -154 -107 -252 -107c-141 0 -259 104 -292 243h-86v26h82c-3 16 -4 33 -4 51c0 21 2 41 5 61h-83z" />
    <glyph glyph-name="sterling.tl" horiz-adv-x="763" 
d="M73 315v29h158v105c0 122 111 177 218 177c59 0 151 -29 224 -73l-19 -27c-67 38 -152 65 -205 65c-87 0 -179 -43 -179 -142v-105h290v-29h-290v-140c0 -89 -20 -128 -73 -143h475v-32h-599v32h39c88 0 119 24 119 143v140h-158z" />
    <glyph glyph-name="yen.tl" horiz-adv-x="763" 
d="M84 368v26h201l-172 219h48l222 -282l220 282h46l-171 -219h201v-26h-222l-56 -72v-40h278v-26h-278v-230h-39v230h-278v26h278v40l-57 72h-221z" />
    <glyph glyph-name="florin.tl" horiz-adv-x="763" 
d="M239 344h112l27 124c25 117 113 158 178 158c45 0 92 -22 109 -41l-17 -28c-14 18 -55 37 -94 37c-52 0 -119 -34 -139 -126l-27 -124h145v-29h-151l-67 -315c-26 -124 -117 -168 -186 -168v29c54 3 128 36 150 139l66 315h-106v29z" />
    <glyph glyph-name="colonmonetary.tl" horiz-adv-x="763" 
d="M550 733h27l-28 -130c54 -18 102 -46 142 -81l-25 -22c-35 30 -77 54 -124 70l-117 -549c97 3 187 46 251 108l25 -23c-72 -67 -172 -116 -283 -118l-29 -138h-27l29 139c-41 2 -81 10 -117 23l-34 -162h-26l36 172c-115 53 -191 161 -191 285c0 166 138 303 319 317
l24 109h26l-23 -108h4c40 0 78 -5 115 -15zM98 307c0 -107 63 -201 160 -250l113 534c-156 -17 -273 -139 -273 -284zM281 46c36 -14 75 -24 117 -25l119 557c-34 10 -71 15 -108 15h-11z" />
    <glyph glyph-name="franc.tl" horiz-adv-x="763" 
d="M57 172v26h115v415h532v-34h-493v-208h311v-35h-311v-138h197v-26h-197v-172h-39v172h-115z" />
    <glyph glyph-name="lira.tl" horiz-adv-x="763" 
d="M84 368v26h156v55c0 122 111 177 216 177c58 0 149 -29 222 -73l-20 -27c-66 38 -149 65 -202 65c-86 0 -177 -43 -177 -142v-55h286v-26h-286v-112h286v-26h-286v-55c0 -89 -19 -128 -71 -143h469v-32h-593v32h38c88 0 118 24 118 143v55h-156v26h156v112h-156z" />
    <glyph glyph-name="peso.tl" horiz-adv-x="763" 
d="M47 415v26h97v172h280c83 0 127 -21 168 -61c28 -29 45 -68 48 -111h88v-26h-88c-3 -47 -22 -86 -54 -116c-40 -35 -76 -56 -162 -56h-241v-243h-39v415h-97zM424 579h-241v-138h418c-2 35 -16 66 -38 89c-32 30 -68 49 -139 49zM558 323c25 24 40 55 43 92h-418v-137
h240c70 0 103 16 135 45z" />
    <glyph glyph-name="Rupee.tl" horiz-adv-x="763" 
d="M91 415v26h483c-2 38 -17 65 -38 89c-31 31 -74 49 -134 49h-311v34h616v-26h-209c61 -21 109 -72 115 -146h94v-26h-93c-3 -51 -24 -87 -54 -116c-41 -39 -89 -53 -164 -53l-233 2l387 -248h-69l-390 251v27h305c63 0 103 13 136 44c22 23 39 52 42 93h-483z" />
    <glyph glyph-name="section.tl" horiz-adv-x="763" 
d="M651 103c-30 -29 -73 -49 -114 -59c15 -6 29 -16 39 -25c10 -13 19 -31 19 -56c0 -97 -121 -131 -215 -131c-83 0 -164 26 -224 68l18 27c55 -38 130 -63 206 -63c72 0 176 23 176 99c0 18 -5 32 -15 42c-32 32 -109 34 -192 44c-99 12 -187 31 -243 81
c-33 31 -49 69 -49 111c0 47 19 84 47 112c27 27 72 51 115 63c-15 6 -26 13 -34 20c-15 16 -22 35 -22 60c0 99 122 132 215 132c83 0 164 -26 225 -69l-19 -27c-55 39 -130 64 -207 64c-71 0 -175 -23 -175 -99c0 -20 6 -35 19 -45c33 -29 106 -33 187 -42
c101 -11 192 -30 246 -83c29 -28 47 -64 47 -109c0 -48 -20 -87 -50 -115zM407 376c-54 6 -118 12 -160 25c-38 -12 -84 -32 -110 -58c-25 -25 -41 -57 -41 -98c0 -35 12 -67 41 -93c46 -41 124 -60 213 -69c61 -7 117 -11 158 -24c36 9 79 26 110 55c27 26 44 58 44 100
c0 38 -14 67 -39 90c-44 43 -126 63 -216 72z" />
    <glyph glyph-name="numbersign.tl" horiz-adv-x="763" 
d="M530 666h31l-31 -211h190v-29h-195l-38 -260h184v-29h-188l-35 -241h-31l35 241h-191l-35 -241h-32l35 241h-188v29h193l38 260h-182v29h187l31 211h31l-31 -211h191zM303 426l-38 -260h191l38 260h-191z" />
    <glyph glyph-name="percent.tl" horiz-adv-x="763" 
d="M26 477c0 102 65 188 147 188s150 -86 150 -188c0 -104 -68 -189 -150 -189s-147 85 -147 189zM532 653l-271 -653h-32l272 653h31zM58 477c0 -87 52 -159 115 -159c64 0 118 72 118 159c0 86 -54 157 -118 157c-63 0 -115 -71 -115 -157zM439 177c0 102 65 188 147 188
s149 -86 149 -188c0 -104 -67 -189 -149 -189s-147 85 -147 189zM470 177c0 -86 52 -158 116 -158s118 72 118 158s-54 158 -118 158s-116 -72 -116 -158z" />
    <glyph glyph-name="zero.superior" unicode="&#x2070;" horiz-adv-x="580" 
d="M45 437c0 125 111 225 244 225c134 0 246 -100 246 -225c0 -127 -112 -226 -246 -226c-133 0 -244 99 -244 226zM80 437c0 -108 94 -196 209 -196s211 88 211 196c0 107 -96 195 -211 195s-209 -88 -209 -195z" />
    <glyph glyph-name="one.superior" unicode="&#xb9;" horiz-adv-x="289" 
d="M16 564l-9 28l148 61h35v-433h-35v401z" />
    <glyph glyph-name="two.superior" unicode="&#xb2;" horiz-adv-x="476" 
d="M81 569l-20 24c49 35 100 69 187 69c90 0 179 -36 179 -116c0 -91 -112 -112 -183 -132c-87 -23 -165 -63 -165 -152v-14h344v-28h-379v39c0 111 98 160 197 186c53 14 151 31 151 101c0 60 -72 86 -143 86c-77 0 -125 -31 -168 -63z" />
    <glyph glyph-name="three.superior" unicode="&#xb3;" horiz-adv-x="546" 
d="M256 436v29h87c27 0 87 24 87 78c0 64 -82 89 -144 89c-73 0 -137 -35 -184 -74l-21 22c50 41 120 82 206 82c75 0 178 -31 178 -114c0 -51 -41 -82 -72 -91c40 -7 112 -35 112 -108c0 -88 -104 -138 -235 -138c-94 0 -170 26 -234 82l22 25c49 -43 115 -77 213 -77
c111 0 199 41 199 111c0 68 -87 84 -120 84h-94z" />
    <glyph glyph-name="four.superior" unicode="&#x2074;" horiz-adv-x="554" 
d="M521 359v-29h-91v-110h-35v110h-365v29l361 294h39v-294h91zM79 361v-2h316v251h-8c-101 -81 -207 -168 -308 -249z" />
    <glyph glyph-name="five.superior" unicode="&#x2075;" horiz-adv-x="513" 
d="M433 653v-31h-322v-154c43 24 86 40 160 40c102 0 202 -38 202 -140c0 -113 -114 -157 -223 -157c-106 0 -175 40 -209 64l19 27c31 -23 94 -61 191 -61c91 0 187 36 187 127c0 81 -83 111 -168 111c-73 0 -124 -21 -168 -44l-23 17v201h354z" />
    <glyph glyph-name="six.superior" unicode="&#x2076;" horiz-adv-x="524" 
d="M453 606l-21 -25c-36 32 -86 51 -142 51c-109 0 -212 -74 -212 -202c41 27 119 70 217 70c130 0 190 -75 190 -138c0 -81 -87 -151 -205 -151c-122 0 -234 74 -234 218c0 147 117 233 245 233c90 0 140 -38 162 -56zM292 472c-95 0 -175 -44 -213 -69
c13 -107 103 -162 202 -162c98 0 169 60 169 122c0 48 -47 109 -158 109z" />
    <glyph glyph-name="seven.superior" unicode="&#x2077;" horiz-adv-x="456" 
d="M31 622v31h396v-31l-267 -402h-44l272 402h-357z" />
    <glyph glyph-name="eight.superior" unicode="&#x2078;" horiz-adv-x="523" 
d="M262 209c-106 0 -220 49 -220 135c0 70 73 108 146 119c-70 9 -110 40 -110 90c0 76 102 111 184 111s183 -35 183 -111c0 -50 -39 -81 -111 -90c75 -11 148 -49 148 -119c0 -86 -115 -135 -220 -135zM262 240c85 0 182 38 182 107s-100 101 -182 101s-183 -32 -183 -101
s97 -107 183 -107zM262 476c93 0 146 26 146 74c0 58 -81 86 -146 86s-147 -28 -147 -86c0 -48 54 -74 147 -74z" />
    <glyph glyph-name="nine.superior" unicode="&#x2079;" horiz-adv-x="524" 
d="M70 267l22 25c36 -32 86 -51 141 -51c110 0 212 74 213 201c-41 -27 -119 -69 -217 -69c-131 0 -190 75 -190 138c0 81 86 151 204 151c122 0 235 -74 235 -218c0 -147 -118 -233 -245 -233c-90 0 -140 38 -163 56zM232 401c94 0 175 44 212 68
c-12 108 -102 163 -201 163c-98 0 -169 -60 -169 -122c0 -48 47 -109 158 -109z" />
    <glyph glyph-name="zero.inferior" unicode="&#x2080;" horiz-adv-x="579" 
d="M44 49c0 125 111 225 244 225c135 0 247 -100 247 -225c0 -127 -112 -226 -247 -226c-133 0 -244 99 -244 226zM79 49c0 -108 95 -196 209 -196c116 0 212 88 212 196c0 107 -96 195 -212 195c-114 0 -209 -88 -209 -195z" />
    <glyph glyph-name="one.inferior" unicode="&#x2081;" horiz-adv-x="289" 
d="M15 176l-8 28l148 61h35v-433h-35v401z" />
    <glyph glyph-name="two.inferior" unicode="&#x2082;" horiz-adv-x="477" 
d="M81 181l-20 24c49 35 100 69 187 69c89 0 179 -36 179 -116c0 -91 -112 -112 -183 -132c-87 -23 -166 -63 -166 -152v-14h345v-28h-379v39c0 111 98 160 197 186c52 14 151 31 151 101c0 60 -73 86 -144 86c-76 0 -124 -31 -167 -63z" />
    <glyph glyph-name="three.inferior" unicode="&#x2083;" horiz-adv-x="547" 
d="M256 48v29h87c27 0 87 24 87 78c0 64 -83 89 -144 89c-73 0 -137 -35 -184 -74l-21 22c50 41 120 82 205 82c76 0 179 -31 179 -114c0 -51 -41 -82 -72 -91c40 -7 112 -35 112 -108c0 -88 -104 -138 -235 -138c-94 0 -170 26 -234 82l21 25c50 -43 116 -77 213 -77
c112 0 200 41 200 111c0 68 -88 84 -120 84h-94z" />
    <glyph glyph-name="four.inferior" unicode="&#x2084;" horiz-adv-x="552" 
d="M521 -29v-29h-91v-110h-35v110h-365v29l361 294h39v-294h91zM79 -27v-2h316v251h-8c-101 -81 -207 -168 -308 -249z" />
    <glyph glyph-name="five.inferior" unicode="&#x2085;" horiz-adv-x="513" 
d="M433 265v-31h-322v-154c43 24 86 40 160 40c102 0 202 -38 202 -140c0 -113 -114 -157 -223 -157c-106 0 -175 40 -209 64l19 27c31 -23 94 -61 191 -61c91 0 187 36 187 127c0 81 -83 111 -168 111c-73 0 -124 -21 -168 -44l-23 17v201h354z" />
    <glyph glyph-name="six.inferior" unicode="&#x2086;" horiz-adv-x="524" 
d="M454 218l-22 -25c-36 32 -86 51 -141 51c-110 0 -212 -74 -212 -201c41 27 120 69 216 69c131 0 190 -75 190 -138c0 -81 -86 -151 -204 -151c-122 0 -235 74 -235 218c0 147 118 233 245 233c90 0 140 -38 163 -56zM293 84c-94 0 -174 -44 -213 -69
c13 -107 103 -162 201 -162s169 60 169 122c0 48 -46 109 -157 109z" />
    <glyph glyph-name="seven.inferior" unicode="&#x2087;" horiz-adv-x="457" 
d="M32 234v31h396v-31l-267 -402h-45l272 402h-356z" />
    <glyph glyph-name="eight.inferior" unicode="&#x2088;" horiz-adv-x="523" 
d="M262 -179c-106 0 -220 49 -220 135c0 70 73 108 146 119c-70 9 -110 40 -110 90c0 76 102 111 184 111s183 -35 183 -111c0 -50 -39 -81 -111 -90c75 -11 148 -49 148 -119c0 -86 -115 -135 -220 -135zM262 -148c85 0 182 38 182 107s-100 101 -182 101
s-183 -32 -183 -101s97 -107 183 -107zM262 88c93 0 146 26 146 74c0 58 -81 86 -146 86s-147 -28 -147 -86c0 -48 54 -74 147 -74z" />
    <glyph glyph-name="nine.inferior" unicode="&#x2089;" horiz-adv-x="524" 
d="M70 -121l22 25c36 -32 86 -51 141 -51c110 0 212 74 213 201c-41 -27 -119 -69 -217 -69c-131 0 -190 75 -190 138c0 81 86 151 204 151c122 0 235 -74 235 -218c0 -147 -118 -233 -245 -233c-90 0 -140 38 -163 56zM232 13c94 0 175 44 212 68
c-12 108 -102 163 -201 163c-98 0 -169 -60 -169 -122c0 -48 47 -109 158 -109z" />
    <glyph glyph-name="zero.numerator" horiz-adv-x="579" 
d="M44 437c0 125 111 225 244 225c135 0 247 -100 247 -225c0 -127 -112 -226 -247 -226c-133 0 -244 99 -244 226zM79 437c0 -108 95 -196 209 -196c116 0 212 88 212 196c0 107 -96 195 -212 195c-114 0 -209 -88 -209 -195z" />
    <glyph glyph-name="one.numerator" horiz-adv-x="289" 
d="M15 564l-8 28l148 61h35v-433h-35v401z" />
    <glyph glyph-name="two.numerator" horiz-adv-x="477" 
d="M81 569l-20 24c49 35 100 69 187 69c89 0 179 -36 179 -116c0 -91 -112 -112 -183 -132c-87 -23 -166 -63 -166 -152v-14h345v-28h-379v39c0 111 98 160 197 186c52 14 151 31 151 101c0 60 -73 86 -144 86c-76 0 -124 -31 -167 -63z" />
    <glyph glyph-name="three.numerator" horiz-adv-x="547" 
d="M256 436v29h87c27 0 87 24 87 78c0 64 -82 89 -144 89c-73 0 -137 -35 -184 -74l-21 22c50 41 120 82 206 82c75 0 178 -31 178 -114c0 -51 -41 -82 -72 -91c40 -7 112 -35 112 -108c0 -88 -104 -138 -235 -138c-94 0 -170 26 -234 82l22 25c49 -43 115 -77 213 -77
c111 0 199 41 199 111c0 68 -87 84 -120 84h-94z" />
    <glyph glyph-name="four.numerator" horiz-adv-x="552" 
d="M521 359v-29h-91v-110h-35v110h-365v29l361 294h39v-294h91zM79 361v-2h316v251h-8c-101 -81 -207 -168 -308 -249z" />
    <glyph glyph-name="five.numerator" horiz-adv-x="513" 
d="M433 653v-31h-322v-154c43 24 86 40 160 40c102 0 202 -38 202 -140c0 -113 -114 -157 -223 -157c-106 0 -175 40 -209 64l19 27c31 -23 94 -61 191 -61c91 0 187 36 187 127c0 81 -83 111 -168 111c-73 0 -124 -21 -168 -44l-23 17v201h354z" />
    <glyph glyph-name="six.numerator" horiz-adv-x="524" 
d="M454 606l-22 -25c-36 32 -86 51 -141 51c-110 0 -212 -74 -212 -201c41 27 120 69 216 69c131 0 190 -75 190 -138c0 -81 -86 -151 -204 -151c-122 0 -235 74 -235 218c0 147 118 233 245 233c90 0 140 -38 163 -56zM293 472c-94 0 -174 -44 -213 -69
c13 -107 103 -162 201 -162s169 60 169 122c0 48 -46 109 -157 109z" />
    <glyph glyph-name="seven.numerator" horiz-adv-x="457" 
d="M32 622v31h396v-31l-267 -402h-45l272 402h-356z" />
    <glyph glyph-name="eight.numerator" horiz-adv-x="523" 
d="M262 209c-106 0 -220 49 -220 135c0 70 73 108 146 119c-70 9 -110 40 -110 90c0 76 102 111 184 111s183 -35 183 -111c0 -50 -39 -81 -111 -90c75 -11 148 -49 148 -119c0 -86 -115 -135 -220 -135zM262 240c85 0 182 38 182 107s-100 101 -182 101s-183 -32 -183 -101
s97 -107 183 -107zM262 476c93 0 146 26 146 74c0 58 -81 86 -146 86s-147 -28 -147 -86c0 -48 54 -74 147 -74z" />
    <glyph glyph-name="nine.numerator" horiz-adv-x="524" 
d="M70 267l22 25c36 -32 86 -51 141 -51c110 0 212 74 213 201c-41 -27 -119 -69 -217 -69c-131 0 -190 75 -190 138c0 81 86 151 204 151c122 0 235 -74 235 -218c0 -147 -118 -233 -245 -233c-90 0 -140 38 -163 56zM232 401c94 0 175 44 212 68
c-12 108 -102 163 -201 163c-98 0 -169 -60 -169 -122c0 -48 47 -109 158 -109z" />
    <glyph glyph-name="zero.denominator" horiz-adv-x="579" 
d="M44 217c0 125 111 225 244 225c135 0 247 -100 247 -225c0 -127 -112 -226 -247 -226c-133 0 -244 99 -244 226zM79 217c0 -108 95 -196 209 -196c116 0 212 88 212 196c0 107 -96 195 -212 195c-114 0 -209 -88 -209 -195z" />
    <glyph glyph-name="one.denominator" horiz-adv-x="289" 
d="M15 344l-8 28l148 61h35v-433h-35v401z" />
    <glyph glyph-name="two.denominator" horiz-adv-x="477" 
d="M81 349l-20 24c49 35 100 69 187 69c89 0 179 -36 179 -116c0 -91 -112 -112 -183 -132c-87 -23 -166 -63 -166 -152v-14h345v-28h-379v39c0 111 98 160 197 186c52 14 151 31 151 101c0 60 -73 86 -144 86c-76 0 -124 -31 -167 -63z" />
    <glyph glyph-name="three.denominator" horiz-adv-x="547" 
d="M256 216v29h87c27 0 87 24 87 78c0 64 -83 89 -144 89c-73 0 -137 -35 -184 -74l-21 22c50 41 120 82 205 82c76 0 179 -31 179 -114c0 -51 -41 -82 -72 -91c40 -7 112 -35 112 -108c0 -88 -104 -138 -235 -138c-94 0 -170 26 -234 82l21 25c50 -43 116 -77 213 -77
c112 0 200 41 200 111c0 68 -88 84 -120 84h-94z" />
    <glyph glyph-name="four.denominator" horiz-adv-x="552" 
d="M521 139v-29h-91v-110h-35v110h-365v29l361 294h39v-294h91zM79 141v-2h316v251h-8c-101 -81 -207 -168 -308 -249z" />
    <glyph glyph-name="five.denominator" horiz-adv-x="513" 
d="M433 433v-31h-322v-154c43 24 86 40 160 40c102 0 202 -38 202 -140c0 -113 -114 -157 -223 -157c-106 0 -175 40 -209 64l19 27c31 -23 94 -61 191 -61c91 0 187 36 187 127c0 81 -83 111 -168 111c-73 0 -124 -21 -168 -44l-23 17v201h354z" />
    <glyph glyph-name="six.denominator" horiz-adv-x="524" 
d="M454 386l-22 -25c-36 32 -86 51 -141 51c-110 0 -212 -74 -212 -201c41 27 120 69 216 69c131 0 190 -75 190 -138c0 -81 -86 -151 -204 -151c-122 0 -235 74 -235 218c0 147 118 233 245 233c90 0 140 -38 163 -56zM293 252c-94 0 -174 -44 -213 -69
c13 -107 103 -162 201 -162s169 60 169 122c0 48 -46 109 -157 109z" />
    <glyph glyph-name="seven.denominator" horiz-adv-x="457" 
d="M32 402v31h396v-31l-267 -402h-45l272 402h-356z" />
    <glyph glyph-name="eight.denominator" horiz-adv-x="523" 
d="M262 -11c-106 0 -220 49 -220 135c0 70 73 108 146 119c-70 9 -110 40 -110 90c0 76 102 111 184 111s183 -35 183 -111c0 -50 -39 -81 -111 -90c75 -11 148 -49 148 -119c0 -86 -115 -135 -220 -135zM262 20c85 0 182 38 182 107s-100 101 -182 101s-183 -32 -183 -101
s97 -107 183 -107zM262 256c93 0 146 26 146 74c0 58 -81 86 -146 86s-147 -28 -147 -86c0 -48 54 -74 147 -74z" />
    <glyph glyph-name="nine.denominator" horiz-adv-x="524" 
d="M70 47l22 25c36 -32 86 -51 141 -51c110 0 212 74 213 201c-41 -27 -119 -69 -217 -69c-131 0 -190 75 -190 138c0 81 86 151 204 151c122 0 235 -74 235 -218c0 -147 -118 -233 -245 -233c-90 0 -140 38 -163 56zM232 181c94 0 175 44 212 68c-12 108 -102 163 -201 163
c-98 0 -169 -60 -169 -122c0 -48 47 -109 158 -109z" />
    <glyph glyph-name="onehalf" unicode="&#xbd;" horiz-adv-x="986" 
d="M15 564l-8 28l148 61h35v-433h-35v401zM602 653l-370 -653h-33l370 653h33zM590 349l-20 24c49 35 100 69 187 69c89 0 179 -36 179 -116c0 -91 -112 -112 -183 -132c-87 -23 -166 -63 -166 -152v-14h345v-28h-379v39c0 111 98 160 197 186c52 14 151 31 151 101
c0 60 -73 86 -144 86c-76 0 -124 -31 -167 -63z" />
    <glyph glyph-name="onequarter" unicode="&#xbc;" horiz-adv-x="1008" 
d="M15 564l-8 28l148 61h35v-433h-35v401zM602 653l-370 -653h-33l370 653h33zM977 139v-29h-91v-110h-35v110h-365v29l361 294h39v-294h91zM535 141v-2h316v251h-8c-101 -81 -207 -168 -308 -249z" />
    <glyph glyph-name="threequarters" unicode="&#xbe;" horiz-adv-x="1266" 
d="M256 436v29h87c27 0 87 24 87 78c0 64 -82 89 -144 89c-73 0 -137 -35 -184 -74l-21 22c50 41 120 82 206 82c75 0 178 -31 178 -114c0 -51 -41 -82 -72 -91c40 -7 112 -35 112 -108c0 -88 -104 -138 -235 -138c-94 0 -170 26 -234 82l22 25c49 -43 115 -77 213 -77
c111 0 199 41 199 111c0 68 -87 84 -120 84h-94zM860 653l-370 -653h-33l370 653h33zM1235 139v-29h-91v-110h-35v110h-365v29l361 294h39v-294h91zM793 141v-2h316v251h-8c-101 -81 -207 -168 -308 -249z" />
    <glyph glyph-name="onethird" unicode="&#x2153;" horiz-adv-x="1056" 
d="M15 564l-8 28l148 61h35v-433h-35v401zM602 653l-370 -653h-33l370 653h33zM765 216v29h87c27 0 87 24 87 78c0 64 -83 89 -144 89c-73 0 -137 -35 -184 -74l-21 22c50 41 120 82 205 82c76 0 179 -31 179 -114c0 -51 -41 -82 -72 -91c40 -7 112 -35 112 -108
c0 -88 -104 -138 -235 -138c-94 0 -170 26 -234 82l21 25c50 -43 116 -77 213 -77c112 0 200 41 200 111c0 68 -88 84 -120 84h-94z" />
    <glyph glyph-name="twothirds" unicode="&#x2154;" horiz-adv-x="1244" 
d="M81 569l-20 24c49 35 100 69 187 69c89 0 179 -36 179 -116c0 -91 -112 -112 -183 -132c-87 -23 -166 -63 -166 -152v-14h345v-28h-379v39c0 111 98 160 197 186c52 14 151 31 151 101c0 60 -73 86 -144 86c-76 0 -124 -31 -167 -63zM790 653l-370 -653h-33l370 653h33z
M953 216v29h87c27 0 87 24 87 78c0 64 -83 89 -144 89c-73 0 -137 -35 -184 -74l-21 22c50 41 120 82 205 82c76 0 179 -31 179 -114c0 -51 -41 -82 -72 -91c40 -7 112 -35 112 -108c0 -88 -104 -138 -235 -138c-94 0 -170 26 -234 82l21 25c50 -43 116 -77 213 -77
c112 0 200 41 200 111c0 68 -88 84 -120 84h-94z" />
    <glyph glyph-name="oneeighth" unicode="&#x215b;" horiz-adv-x="1032" 
d="M15 564l-8 28l148 61h35v-433h-35v401zM602 653l-370 -653h-33l370 653h33zM771 -11c-106 0 -220 49 -220 135c0 70 73 108 146 119c-70 9 -110 40 -110 90c0 76 102 111 184 111s183 -35 183 -111c0 -50 -39 -81 -111 -90c75 -11 148 -49 148 -119
c0 -86 -115 -135 -220 -135zM771 20c85 0 182 38 182 107s-100 101 -182 101s-183 -32 -183 -101s97 -107 183 -107zM771 256c93 0 146 26 146 74c0 58 -81 86 -146 86s-147 -28 -147 -86c0 -48 54 -74 147 -74z" />
    <glyph glyph-name="threeeighths" unicode="&#x215c;" horiz-adv-x="1290" 
d="M256 436v29h87c27 0 87 24 87 78c0 64 -82 89 -144 89c-73 0 -137 -35 -184 -74l-21 22c50 41 120 82 206 82c75 0 178 -31 178 -114c0 -51 -41 -82 -72 -91c40 -7 112 -35 112 -108c0 -88 -104 -138 -235 -138c-94 0 -170 26 -234 82l22 25c49 -43 115 -77 213 -77
c111 0 199 41 199 111c0 68 -87 84 -120 84h-94zM860 653l-370 -653h-33l370 653h33zM1029 -11c-106 0 -220 49 -220 135c0 70 73 108 146 119c-70 9 -110 40 -110 90c0 76 102 111 184 111s183 -35 183 -111c0 -50 -39 -81 -111 -90c75 -11 148 -49 148 -119
c0 -86 -115 -135 -220 -135zM1029 20c85 0 182 38 182 107s-100 101 -182 101s-183 -32 -183 -101s97 -107 183 -107zM1029 256c93 0 146 26 146 74c0 58 -81 86 -146 86s-147 -28 -147 -86c0 -48 54 -74 147 -74z" />
    <glyph glyph-name="fiveeighths" unicode="&#x215d;" horiz-adv-x="1256" 
d="M433 653v-31h-322v-154c43 24 86 40 160 40c102 0 202 -38 202 -140c0 -113 -114 -157 -223 -157c-106 0 -175 40 -209 64l19 27c31 -23 94 -61 191 -61c91 0 187 36 187 127c0 81 -83 111 -168 111c-73 0 -124 -21 -168 -44l-23 17v201h354zM826 653l-370 -653h-33
l370 653h33zM995 -11c-106 0 -220 49 -220 135c0 70 73 108 146 119c-70 9 -110 40 -110 90c0 76 102 111 184 111s183 -35 183 -111c0 -50 -39 -81 -111 -90c75 -11 148 -49 148 -119c0 -86 -115 -135 -220 -135zM995 20c85 0 182 38 182 107s-100 101 -182 101
s-183 -32 -183 -101s97 -107 183 -107zM995 256c93 0 146 26 146 74c0 58 -81 86 -146 86s-147 -28 -147 -86c0 -48 54 -74 147 -74z" />
    <glyph glyph-name="seveneighths" unicode="&#x215e;" horiz-adv-x="1128" 
d="M32 622v31h396v-31l-267 -402h-45l272 402h-356zM698 653l-370 -653h-33l370 653h33zM867 -11c-106 0 -220 49 -220 135c0 70 73 108 146 119c-70 9 -110 40 -110 90c0 76 102 111 184 111s183 -35 183 -111c0 -50 -39 -81 -111 -90c75 -11 148 -49 148 -119
c0 -86 -115 -135 -220 -135zM867 20c85 0 182 38 182 107s-100 101 -182 101s-183 -32 -183 -101s97 -107 183 -107zM867 256c93 0 146 26 146 74c0 58 -81 86 -146 86s-147 -28 -147 -86c0 -48 54 -74 147 -74z" />
    <glyph glyph-name="fraction" unicode="&#x2044;" horiz-adv-x="220" 
d="M313 653l-370 -653h-33l370 653h33z" />
    <glyph glyph-name="Aacute" unicode="&#xc1;" horiz-adv-x="749" 
d="M90 0h-40l303 653h43l303 -653h-42l-108 234h-351zM371 610l-159 -344h323l-158 344h-6zM319 746l149 111l51 -6l-168 -111z" />
    <glyph glyph-name="Agrave" unicode="&#xc0;" horiz-adv-x="749" 
d="M90 0h-40l303 653h43l303 -653h-42l-108 234h-351zM371 610l-159 -344h323l-158 344h-6zM396 740l-168 111l51 6l148 -111z" />
    <glyph glyph-name="Acircumflex" unicode="&#xc2;" horiz-adv-x="749" 
d="M90 0h-40l303 653h43l303 -653h-42l-108 234h-351zM371 610l-159 -344h323l-158 344h-6zM241 746l114 110h38l114 -110l-28 -6l-105 92l-105 -92z" />
    <glyph glyph-name="Adieresis" unicode="&#xc4;" horiz-adv-x="749" 
d="M90 0h-40l303 653h43l303 -653h-42l-108 234h-351zM371 610l-159 -344h323l-158 344h-6zM464 813c16 0 28 -12 28 -27s-12 -26 -28 -26s-27 12 -27 26s11 27 27 27zM283 813c16 0 28 -12 28 -27s-12 -26 -28 -26s-27 12 -27 26s11 27 27 27z" />
    <glyph glyph-name="Atilde" unicode="&#xc3;" horiz-adv-x="749" 
d="M90 0h-40l303 653h43l303 -653h-42l-108 234h-351zM371 610l-159 -344h323l-158 344h-6zM252 748l-25 14c23 36 47 62 80 62c24 0 41 -13 66 -33c18 -14 39 -28 61 -28c23 0 41 24 57 47l24 -13c-22 -35 -46 -62 -80 -62c-29 0 -52 14 -71 29c-23 18 -38 31 -55 31
c-24 0 -41 -25 -57 -47z" />
    <glyph glyph-name="Aring" unicode="&#xc5;" horiz-adv-x="749" 
d="M90 0h-40l303 653h43l303 -653h-42l-108 234h-351zM371 610l-159 -344h323l-158 344h-6zM293 784c0 -38 31 -67 79 -67s81 29 81 67s-33 68 -81 68s-79 -30 -79 -68zM372 697c-65 0 -104 38 -104 87s39 88 104 88s107 -39 107 -88s-42 -87 -107 -87z" />
    <glyph glyph-name="Abreve" unicode="&#x102;" horiz-adv-x="749" 
d="M90 0h-40l303 653h43l303 -653h-42l-108 234h-351zM371 610l-159 -344h323l-158 344h-6zM252 852h29c0 -41 16 -93 93 -93s93 52 93 93h29c0 -51 -22 -119 -122 -119s-122 68 -122 119z" />
    <glyph glyph-name="Amacron" unicode="&#x100;" horiz-adv-x="749" 
d="M90 0h-40l303 653h43l303 -653h-42l-108 234h-351zM371 610l-159 -344h323l-158 344h-6zM252 807h243v-29h-243v29z" />
    <glyph glyph-name="Aogonek" unicode="&#x104;" horiz-adv-x="749" 
d="M90 0h-40l303 653h43l303 -653h-14c-40 -17 -139 -64 -139 -129c0 -45 42 -71 107 -71c23 0 47 4 70 8l4 -25c-26 -5 -52 -8 -79 -8c-82 0 -135 34 -135 90c0 70 89 119 141 141l-105 228h-351zM371 610l-159 -344h323l-158 344h-6z" />
    <glyph glyph-name="Aringacute" unicode="&#x1fa;" horiz-adv-x="749" 
d="M90 0h-40l303 653h43l303 -653h-42l-108 234h-351zM371 610l-159 -344h323l-158 344h-6zM293 784c0 -38 31 -67 79 -67s81 29 81 67s-33 68 -81 68s-79 -30 -79 -68zM372 697c-65 0 -104 38 -104 87s39 88 104 88s107 -39 107 -88s-42 -87 -107 -87zM319 911l149 111
l51 -6l-168 -111z" />
    <glyph glyph-name="Ccedilla" unicode="&#xc7;" horiz-adv-x="793" 
d="M708 133l26 -26c-73 -69 -176 -120 -296 -120h-10l-17 -61c16 4 36 8 58 8c42 0 91 -18 91 -73c0 -56 -66 -86 -149 -86c-56 0 -107 13 -150 25l8 22c41 -11 91 -23 141 -23c65 0 116 21 116 62s-37 52 -67 52c-21 0 -43 -5 -63 -10l-16 15l22 71
c-187 16 -326 162 -326 338c0 186 158 339 360 339c112 0 215 -42 286 -107l-27 -26c-65 60 -160 98 -258 98c-180 0 -320 -137 -320 -304c0 -168 140 -305 321 -305c107 0 202 45 270 111z" />
    <glyph glyph-name="Cacute" unicode="&#x106;" horiz-adv-x="793" 
d="M708 133l26 -26c-73 -69 -176 -120 -296 -120c-205 0 -362 153 -362 340c0 186 158 339 360 339c112 0 215 -42 286 -107l-27 -26c-65 60 -160 98 -258 98c-180 0 -320 -137 -320 -304c0 -168 140 -305 321 -305c107 0 202 45 270 111zM382 746l149 111l51 -6l-168 -111z
" />
    <glyph glyph-name="Ccaron" unicode="&#x10c;" horiz-adv-x="793" 
d="M708 133l26 -26c-73 -69 -176 -120 -296 -120c-205 0 -362 153 -362 340c0 186 158 339 360 339c112 0 215 -42 286 -107l-27 -26c-65 60 -160 98 -258 98c-180 0 -320 -137 -320 -304c0 -168 140 -305 321 -305c107 0 202 45 270 111zM332 858l105 -92l105 92l28 -6
l-114 -110h-38l-114 110z" />
    <glyph glyph-name="Ccircumflex" unicode="&#x108;" horiz-adv-x="793" 
d="M708 133l26 -26c-73 -69 -176 -120 -296 -120c-205 0 -362 153 -362 340c0 186 158 339 360 339c112 0 215 -42 286 -107l-27 -26c-65 60 -160 98 -258 98c-180 0 -320 -137 -320 -304c0 -168 140 -305 321 -305c107 0 202 45 270 111zM304 746l114 110h38l114 -110
l-28 -6l-105 92l-105 -92z" />
    <glyph glyph-name="Cdotaccent" unicode="&#x10a;" horiz-adv-x="793" 
d="M708 133l26 -26c-73 -69 -176 -120 -296 -120c-205 0 -362 153 -362 340c0 186 158 339 360 339c112 0 215 -42 286 -107l-27 -26c-65 60 -160 98 -258 98c-180 0 -320 -137 -320 -304c0 -168 140 -305 321 -305c107 0 202 45 270 111zM437 813c16 0 28 -12 28 -27
s-12 -26 -28 -26s-27 12 -27 26s11 27 27 27z" />
    <glyph glyph-name="Dcaron" unicode="&#x10e;" horiz-adv-x="822" 
d="M384 0h-247v653h247c128 0 199 -37 265 -98c59 -58 94 -139 94 -228c0 -90 -37 -172 -96 -231c-67 -59 -134 -96 -263 -96zM176 34h207c116 0 174 33 233 86c53 53 86 127 86 207s-31 152 -85 205c-59 53 -119 87 -234 87h-207v-585zM301 858l105 -92l105 92l28 -6
l-114 -110h-38l-114 110z" />
    <glyph glyph-name="Dcroat" unicode="&#x110;" horiz-adv-x="844" 
d="M60 331v32h100v290h247c128 0 199 -37 265 -98c59 -58 93 -139 93 -228c0 -90 -36 -172 -96 -231c-66 -59 -134 -96 -262 -96h-247v331h-100zM199 34h207c116 0 174 33 233 86c53 53 86 127 86 207s-32 152 -85 205c-59 53 -119 87 -234 87h-207v-256h236v-32h-236v-297z
" />
    <glyph glyph-name="Eacute" unicode="&#xc9;" horiz-adv-x="721" 
d="M466 365v-34h-290v-297h497v-34h-536v653h515v-34h-476v-254h290zM342 746l149 111l51 -6l-168 -111z" />
    <glyph glyph-name="Egrave" unicode="&#xc8;" horiz-adv-x="721" 
d="M466 365v-34h-290v-297h497v-34h-536v653h515v-34h-476v-254h290zM419 740l-168 111l51 6l148 -111z" />
    <glyph glyph-name="Ecircumflex" unicode="&#xca;" horiz-adv-x="721" 
d="M466 365v-34h-290v-297h497v-34h-536v653h515v-34h-476v-254h290zM264 746l114 110h38l114 -110l-28 -6l-105 92l-105 -92z" />
    <glyph glyph-name="Edieresis" unicode="&#xcb;" horiz-adv-x="721" 
d="M466 365v-34h-290v-297h497v-34h-536v653h515v-34h-476v-254h290zM487 813c16 0 28 -12 28 -27s-12 -26 -28 -26s-27 12 -27 26s11 27 27 27zM306 813c16 0 28 -12 28 -27s-12 -26 -28 -26s-27 12 -27 26s11 27 27 27z" />
    <glyph glyph-name="Ebreve" unicode="&#x114;" horiz-adv-x="721" 
d="M466 365v-34h-290v-297h497v-34h-536v653h515v-34h-476v-254h290zM275 852h29c0 -41 16 -93 93 -93s93 52 93 93h29c0 -51 -22 -119 -122 -119s-122 68 -122 119z" />
    <glyph glyph-name="Ecaron" unicode="&#x11a;" horiz-adv-x="721" 
d="M466 365v-34h-290v-297h497v-34h-536v653h515v-34h-476v-254h290zM292 858l105 -92l105 92l28 -6l-114 -110h-38l-114 110z" />
    <glyph glyph-name="Edotaccent" unicode="&#x116;" horiz-adv-x="721" 
d="M466 365v-34h-290v-297h497v-34h-536v653h515v-34h-476v-254h290zM397 813c16 0 28 -12 28 -27s-12 -26 -28 -26s-27 12 -27 26s11 27 27 27z" />
    <glyph glyph-name="Emacron" unicode="&#x112;" horiz-adv-x="721" 
d="M466 365v-34h-290v-297h497v-34h-536v653h515v-34h-476v-254h290zM275 807h243v-29h-243v29z" />
    <glyph glyph-name="Eogonek" unicode="&#x118;" horiz-adv-x="721" 
d="M466 365v-34h-290v-297h497v-34h-99c-40 -17 -139 -64 -139 -129c0 -45 42 -71 107 -71c23 0 47 4 70 8l4 -25c-26 -5 -52 -8 -79 -8c-82 0 -135 34 -135 90c0 64 74 111 126 135h-391v653h515v-34h-476v-254h290z" />
    <glyph glyph-name="Gbreve" unicode="&#x11e;" horiz-adv-x="824" 
d="M708 570l-26 -24c-64 52 -154 85 -245 85c-179 0 -320 -136 -320 -304c0 -166 137 -305 323 -305c94 0 185 33 247 86v198h-227v34h264v-250c-75 -63 -179 -103 -286 -103c-201 0 -362 152 -362 340s161 339 361 339c101 0 198 -36 271 -96zM316 852h29
c0 -41 16 -93 93 -93s93 52 93 93h29c0 -51 -22 -119 -122 -119s-122 68 -122 119z" />
    <glyph glyph-name="Gcircumflex" unicode="&#x11c;" horiz-adv-x="824" 
d="M708 570l-26 -24c-64 52 -154 85 -245 85c-179 0 -320 -136 -320 -304c0 -166 137 -305 323 -305c94 0 185 33 247 86v198h-227v34h264v-250c-75 -63 -179 -103 -286 -103c-201 0 -362 152 -362 340s161 339 361 339c101 0 198 -36 271 -96zM305 746l114 110h38l114 -110
l-28 -6l-105 92l-105 -92z" />
    <glyph glyph-name="uni0122" unicode="&#x122;" horiz-adv-x="824" 
d="M708 570l-26 -24c-64 52 -154 85 -245 85c-179 0 -320 -136 -320 -304c0 -166 137 -305 323 -305c94 0 185 33 247 86v198h-227v34h264v-250c-75 -63 -179 -103 -286 -103c-201 0 -362 152 -362 340s161 339 361 339c101 0 198 -36 271 -96zM445 -55l27 12
c31 -22 59 -53 59 -94c0 -58 -54 -94 -140 -94c-24 0 -46 3 -69 7l4 25c20 -3 41 -6 60 -6c68 0 110 26 110 70c0 34 -23 60 -51 80z" />
    <glyph glyph-name="Gdotaccent" unicode="&#x120;" horiz-adv-x="824" 
d="M708 570l-26 -24c-64 52 -154 85 -245 85c-179 0 -320 -136 -320 -304c0 -166 137 -305 323 -305c94 0 185 33 247 86v198h-227v34h264v-250c-75 -63 -179 -103 -286 -103c-201 0 -362 152 -362 340s161 339 361 339c101 0 198 -36 271 -96zM438 813c16 0 28 -12 28 -27
s-12 -26 -28 -26s-27 12 -27 26s11 27 27 27z" />
    <glyph glyph-name="Hbar" unicode="&#x126;" horiz-adv-x="843" 
d="M39 477v32h100v144h39v-144h487v144h39v-144h100v-32h-100v-477h-39v309h-487v-309h-39v477h-100zM178 343h487v134h-487v-134z" />
    <glyph glyph-name="Hcircumflex" unicode="&#x124;" horiz-adv-x="839" 
d="M176 0h-39v653h39v-284h486v284h39v-653h-39v335h-486v-335zM286 746l114 110h38l114 -110l-28 -6l-105 92l-105 -92z" />
    <glyph glyph-name="Iacute" unicode="&#xcd;" horiz-adv-x="313" 
d="M176 0h-39v653h39v-653zM102 746l148 111l52 -6l-169 -111z" />
    <glyph glyph-name="Igrave" unicode="&#xcc;" horiz-adv-x="313" 
d="M176 0h-39v653h39v-653zM61 857l149 -111l-32 -6l-168 111z" />
    <glyph glyph-name="Icircumflex" unicode="&#xce;" horiz-adv-x="313" 
d="M176 0h-39v653h39v-653zM23 746l115 110h37l115 -110l-29 -6l-104 92l-105 -92z" />
    <glyph glyph-name="Idieresis" unicode="&#xcf;" horiz-adv-x="313" 
d="M176 0h-39v653h39v-653zM247 813c16 0 28 -12 28 -27s-12 -26 -28 -26s-27 12 -27 26s11 27 27 27zM66 813c16 0 27 -12 27 -27s-11 -26 -27 -26s-28 12 -28 26s12 27 28 27z" />
    <glyph glyph-name="Ibreve" unicode="&#x12c;" horiz-adv-x="313" 
d="M176 0h-39v653h39v-653zM34 852h29c0 -41 17 -93 94 -93c76 0 93 52 93 93h29c0 -51 -22 -119 -122 -119c-101 0 -123 68 -123 119z" />
    <glyph glyph-name="Idotaccent" unicode="&#x130;" horiz-adv-x="313" 
d="M176 0h-39v653h39v-653zM157 813c16 0 27 -12 27 -27s-11 -26 -27 -26s-28 12 -28 26s12 27 28 27z" />
    <glyph glyph-name="Imacron" unicode="&#x12a;" horiz-adv-x="313" 
d="M176 0h-39v653h39v-653zM35 807h243v-29h-243v29z" />
    <glyph glyph-name="Iogonek" unicode="&#x12e;" horiz-adv-x="313" 
d="M176 0c-42 -17 -141 -64 -141 -129c0 -45 42 -71 107 -71c23 0 46 4 70 8l4 -25c-26 -5 -53 -8 -79 -8c-83 0 -135 34 -135 90c0 67 83 116 135 139v649h39v-653z" />
    <glyph glyph-name="Itilde" unicode="&#x128;" horiz-adv-x="313" 
d="M176 0h-39v653h39v-653zM35 748l-26 14c24 36 47 62 81 62c23 0 40 -13 65 -33c19 -14 39 -28 61 -28c24 0 42 24 58 47l24 -13c-22 -35 -47 -62 -81 -62c-28 0 -52 14 -70 29c-24 18 -39 31 -56 31c-23 0 -41 -25 -56 -47z" />
    <glyph glyph-name="IJ" unicode="&#x132;" horiz-adv-x="1002" 
d="M176 0h-39v653h39v-653zM840 653h39v-421c0 -157 -118 -245 -277 -245c-164 0 -223 94 -256 160l33 16c27 -59 80 -141 223 -141c137 0 238 75 238 210v421z" />
    <glyph glyph-name="Jcircumflex" unicode="&#x134;" horiz-adv-x="689" 
d="M527 653h39v-421c0 -157 -118 -245 -277 -245c-164 0 -223 94 -256 160l33 16c27 -59 80 -141 223 -141c137 0 238 75 238 210v421zM415 746l114 110h38l114 -110l-28 -6l-105 92l-105 -92z" />
    <glyph glyph-name="uni0136" unicode="&#x136;" horiz-adv-x="735" 
d="M608 653h47l-246 -247l296 -406h-50l-274 379l-205 -208v-171h-39v653h39v-438zM380 -55l27 12c31 -22 59 -53 59 -94c0 -58 -54 -94 -140 -94c-24 0 -46 3 -69 7l4 25c20 -3 41 -6 60 -6c68 0 110 26 110 70c0 34 -23 60 -51 80z" />
    <glyph glyph-name="Lacute" unicode="&#x139;" horiz-adv-x="631" 
d="M137 653h39v-619h432v-34h-471v653zM102 746l149 111l51 -6l-168 -111z" />
    <glyph glyph-name="Lcaron" unicode="&#x13d;" horiz-adv-x="631" 
d="M137 0v653h39v-619h432v-34h-471zM327 494c-3 1 -22 3 -23 3c23 56 32 131 32 203h36c0 -84 -12 -143 -45 -206z" />
    <glyph glyph-name="uni013B" unicode="&#x13b;" horiz-adv-x="631" 
d="M137 653h39v-619h432v-34h-471v653zM327 -55l27 12c31 -22 59 -53 59 -94c0 -58 -54 -94 -140 -94c-24 0 -46 3 -69 7l4 25c20 -3 41 -6 60 -6c68 0 110 26 110 70c0 34 -23 60 -51 80z" />
    <glyph glyph-name="Ldot" unicode="&#x13f;" horiz-adv-x="652" 
d="M137 653h39v-619h432v-34h-471v653zM462 413c16 0 28 -12 28 -27s-12 -26 -28 -26s-27 12 -27 26s11 27 27 27z" />
    <glyph glyph-name="Lslash" unicode="&#x141;" horiz-adv-x="645" 
d="M151 653h39v-301l199 116l4 -31l-203 -117v-286h432v-34h-471v297l-100 -57l-4 30l104 60v323z" />
    <glyph glyph-name="Ntilde" unicode="&#xd1;" horiz-adv-x="841" 
d="M665 653h39v-653h-40l-487 592h-1v-592h-39v653h41l486 -592h1v592zM298 748l-25 14c23 36 47 62 80 62c24 0 41 -13 66 -33c18 -14 39 -28 61 -28c23 0 41 24 57 47l24 -13c-22 -35 -46 -62 -80 -62c-29 0 -52 14 -71 29c-23 18 -38 31 -55 31c-24 0 -41 -25 -57 -47z
" />
    <glyph glyph-name="Nacute" unicode="&#x143;" horiz-adv-x="841" 
d="M665 653h39v-653h-40l-487 592h-1v-592h-39v653h41l486 -592h1v592zM365 746l149 111l51 -6l-168 -111z" />
    <glyph glyph-name="Ncaron" unicode="&#x147;" horiz-adv-x="841" 
d="M665 653h39v-653h-40l-487 592h-1v-592h-39v653h41l486 -592h1v592zM315 858l105 -92l105 92l28 -6l-114 -110h-38l-114 110z" />
    <glyph glyph-name="uni0145" unicode="&#x145;" horiz-adv-x="841" 
d="M665 653h39v-653h-40l-487 592h-1v-592h-39v653h41l486 -592h1v592zM426 -55l27 12c31 -22 59 -53 59 -94c0 -58 -54 -94 -140 -94c-24 0 -46 3 -69 7l4 25c20 -3 41 -6 60 -6c68 0 110 26 110 70c0 34 -23 60 -51 80z" />
    <glyph glyph-name="Eng" unicode="&#x14a;" horiz-adv-x="841" 
d="M665 61v592h39v-635c0 -157 -118 -245 -277 -245v34c132 0 232 71 238 198h-5l-483 587h-1v-592h-39v653h41l486 -592h1z" />
    <glyph glyph-name="Oacute" unicode="&#xd3;" horiz-adv-x="861" 
d="M77 328c0 187 155 338 352 338c198 0 356 -151 356 -338c0 -190 -158 -341 -356 -341c-197 0 -352 151 -352 341zM118 328c0 -170 136 -306 311 -306c176 0 315 136 315 306c0 167 -139 303 -315 303c-175 0 -311 -136 -311 -303zM375 746l149 111l51 -6l-168 -111z" />
    <glyph glyph-name="Ograve" unicode="&#xd2;" horiz-adv-x="861" 
d="M77 328c0 187 155 338 352 338c198 0 356 -151 356 -338c0 -190 -158 -341 -356 -341c-197 0 -352 151 -352 341zM118 328c0 -170 136 -306 311 -306c176 0 315 136 315 306c0 167 -139 303 -315 303c-175 0 -311 -136 -311 -303zM452 740l-168 111l51 6l148 -111z" />
    <glyph glyph-name="Ocircumflex" unicode="&#xd4;" horiz-adv-x="861" 
d="M77 328c0 187 155 338 352 338c198 0 356 -151 356 -338c0 -190 -158 -341 -356 -341c-197 0 -352 151 -352 341zM118 328c0 -170 136 -306 311 -306c176 0 315 136 315 306c0 167 -139 303 -315 303c-175 0 -311 -136 -311 -303zM297 746l114 110h38l114 -110l-28 -6
l-105 92l-105 -92z" />
    <glyph glyph-name="Odieresis" unicode="&#xd6;" horiz-adv-x="861" 
d="M77 328c0 187 155 338 352 338c198 0 356 -151 356 -338c0 -190 -158 -341 -356 -341c-197 0 -352 151 -352 341zM118 328c0 -170 136 -306 311 -306c176 0 315 136 315 306c0 167 -139 303 -315 303c-175 0 -311 -136 -311 -303zM520 813c16 0 28 -12 28 -27
s-12 -26 -28 -26s-27 12 -27 26s11 27 27 27zM339 813c16 0 28 -12 28 -27s-12 -26 -28 -26s-27 12 -27 26s11 27 27 27z" />
    <glyph glyph-name="Otilde" unicode="&#xd5;" horiz-adv-x="861" 
d="M77 328c0 187 155 338 352 338c198 0 356 -151 356 -338c0 -190 -158 -341 -356 -341c-197 0 -352 151 -352 341zM118 328c0 -170 136 -306 311 -306c176 0 315 136 315 306c0 167 -139 303 -315 303c-175 0 -311 -136 -311 -303zM308 748l-25 14c23 36 47 62 80 62
c24 0 41 -13 66 -33c18 -14 39 -28 61 -28c23 0 41 24 57 47l24 -13c-22 -35 -46 -62 -80 -62c-29 0 -52 14 -71 29c-23 18 -38 31 -55 31c-24 0 -41 -25 -57 -47z" />
    <glyph glyph-name="Obreve" unicode="&#x14e;" horiz-adv-x="861" 
d="M77 328c0 187 155 338 352 338c198 0 356 -151 356 -338c0 -190 -158 -341 -356 -341c-197 0 -352 151 -352 341zM118 328c0 -170 136 -306 311 -306c176 0 315 136 315 306c0 167 -139 303 -315 303c-175 0 -311 -136 -311 -303zM308 852h29c0 -41 16 -93 93 -93
s93 52 93 93h29c0 -51 -22 -119 -122 -119s-122 68 -122 119z" />
    <glyph glyph-name="Ohungarumlaut" unicode="&#x150;" horiz-adv-x="861" 
d="M77 328c0 187 155 338 352 338c198 0 356 -151 356 -338c0 -190 -158 -341 -356 -341c-197 0 -352 151 -352 341zM118 328c0 -170 136 -306 311 -306c176 0 315 136 315 306c0 167 -139 303 -315 303c-175 0 -311 -136 -311 -303zM348 733l-25 4l67 134l33 -5zM510 733
l-26 4l68 134l33 -5z" />
    <glyph glyph-name="Omacron" unicode="&#x14c;" horiz-adv-x="861" 
d="M77 328c0 187 155 338 352 338c198 0 356 -151 356 -338c0 -190 -158 -341 -356 -341c-197 0 -352 151 -352 341zM118 328c0 -170 136 -306 311 -306c176 0 315 136 315 306c0 167 -139 303 -315 303c-175 0 -311 -136 -311 -303zM308 807h243v-29h-243v29z" />
    <glyph glyph-name="Oslash" unicode="&#xd8;" horiz-adv-x="861" 
d="M77 328c0 187 155 338 352 338c67 0 130 -18 184 -48l60 86l27 -18l-60 -86c88 -61 145 -160 145 -272c0 -190 -158 -341 -356 -341c-68 0 -130 17 -183 48l-60 -86l-28 18l60 86c-86 62 -141 161 -141 275zM744 328c0 99 -49 186 -125 242l-352 -505
c47 -27 102 -43 162 -43c176 0 315 136 315 306zM118 328c0 -100 47 -189 122 -244l352 504c-48 27 -103 43 -163 43c-175 0 -311 -136 -311 -303z" />
    <glyph glyph-name="Oslashacute" unicode="&#x1fe;" horiz-adv-x="861" 
d="M77 328c0 187 155 338 352 338c67 0 130 -18 184 -48l60 86l27 -18l-60 -86c88 -61 145 -160 145 -272c0 -190 -158 -341 -356 -341c-68 0 -130 17 -183 48l-60 -86l-28 18l60 86c-86 62 -141 161 -141 275zM744 328c0 99 -49 186 -125 242l-352 -505
c47 -27 102 -43 162 -43c176 0 315 136 315 306zM118 328c0 -100 47 -189 122 -244l352 504c-48 27 -103 43 -163 43c-175 0 -311 -136 -311 -303zM375 746l149 111l51 -6l-168 -111z" />
    <glyph glyph-name="Racute" unicode="&#x154;" horiz-adv-x="801" 
d="M176 0h-39v653h359c78 0 133 -21 171 -61c29 -31 48 -73 48 -121c0 -88 -63 -163 -168 -172l170 -299h-44l-166 295h-331v-295zM496 619h-320v-290h347c95 0 153 67 153 143c0 38 -15 73 -39 98c-32 33 -77 49 -141 49zM346 746l149 111l51 -6l-168 -111z" />
    <glyph glyph-name="Rcaron" unicode="&#x158;" horiz-adv-x="801" 
d="M176 0h-39v653h359c78 0 133 -21 171 -61c29 -31 48 -73 48 -121c0 -88 -63 -163 -168 -172l170 -299h-44l-166 295h-331v-295zM496 619h-320v-290h347c95 0 153 67 153 143c0 38 -15 73 -39 98c-32 33 -77 49 -141 49zM296 858l105 -92l105 92l28 -6l-114 -110h-38
l-114 110z" />
    <glyph glyph-name="uni0156" unicode="&#x156;" horiz-adv-x="801" 
d="M176 0h-39v653h359c78 0 133 -21 171 -61c29 -31 48 -73 48 -121c0 -88 -63 -163 -168 -172l170 -299h-44l-166 295h-331v-295zM496 619h-320v-290h347c95 0 153 67 153 143c0 38 -15 73 -39 98c-32 33 -77 49 -141 49zM413 -55l27 12c31 -22 59 -53 59 -94
c0 -58 -54 -94 -140 -94c-24 0 -46 3 -69 7l4 25c20 -3 41 -6 60 -6c68 0 110 26 110 70c0 34 -23 60 -51 80z" />
    <glyph glyph-name="Scaron" unicode="&#x160;" horiz-adv-x="749" 
d="M630 571l-24 -27c-43 39 -130 88 -251 88c-96 0 -214 -37 -214 -145c0 -107 129 -113 247 -119c112 -6 294 -16 294 -176c0 -142 -140 -205 -299 -205c-156 0 -251 67 -317 130l25 27c59 -58 148 -123 293 -123c138 0 259 52 259 167c0 126 -147 137 -255 143
c-134 7 -286 16 -286 153s143 182 254 182c128 0 227 -54 274 -95zM270 858l105 -92l105 92l28 -6l-114 -110h-38l-114 110z" />
    <glyph glyph-name="Sacute" unicode="&#x15a;" horiz-adv-x="749" 
d="M630 571l-24 -27c-43 39 -130 88 -251 88c-96 0 -214 -37 -214 -145c0 -107 129 -113 247 -119c112 -6 294 -16 294 -176c0 -142 -140 -205 -299 -205c-156 0 -251 67 -317 130l25 27c59 -58 148 -123 293 -123c138 0 259 52 259 167c0 126 -147 137 -255 143
c-134 7 -286 16 -286 153s143 182 254 182c128 0 227 -54 274 -95zM320 746l149 111l51 -6l-168 -111z" />
    <glyph glyph-name="Scedilla" unicode="&#x15e;" horiz-adv-x="749" 
d="M631 571l-24 -27c-43 39 -130 88 -251 88c-96 0 -214 -37 -214 -145c0 -107 129 -113 247 -119c112 -6 294 -16 294 -176c0 -141 -138 -204 -296 -205l-17 -61c16 4 36 8 58 8c42 0 91 -18 91 -73c0 -56 -66 -86 -149 -86c-56 0 -107 13 -150 25l8 22
c41 -11 91 -23 141 -23c65 0 116 21 116 62s-37 52 -67 52c-21 0 -43 -5 -63 -10l-16 15l21 70c-142 6 -231 69 -293 129l25 27c59 -58 148 -123 293 -123c138 0 259 52 259 167c0 126 -147 137 -255 143c-134 7 -286 16 -286 153s143 182 254 182c128 0 227 -54 274 -95z
" />
    <glyph glyph-name="Scircumflex" unicode="&#x15c;" horiz-adv-x="749" 
d="M630 571l-24 -27c-43 39 -130 88 -251 88c-96 0 -214 -37 -214 -145c0 -107 129 -113 247 -119c112 -6 294 -16 294 -176c0 -142 -140 -205 -299 -205c-156 0 -251 67 -317 130l25 27c59 -58 148 -123 293 -123c138 0 259 52 259 167c0 126 -147 137 -255 143
c-134 7 -286 16 -286 153s143 182 254 182c128 0 227 -54 274 -95zM242 746l114 110h38l114 -110l-28 -6l-105 92l-105 -92z" />
    <glyph glyph-name="uni0218" unicode="&#x218;" horiz-adv-x="749" 
d="M630 571l-24 -27c-43 39 -130 88 -251 88c-96 0 -214 -37 -214 -145c0 -107 129 -113 247 -119c112 -6 294 -16 294 -176c0 -142 -140 -205 -299 -205c-156 0 -251 67 -317 130l25 27c59 -58 148 -123 293 -123c138 0 259 52 259 167c0 126 -147 137 -255 143
c-134 7 -286 16 -286 153s143 182 254 182c128 0 227 -54 274 -95zM387 -55l27 12c31 -22 59 -53 59 -94c0 -58 -54 -94 -140 -94c-24 0 -46 3 -69 7l4 25c20 -3 41 -6 60 -6c68 0 110 26 110 70c0 34 -23 60 -51 80z" />
    <glyph glyph-name="Tbar" unicode="&#x166;" horiz-adv-x="603" 
d="M33 619v34h537v-34h-248v-256h150v-32h-150v-331h-39v331h-150v32h150v256h-250z" />
    <glyph glyph-name="Tcaron" unicode="&#x164;" horiz-adv-x="603" 
d="M33 619v34h537v-34h-248v-619h-39v619h-250zM196 858l105 -92l105 92l28 -6l-114 -110h-38l-114 110z" />
    <glyph glyph-name="uni0162" unicode="&#x162;" horiz-adv-x="603" 
d="M33 619v34h537v-34h-248v-619l-21 -74c16 4 36 8 58 8c42 0 91 -18 91 -73c0 -56 -66 -86 -149 -86c-56 0 -107 13 -150 25l8 22c41 -11 91 -23 141 -23c65 0 116 21 116 62s-37 52 -67 52c-21 0 -43 -5 -63 -10l-16 15l25 82h-12v619h-250z" />
    <glyph glyph-name="uni021A" unicode="&#x21a;" horiz-adv-x="603" 
d="M33 619v34h537v-34h-248v-619h-39v619h-250zM313 -55l27 12c31 -22 59 -53 59 -94c0 -58 -54 -94 -140 -94c-24 0 -46 3 -69 7l4 25c20 -3 41 -6 60 -6c68 0 110 26 110 70c0 34 -23 60 -51 80z" />
    <glyph glyph-name="Uacute" unicode="&#xda;" horiz-adv-x="810" 
d="M648 653h39v-421c0 -157 -121 -245 -283 -245c-160 0 -281 88 -281 245v421h39v-421c0 -135 104 -210 242 -210c140 0 244 75 244 210v421zM349 746l149 111l51 -6l-168 -111z" />
    <glyph glyph-name="Ugrave" unicode="&#xd9;" horiz-adv-x="810" 
d="M648 653h39v-421c0 -157 -121 -245 -283 -245c-160 0 -281 88 -281 245v421h39v-421c0 -135 104 -210 242 -210c140 0 244 75 244 210v421zM426 740l-168 111l51 6l148 -111z" />
    <glyph glyph-name="Ucircumflex" unicode="&#xdb;" horiz-adv-x="810" 
d="M648 653h39v-421c0 -157 -121 -245 -283 -245c-160 0 -281 88 -281 245v421h39v-421c0 -135 104 -210 242 -210c140 0 244 75 244 210v421zM271 746l114 110h38l114 -110l-28 -6l-105 92l-105 -92z" />
    <glyph glyph-name="Udieresis" unicode="&#xdc;" horiz-adv-x="810" 
d="M648 653h39v-421c0 -157 -121 -245 -283 -245c-160 0 -281 88 -281 245v421h39v-421c0 -135 104 -210 242 -210c140 0 244 75 244 210v421zM494 813c16 0 28 -12 28 -27s-12 -26 -28 -26s-27 12 -27 26s11 27 27 27zM313 813c16 0 28 -12 28 -27s-12 -26 -28 -26
s-27 12 -27 26s11 27 27 27z" />
    <glyph glyph-name="Ubreve" unicode="&#x16c;" horiz-adv-x="810" 
d="M648 653h39v-421c0 -157 -121 -245 -283 -245c-160 0 -281 88 -281 245v421h39v-421c0 -135 104 -210 242 -210c140 0 244 75 244 210v421zM282 852h29c0 -41 16 -93 93 -93s93 52 93 93h29c0 -51 -22 -119 -122 -119s-122 68 -122 119z" />
    <glyph glyph-name="Uhungarumlaut" unicode="&#x170;" horiz-adv-x="810" 
d="M648 653h39v-421c0 -157 -121 -245 -283 -245c-160 0 -281 88 -281 245v421h39v-421c0 -135 104 -210 242 -210c140 0 244 75 244 210v421zM322 733l-25 4l67 134l33 -5zM484 733l-26 4l68 134l33 -5z" />
    <glyph glyph-name="Umacron" unicode="&#x16a;" horiz-adv-x="810" 
d="M648 653h39v-421c0 -157 -121 -245 -283 -245c-160 0 -281 88 -281 245v421h39v-421c0 -135 104 -210 242 -210c140 0 244 75 244 210v421zM282 807h243v-29h-243v29z" />
    <glyph glyph-name="Uogonek" unicode="&#x172;" horiz-adv-x="810" 
d="M648 653h39v-421c0 -151 -112 -237 -264 -244c-46 -23 -111 -64 -111 -117c0 -45 42 -71 107 -71c23 0 47 4 70 8l4 -25c-26 -5 -52 -8 -79 -8c-82 0 -135 34 -135 90c0 54 54 96 102 123c-149 8 -258 94 -258 244v421h39v-421c0 -135 104 -210 242 -210
c140 0 244 75 244 210v421z" />
    <glyph glyph-name="Uring" unicode="&#x16e;" horiz-adv-x="810" 
d="M648 653h39v-421c0 -157 -121 -245 -283 -245c-160 0 -281 88 -281 245v421h39v-421c0 -135 104 -210 242 -210c140 0 244 75 244 210v421zM323 784c0 -38 31 -67 79 -67s81 29 81 67s-33 68 -81 68s-79 -30 -79 -68zM402 697c-65 0 -104 38 -104 87s39 88 104 88
s107 -39 107 -88s-42 -87 -107 -87z" />
    <glyph glyph-name="Utilde" unicode="&#x168;" horiz-adv-x="810" 
d="M648 653h39v-421c0 -157 -121 -245 -283 -245c-160 0 -281 88 -281 245v421h39v-421c0 -135 104 -210 242 -210c140 0 244 75 244 210v421zM282 748l-25 14c23 36 47 62 80 62c24 0 41 -13 66 -33c18 -14 39 -28 61 -28c23 0 41 24 57 47l24 -13c-22 -35 -46 -62 -80 -62
c-29 0 -52 14 -71 29c-23 18 -38 31 -55 31c-24 0 -41 -25 -57 -47z" />
    <glyph glyph-name="Wacute" unicode="&#x1e82;" horiz-adv-x="1008" 
d="M56 653h43l192 -599h4l190 599h39l190 -599h4l192 599h42l-212 -653h-47l-187 587h-4l-187 -587h-47zM449 746l149 111l51 -6l-168 -111z" />
    <glyph glyph-name="Wcircumflex" unicode="&#x174;" horiz-adv-x="1008" 
d="M56 653h43l192 -599h4l190 599h39l190 -599h4l192 599h42l-212 -653h-47l-187 587h-4l-187 -587h-47zM371 746l114 110h38l114 -110l-28 -6l-105 92l-105 -92z" />
    <glyph glyph-name="Wdieresis" unicode="&#x1e84;" horiz-adv-x="1008" 
d="M56 653h43l192 -599h4l190 599h39l190 -599h4l192 599h42l-212 -653h-47l-187 587h-4l-187 -587h-47zM594 813c16 0 28 -12 28 -27s-12 -26 -28 -26s-27 12 -27 26s11 27 27 27zM413 813c16 0 28 -12 28 -27s-12 -26 -28 -26s-27 12 -27 26s11 27 27 27z" />
    <glyph glyph-name="Wgrave" unicode="&#x1e80;" horiz-adv-x="1008" 
d="M56 653h43l192 -599h4l190 599h39l190 -599h4l192 599h42l-212 -653h-47l-187 587h-4l-187 -587h-47zM526 740l-168 111l51 6l148 -111z" />
    <glyph glyph-name="Yacute" unicode="&#xdd;" horiz-adv-x="660" 
d="M571 653h46l-268 -337v-316h-39v316l-268 337h49l240 -302zM275 746l149 111l51 -6l-168 -111z" />
    <glyph glyph-name="Ydieresis" unicode="&#x178;" horiz-adv-x="660" 
d="M571 653h46l-268 -337v-316h-39v316l-268 337h49l240 -302zM420 813c16 0 28 -12 28 -27s-12 -26 -28 -26s-27 12 -27 26s11 27 27 27zM239 813c16 0 28 -12 28 -27s-12 -26 -28 -26s-27 12 -27 26s11 27 27 27z" />
    <glyph glyph-name="Ycircumflex" unicode="&#x176;" horiz-adv-x="660" 
d="M571 653h46l-268 -337v-316h-39v316l-268 337h49l240 -302zM197 746l114 110h38l114 -110l-28 -6l-105 92l-105 -92z" />
    <glyph glyph-name="Ygrave" unicode="&#x1ef2;" horiz-adv-x="660" 
d="M571 653h46l-268 -337v-316h-39v316l-268 337h49l240 -302zM352 740l-168 111l51 6l148 -111z" />
    <glyph glyph-name="Zcaron" unicode="&#x17d;" horiz-adv-x="689" 
d="M626 34v-34h-580v26l516 593h-471v34h524v-26l-516 -593h527zM240 858l105 -92l105 92l28 -6l-114 -110h-38l-114 110z" />
    <glyph glyph-name="Zacute" unicode="&#x179;" horiz-adv-x="689" 
d="M626 34v-34h-580v26l516 593h-471v34h524v-26l-516 -593h527zM290 746l149 111l51 -6l-168 -111z" />
    <glyph glyph-name="Zdotaccent" unicode="&#x17b;" horiz-adv-x="689" 
d="M626 34v-34h-580v26l516 593h-471v34h524v-26l-516 -593h527zM345 813c16 0 28 -12 28 -27s-12 -26 -28 -26s-27 12 -27 26s11 27 27 27z" />
    <glyph glyph-name="Eth" unicode="&#xd0;" horiz-adv-x="844" 
d="M60 331v32h100v290h247c128 0 199 -37 265 -98c59 -58 93 -139 93 -228c0 -90 -36 -172 -96 -231c-66 -59 -134 -96 -262 -96h-247v331h-100zM199 34h207c116 0 174 33 233 86c53 53 86 127 86 207s-32 152 -85 205c-59 53 -119 87 -234 87h-207v-256h236v-32h-236v-297z
" />
    <glyph glyph-name="Thorn" unicode="&#xde;" horiz-adv-x="756" 
d="M137 653h39v-140h305c87 0 126 -22 167 -59c32 -34 52 -78 52 -127c0 -51 -21 -96 -55 -129c-41 -36 -82 -57 -164 -57h-305v-141h-39v653zM481 479h-305v-304h305c63 0 102 15 137 47c27 28 43 64 43 105s-15 76 -42 103c-34 33 -71 49 -138 49z" />
    <glyph glyph-name="AE" unicode="&#xc6;" horiz-adv-x="1091" 
d="M55 0h-44l482 653h529v-34h-476v-257h290v-35h-290v-293h497v-34h-536v234h-279zM503 610l-253 -344h257v344h-4z" />
    <glyph glyph-name="AEacute" unicode="&#x1fc;" horiz-adv-x="1091" 
d="M55 0h-44l482 653h529v-34h-476v-257h290v-35h-290v-293h497v-34h-536v234h-279zM503 610l-253 -344h257v344h-4zM529 746l149 111l51 -6l-168 -111z" />
    <glyph glyph-name="OE" unicode="&#x152;" horiz-adv-x="1328" 
d="M1280 34v-34h-536v207c-44 -136 -172 -220 -317 -220c-196 0 -350 151 -350 341c0 187 154 338 350 338c145 0 273 -83 317 -219v206h515v-34h-476v-257h290v-35h-290v-293h497zM118 328c0 -170 135 -306 309 -306c177 0 317 136 317 306c0 167 -140 303 -317 303
c-174 0 -309 -136 -309 -303z" />
    <glyph glyph-name="Schwa" unicode="&#x18f;" horiz-adv-x="823" 
d="M397 -13c-153 0 -324 97 -320 311h624c2 17 2 33 2 50c-6 161 -124 283 -306 283c-121 0 -217 -49 -277 -111l-27 25c67 69 173 121 304 121c214 0 348 -147 348 -334c0 -194 -155 -345 -348 -345zM398 22c148 0 270 102 299 243h-578c3 -164 149 -243 279 -243z" />
    <glyph glyph-name="acute.cap" 
d="M195 746l149 111l51 -6l-168 -111z" />
    <glyph glyph-name="grave.cap" 
d="M272 740l-168 111l51 6l148 -111z" />
    <glyph glyph-name="circumflex.cap" 
d="M117 746l114 110h38l114 -110l-28 -6l-105 92l-105 -92z" />
    <glyph glyph-name="dieresis.cap" 
d="M340 813c16 0 28 -12 28 -27s-12 -26 -28 -26s-27 12 -27 26s11 27 27 27zM159 813c16 0 28 -12 28 -27s-12 -26 -28 -26s-27 12 -27 26s11 27 27 27z" />
    <glyph glyph-name="tilde.cap" 
d="M128 748l-25 14c23 36 47 62 80 62c24 0 41 -13 66 -33c18 -14 39 -28 61 -28c23 0 41 24 57 47l24 -13c-22 -35 -46 -62 -80 -62c-29 0 -52 14 -71 29c-23 18 -38 31 -55 31c-24 0 -41 -25 -57 -47z" />
    <glyph glyph-name="ring.cap" 
d="M169 784c0 -38 31 -67 79 -67s81 29 81 67s-33 68 -81 68s-79 -30 -79 -68zM248 697c-65 0 -104 38 -104 87s39 88 104 88s107 -39 107 -88s-42 -87 -107 -87z" />
    <glyph glyph-name="cedilla.cap" 
d="M262 5h26l-22 -79c16 4 36 8 58 8c42 0 91 -18 91 -73c0 -56 -66 -86 -149 -86c-56 0 -107 13 -150 25l8 22c41 -11 91 -23 141 -23c65 0 116 21 116 62s-37 52 -67 52c-21 0 -43 -5 -63 -10l-16 15z" />
    <glyph glyph-name="breve.cap" 
d="M128 852h29c0 -41 16 -93 93 -93s93 52 93 93h29c0 -51 -22 -119 -122 -119s-122 68 -122 119z" />
    <glyph glyph-name="caron.cap" 
d="M145 858l105 -92l105 92l28 -6l-114 -110h-38l-114 110z" />
    <glyph glyph-name="dotaccent.cap" 
d="M250 813c16 0 28 -12 28 -27s-12 -26 -28 -26s-27 12 -27 26s11 27 27 27z" />
    <glyph glyph-name="hungarumlaut.cap" 
d="M168 733l-25 4l67 134l33 -5zM330 733l-26 4l68 134l33 -5z" />
    <glyph glyph-name="macron.cap" 
d="M128 807h243v-29h-243v29z" />
    <glyph glyph-name="ogonek.cap" 
d="M261 14l16 -13c-39 -16 -142 -64 -142 -130c0 -45 42 -71 107 -71c23 0 47 4 70 8l4 -25c-26 -5 -52 -8 -79 -8c-82 0 -135 34 -135 90c0 79 115 132 159 149z" />
    <glyph glyph-name="commaaccent.cap" 
d="M262 -55l27 12c31 -22 59 -53 59 -94c0 -58 -54 -94 -140 -94c-24 0 -46 3 -69 7l4 25c20 -3 41 -6 60 -6c68 0 110 26 110 70c0 34 -23 60 -51 80z" />
    <glyph glyph-name="caron.cap.alt" 
d="M211 497c23 56 32 131 32 203h37c0 -84 -12 -143 -46 -206c-2 1 -21 3 -23 3z" />
    <glyph glyph-name="ampersand.cap" horiz-adv-x="779" 
d="M550 620l-19 -30c-33 19 -83 42 -149 42c-82 0 -160 -37 -160 -107c0 -61 67 -113 101 -146l244 -232c39 36 79 80 118 136l32 -16c-42 -59 -84 -106 -125 -143l130 -124h-53l-105 99c-103 -84 -199 -111 -268 -111c-86 0 -232 42 -232 196c0 133 108 180 192 207
c-39 38 -73 79 -73 133c0 93 99 142 200 142c74 0 129 -26 167 -46zM292 358l-11 9c-69 -23 -178 -61 -178 -182c0 -125 121 -163 195 -163c63 0 150 26 241 101z" />
    <glyph glyph-name="zero.cap" horiz-adv-x="846" 
d="M77 327c0 188 156 340 345 340s347 -152 347 -340c0 -190 -158 -341 -347 -341s-345 151 -345 341zM116 327c0 -170 138 -306 306 -306s308 136 308 306c0 168 -140 305 -308 305s-306 -137 -306 -305z" />
    <glyph glyph-name="one.cap" horiz-adv-x="420" 
d="M24 528l-9 32l212 93h39v-653h-39v618z" />
    <glyph glyph-name="one.cap.alt" horiz-adv-x="406" 
d="M223 0h-39v653h39v-653z" />
    <glyph glyph-name="two.cap" horiz-adv-x="692" 
d="M120 537l-23 27c69 52 141 103 262 103c127 0 253 -56 253 -175c0 -133 -156 -165 -259 -195c-128 -37 -244 -99 -244 -243v-22h497v-32h-536v51c0 168 140 241 279 280c81 24 224 50 224 161c0 97 -107 140 -213 140c-110 0 -178 -46 -240 -95z" />
    <glyph glyph-name="three.cap" horiz-adv-x="795" 
d="M373 334v31h123c38 0 130 37 130 126c0 101 -123 141 -213 141c-105 0 -197 -54 -264 -113l-24 25c70 61 168 123 288 123c107 0 252 -49 252 -172c0 -79 -61 -124 -108 -139c60 -11 165 -51 165 -162c0 -132 -146 -208 -332 -208c-133 0 -240 41 -331 124l25 27
c72 -65 166 -116 307 -116c164 0 292 65 292 175c0 109 -131 138 -176 138h-134z" />
    <glyph glyph-name="four.cap" horiz-adv-x="785" 
d="M735 201v-31h-130v-170h-39v170h-524v35l515 448h48v-452h130zM96 205v-4h470v406h-11c-151 -130 -309 -270 -459 -402z" />
    <glyph glyph-name="five.cap" horiz-adv-x="744" 
d="M622 653v-34h-464v-245c61 34 124 60 230 60c145 0 287 -57 287 -212c0 -168 -160 -236 -312 -236c-151 0 -248 68 -297 109l24 27c45 -39 135 -101 273 -101c133 0 273 58 273 201c0 131 -122 179 -249 179c-104 0 -176 -31 -239 -65l-26 21v296h500z" />
    <glyph glyph-name="six.cap" horiz-adv-x="763" 
d="M649 578l-25 -27c-51 52 -122 81 -202 81c-158 0 -307 -116 -307 -317v-2c56 41 170 109 312 109c186 0 269 -115 269 -209c0 -119 -122 -227 -288 -227c-172 0 -329 113 -329 329c0 222 166 352 344 352c125 0 193 -60 226 -89zM424 390c-140 0 -257 -72 -308 -107
c14 -172 146 -262 292 -262c144 0 249 94 249 193c0 78 -70 176 -233 176z" />
    <glyph glyph-name="seven.cap" horiz-adv-x="644" 
d="M33 619v34h558v-34l-382 -619h-50l388 619h-514z" />
    <glyph glyph-name="eight.cap" horiz-adv-x="763" 
d="M382 -16c-147 0 -310 74 -310 203c0 105 107 165 215 180c-103 14 -161 60 -161 136c0 113 141 166 256 166c114 0 255 -53 255 -166c0 -76 -58 -122 -162 -136c109 -15 216 -75 216 -180c0 -129 -163 -203 -309 -203zM382 19c124 0 267 61 267 171s-146 161 -267 161
s-268 -51 -268 -161s143 -171 268 -171zM382 382c135 0 214 42 214 119c0 93 -119 136 -214 136c-96 0 -214 -43 -214 -136c0 -77 78 -119 214 -119z" />
    <glyph glyph-name="nine.cap" horiz-adv-x="764" 
d="M115 75l25 26c51 -51 122 -80 202 -80c158 0 307 116 307 317v1c-56 -40 -170 -108 -311 -108c-187 0 -270 115 -270 209c0 119 122 227 288 227c172 0 329 -113 329 -329c0 -222 -165 -352 -344 -352c-125 0 -193 60 -226 89zM340 263c140 0 256 71 307 106
c-14 173 -146 263 -291 263c-144 0 -249 -94 -249 -193c0 -78 70 -176 233 -176z" />
    <glyph glyph-name="exclamdown.cap" horiz-adv-x="320" 
d="M180 624c0 -20 -17 -36 -39 -36c-23 0 -39 16 -39 36c0 19 16 35 39 35c22 0 39 -16 39 -35zM126 466h28l7 -308v-158h-42v158z" />
    <glyph glyph-name="questiondown.cap" horiz-adv-x="606" 
d="M508 117l25 -23c-60 -58 -131 -106 -264 -106c-112 0 -221 35 -221 153c0 68 40 101 93 136c79 55 157 95 176 189h36c-18 -110 -104 -153 -186 -211c-49 -32 -83 -56 -83 -113c0 -93 92 -122 186 -122c117 0 183 44 238 97zM366 624c0 -20 -16 -36 -39 -36
c-22 0 -39 16 -39 36c0 19 17 35 39 35c23 0 39 -16 39 -35z" />
    <glyph glyph-name="guilsinglleft.cap" horiz-adv-x="302" 
d="M177 477h44l-121 -130v-8l121 -129h-44l-113 122v22z" />
    <glyph glyph-name="guilsinglright.cap" horiz-adv-x="302" 
d="M81 477h43l114 -123v-22l-114 -122h-43l121 129v8z" />
    <glyph glyph-name="guillemotleft.cap" horiz-adv-x="494" 
d="M177 477h44l-121 -130v-8l121 -129h-44l-113 122v22zM369 477h44l-121 -130v-8l121 -129h-44l-118 128v11z" />
    <glyph glyph-name="guillemotright.cap" horiz-adv-x="494" 
d="M273 477h43l114 -123v-22l-114 -122h-43l121 129v8zM81 477h43l119 -128v-11l-119 -128h-43l121 129v8z" />
    <glyph glyph-name="hyphen.cap" horiz-adv-x="404" 
d="M73 335v34h257v-34h-257z" />
    <glyph glyph-name="endash.cap" horiz-adv-x="641" 
d="M73 337v32h494v-32h-494z" />
    <glyph glyph-name="emdash.cap" horiz-adv-x="1121" 
d="M73 337v32h974v-32h-974z" />
    <glyph glyph-name="parenleft.cap" horiz-adv-x="354" 
d="M328 -91l-19 -26c-160 77 -246 258 -246 432c0 173 86 356 246 433l19 -26c-145 -70 -226 -245 -226 -407c0 -163 81 -336 226 -406z" />
    <glyph glyph-name="parenright.cap" horiz-adv-x="354" 
d="M26 722l19 26c160 -77 247 -260 247 -433c0 -174 -87 -355 -247 -432l-19 26c145 70 227 243 227 406c0 162 -82 337 -227 407z" />
    <glyph glyph-name="bracketleft.cap" horiz-adv-x="328" 
d="M289 -71v-32h-180v843h180v-32h-143v-779h143z" />
    <glyph glyph-name="bracketright.cap" horiz-adv-x="328" 
d="M39 740h179v-843h-179v32h143v779h-143v32z" />
    <glyph glyph-name="braceleft.cap" horiz-adv-x="368" 
d="M333 -71v-32c-138 0 -177 26 -177 162v127c0 97 -59 119 -122 119v44c63 0 123 48 123 124v103c2 137 41 165 176 165v-32c-106 0 -137 -21 -139 -133v-103c0 -84 -61 -138 -124 -142v-8c64 -1 123 -29 123 -137v-127c0 -110 31 -130 140 -130z" />
    <glyph glyph-name="braceright.cap" horiz-adv-x="368" 
d="M35 -103v32c107 0 140 20 140 130v127c0 107 59 135 123 137v8c-63 4 -124 58 -124 142v103c-2 112 -34 133 -139 133v32c135 0 174 -28 176 -165v-103c0 -76 60 -124 123 -124v-44c-63 0 -122 -22 -122 -119v-127c0 -136 -39 -162 -177 -162z" />
    <glyph glyph-name="bullet.cap" horiz-adv-x="497" 
d="M249 203c-84 0 -152 64 -152 143c0 80 68 143 152 143c82 0 151 -63 151 -143c0 -79 -69 -143 -151 -143z" />
    <glyph glyph-name="at.cap" horiz-adv-x="998" 
d="M680 509h35l-98 -296c-3 -8 -4 -15 -4 -22c0 -39 28 -63 71 -63c92 0 226 105 226 265c0 164 -142 290 -357 290c-239 0 -453 -157 -453 -397c0 -243 220 -358 402 -358c98 0 220 33 273 62l11 -25c-54 -29 -180 -66 -285 -66c-196 0 -435 125 -435 387
c0 258 231 426 487 426c234 0 388 -139 388 -317c0 -180 -154 -296 -263 -296c-57 0 -95 30 -95 78v8c-47 -56 -103 -85 -159 -85c-72 0 -141 48 -141 155c0 154 142 268 247 268c68 0 112 -47 122 -99zM431 132c51 0 103 28 153 86l56 169c-9 52 -47 104 -110 104
c-87 0 -210 -96 -210 -232c0 -88 52 -127 111 -127z" />
    <glyph glyph-name="copyright.cap" horiz-adv-x="1003" 
d="M501 -94c-241 0 -440 179 -440 403c0 223 199 402 440 402c242 0 441 -179 441 -402c0 -224 -199 -403 -441 -403zM501 -68c226 0 410 169 410 377c0 207 -184 376 -410 376c-224 0 -409 -169 -409 -376c0 -208 185 -377 409 -377zM710 453l-16 -25
c-48 41 -114 68 -180 68c-128 0 -212 -84 -212 -187c0 -105 97 -173 215 -173c89 0 136 29 182 63l16 -25c-49 -38 -99 -68 -198 -68c-136 0 -249 81 -249 203c0 120 97 216 246 216c72 0 145 -31 196 -72z" />
    <glyph glyph-name="soundrecordingcopyright.cap" horiz-adv-x="1003" 
d="M942 309c0 -223 -199 -403 -441 -403s-440 180 -440 403s198 402 440 402s441 -179 441 -402zM911 309c0 208 -185 376 -410 376s-409 -168 -409 -376c0 -207 184 -377 409 -377s410 169 410 377zM577 252h-203v-127h-33v385h204c75 0 187 -20 187 -126
c0 -89 -80 -132 -155 -132zM374 480v-199h203c57 0 121 32 121 103c0 81 -86 96 -146 96h-178z" />
    <glyph glyph-name="dollar.cap" horiz-adv-x="710" 
d="M345 781h29v-118c108 -9 192 -56 235 -94l-24 -25c-38 35 -111 78 -211 87v-264c108 -5 280 -20 280 -177c0 -138 -130 -200 -280 -203v-147h-29v148c-140 5 -227 68 -288 128l23 26c55 -55 136 -116 265 -122v313c-124 7 -253 23 -253 152c0 137 137 180 245 180h8v116z
M617 187c0 126 -139 138 -243 144v-311c131 2 243 54 243 167zM129 488c0 -103 117 -113 216 -119v264h-9c-93 0 -207 -36 -207 -145z" />
    <glyph glyph-name="cent.cap" horiz-adv-x="583" 
d="M355 598h29l-24 -120c51 -10 101 -34 143 -72l-24 -24c-36 34 -81 55 -126 65l-85 -425c13 -2 26 -3 39 -3c94 0 155 57 179 83l26 -21c-18 -25 -90 -94 -205 -94c-16 0 -31 2 -45 4l-30 -151h-29l31 157c-100 28 -176 117 -176 240c0 149 110 247 244 247
c10 0 20 -1 30 -2zM97 237c0 -105 61 -181 144 -208l84 422c-8 0 -16 1 -23 1c-113 0 -205 -85 -205 -215z" />
    <glyph glyph-name="Euro.cap" horiz-adv-x="826" 
d="M61 393v26h97c39 142 167 248 318 248c105 0 201 -40 268 -105l-24 -27c-61 60 -149 97 -244 97c-130 0 -240 -90 -277 -213h362v-26h-369c-5 -22 -7 -44 -7 -66c0 -19 2 -37 5 -55h371v-26h-366c34 -129 148 -225 281 -225c98 0 188 41 253 106l24 -27
c-72 -70 -169 -114 -277 -114c-155 0 -285 112 -321 260h-94v26h89c-3 18 -4 36 -4 55c0 22 2 44 6 66h-91z" />
    <glyph glyph-name="sterling.cap" horiz-adv-x="754" 
d="M66 337v29h163v112c0 130 114 189 224 189c60 0 154 -31 230 -78l-19 -27c-70 41 -156 70 -211 70c-90 0 -185 -47 -185 -154v-112h298v-29h-298v-152c0 -95 -20 -137 -74 -153h488v-32h-616v32h40c91 0 123 26 123 153v152h-163z" />
    <glyph glyph-name="yen.cap" horiz-adv-x="761" 
d="M71 393v26h210l-180 234h49l232 -302l231 302h46l-180 -234h212v-26h-232l-59 -77v-44h291v-26h-291v-246h-39v246h-290v26h290v44l-60 77h-230z" />
    <glyph glyph-name="florin.cap" horiz-adv-x="393" 
d="M55 366h113l27 132c25 125 113 169 177 169c46 0 92 -24 109 -45l-16 -28c-14 20 -55 41 -94 41c-52 0 -119 -37 -139 -138l-27 -131h145v-29h-151l-67 -337c-26 -132 -117 -179 -186 -179v30c54 2 128 38 149 149l67 337h-107v29z" />
    <glyph glyph-name="colonmonetary.cap" horiz-adv-x="750" 
d="M546 781h26l-28 -139c54 -19 103 -48 142 -86l-25 -22c-35 32 -77 58 -123 75l-118 -589c98 3 187 49 251 115l24 -23c-70 -71 -170 -124 -281 -125l-29 -147h-26l29 148c-41 2 -80 11 -116 25l-34 -173h-26l36 184c-115 56 -191 171 -191 303c0 177 137 322 318 337
l24 117h26l-23 -116h4c39 0 78 -6 114 -16zM96 327c0 -115 63 -215 159 -268l114 571c-155 -18 -273 -147 -273 -303zM279 47c35 -16 74 -25 116 -27l118 598c-34 10 -70 15 -107 15c-4 0 -7 -1 -11 -1z" />
    <glyph glyph-name="franc.cap" horiz-adv-x="701" 
d="M63 185v26h104v442h483v-34h-444v-225h280v-34h-280v-149h179v-26h-179v-185h-39v185h-104z" />
    <glyph glyph-name="lira.cap" horiz-adv-x="759" 
d="M74 393v26h163v59c0 130 114 189 224 189c61 0 155 -31 230 -78l-19 -27c-70 41 -156 70 -211 70c-90 0 -185 -47 -185 -154v-59h298v-26h-298v-121h298v-26h-298v-61c0 -95 -20 -137 -74 -153h488v-32h-616v32h40c91 0 123 26 123 153v61h-163v26h163v121h-163z" />
    <glyph glyph-name="peso.cap" horiz-adv-x="836" 
d="M57 444v26h104v183h315c89 0 132 -23 171 -62c28 -32 45 -75 47 -121h95v-26h-95c-3 -48 -22 -92 -53 -124c-40 -36 -80 -57 -165 -57h-276v-263h-39v444h-104zM476 619h-276v-149h455c-2 36 -15 71 -37 98c-34 34 -72 51 -142 51zM612 343c24 26 40 62 43 101h-455v-147
h276c67 0 102 14 136 46z" />
    <glyph glyph-name="peseta.cap" horiz-adv-x="1530" 
d="M152 0h-39v653h338c90 0 132 -24 171 -62c31 -32 48 -72 48 -117c0 -10 -1 -21 -3 -30h87v140h36v-140h167v-29h-167v-307c0 -65 43 -89 81 -89c34 0 74 14 94 29l8 -27c-22 -18 -67 -34 -107 -34c-50 0 -112 30 -112 121v307h-95c-9 -24 -24 -46 -42 -64
c-41 -34 -80 -56 -166 -56h-299v-295zM451 619h-299v-290h299c67 0 101 15 136 45c27 26 44 61 44 100c0 36 -14 69 -38 94c-34 34 -71 51 -142 51zM1433 396l-17 -27c-30 24 -94 58 -171 58c-63 0 -141 -25 -141 -94c0 -72 89 -75 160 -79c76 -3 205 -10 205 -123
c0 -98 -97 -144 -210 -144c-104 0 -168 39 -212 72l17 27c43 -31 102 -68 195 -68s173 35 173 110c0 83 -104 89 -168 92c-91 5 -196 10 -196 109c0 97 98 128 177 128c85 0 156 -36 188 -61z" />
    <glyph glyph-name="rupiah.cap" horiz-adv-x="1354" 
d="M884 -214h-37v557c0 32 -3 67 -14 102h35c8 -26 13 -50 13 -74c48 48 116 85 189 85c124 0 227 -93 227 -234s-109 -233 -241 -233c-79 0 -141 45 -172 82v-285zM884 341v-238c25 -28 87 -83 170 -83c112 0 204 80 204 202s-87 202 -190 202c-71 0 -137 -38 -184 -83z
M155 0h-39v653h359c78 0 133 -21 171 -61c29 -31 48 -73 48 -121c0 -88 -63 -163 -168 -172l169 -299h-43l-166 295h-331v-295zM475 619h-320v-290h347c95 0 153 67 153 143c0 38 -15 73 -39 98c-32 33 -77 49 -141 49z" />
    <glyph glyph-name="Rupee.cap" horiz-adv-x="799" 
d="M115 444v26h493c-2 39 -16 72 -39 98c-31 36 -77 51 -137 51h-317v34h626v-26h-210c76 -26 111 -89 115 -157h95v-26h-94c-2 -43 -17 -88 -54 -125c-38 -37 -87 -53 -166 -53l-238 2l412 -268h-69l-417 271v26h312c61 0 104 10 137 45c27 27 41 63 43 102h-492z" />
    <glyph glyph-name="section.cap" horiz-adv-x="736" 
d="M632 110c-28 -31 -70 -53 -109 -64c14 -6 28 -16 37 -27c10 -13 19 -32 19 -59c0 -103 -119 -139 -210 -139c-80 0 -159 28 -218 73l19 27c53 -41 126 -68 200 -68c69 0 170 25 170 107c0 19 -5 34 -15 45c-31 34 -105 37 -186 48c-95 13 -182 33 -236 86
c-33 32 -48 73 -48 118c0 50 19 89 46 119c27 29 70 55 111 68c-14 6 -25 13 -32 21c-15 17 -22 37 -22 64c0 105 119 140 209 140c80 0 160 -28 218 -74l-19 -27c-53 42 -125 69 -199 69c-69 0 -170 -25 -170 -107c0 -22 6 -38 18 -49c32 -31 103 -35 181 -45
c98 -12 186 -32 240 -88c28 -30 45 -68 45 -116c0 -51 -19 -92 -49 -122zM395 402c-52 6 -114 13 -155 27c-37 -13 -80 -35 -106 -63c-24 -27 -40 -61 -40 -105c0 -38 12 -72 40 -100c44 -44 121 -64 207 -75c58 -7 112 -11 153 -25c35 10 75 28 106 60c26 28 42 62 42 107
c0 41 -13 72 -37 97c-43 46 -122 67 -210 77z" />
    <glyph glyph-name="numbersign.cap" horiz-adv-x="926" 
d="M644 709h32l-37 -225h230v-29h-235l-46 -279h222v-29h-227l-42 -258h-32l42 258h-235l-42 -258h-32l42 258h-228v29h233l46 279h-220v29h225l37 225h32l-37 -225h235zM367 455l-46 -279h235l46 279h-235z" />
    <glyph glyph-name="percent.cap" horiz-adv-x="1081" 
d="M57 477c0 102 89 188 201 188c111 0 204 -86 204 -188c0 -104 -93 -189 -204 -189c-112 0 -201 85 -201 189zM742 653l-370 -653h-33l370 653h33zM92 477c0 -87 74 -159 166 -159s170 72 170 159c0 86 -78 157 -170 157s-166 -71 -166 -157zM619 177
c0 102 89 188 201 188c111 0 204 -86 204 -188c0 -104 -93 -189 -204 -189c-112 0 -201 85 -201 189zM654 177c0 -86 74 -158 166 -158s169 72 169 158s-77 158 -169 158s-166 -72 -166 -158z" />
    <glyph glyph-name="perthousand.cap" horiz-adv-x="1543" 
d="M59 477c0 102 89 188 201 188c111 0 204 -86 204 -188c0 -104 -93 -189 -204 -189c-112 0 -201 85 -201 189zM743 653l-370 -653h-33l371 653h32zM94 477c0 -87 74 -159 166 -159s169 72 169 159c0 86 -77 157 -169 157s-166 -71 -166 -157zM621 177
c0 102 89 188 201 188c111 0 204 -86 204 -188c0 -104 -93 -189 -204 -189c-112 0 -201 85 -201 189zM655 177c0 -86 74 -158 167 -158c91 0 169 72 169 158s-78 158 -169 158c-93 0 -167 -72 -167 -158zM1082 177c0 102 89 188 201 188c111 0 204 -86 204 -188
c0 -104 -93 -189 -204 -189c-112 0 -201 85 -201 189zM1117 177c0 -86 74 -158 166 -158s170 72 170 158s-78 158 -170 158s-166 -72 -166 -158z" />
    <glyph glyph-name="aacute" unicode="&#xe1;" horiz-adv-x="591" 
d="M119 370l-14 28c36 24 104 58 192 58c91 0 193 -34 193 -133v-242c0 -23 4 -56 19 -81h-38c-14 21 -17 53 -17 78c-33 -33 -115 -88 -217 -88c-114 0 -179 67 -179 151c0 85 71 152 202 152c68 0 152 -17 194 -72v94c0 80 -82 110 -159 110c-79 0 -143 -32 -176 -55z
M243 21c114 0 204 76 211 90v77c-37 56 -117 76 -189 76c-114 0 -170 -54 -170 -123c0 -66 52 -120 148 -120zM352 686l40 -4l-102 -146l-32 4z" />
    <glyph glyph-name="agrave" unicode="&#xe0;" horiz-adv-x="591" 
d="M119 370l-14 28c36 24 104 58 192 58c91 0 193 -34 193 -133v-242c0 -23 4 -56 19 -81h-38c-14 21 -17 53 -17 78c-33 -33 -115 -88 -217 -88c-114 0 -179 67 -179 151c0 85 71 152 202 152c68 0 152 -17 194 -72v94c0 80 -82 110 -159 110c-79 0 -143 -32 -176 -55z
M243 21c114 0 204 76 211 90v77c-37 56 -117 76 -189 76c-114 0 -170 -54 -170 -123c0 -66 52 -120 148 -120zM197 682l39 4l95 -146l-33 -4z" />
    <glyph glyph-name="acircumflex" unicode="&#xe2;" horiz-adv-x="591" 
d="M119 370l-14 28c36 24 104 58 192 58c91 0 193 -34 193 -133v-242c0 -23 4 -56 19 -81h-38c-14 21 -17 53 -17 78c-33 -33 -115 -88 -217 -88c-114 0 -179 67 -179 151c0 85 71 152 202 152c68 0 152 -17 194 -72v94c0 80 -82 110 -159 110c-79 0 -143 -32 -176 -55z
M243 21c114 0 204 76 211 90v77c-37 56 -117 76 -189 76c-114 0 -170 -54 -170 -123c0 -66 52 -120 148 -120zM162 543l114 119h38l114 -119l-28 -6l-105 101l-105 -101z" />
    <glyph glyph-name="adieresis" unicode="&#xe4;" horiz-adv-x="591" 
d="M119 370l-14 28c36 24 104 58 192 58c91 0 193 -34 193 -133v-242c0 -23 4 -56 19 -81h-38c-14 21 -17 53 -17 78c-33 -33 -115 -88 -217 -88c-114 0 -179 67 -179 151c0 85 71 152 202 152c68 0 152 -17 194 -72v94c0 80 -82 110 -159 110c-79 0 -143 -32 -176 -55z
M243 21c114 0 204 76 211 90v77c-37 56 -117 76 -189 76c-114 0 -170 -54 -170 -123c0 -66 52 -120 148 -120zM358 583c0 15 11 27 27 27s28 -12 28 -27s-12 -26 -28 -26s-27 12 -27 26zM177 583c0 15 11 27 27 27s28 -12 28 -27s-12 -26 -28 -26s-27 12 -27 26z" />
    <glyph glyph-name="atilde" unicode="&#xe3;" horiz-adv-x="591" 
d="M119 370l-14 28c36 24 104 58 192 58c91 0 193 -34 193 -133v-242c0 -23 4 -56 19 -81h-38c-14 21 -17 53 -17 78c-33 -33 -115 -88 -217 -88c-114 0 -179 67 -179 151c0 85 71 152 202 152c68 0 152 -17 194 -72v94c0 80 -82 110 -159 110c-79 0 -143 -32 -176 -55z
M243 21c114 0 204 76 211 90v77c-37 56 -117 76 -189 76c-114 0 -170 -54 -170 -123c0 -66 52 -120 148 -120zM173 545l-25 14c23 36 47 62 80 62c24 0 41 -13 66 -33c18 -14 39 -28 61 -28c23 0 41 25 57 47l24 -13c-22 -34 -46 -62 -80 -62c-29 0 -52 14 -71 29
c-23 19 -38 32 -55 32c-24 0 -41 -25 -57 -48z" />
    <glyph glyph-name="aring" unicode="&#xe5;" horiz-adv-x="591" 
d="M119 370l-14 28c36 24 104 58 192 58c91 0 193 -34 193 -133v-242c0 -23 4 -56 19 -81h-38c-14 21 -17 53 -17 78c-33 -33 -115 -88 -217 -88c-114 0 -179 67 -179 151c0 85 71 152 202 152c68 0 152 -17 194 -72v94c0 80 -82 110 -159 110c-79 0 -143 -32 -176 -55z
M243 21c114 0 204 76 211 90v77c-37 56 -117 76 -189 76c-114 0 -170 -54 -170 -123c0 -66 52 -120 148 -120zM214 616c0 -38 31 -66 79 -66s81 28 81 66c0 39 -33 69 -81 69s-79 -30 -79 -69zM189 616c0 50 39 88 104 88s107 -38 107 -88c0 -48 -42 -86 -107 -86
s-104 38 -104 86z" />
    <glyph glyph-name="abreve" unicode="&#x103;" horiz-adv-x="591" 
d="M119 370l-14 28c36 24 104 58 192 58c91 0 193 -34 193 -133v-242c0 -23 4 -56 19 -81h-38c-14 21 -17 53 -17 78c-33 -33 -115 -88 -217 -88c-114 0 -179 67 -179 151c0 85 71 152 202 152c68 0 152 -17 194 -72v94c0 80 -82 110 -159 110c-79 0 -143 -32 -176 -55z
M243 21c114 0 204 76 211 90v77c-37 56 -117 76 -189 76c-114 0 -170 -54 -170 -123c0 -66 52 -120 148 -120zM173 658h29c0 -45 16 -102 93 -102s93 57 93 102h29c0 -55 -22 -128 -122 -128s-122 73 -122 128z" />
    <glyph glyph-name="amacron" unicode="&#x101;" horiz-adv-x="591" 
d="M119 370l-14 28c36 24 104 58 192 58c91 0 193 -34 193 -133v-242c0 -23 4 -56 19 -81h-38c-14 21 -17 53 -17 78c-33 -33 -115 -88 -217 -88c-114 0 -179 67 -179 151c0 85 71 152 202 152c68 0 152 -17 194 -72v94c0 80 -82 110 -159 110c-79 0 -143 -32 -176 -55z
M243 21c114 0 204 76 211 90v77c-37 56 -117 76 -189 76c-114 0 -170 -54 -170 -123c0 -66 52 -120 148 -120zM173 604h243v-28h-243v28z" />
    <glyph glyph-name="aogonek" unicode="&#x105;" horiz-adv-x="591" 
d="M119 370l-14 28c36 24 104 58 192 58c91 0 193 -34 193 -133v-242c0 -23 4 -56 19 -81h-6c-40 -17 -139 -64 -139 -129c0 -45 42 -71 107 -71c23 0 47 4 70 8l4 -25c-26 -5 -52 -8 -79 -8c-82 0 -135 34 -135 90c0 68 85 117 137 140c-12 21 -14 50 -14 73
c-33 -33 -115 -88 -217 -88c-114 0 -179 67 -179 151c0 85 71 152 202 152c68 0 152 -17 194 -72v94c0 80 -82 110 -159 110c-79 0 -143 -32 -176 -55zM243 21c114 0 204 76 211 90v77c-37 56 -117 76 -189 76c-114 0 -170 -54 -170 -123c0 -66 52 -120 148 -120z" />
    <glyph glyph-name="aringacute" unicode="&#x1fb;" horiz-adv-x="591" 
d="M119 370l-14 28c36 24 104 58 192 58c91 0 193 -34 193 -133v-242c0 -23 4 -56 19 -81h-38c-14 21 -17 53 -17 78c-33 -33 -115 -88 -217 -88c-114 0 -179 67 -179 151c0 85 71 152 202 152c68 0 152 -17 194 -72v94c0 80 -82 110 -159 110c-79 0 -143 -32 -176 -55z
M243 21c114 0 204 76 211 90v77c-37 56 -117 76 -189 76c-114 0 -170 -54 -170 -123c0 -66 52 -120 148 -120zM214 616c0 -38 31 -66 79 -66s81 28 81 66c0 39 -33 69 -81 69s-79 -30 -79 -69zM189 616c0 50 39 88 104 88s107 -38 107 -88c0 -48 -42 -86 -107 -86
s-104 38 -104 86zM240 760l149 111l51 -6l-168 -111z" />
    <glyph glyph-name="ccedilla" unicode="&#xe7;" horiz-adv-x="563" 
d="M502 382l-25 -24c-47 44 -110 66 -168 66c-112 0 -202 -80 -202 -201c0 -123 95 -202 207 -202c91 0 151 51 173 76l26 -21c-18 -23 -88 -87 -202 -87h-3l-17 -63c16 4 36 8 58 8c42 0 91 -18 91 -73c0 -56 -66 -86 -149 -86c-56 0 -107 13 -150 25l8 22
c41 -11 91 -23 141 -23c65 0 116 21 116 62s-37 52 -67 52c-21 0 -43 -5 -63 -10l-16 15l22 73c-118 12 -215 100 -215 232c0 140 109 233 242 233c68 0 138 -24 193 -74z" />
    <glyph glyph-name="cacute" unicode="&#x107;" horiz-adv-x="563" 
d="M502 382l-25 -24c-47 44 -110 66 -168 66c-112 0 -202 -80 -202 -201c0 -123 95 -202 207 -202c91 0 151 51 173 76l26 -21c-18 -23 -88 -87 -202 -87c-131 0 -244 92 -244 234c0 140 109 233 242 233c68 0 138 -24 193 -74zM365 686l40 -4l-102 -146l-32 4z" />
    <glyph glyph-name="ccaron" unicode="&#x10d;" horiz-adv-x="563" 
d="M502 382l-25 -24c-47 44 -110 66 -168 66c-112 0 -202 -80 -202 -201c0 -123 95 -202 207 -202c91 0 151 51 173 76l26 -21c-18 -23 -88 -87 -202 -87c-131 0 -244 92 -244 234c0 140 109 233 242 233c68 0 138 -24 193 -74zM175 658l28 5l105 -100l105 100l28 -5
l-114 -119h-38z" />
    <glyph glyph-name="ccircumflex" unicode="&#x109;" horiz-adv-x="563" 
d="M502 382l-25 -24c-47 44 -110 66 -168 66c-112 0 -202 -80 -202 -201c0 -123 95 -202 207 -202c91 0 151 51 173 76l26 -21c-18 -23 -88 -87 -202 -87c-131 0 -244 92 -244 234c0 140 109 233 242 233c68 0 138 -24 193 -74zM175 543l114 119h38l114 -119l-28 -6
l-105 101l-105 -101z" />
    <glyph glyph-name="cdotaccent" unicode="&#x10b;" horiz-adv-x="563" 
d="M502 382l-25 -24c-47 44 -110 66 -168 66c-112 0 -202 -80 -202 -201c0 -123 95 -202 207 -202c91 0 151 51 173 76l26 -21c-18 -23 -88 -87 -202 -87c-131 0 -244 92 -244 234c0 140 109 233 242 233c68 0 138 -24 193 -74zM281 583c0 15 11 27 27 27s28 -12 28 -27
s-12 -26 -28 -26s-27 12 -27 26z" />
    <glyph glyph-name="dcaron" unicode="&#x10f;" horiz-adv-x="624" 
d="M481 104v238c-51 49 -114 82 -176 82c-107 0 -197 -80 -197 -201c0 -123 88 -203 196 -203c93 0 158 61 177 84zM526 0h-35c-4 24 -6 49 -7 73c-26 -33 -93 -84 -182 -84c-128 0 -234 92 -234 234c0 140 108 233 234 233c64 0 128 -30 179 -80v324h37v-605
c0 -30 2 -62 8 -95zM593 494c-2 1 -21 3 -23 3c23 56 32 131 32 203h37c0 -84 -12 -143 -46 -206z" />
    <glyph glyph-name="dcroat" unicode="&#x111;" horiz-adv-x="624" 
d="M305 560v26h176v114h37v-114h93v-26h-93v-465c0 -30 2 -62 8 -95h-35c-4 24 -6 49 -7 73c-26 -33 -93 -84 -182 -84c-128 0 -234 92 -234 234c0 140 108 233 234 233c64 0 128 -30 179 -80v184h-176zM305 424c-107 0 -197 -80 -197 -201c0 -123 88 -203 196 -203
c93 0 158 61 177 84v238c-51 49 -114 82 -176 82z" />
    <glyph glyph-name="eacute" unicode="&#xe9;" horiz-adv-x="592" 
d="M492 96l24 -22c-47 -49 -121 -85 -213 -85c-145 0 -236 101 -236 227c0 134 106 240 238 240c103 0 221 -65 224 -209c0 -4 0 -9 -1 -13h-424v-17c0 -109 77 -196 202 -196c80 0 144 31 186 75zM304 425c-98 0 -176 -70 -195 -162h380c-3 109 -100 162 -185 162zM362 686
l40 -4l-102 -146l-32 4z" />
    <glyph glyph-name="egrave" unicode="&#xe8;" horiz-adv-x="592" 
d="M492 96l24 -22c-47 -49 -121 -85 -213 -85c-145 0 -236 101 -236 227c0 134 106 240 238 240c103 0 221 -65 224 -209c0 -4 0 -9 -1 -13h-424v-17c0 -109 77 -196 202 -196c80 0 144 31 186 75zM304 425c-98 0 -176 -70 -195 -162h380c-3 109 -100 162 -185 162zM207 682
l39 4l95 -146l-33 -4z" />
    <glyph glyph-name="ecircumflex" unicode="&#xea;" horiz-adv-x="592" 
d="M492 96l24 -22c-47 -49 -121 -85 -213 -85c-145 0 -236 101 -236 227c0 134 106 240 238 240c103 0 221 -65 224 -209c0 -4 0 -9 -1 -13h-424v-17c0 -109 77 -196 202 -196c80 0 144 31 186 75zM304 425c-98 0 -176 -70 -195 -162h380c-3 109 -100 162 -185 162zM172 543
l114 119h38l114 -119l-28 -6l-105 101l-105 -101z" />
    <glyph glyph-name="edieresis" unicode="&#xeb;" horiz-adv-x="592" 
d="M492 96l24 -22c-47 -49 -121 -85 -213 -85c-145 0 -236 101 -236 227c0 134 106 240 238 240c103 0 221 -65 224 -209c0 -4 0 -9 -1 -13h-424v-17c0 -109 77 -196 202 -196c80 0 144 31 186 75zM304 425c-98 0 -176 -70 -195 -162h380c-3 109 -100 162 -185 162zM368 583
c0 15 11 27 27 27s28 -12 28 -27s-12 -26 -28 -26s-27 12 -27 26zM187 583c0 15 11 27 27 27s28 -12 28 -27s-12 -26 -28 -26s-27 12 -27 26z" />
    <glyph glyph-name="ebreve" unicode="&#x115;" horiz-adv-x="592" 
d="M492 96l24 -22c-47 -49 -121 -85 -213 -85c-145 0 -236 101 -236 227c0 134 106 240 238 240c103 0 221 -65 224 -209c0 -4 0 -9 -1 -13h-424v-17c0 -109 77 -196 202 -196c80 0 144 31 186 75zM304 425c-98 0 -176 -70 -195 -162h380c-3 109 -100 162 -185 162zM183 658
h29c0 -45 16 -102 93 -102s93 57 93 102h29c0 -55 -22 -128 -122 -128s-122 73 -122 128z" />
    <glyph glyph-name="ecaron" unicode="&#x11b;" horiz-adv-x="592" 
d="M492 96l24 -22c-47 -49 -121 -85 -213 -85c-145 0 -236 101 -236 227c0 134 106 240 238 240c103 0 221 -65 224 -209c0 -4 0 -9 -1 -13h-424v-17c0 -109 77 -196 202 -196c80 0 144 31 186 75zM304 425c-98 0 -176 -70 -195 -162h380c-3 109 -100 162 -185 162zM172 658
l28 5l105 -100l105 100l28 -5l-114 -119h-38z" />
    <glyph glyph-name="edotaccent" unicode="&#x117;" horiz-adv-x="592" 
d="M492 96l24 -22c-47 -49 -121 -85 -213 -85c-145 0 -236 101 -236 227c0 134 106 240 238 240c103 0 221 -65 224 -209c0 -4 0 -9 -1 -13h-424v-17c0 -109 77 -196 202 -196c80 0 144 31 186 75zM304 425c-98 0 -176 -70 -195 -162h380c-3 109 -100 162 -185 162zM278 583
c0 15 11 27 27 27s28 -12 28 -27s-12 -26 -28 -26s-27 12 -27 26z" />
    <glyph glyph-name="emacron" unicode="&#x113;" horiz-adv-x="592" 
d="M492 96l24 -22c-47 -49 -121 -85 -213 -85c-145 0 -236 101 -236 227c0 134 106 240 238 240c103 0 221 -65 224 -209c0 -4 0 -9 -1 -13h-424v-17c0 -109 77 -196 202 -196c80 0 144 31 186 75zM304 425c-98 0 -176 -70 -195 -162h380c-3 109 -100 162 -185 162zM183 604
h243v-28h-243v28z" />
    <glyph glyph-name="eogonek" unicode="&#x119;" horiz-adv-x="592" 
d="M492 96l24 -22c-32 -33 -75 -60 -128 -74c-41 -17 -139 -64 -139 -129c0 -45 42 -71 107 -71c23 0 47 4 70 8l4 -25c-26 -5 -52 -8 -79 -8c-82 0 -135 34 -135 90s56 98 105 125c-6 -1 -12 -1 -18 -1c-145 0 -236 101 -236 227c0 134 106 240 238 240
c103 0 221 -65 224 -209c0 -4 0 -9 -1 -13h-424v-17c0 -109 77 -196 202 -196c80 0 144 31 186 75zM304 425c-98 0 -176 -70 -195 -162h380c-3 109 -100 162 -185 162z" />
    <glyph glyph-name="gbreve" unicode="&#x11f;" horiz-adv-x="625" 
d="M481 -38v109c-54 -52 -119 -82 -186 -82c-123 0 -227 92 -227 232c0 142 110 235 241 235c86 0 150 -53 175 -86c1 25 4 50 14 75h35c-11 -33 -15 -65 -15 -95v-388c0 -104 -75 -189 -219 -189c-101 0 -161 37 -200 81l23 22c35 -40 88 -72 177 -72c120 0 182 71 182 158
zM298 20c64 0 130 33 183 83v238c-19 23 -80 83 -169 83c-112 0 -204 -80 -204 -203c0 -121 86 -201 190 -201zM190 658h29c0 -45 16 -102 93 -102s93 57 93 102h29c0 -55 -22 -128 -122 -128s-122 73 -122 128z" />
    <glyph glyph-name="gcircumflex" unicode="&#x11d;" horiz-adv-x="625" 
d="M481 -38v109c-54 -52 -119 -82 -186 -82c-123 0 -227 92 -227 232c0 142 110 235 241 235c86 0 150 -53 175 -86c1 25 4 50 14 75h35c-11 -33 -15 -65 -15 -95v-388c0 -104 -75 -189 -219 -189c-101 0 -161 37 -200 81l23 22c35 -40 88 -72 177 -72c120 0 182 71 182 158
zM298 20c64 0 130 33 183 83v238c-19 23 -80 83 -169 83c-112 0 -204 -80 -204 -203c0 -121 86 -201 190 -201zM179 543l114 119h38l114 -119l-28 -6l-105 101l-105 -101z" />
    <glyph glyph-name="uni0123" unicode="&#x123;" horiz-adv-x="625" 
d="M320 545l-27 -10c-32 22 -61 52 -61 93c0 58 53 94 139 94c21 0 40 -1 61 -5l-2 -25c-18 3 -38 5 -57 5c-65 0 -106 -25 -106 -70c0 -34 24 -61 53 -82zM481 -38v109c-54 -52 -119 -82 -186 -82c-123 0 -227 92 -227 232c0 142 110 235 241 235c86 0 150 -53 175 -86
c1 25 4 50 14 75h35c-11 -33 -15 -65 -15 -95v-388c0 -104 -75 -189 -219 -189c-101 0 -161 37 -200 81l23 22c35 -40 88 -72 177 -72c120 0 182 71 182 158zM298 20c64 0 130 33 183 83v238c-19 23 -80 83 -169 83c-112 0 -204 -80 -204 -203c0 -121 86 -201 190 -201z" />
    <glyph glyph-name="gdotaccent" unicode="&#x121;" horiz-adv-x="625" 
d="M481 -38v109c-54 -52 -119 -82 -186 -82c-123 0 -227 92 -227 232c0 142 110 235 241 235c86 0 150 -53 175 -86c1 25 4 50 14 75h35c-11 -33 -15 -65 -15 -95v-388c0 -104 -75 -189 -219 -189c-101 0 -161 37 -200 81l23 22c35 -40 88 -72 177 -72c120 0 182 71 182 158
zM298 20c64 0 130 33 183 83v238c-19 23 -80 83 -169 83c-112 0 -204 -80 -204 -203c0 -121 86 -201 190 -201zM285 583c0 15 11 27 27 27s28 -12 28 -27s-12 -26 -28 -26s-27 12 -27 26z" />
    <glyph glyph-name="hbar" unicode="&#x127;" horiz-adv-x="605" 
d="M12 560v26h93v114h37v-114h176v-26h-176v-187c40 40 107 83 191 83c104 0 174 -65 174 -154v-302h-37v302c0 70 -57 122 -140 122s-148 -47 -188 -85v-339h-37v560h-93z" />
    <glyph glyph-name="hcircumflex" unicode="&#x125;" horiz-adv-x="605" 
d="M20 751l-29 6l115 110h37l115 -110l-29 -6l-104 92zM142 0h-37v700h37v-327c40 40 107 83 191 83c104 0 174 -65 174 -154v-302h-37v302c0 70 -57 122 -140 122s-148 -47 -188 -85v-339z" />
    <glyph glyph-name="iacute" unicode="&#xed;" horiz-adv-x="247" 
d="M142 0h-37v444h37v-444zM181 686l39 -4l-102 -146l-32 4z" />
    <glyph glyph-name="igrave" unicode="&#xec;" horiz-adv-x="247" 
d="M142 0h-37v444h37v-444zM25 682l40 4l94 -146l-32 -4z" />
    <glyph glyph-name="icircumflex" unicode="&#xee;" horiz-adv-x="247" 
d="M142 0h-37v444h37v-444zM-10 543l115 119h37l114 -119l-28 -6l-105 101l-105 -101z" />
    <glyph glyph-name="idieresis" unicode="&#xef;" horiz-adv-x="247" 
d="M142 0h-37v444h37v-444zM186 583c0 15 12 27 28 27s27 -12 27 -27s-11 -26 -27 -26s-28 12 -28 26zM5 583c0 15 11 27 27 27s28 -12 28 -27s-12 -26 -28 -26s-27 12 -27 26z" />
    <glyph glyph-name="ibreve" unicode="&#x12d;" horiz-adv-x="247" 
d="M142 0h-37v444h37v-444zM1 658h29c0 -45 17 -102 93 -102c77 0 94 57 94 102h28c0 -55 -22 -128 -122 -128s-122 73 -122 128z" />
    <glyph glyph-name="imacron" unicode="&#x12b;" horiz-adv-x="247" 
d="M142 0h-37v444h37v-444zM2 604h243v-28h-243v28z" />
    <glyph glyph-name="iogonek" unicode="&#x12f;" horiz-adv-x="247" 
d="M142 0c-42 -17 -141 -64 -141 -129c0 -45 42 -71 107 -71c23 0 47 4 70 8l4 -25c-26 -5 -52 -8 -79 -8c-82 0 -135 34 -135 90c0 68 85 117 137 140v439h37v-444zM95 642c0 15 12 27 28 27c17 0 29 -12 29 -27s-12 -27 -29 -27c-16 0 -28 12 -28 27z" />
    <glyph glyph-name="itilde" unicode="&#x129;" horiz-adv-x="247" 
d="M142 0h-37v444h37v-444zM1 545l-25 14c23 36 47 62 80 62c24 0 41 -13 66 -33c19 -14 39 -28 61 -28c23 0 42 25 58 47l24 -13c-22 -34 -47 -62 -81 -62c-28 0 -52 14 -71 29c-23 19 -38 32 -55 32c-23 0 -41 -25 -57 -48z" />
    <glyph glyph-name="ij" unicode="&#x133;" horiz-adv-x="493" 
d="M142 0h-37v444h37v-444zM95 642c0 15 12 27 28 27c17 0 29 -12 29 -27s-12 -27 -29 -27c-16 0 -28 12 -28 27zM240 -227l-8 29c53 3 120 37 120 139v503h37v-503c0 -124 -83 -168 -149 -168zM342 642c0 15 12 27 28 27c17 0 29 -12 29 -27s-12 -27 -29 -27
c-16 0 -28 12 -28 27z" />
    <glyph glyph-name="dotlessi" unicode="&#x131;" horiz-adv-x="247" 
d="M142 0h-37v444h37v-444z" />
    <glyph glyph-name="jcircumflex" unicode="&#x135;" horiz-adv-x="247" 
d="M-7 -227l-8 29c53 3 120 37 120 139v503h37v-503c0 -124 -83 -168 -149 -168zM-10 543l115 119h37l114 -119l-28 -6l-105 101l-105 -101z" />
    <glyph glyph-name="dotlessj" unicode="&#x237;" horiz-adv-x="247" 
d="M-7 -227l-8 29c53 3 120 37 120 139v503h37v-503c0 -124 -83 -168 -149 -168z" />
    <glyph glyph-name="uni0137" unicode="&#x137;" horiz-adv-x="546" 
d="M442 444h50l-184 -152l213 -292h-45l-195 270l-139 -115v-155h-37v700h37v-506zM268 -54l27 11c32 -23 61 -53 61 -94c0 -58 -53 -94 -139 -94c-22 0 -41 2 -61 6l1 24c19 -3 39 -5 57 -5c65 0 107 25 107 71c0 34 -24 60 -53 81z" />
    <glyph glyph-name="kgreenlandic" unicode="&#x138;" horiz-adv-x="546" 
d="M442 445h50l-184 -153l213 -292h-45l-195 270l-139 -115v-155h-37v445h37v-251z" />
    <glyph glyph-name="lacute" unicode="&#x13a;" horiz-adv-x="267" 
d="M115 0v700h37v-700h-37zM79 757l158 111l41 -6l-168 -111z" />
    <glyph glyph-name="lcaron" unicode="&#x13e;" horiz-adv-x="267" 
d="M152 0h-37v700h37v-700zM226 494c-2 1 -21 3 -22 3c23 56 32 131 32 203h36c0 -84 -12 -143 -46 -206z" />
    <glyph glyph-name="uni013C" unicode="&#x13c;" horiz-adv-x="267" 
d="M152 0h-37v700h37v-700zM147 -54l27 11c32 -23 61 -53 61 -94c0 -58 -53 -94 -139 -94c-22 0 -41 2 -61 6l1 24c19 -3 39 -5 57 -5c65 0 107 25 107 71c0 34 -24 60 -53 81z" />
    <glyph glyph-name="ldot" unicode="&#x140;" horiz-adv-x="278" 
d="M233 367c0 14 11 26 27 26s28 -11 28 -26s-12 -26 -28 -26s-27 12 -27 26zM152 0h-37v700h37v-700z" />
    <glyph glyph-name="lslash" unicode="&#x142;" horiz-adv-x="297" 
d="M167 0h-37v346l-84 -49l-14 23l98 57v323h37v-302l96 56l14 -22l-110 -65v-367z" />
    <glyph glyph-name="ntilde" unicode="&#xf1;" horiz-adv-x="606" 
d="M143 0h-36v349c0 31 -5 62 -16 95h35c10 -25 13 -49 14 -74c42 41 108 86 197 86c101 0 172 -65 172 -154v-302h-37v302c0 70 -57 122 -140 122s-148 -46 -189 -84v-340zM181 545l-25 14c23 36 47 62 80 62c24 0 41 -13 66 -33c18 -14 39 -28 61 -28c23 0 41 25 57 47
l24 -13c-22 -34 -46 -62 -80 -62c-29 0 -52 14 -71 29c-23 19 -38 32 -55 32c-24 0 -41 -25 -57 -48z" />
    <glyph glyph-name="nacute" unicode="&#x144;" horiz-adv-x="606" 
d="M143 0h-36v349c0 31 -5 62 -16 95h35c10 -25 13 -49 14 -74c42 41 108 86 197 86c101 0 172 -65 172 -154v-302h-37v302c0 70 -57 122 -140 122s-148 -46 -189 -84v-340zM360 686l40 -4l-102 -146l-32 4z" />
    <glyph glyph-name="ncaron" unicode="&#x148;" horiz-adv-x="606" 
d="M143 0h-36v349c0 31 -5 62 -16 95h35c10 -25 13 -49 14 -74c42 41 108 86 197 86c101 0 172 -65 172 -154v-302h-37v302c0 70 -57 122 -140 122s-148 -46 -189 -84v-340zM170 658l28 5l105 -100l105 100l28 -5l-114 -119h-38z" />
    <glyph glyph-name="uni0146" unicode="&#x146;" horiz-adv-x="606" 
d="M143 0h-36v349c0 31 -5 62 -16 95h35c10 -25 13 -49 14 -74c42 41 108 86 197 86c101 0 172 -65 172 -154v-302h-37v302c0 70 -57 122 -140 122s-148 -46 -189 -84v-340zM307 -54l27 11c32 -23 61 -53 61 -94c0 -58 -53 -94 -139 -94c-22 0 -41 2 -61 6l1 24
c19 -3 39 -5 57 -5c65 0 107 25 107 71c0 34 -24 60 -53 81z" />
    <glyph glyph-name="eng" unicode="&#x14b;" horiz-adv-x="606" 
d="M509 302v-361c0 -124 -83 -168 -149 -168l-8 29c54 3 120 37 120 139v361c0 70 -57 122 -140 122s-148 -46 -189 -84v-340h-36v349c0 31 -5 62 -16 95h35c10 -25 13 -49 14 -74c42 41 108 86 197 86c101 0 172 -65 172 -154z" />
    <glyph glyph-name="napostrophe" unicode="&#x149;" horiz-adv-x="606" 
d="M-2 517l-12 19c33 12 84 42 84 98c0 23 -13 40 -33 44c-7 -2 -14 -4 -20 -4c-13 0 -24 10 -24 23s11 23 27 23c43 0 78 -33 78 -79c0 -76 -56 -108 -100 -124zM143 0h-36v349c0 31 -5 62 -16 95h35c10 -25 13 -49 14 -74c42 41 108 86 197 86c101 0 172 -65 172 -154
v-302h-37v302c0 70 -57 122 -140 122s-148 -46 -189 -84v-340z" />
    <glyph glyph-name="oacute" unicode="&#xf3;" horiz-adv-x="617" 
d="M67 223c0 129 108 233 240 233c134 0 242 -104 242 -233c0 -131 -108 -234 -242 -234c-132 0 -240 103 -240 234zM105 223c0 -112 90 -204 202 -204c114 0 205 92 205 204c0 111 -91 202 -205 202c-112 0 -202 -91 -202 -202zM365 686l40 -4l-102 -146l-32 4z" />
    <glyph glyph-name="ograve" unicode="&#xf2;" horiz-adv-x="617" 
d="M67 223c0 129 108 233 240 233c134 0 242 -104 242 -233c0 -131 -108 -234 -242 -234c-132 0 -240 103 -240 234zM105 223c0 -112 90 -204 202 -204c114 0 205 92 205 204c0 111 -91 202 -205 202c-112 0 -202 -91 -202 -202zM210 682l39 4l95 -146l-33 -4z" />
    <glyph glyph-name="ocircumflex" unicode="&#xf4;" horiz-adv-x="617" 
d="M67 223c0 129 108 233 240 233c134 0 242 -104 242 -233c0 -131 -108 -234 -242 -234c-132 0 -240 103 -240 234zM105 223c0 -112 90 -204 202 -204c114 0 205 92 205 204c0 111 -91 202 -205 202c-112 0 -202 -91 -202 -202zM175 543l114 119h38l114 -119l-28 -6
l-105 101l-105 -101z" />
    <glyph glyph-name="odieresis" unicode="&#xf6;" horiz-adv-x="617" 
d="M67 223c0 129 108 233 240 233c134 0 242 -104 242 -233c0 -131 -108 -234 -242 -234c-132 0 -240 103 -240 234zM105 223c0 -112 90 -204 202 -204c114 0 205 92 205 204c0 111 -91 202 -205 202c-112 0 -202 -91 -202 -202zM371 583c0 15 11 27 27 27s28 -12 28 -27
s-12 -26 -28 -26s-27 12 -27 26zM190 583c0 15 11 27 27 27s28 -12 28 -27s-12 -26 -28 -26s-27 12 -27 26z" />
    <glyph glyph-name="otilde" unicode="&#xf5;" horiz-adv-x="617" 
d="M67 223c0 129 108 233 240 233c134 0 242 -104 242 -233c0 -131 -108 -234 -242 -234c-132 0 -240 103 -240 234zM105 223c0 -112 90 -204 202 -204c114 0 205 92 205 204c0 111 -91 202 -205 202c-112 0 -202 -91 -202 -202zM186 545l-25 14c23 36 47 62 80 62
c24 0 41 -13 66 -33c18 -14 39 -28 61 -28c23 0 41 25 57 47l24 -13c-22 -34 -46 -62 -80 -62c-29 0 -52 14 -71 29c-23 19 -38 32 -55 32c-24 0 -41 -25 -57 -48z" />
    <glyph glyph-name="obreve" unicode="&#x14f;" horiz-adv-x="617" 
d="M67 223c0 129 108 233 240 233c134 0 242 -104 242 -233c0 -131 -108 -234 -242 -234c-132 0 -240 103 -240 234zM105 223c0 -112 90 -204 202 -204c114 0 205 92 205 204c0 111 -91 202 -205 202c-112 0 -202 -91 -202 -202zM186 658h29c0 -45 16 -102 93 -102
s93 57 93 102h29c0 -55 -22 -128 -122 -128s-122 73 -122 128z" />
    <glyph glyph-name="ohungarumlaut" unicode="&#x151;" horiz-adv-x="617" 
d="M67 223c0 129 108 233 240 233c134 0 242 -104 242 -233c0 -131 -108 -234 -242 -234c-132 0 -240 103 -240 234zM105 223c0 -112 90 -204 202 -204c114 0 205 92 205 204c0 111 -91 202 -205 202c-112 0 -202 -91 -202 -202zM226 530l-25 4l67 134l33 -5zM388 530l-26 4
l68 134l33 -5z" />
    <glyph glyph-name="omacron" unicode="&#x14d;" horiz-adv-x="617" 
d="M67 223c0 129 108 233 240 233c134 0 242 -104 242 -233c0 -131 -108 -234 -242 -234c-132 0 -240 103 -240 234zM105 223c0 -112 90 -204 202 -204c114 0 205 92 205 204c0 111 -91 202 -205 202c-112 0 -202 -91 -202 -202zM186 604h243v-28h-243v28z" />
    <glyph glyph-name="oslash" unicode="&#xf8;" horiz-adv-x="617" 
d="M134 -48l-21 16l48 68c-57 43 -94 110 -94 187c0 129 108 233 240 233c46 0 89 -12 125 -34l49 70l21 -15l-49 -69c58 -42 96 -109 96 -185c0 -131 -108 -234 -242 -234c-46 0 -88 12 -124 33zM512 223c0 64 -31 121 -78 158l-233 -333c31 -19 67 -29 106 -29
c114 0 205 92 205 204zM105 223c0 -64 29 -121 75 -159l233 331c-31 19 -67 30 -106 30c-112 0 -202 -91 -202 -202z" />
    <glyph glyph-name="oslashacute" unicode="&#x1ff;" horiz-adv-x="617" 
d="M365 686l40 -4l-102 -146l-32 4zM134 -48l-21 16l48 68c-57 43 -94 110 -94 187c0 129 108 233 240 233c46 0 89 -12 125 -34l49 70l21 -15l-49 -69c58 -42 96 -109 96 -185c0 -131 -108 -234 -242 -234c-46 0 -88 12 -124 33zM512 223c0 64 -31 121 -78 158l-233 -333
c31 -19 67 -29 106 -29c114 0 205 92 205 204zM105 223c0 -64 29 -121 75 -159l233 331c-31 19 -67 30 -106 30c-112 0 -202 -91 -202 -202z" />
    <glyph glyph-name="racute" unicode="&#x155;" horiz-adv-x="386" 
d="M143 0h-36v350c0 30 -5 61 -16 94h35c10 -27 13 -52 14 -81c32 46 81 93 146 93c31 0 62 -11 77 -32l-16 -30c-14 18 -43 27 -67 27c-59 0 -106 -51 -137 -93v-328zM251 686l40 -4l-102 -146l-32 4z" />
    <glyph glyph-name="rcaron" unicode="&#x159;" horiz-adv-x="386" 
d="M143 0h-36v350c0 30 -5 61 -16 94h35c10 -27 13 -52 14 -81c32 46 81 93 146 93c31 0 62 -11 77 -32l-16 -30c-14 18 -43 27 -67 27c-59 0 -106 -51 -137 -93v-328zM61 658l28 5l105 -100l105 100l28 -5l-114 -119h-38z" />
    <glyph glyph-name="uni0157" unicode="&#x157;" horiz-adv-x="386" 
d="M143 0h-36v350c0 30 -5 61 -16 94h35c10 -27 13 -52 14 -81c32 46 81 93 146 93c31 0 62 -11 77 -32l-16 -30c-14 18 -43 27 -67 27c-59 0 -106 -51 -137 -93v-328zM170 -54l27 11c32 -23 61 -53 61 -94c0 -58 -53 -94 -139 -94c-22 0 -41 2 -61 6l1 24
c19 -3 39 -5 57 -5c65 0 107 25 107 71c0 34 -24 60 -53 81z" />
    <glyph glyph-name="scaron" unicode="&#x161;" horiz-adv-x="541" 
d="M445 396l-16 -27c-30 24 -95 58 -171 58c-63 0 -141 -25 -141 -94c0 -72 88 -75 160 -79c75 -3 204 -10 204 -123c0 -98 -96 -144 -210 -144c-104 0 -168 39 -211 72l16 27c43 -31 102 -68 195 -68c94 0 174 35 174 110c0 83 -104 89 -168 92c-92 5 -197 10 -197 109
c0 97 98 128 177 128c85 0 157 -36 188 -61zM136 658l28 5l105 -100l105 100l28 -5l-114 -119h-38z" />
    <glyph glyph-name="sacute" unicode="&#x15b;" horiz-adv-x="541" 
d="M445 396l-16 -27c-30 24 -95 58 -171 58c-63 0 -141 -25 -141 -94c0 -72 88 -75 160 -79c75 -3 204 -10 204 -123c0 -98 -96 -144 -210 -144c-104 0 -168 39 -211 72l16 27c43 -31 102 -68 195 -68c94 0 174 35 174 110c0 83 -104 89 -168 92c-92 5 -197 10 -197 109
c0 97 98 128 177 128c85 0 157 -36 188 -61zM326 686l40 -4l-102 -146l-32 4z" />
    <glyph glyph-name="scedilla" unicode="&#x15f;" horiz-adv-x="541" 
d="M445 396l-16 -27c-30 24 -95 58 -171 58c-63 0 -141 -25 -141 -94c0 -72 88 -75 160 -79c75 -3 204 -10 204 -123c0 -97 -94 -143 -206 -144l-17 -61c16 4 36 8 58 8c42 0 91 -18 91 -73c0 -56 -66 -86 -149 -86c-56 0 -107 13 -150 25l8 22c41 -11 91 -23 141 -23
c65 0 116 21 116 62s-37 52 -67 52c-21 0 -43 -5 -63 -10l-16 15l21 70c-90 5 -148 40 -188 71l16 27c43 -31 102 -68 195 -68c94 0 174 35 174 110c0 83 -104 89 -168 92c-92 5 -197 10 -197 109c0 97 98 128 177 128c85 0 157 -36 188 -61z" />
    <glyph glyph-name="scircumflex" unicode="&#x15d;" horiz-adv-x="541" 
d="M445 396l-16 -27c-30 24 -95 58 -171 58c-63 0 -141 -25 -141 -94c0 -72 88 -75 160 -79c75 -3 204 -10 204 -123c0 -98 -96 -144 -210 -144c-104 0 -168 39 -211 72l16 27c43 -31 102 -68 195 -68c94 0 174 35 174 110c0 83 -104 89 -168 92c-92 5 -197 10 -197 109
c0 97 98 128 177 128c85 0 157 -36 188 -61zM136 543l114 119h38l114 -119l-28 -6l-105 101l-105 -101z" />
    <glyph glyph-name="uni0219" unicode="&#x219;" horiz-adv-x="541" 
d="M445 396l-16 -27c-30 24 -95 58 -171 58c-63 0 -141 -25 -141 -94c0 -72 88 -75 160 -79c75 -3 204 -10 204 -123c0 -98 -96 -144 -210 -144c-104 0 -168 39 -211 72l16 27c43 -31 102 -68 195 -68c94 0 174 35 174 110c0 83 -104 89 -168 92c-92 5 -197 10 -197 109
c0 97 98 128 177 128c85 0 157 -36 188 -61zM248 -54l27 11c32 -23 61 -53 61 -94c0 -58 -53 -94 -139 -94c-22 0 -41 2 -61 6l1 24c19 -3 39 -5 57 -5c65 0 107 25 107 71c0 34 -24 60 -53 81z" />
    <glyph glyph-name="tbar" unicode="&#x167;" horiz-adv-x="382" 
d="M34 415v29h98v140h36v-140h167v-29h-167v-160h167v-26h-167v-121c0 -65 43 -89 81 -89c34 0 74 14 94 29l8 -27c-22 -18 -67 -34 -107 -34c-50 0 -112 30 -112 121v121h-98v26h98v160h-98z" />
    <glyph glyph-name="tcaron" unicode="&#x165;" horiz-adv-x="382" 
d="M34 415v29h98v140h36v-140h167v-29h-167v-307c0 -65 43 -89 81 -89c34 0 74 14 94 29l8 -27c-22 -18 -67 -34 -107 -34c-50 0 -112 30 -112 121v307h-98zM298 515c-2 0 -21 2 -23 3c23 56 32 130 32 202h37c0 -84 -12 -142 -46 -205z" />
    <glyph glyph-name="uni0163" unicode="&#x163;" horiz-adv-x="382" 
d="M35 415v29h98v140h36v-140h167v-29h-167v-307c0 -65 43 -89 81 -89c34 0 74 14 94 29l8 -27c-22 -18 -67 -34 -107 -34c-8 0 -15 1 -23 2l-17 -63c16 4 36 8 58 8c42 0 91 -18 91 -73c0 -56 -66 -86 -149 -86c-56 0 -107 13 -150 25l8 22c41 -11 91 -23 141 -23
c65 0 116 21 116 62s-37 52 -67 52c-21 0 -43 -5 -63 -10l-16 15l24 78c-35 14 -65 48 -65 112v307h-98z" />
    <glyph glyph-name="uni021B" unicode="&#x21b;" horiz-adv-x="382" 
d="M34 415v29h98v140h36v-140h167v-29h-167v-307c0 -65 43 -89 81 -89c34 0 74 14 94 29l8 -27c-22 -18 -67 -34 -107 -34c-50 0 -112 30 -112 121v307h-98zM206 -54l27 11c32 -23 61 -53 61 -94c0 -58 -53 -94 -139 -94c-22 0 -41 2 -61 6l1 24c19 -3 39 -5 57 -5
c65 0 107 25 107 71c0 34 -24 60 -53 81z" />
    <glyph glyph-name="uacute" unicode="&#xfa;" horiz-adv-x="605" 
d="M463 444h36v-349c0 -30 2 -62 8 -95h-34c-5 24 -7 50 -7 74c-42 -41 -108 -85 -197 -85c-101 0 -172 64 -172 153v302h37v-302c0 -69 57 -122 140 -122s148 46 189 85v339zM360 686l40 -4l-102 -146l-32 4z" />
    <glyph glyph-name="ugrave" unicode="&#xf9;" horiz-adv-x="605" 
d="M463 444h36v-349c0 -30 2 -62 8 -95h-34c-5 24 -7 50 -7 74c-42 -41 -108 -85 -197 -85c-101 0 -172 64 -172 153v302h37v-302c0 -69 57 -122 140 -122s148 46 189 85v339zM205 682l39 4l95 -146l-33 -4z" />
    <glyph glyph-name="ucircumflex" unicode="&#xfb;" horiz-adv-x="605" 
d="M463 444h36v-349c0 -30 2 -62 8 -95h-34c-5 24 -7 50 -7 74c-42 -41 -108 -85 -197 -85c-101 0 -172 64 -172 153v302h37v-302c0 -69 57 -122 140 -122s148 46 189 85v339zM170 543l114 119h38l114 -119l-28 -6l-105 101l-105 -101z" />
    <glyph glyph-name="udieresis" unicode="&#xfc;" horiz-adv-x="605" 
d="M463 444h36v-349c0 -30 2 -62 8 -95h-34c-5 24 -7 50 -7 74c-42 -41 -108 -85 -197 -85c-101 0 -172 64 -172 153v302h37v-302c0 -69 57 -122 140 -122s148 46 189 85v339zM366 583c0 15 11 27 27 27s28 -12 28 -27s-12 -26 -28 -26s-27 12 -27 26zM185 583
c0 15 11 27 27 27s28 -12 28 -27s-12 -26 -28 -26s-27 12 -27 26z" />
    <glyph glyph-name="ubreve" unicode="&#x16d;" horiz-adv-x="605" 
d="M463 444h36v-349c0 -30 2 -62 8 -95h-34c-5 24 -7 50 -7 74c-42 -41 -108 -85 -197 -85c-101 0 -172 64 -172 153v302h37v-302c0 -69 57 -122 140 -122s148 46 189 85v339zM181 658h29c0 -45 16 -102 93 -102s93 57 93 102h29c0 -55 -22 -128 -122 -128s-122 73 -122 128
z" />
    <glyph glyph-name="uhungarumlaut" unicode="&#x171;" horiz-adv-x="605" 
d="M463 444h36v-349c0 -30 2 -62 8 -95h-34c-5 24 -7 50 -7 74c-42 -41 -108 -85 -197 -85c-101 0 -172 64 -172 153v302h37v-302c0 -69 57 -122 140 -122s148 46 189 85v339zM221 530l-25 4l67 134l33 -5zM383 530l-26 4l68 134l33 -5z" />
    <glyph glyph-name="umacron" unicode="&#x16b;" horiz-adv-x="605" 
d="M463 444h36v-349c0 -30 2 -62 8 -95h-34c-5 24 -7 50 -7 74c-42 -41 -108 -85 -197 -85c-101 0 -172 64 -172 153v302h37v-302c0 -69 57 -122 140 -122s148 46 189 85v339zM181 604h243v-28h-243v28z" />
    <glyph glyph-name="uogonek" unicode="&#x173;" horiz-adv-x="605" 
d="M463 444h36v-349c0 -30 2 -62 8 -95h-3c-40 -17 -139 -64 -139 -129c0 -45 42 -71 107 -71c23 0 47 4 70 8l4 -25c-26 -5 -52 -8 -79 -8c-82 0 -135 34 -135 90c0 70 88 119 140 141c-4 22 -6 46 -6 68c-42 -41 -108 -85 -197 -85c-101 0 -172 64 -172 153v302h37v-302
c0 -69 57 -122 140 -122s148 46 189 85v339z" />
    <glyph glyph-name="uring" unicode="&#x16f;" horiz-adv-x="605" 
d="M463 444h36v-349c0 -30 2 -62 8 -95h-34c-5 24 -7 50 -7 74c-42 -41 -108 -85 -197 -85c-101 0 -172 64 -172 153v302h37v-302c0 -69 57 -122 140 -122s148 46 189 85v339zM222 616c0 -38 31 -66 79 -66s81 28 81 66c0 39 -33 69 -81 69s-79 -30 -79 -69zM197 616
c0 50 39 88 104 88s107 -38 107 -88c0 -48 -42 -86 -107 -86s-104 38 -104 86z" />
    <glyph glyph-name="utilde" unicode="&#x169;" horiz-adv-x="605" 
d="M463 444h36v-349c0 -30 2 -62 8 -95h-34c-5 24 -7 50 -7 74c-42 -41 -108 -85 -197 -85c-101 0 -172 64 -172 153v302h37v-302c0 -69 57 -122 140 -122s148 46 189 85v339zM181 545l-25 14c23 36 47 62 80 62c24 0 41 -13 66 -33c18 -14 39 -28 61 -28c23 0 41 25 57 47
l24 -13c-22 -34 -46 -62 -80 -62c-29 0 -52 14 -71 29c-23 19 -38 32 -55 32c-24 0 -41 -25 -57 -48z" />
    <glyph glyph-name="wacute" unicode="&#x1e83;" horiz-adv-x="764" 
d="M673 444h40l-149 -444h-46l-134 396h-4l-135 -396h-46l-149 444h41l129 -400h5l136 400h44l135 -400h5zM439 686l40 -4l-102 -146l-32 4z" />
    <glyph glyph-name="wcircumflex" unicode="&#x175;" horiz-adv-x="764" 
d="M673 444h40l-149 -444h-46l-134 396h-4l-135 -396h-46l-149 444h41l129 -400h5l136 400h44l135 -400h5zM249 543l114 119h38l114 -119l-28 -6l-105 101l-105 -101z" />
    <glyph glyph-name="wdieresis" unicode="&#x1e85;" horiz-adv-x="764" 
d="M673 444h40l-149 -444h-46l-134 396h-4l-135 -396h-46l-149 444h41l129 -400h5l136 400h44l135 -400h5zM445 583c0 15 11 27 27 27s28 -12 28 -27s-12 -26 -28 -26s-27 12 -27 26zM264 583c0 15 11 27 27 27s28 -12 28 -27s-12 -26 -28 -26s-27 12 -27 26z" />
    <glyph glyph-name="wgrave" unicode="&#x1e81;" horiz-adv-x="764" 
d="M673 444h40l-149 -444h-46l-134 396h-4l-135 -396h-46l-149 444h41l129 -400h5l136 400h44l135 -400h5zM284 682l39 4l95 -146l-33 -4z" />
    <glyph glyph-name="yacute" unicode="&#xfd;" horiz-adv-x="541" 
d="M461 444h37l-326 -658h-37l107 214l-198 444h40l177 -404h2zM327 686l40 -4l-102 -146l-32 4z" />
    <glyph glyph-name="ydieresis" unicode="&#xff;" horiz-adv-x="541" 
d="M461 444h37l-326 -658h-37l107 214l-198 444h40l177 -404h2zM333 583c0 15 11 27 27 27s28 -12 28 -27s-12 -26 -28 -26s-27 12 -27 26zM152 583c0 15 11 27 27 27s28 -12 28 -27s-12 -26 -28 -26s-27 12 -27 26z" />
    <glyph glyph-name="ycircumflex" unicode="&#x177;" horiz-adv-x="541" 
d="M461 444h37l-326 -658h-37l107 214l-198 444h40l177 -404h2zM137 543l114 119h38l114 -119l-28 -6l-105 101l-105 -101z" />
    <glyph glyph-name="ygrave" unicode="&#x1ef3;" horiz-adv-x="541" 
d="M461 444h37l-326 -658h-37l107 214l-198 444h40l177 -404h2zM172 682l39 4l95 -146l-33 -4z" />
    <glyph glyph-name="zcaron" unicode="&#x17e;" horiz-adv-x="513" 
d="M456 29v-29h-411v24l351 391h-314v29h363v-23l-351 -392h362zM124 658l28 5l105 -100l105 100l28 -5l-114 -119h-38z" />
    <glyph glyph-name="zacute" unicode="&#x17a;" horiz-adv-x="513" 
d="M456 29v-29h-411v24l351 391h-314v29h363v-23l-351 -392h362zM314 686l40 -4l-102 -146l-32 4z" />
    <glyph glyph-name="zdotaccent" unicode="&#x17c;" horiz-adv-x="513" 
d="M456 29v-29h-411v24l351 391h-314v29h363v-23l-351 -392h362zM230 583c0 15 11 27 27 27s28 -12 28 -27s-12 -26 -28 -26s-27 12 -27 26z" />
    <glyph glyph-name="eth" unicode="&#xf0;" horiz-adv-x="627" 
d="M189 522l-9 25l159 58c-47 36 -98 60 -148 81l34 13c52 -22 102 -46 148 -82l116 43l9 -26l-101 -37c9 -8 17 -17 26 -26c62 -68 117 -177 117 -324c0 -72 -17 -139 -62 -187c-42 -45 -106 -71 -172 -71c-128 0 -238 103 -238 231c0 130 107 231 231 231
c87 0 174 -46 198 -130c-16 104 -56 182 -108 238c-9 9 -17 18 -26 26zM106 220c0 -111 90 -199 200 -199c54 0 108 21 145 61c31 33 51 80 51 144c0 119 -91 193 -198 193c-108 0 -198 -88 -198 -199z" />
    <glyph glyph-name="thorn" unicode="&#xfe;" horiz-adv-x="624" 
d="M128 341v-238c26 -28 87 -83 170 -83c112 0 204 80 204 202s-86 202 -190 202c-70 0 -137 -38 -184 -83zM128 700v-327c48 47 114 83 187 83c123 0 226 -93 226 -234s-109 -233 -240 -233c-80 0 -142 45 -173 82v-285h-36v914h36z" />
    <glyph glyph-name="ae" unicode="&#xe6;" horiz-adv-x="978" 
d="M243 21c117 0 208 70 231 97c-10 20 -17 46 -19 69c-40 56 -118 77 -190 77c-114 0 -170 -54 -170 -123c0 -66 52 -120 148 -120zM690 -11c-93 0 -164 41 -203 103c-45 -47 -139 -103 -250 -103c-114 0 -179 68 -179 152c0 85 71 152 202 152c68 0 153 -17 195 -72v94
c0 80 -83 110 -160 110c-79 0 -143 -32 -176 -55l-14 28c36 24 104 58 192 58c82 0 178 -28 184 -118v-29c30 91 117 147 209 147c108 0 229 -69 225 -222h-423c-1 -9 -1 -18 0 -40c8 -98 84 -173 198 -173c84 0 147 32 188 75l24 -22c-46 -49 -118 -85 -212 -85zM494 263
h381c-3 109 -100 162 -185 162c-99 0 -177 -68 -196 -162z" />
    <glyph glyph-name="aeacute" unicode="&#x1fd;" horiz-adv-x="978" 
d="M243 21c117 0 208 70 231 97c-10 20 -17 46 -19 69c-40 56 -118 77 -190 77c-114 0 -170 -54 -170 -123c0 -66 52 -120 148 -120zM690 -11c-93 0 -164 41 -203 103c-45 -47 -139 -103 -250 -103c-114 0 -179 68 -179 152c0 85 71 152 202 152c68 0 153 -17 195 -72v94
c0 80 -83 110 -160 110c-79 0 -143 -32 -176 -55l-14 28c36 24 104 58 192 58c82 0 178 -28 184 -118v-29c30 91 117 147 209 147c108 0 229 -69 225 -222h-423c-1 -9 -1 -18 0 -40c8 -98 84 -173 198 -173c84 0 147 32 188 75l24 -22c-46 -49 -118 -85 -212 -85zM494 263
h381c-3 109 -100 162 -185 162c-99 0 -177 -68 -196 -162zM546 686l40 -4l-102 -146l-32 4z" />
    <glyph glyph-name="oe" unicode="&#x153;" horiz-adv-x="1036" 
d="M936 96l25 -22c-47 -49 -119 -85 -212 -85c-114 0 -200 67 -221 160c-26 -94 -122 -160 -221 -160c-129 0 -240 103 -240 234c0 129 111 233 240 233c102 0 199 -70 223 -167c24 98 117 167 219 167c108 0 228 -69 224 -222h-423c-1 -9 -1 -18 0 -34
c6 -100 82 -179 199 -179c83 0 146 32 187 75zM105 223c0 -112 90 -204 202 -204c111 0 205 89 205 204c0 111 -91 202 -205 202c-112 0 -202 -91 -202 -202zM749 425c-98 0 -177 -68 -196 -162h381c-3 109 -100 162 -185 162z" />
    <glyph glyph-name="schwa" unicode="&#x259;" horiz-adv-x="594" 
d="M103 349l-25 22c47 48 119 85 212 85c145 0 237 -101 237 -226c0 -136 -106 -241 -237 -241c-108 0 -228 68 -224 221h423c0 6 1 13 1 20c0 106 -78 194 -200 194c-84 0 -146 -32 -187 -75zM290 19c97 0 175 68 195 162h-380c3 -108 100 -162 185 -162z" />
    <glyph glyph-name="ij.alt" horiz-adv-x="493" 
d="M142 0h-37v444h37v-444zM95 642c0 15 12 27 28 27c17 0 29 -12 29 -27s-12 -27 -29 -27c-16 0 -28 12 -28 27zM132 -186l11 28c22 -23 61 -37 96 -37c55 0 113 35 113 126v513h37v-513c0 -117 -77 -158 -145 -158c-38 0 -85 13 -112 41zM342 642c0 15 12 27 28 27
c17 0 29 -12 29 -27s-12 -27 -29 -27c-16 0 -28 12 -28 27z" />
    <glyph glyph-name="j.alt" horiz-adv-x="247" 
d="M-115 -186l11 28c22 -23 61 -37 96 -37c55 0 113 35 113 126v513h37v-513c0 -117 -77 -158 -145 -158c-38 0 -85 13 -112 41zM95 642c0 15 12 27 28 27c17 0 29 -12 29 -27s-12 -27 -29 -27c-16 0 -28 12 -28 27z" />
    <glyph glyph-name="jcircumflex.alt" horiz-adv-x="247" 
d="M-10 543l115 119h37l114 -119l-28 -6l-105 101l-105 -101zM-115 -186l11 28c22 -23 61 -37 96 -37c55 0 113 35 113 126v513h37v-513c0 -117 -77 -158 -145 -158c-38 0 -85 13 -112 41z" />
    <glyph glyph-name="dotlessj.alt" horiz-adv-x="247" 
d="M-115 -186l11 28c22 -23 61 -37 96 -37c55 0 113 35 113 126v513h37v-513c0 -117 -77 -158 -145 -158c-38 0 -85 13 -112 41z" />
    <glyph glyph-name="r.alt" horiz-adv-x="490" 
d="M288 423c-62 0 -113 -53 -145 -95v-328h-36v350c0 30 -5 61 -16 94h35c10 -27 13 -52 14 -81c33 46 86 93 154 93c91 0 152 -64 150 -154h-35c1 71 -49 121 -121 121z" />
    <glyph glyph-name="racute.alt" horiz-adv-x="490" 
d="M288 423c-62 0 -113 -53 -145 -95v-328h-36v350c0 30 -5 61 -16 94h35c10 -27 13 -52 14 -81c33 46 86 93 154 93c91 0 152 -64 150 -154h-35c1 71 -49 121 -121 121zM313 686l40 -4l-102 -146l-32 4z" />
    <glyph glyph-name="rcaron.alt" horiz-adv-x="490" 
d="M288 423c-62 0 -113 -53 -145 -95v-328h-36v350c0 30 -5 61 -16 94h35c10 -27 13 -52 14 -81c33 46 86 93 154 93c91 0 152 -64 150 -154h-35c1 71 -49 121 -121 121zM123 658l28 5l105 -100l105 100l28 -5l-114 -119h-38z" />
    <glyph glyph-name="uni0157.alt" horiz-adv-x="490" 
d="M288 423c-62 0 -113 -53 -145 -95v-328h-36v350c0 30 -5 61 -16 94h35c10 -27 13 -52 14 -81c33 46 86 93 154 93c91 0 152 -64 150 -154h-35c1 71 -49 121 -121 121zM219 -54l27 11c32 -23 61 -53 61 -94c0 -58 -53 -94 -139 -94c-22 0 -41 2 -61 6l1 24
c19 -3 39 -5 57 -5c65 0 107 25 107 71c0 34 -24 60 -53 81z" />
    <glyph glyph-name="y.alt" horiz-adv-x="541" 
d="M227 -31l15 31l-198 444h40l177 -404h2l198 404h37l-249 -503c-43 -86 -105 -168 -207 -168c-58 0 -105 17 -137 42l14 28c28 -23 71 -39 124 -39c88 0 144 80 184 165z" />
    <glyph glyph-name="yacute.alt" horiz-adv-x="541" 
d="M227 -31l15 31l-198 444h40l177 -404h2l198 404h37l-249 -503c-43 -86 -105 -168 -207 -168c-58 0 -105 17 -137 42l14 28c28 -23 71 -39 124 -39c88 0 144 80 184 165zM327 686l40 -4l-102 -146l-32 4z" />
    <glyph glyph-name="ydieresis.alt" horiz-adv-x="541" 
d="M227 -31l15 31l-198 444h40l177 -404h2l198 404h37l-249 -503c-43 -86 -105 -168 -207 -168c-58 0 -105 17 -137 42l14 28c28 -23 71 -39 124 -39c88 0 144 80 184 165zM333 583c0 15 11 27 27 27s28 -12 28 -27s-12 -26 -28 -26s-27 12 -27 26zM152 583
c0 15 11 27 27 27s28 -12 28 -27s-12 -26 -28 -26s-27 12 -27 26z" />
    <glyph glyph-name="ycircumflex.alt" horiz-adv-x="541" 
d="M227 -31l15 31l-198 444h40l177 -404h2l198 404h37l-249 -503c-43 -86 -105 -168 -207 -168c-58 0 -105 17 -137 42l14 28c28 -23 71 -39 124 -39c88 0 144 80 184 165zM137 543l114 119h38l114 -119l-28 -6l-105 101l-105 -101z" />
    <glyph glyph-name="ygrave.alt" horiz-adv-x="541" 
d="M227 -31l15 31l-198 444h40l177 -404h2l198 404h37l-249 -503c-43 -86 -105 -168 -207 -168c-58 0 -105 17 -137 42l14 28c28 -23 71 -39 124 -39c88 0 144 80 184 165zM172 682l39 4l95 -146l-33 -4z" />
    <glyph glyph-name="acute" unicode="&#xb4;" 
d="M307 686l40 -4l-102 -146l-32 4z" />
    <glyph glyph-name="grave" unicode="`" 
d="M152 682l39 4l95 -146l-33 -4z" />
    <glyph glyph-name="circumflex" unicode="&#x2c6;" 
d="M117 543l114 119h38l114 -119l-28 -6l-105 101l-105 -101z" />
    <glyph glyph-name="dieresis" unicode="&#xa8;" 
d="M313 583c0 15 11 27 27 27s28 -12 28 -27s-12 -26 -28 -26s-27 12 -27 26zM132 583c0 15 11 27 27 27s28 -12 28 -27s-12 -26 -28 -26s-27 12 -27 26z" />
    <glyph glyph-name="tilde" unicode="&#x2dc;" 
d="M128 545l-25 14c23 36 47 62 80 62c24 0 41 -13 66 -33c18 -14 39 -28 61 -28c23 0 41 25 57 47l24 -13c-22 -34 -46 -62 -80 -62c-29 0 -52 14 -71 29c-23 19 -38 32 -55 32c-24 0 -41 -25 -57 -48z" />
    <glyph glyph-name="ring" unicode="&#x2da;" 
d="M169 616c0 -38 31 -66 79 -66s81 28 81 66c0 39 -33 69 -81 69s-79 -30 -79 -69zM144 616c0 50 39 88 104 88s107 -38 107 -88c0 -48 -42 -86 -107 -86s-104 38 -104 86z" />
    <glyph glyph-name="cedilla" unicode="&#xb8;" 
d="M262 5h26l-22 -79c16 4 36 8 58 8c42 0 91 -18 91 -73c0 -56 -66 -86 -149 -86c-56 0 -107 13 -150 25l8 22c41 -11 91 -23 141 -23c65 0 116 21 116 62s-37 52 -67 52c-21 0 -43 -5 -63 -10l-16 15z" />
    <glyph glyph-name="breve" unicode="&#x2d8;" 
d="M128 658h29c0 -45 16 -102 93 -102s93 57 93 102h29c0 -55 -22 -128 -122 -128s-122 73 -122 128z" />
    <glyph glyph-name="caron" unicode="&#x2c7;" 
d="M117 658l28 5l105 -100l105 100l28 -5l-114 -119h-38z" />
    <glyph glyph-name="dotaccent" unicode="&#x2d9;" 
d="M223 583c0 15 11 27 27 27s28 -12 28 -27s-12 -26 -28 -26s-27 12 -27 26z" />
    <glyph glyph-name="hungarumlaut" unicode="&#x2dd;" 
d="M168 530l-25 4l67 134l33 -5zM330 530l-26 4l68 134l33 -5z" />
    <glyph glyph-name="macron" unicode="&#xaf;" 
d="M128 604h243v-28h-243v28z" />
    <glyph glyph-name="ogonek" unicode="&#x2db;" 
d="M261 14l16 -13c-39 -16 -142 -64 -142 -130c0 -45 42 -71 107 -71c23 0 47 4 70 8l4 -25c-26 -5 -52 -8 -79 -8c-82 0 -135 34 -135 90c0 79 115 132 159 149z" />
    <glyph glyph-name="commaaccent" unicode="&#xf6c3;" 
d="M257 -54l27 11c32 -23 61 -53 61 -94c0 -58 -53 -94 -139 -94c-22 0 -41 2 -61 6l1 24c19 -3 39 -5 57 -5c65 0 107 25 107 71c0 34 -24 60 -53 81z" />
    <glyph glyph-name="caron.alt" 
d="M234 494c-2 1 -21 3 -23 3c23 56 32 131 32 203h37c0 -84 -12 -143 -46 -206z" />
    <glyph glyph-name="germandbls" unicode="&#xdf;" horiz-adv-x="603" 
d="M313 -10l-2 29c124 0 189 69 189 159c0 131 -138 193 -186 209l3 30c39 10 96 65 96 141c0 71 -53 122 -131 122c-69 0 -141 -39 -141 -142v-538h-36v538c0 127 90 173 176 173c104 0 170 -67 170 -151c0 -85 -67 -142 -103 -157c63 -21 189 -95 189 -226
c0 -106 -77 -187 -224 -187z" />
    <glyph glyph-name="fi" horiz-adv-x="573" 
d="M44 444h97v109c0 116 73 157 134 157c22 0 49 -5 66 -13l-8 -29c-14 6 -36 10 -53 10c-48 0 -103 -34 -103 -125v-109h160v-29h-160v-415h-36v415h-97v29zM469 0h-37v444h37v-444zM422 642c0 15 12 27 28 27c17 0 29 -12 29 -27s-12 -27 -29 -27c-16 0 -28 12 -28 27z
" />
    <glyph glyph-name="fl" horiz-adv-x="601" 
d="M44 444h97v109c0 116 73 157 134 157c22 0 49 -5 66 -13l-8 -29c-14 6 -36 10 -53 10c-48 0 -103 -34 -103 -125v-109h160v-29h-160v-415h-36v415h-97v29zM486 0h-36v700h36v-700z" />
    <glyph glyph-name="f_j.alt" horiz-adv-x="573" 
d="M44 444h97v109c0 116 73 157 134 157c22 0 49 -5 66 -13l-8 -29c-14 6 -36 10 -53 10c-48 0 -103 -34 -103 -125v-109h160v-29h-160v-415h-36v415h-97v29zM213 -186l10 28c22 -23 61 -37 96 -37c55 0 113 35 113 126v513h37v-513c0 -117 -77 -158 -145 -158
c-38 0 -84 13 -111 41zM422 642c0 15 12 27 28 27c17 0 29 -12 29 -27s-12 -27 -29 -27c-16 0 -28 12 -28 27z" />
    <glyph glyph-name="f_f_j.alt" horiz-adv-x="885" 
d="M453 0v415h-276v-415h-36v415h-97v29h97v109c0 116 72 157 137 157c36 0 84 -12 112 -41l-11 -28c-23 25 -64 37 -95 37c-54 0 -107 -34 -107 -125v-109h276v109c0 116 74 157 134 157c23 0 49 -5 67 -13l-9 -29c-14 6 -36 10 -53 10c-48 0 -103 -34 -103 -125v-109h160
v-29h-160v-415h-36zM525 -186l11 28c17 -18 60 -37 98 -37c51 0 110 35 110 126v513h37v-513c0 -117 -78 -158 -142 -158c-44 0 -94 21 -114 41zM763 615c-17 0 -29 12 -29 27s12 27 29 27c16 0 28 -12 28 -27s-12 -27 -28 -27z" />
    <glyph glyph-name="ordfeminine" unicode="&#xaa;" horiz-adv-x="451" 
d="M87 494l-12 25c28 18 83 43 152 43c73 0 153 -25 153 -99v-182c0 -18 4 -43 15 -61h-33c-11 15 -13 38 -14 56c-26 -24 -88 -65 -167 -65c-90 0 -141 51 -141 115c0 63 56 113 159 113c52 0 117 -12 149 -50v66c0 59 -62 80 -122 80c-61 0 -113 -24 -139 -41zM186 239
c88 0 157 56 162 67v53c-30 41 -90 54 -145 54c-88 0 -130 -38 -130 -87c0 -47 40 -87 113 -87z" />
    <glyph glyph-name="ordmasculine" unicode="&#xba;" horiz-adv-x="468" 
d="M44 387c0 97 87 175 189 175c103 0 191 -78 191 -175c0 -98 -88 -176 -191 -176c-102 0 -189 78 -189 176zM78 387c0 -82 68 -148 155 -148c88 0 157 66 157 148c0 81 -69 147 -157 147c-87 0 -155 -66 -155 -147z" />
    <glyph glyph-name="a.superior" horiz-adv-x="451" 
d="M87 494l-12 25c28 18 83 43 152 43c73 0 153 -25 153 -99v-182c0 -18 4 -43 15 -61h-33c-11 15 -13 38 -14 56c-26 -24 -88 -65 -167 -65c-90 0 -141 51 -141 115c0 63 56 113 159 113c52 0 117 -12 149 -50v66c0 59 -62 80 -122 80c-61 0 -113 -24 -139 -41zM186 239
c88 0 157 56 162 67v53c-30 41 -90 54 -145 54c-88 0 -130 -38 -130 -87c0 -47 40 -87 113 -87z" />
    <glyph glyph-name="b.superior" horiz-adv-x="474" 
d="M98 220h-30c4 26 6 50 6 73v407h32v-199c42 39 93 61 145 61c96 0 178 -69 178 -175c0 -107 -86 -176 -189 -176c-67 0 -117 39 -136 63c-1 -18 -2 -36 -6 -54zM248 534c-50 0 -101 -23 -142 -60v-174c15 -17 63 -61 132 -61c85 0 156 58 156 148c0 89 -66 147 -146 147z
" />
    <glyph glyph-name="d.superior" horiz-adv-x="473" 
d="M407 220h-32c-3 18 -4 36 -5 54c-20 -24 -72 -63 -142 -63c-100 0 -183 69 -183 176c0 106 84 175 183 175c50 0 99 -21 140 -59v197h32v-407c0 -23 2 -47 7 -73zM232 534c-83 0 -152 -58 -152 -147c0 -90 68 -148 151 -148c71 0 121 44 137 61v174
c-40 37 -89 60 -136 60z" />
    <glyph glyph-name="e.superior" horiz-adv-x="454" 
d="M377 295l22 -20c-38 -36 -94 -64 -167 -64c-114 0 -187 77 -187 170c0 102 83 181 187 181c85 0 180 -52 176 -169h-330v-12c0 -77 60 -142 154 -142c65 0 113 24 145 56zM232 535c-75 0 -134 -49 -150 -117h291c-2 79 -76 117 -141 117z" />
    <glyph glyph-name="h.superior" horiz-adv-x="459" 
d="M106 220h-32v480h32v-199c32 29 83 61 147 61c83 0 138 -48 138 -115v-227h-32v227c0 50 -44 87 -108 87s-114 -34 -145 -62v-252z" />
    <glyph glyph-name="i.superior" horiz-adv-x="180" 
d="M107 220h-33v333h33v-333zM66 680c0 12 10 22 24 22s25 -8 25 -22s-11 -22 -25 -22s-24 10 -24 22z" />
    <glyph glyph-name="l.superior" horiz-adv-x="180" 
d="M106 220h-32v480h32v-480z" />
    <glyph glyph-name="m.superior" horiz-adv-x="680" 
d="M107 220h-33v260c0 24 -3 48 -12 73h31c7 -18 10 -35 11 -54c29 31 73 63 134 63c60 0 97 -31 116 -68c27 33 74 68 137 68c71 0 121 -48 121 -115v-227h-33v227c0 50 -38 87 -93 87s-98 -34 -126 -62v-252h-33v251c-10 32 -39 63 -93 63c-56 0 -99 -34 -127 -62v-252z
" />
    <glyph glyph-name="n.superior" unicode="&#x207f;" horiz-adv-x="460" 
d="M107 220h-33v260c0 24 -3 48 -12 73h31c7 -19 10 -36 11 -55c33 31 83 64 152 64c80 0 136 -48 136 -115v-227h-33v227c0 50 -44 87 -107 87c-64 0 -113 -33 -145 -62v-252z" />
    <glyph glyph-name="o.superior" horiz-adv-x="468" 
d="M44 387c0 97 87 175 189 175c103 0 191 -78 191 -175c0 -98 -88 -176 -191 -176c-102 0 -189 78 -189 176zM78 387c0 -82 68 -148 155 -148c88 0 157 66 157 148c0 81 -69 147 -157 147c-87 0 -155 -66 -155 -147z" />
    <glyph glyph-name="r.superior" horiz-adv-x="300" 
d="M107 220h-32v260c0 24 -4 48 -13 73h31c7 -20 10 -39 11 -60c26 34 63 69 114 69c25 0 48 -8 60 -23l-14 -27c-10 13 -33 20 -52 20c-45 0 -81 -39 -105 -68v-244z" />
    <glyph glyph-name="s.superior" horiz-adv-x="417" 
d="M348 518l-14 -24c-24 18 -74 42 -136 42c-47 0 -107 -18 -107 -66c0 -52 67 -55 124 -57c60 -3 161 -8 161 -95c0 -73 -76 -108 -165 -108c-82 0 -133 29 -168 54l14 24c34 -23 81 -51 154 -51c72 0 133 26 133 78c0 61 -80 66 -129 67c-73 3 -157 9 -157 85
c0 72 78 96 140 96c68 0 125 -26 150 -45z" />
    <glyph glyph-name="t.superior" horiz-adv-x="323" 
d="M36 528v25h76v105h33v-105h128v-25h-128v-226c0 -47 32 -64 62 -64c25 0 56 9 72 20l7 -24c-18 -13 -53 -24 -84 -24c-40 0 -90 23 -90 92v226h-76z" />
    <glyph glyph-name="a.sc" horiz-adv-x="681" 
d="M57 0l263 530h41l262 -530h-42l-91 185h-302l-91 -185h-40zM337 486l-133 -270h271l-133 270h-5z" />
    <glyph glyph-name="b.sc" horiz-adv-x="741" 
d="M451 0h-314v530h298c66 0 117 -14 152 -50c21 -22 33 -50 33 -81c0 -56 -42 -106 -94 -117c69 -8 120 -65 120 -132c0 -40 -18 -75 -44 -101c-37 -37 -85 -49 -151 -49zM481 259h-305v-225h273c45 0 93 8 125 40c20 21 31 50 31 77s-11 50 -28 69c-23 24 -56 39 -96 39z
M432 496h-256v-206h290c35 0 63 12 83 31c19 19 31 45 31 71c0 24 -10 47 -26 65c-27 28 -68 39 -122 39z" />
    <glyph glyph-name="c.sc" horiz-adv-x="723" 
d="M628 113l27 -25c-64 -57 -154 -101 -259 -101c-177 0 -312 126 -312 278s136 278 311 278c96 0 187 -36 248 -90l-26 -26c-56 49 -138 82 -221 82c-154 0 -272 -111 -272 -244s119 -244 273 -244c92 0 173 39 231 92z" />
    <glyph glyph-name="d.sc" horiz-adv-x="750" 
d="M353 0h-216v530h216c115 0 180 -32 236 -85c46 -47 74 -110 74 -180c0 -71 -28 -135 -77 -183c-56 -51 -121 -82 -233 -82zM176 34h175c101 0 154 28 203 71c43 41 69 98 69 160c0 61 -25 115 -65 157c-49 45 -104 74 -207 74h-175v-462z" />
    <glyph glyph-name="e.sc" horiz-adv-x="661" 
d="M424 300v-35h-248v-231h426v-34h-465v530h447v-34h-408v-196h248z" />
    <glyph glyph-name="f.sc" horiz-adv-x="603" 
d="M176 0h-39v530h433v-34h-394v-209h247v-34h-247v-253z" />
    <glyph glyph-name="g.sc" horiz-adv-x="742" 
d="M633 461l-27 -24c-54 43 -132 72 -210 72c-152 0 -271 -111 -271 -244c0 -131 116 -244 274 -244c80 0 157 28 210 69v155h-195v35h231v-208c-65 -51 -156 -85 -248 -85c-174 0 -312 126 -312 278c0 153 139 278 311 278c87 0 172 -32 237 -82z" />
    <glyph glyph-name="h.sc" horiz-adv-x="763" 
d="M176 0h-39v530h39v-226h411v226h39v-530h-39v269h-411v-269z" />
    <glyph glyph-name="i.sc" horiz-adv-x="313" 
d="M176 0h-39v530h39v-530z" />
    <glyph glyph-name="j.sc" horiz-adv-x="634" 
d="M470 530h39v-342c0 -127 -103 -201 -240 -201c-141 0 -193 78 -221 132l32 16c24 -46 68 -114 189 -114c115 0 201 61 201 167v342z" />
    <glyph glyph-name="k.sc" horiz-adv-x="679" 
d="M542 530h48l-215 -201l258 -329h-49l-236 303l-172 -161v-142h-39v530h39v-344z" />
    <glyph glyph-name="l.sc" horiz-adv-x="589" 
d="M137 530h39v-496h371v-34h-410v530z" />
    <glyph glyph-name="m.sc" horiz-adv-x="836" 
d="M137 0v530h47l234 -365h2l233 365h46v-530h-38v467h-4l-232 -359h-15l-231 359h-5v-467h-37z" />
    <glyph glyph-name="n.sc" horiz-adv-x="766" 
d="M590 530h39v-530h-39l-413 472h-1v-472h-39v530h39l413 -472h1v472z" />
    <glyph glyph-name="o.sc" horiz-adv-x="779" 
d="M86 266c0 152 133 277 303 277c169 0 305 -125 305 -277c0 -154 -136 -279 -305 -279c-170 0 -303 125 -303 279zM126 266c0 -135 115 -245 263 -245c147 0 265 110 265 245c0 132 -118 243 -265 243c-148 0 -263 -111 -263 -243z" />
    <glyph glyph-name="p.sc" horiz-adv-x="687" 
d="M176 0h-39v530h292c76 0 116 -17 152 -51c26 -26 41 -59 41 -97s-16 -71 -42 -96c-36 -33 -74 -51 -151 -51h-253v-235zM429 496h-253v-227h252c66 0 95 14 124 40c20 20 31 46 31 73s-10 52 -28 71c-30 30 -63 43 -126 43z" />
    <glyph glyph-name="q.sc" horiz-adv-x="779" 
d="M86 266c0 152 133 277 303 277c169 0 305 -125 305 -277c0 -103 -60 -192 -151 -241l85 -110l-38 -12l-82 106c-36 -14 -77 -22 -119 -22c-170 0 -303 125 -303 279zM401 149l38 12l82 -107c80 42 133 121 133 212c0 132 -118 243 -265 243c-148 0 -263 -111 -263 -243
c0 -135 115 -245 263 -245c34 0 67 6 97 17z" />
    <glyph glyph-name="r.sc" horiz-adv-x="732" 
d="M176 0h-39v530h308c79 0 120 -20 154 -52c25 -26 40 -59 40 -95c0 -75 -54 -135 -144 -143l145 -240h-43l-142 235h-279v-235zM445 496h-269v-226h294c80 0 130 50 130 112c0 28 -11 53 -30 73c-30 27 -58 41 -125 41z" />
    <glyph glyph-name="s.sc" horiz-adv-x="687" 
d="M567 464l-24 -27c-36 31 -113 72 -218 72c-81 0 -179 -30 -179 -114s108 -88 209 -93c97 -5 255 -14 255 -146c0 -116 -120 -169 -257 -169s-220 56 -277 108l24 27c51 -46 128 -101 253 -101c117 0 218 42 218 131c0 99 -122 108 -216 113c-116 7 -248 13 -248 127
c0 113 123 151 219 151c112 0 200 -46 241 -79z" />
    <glyph glyph-name="t.sc" horiz-adv-x="561" 
d="M45 496v34h471v-34h-216v-496h-38v496h-217z" />
    <glyph glyph-name="u.sc" horiz-adv-x="739" 
d="M575 530h39v-345c0 -125 -105 -198 -245 -198c-139 0 -244 73 -244 198v345h39v-345c0 -104 88 -164 205 -164c118 0 206 60 206 164v345z" />
    <glyph glyph-name="v.sc" horiz-adv-x="680" 
d="M583 530h41l-263 -530h-41l-264 530h43l240 -486h5z" />
    <glyph glyph-name="w.sc" horiz-adv-x="910" 
d="M66 530h44l162 -480h4l161 480h37l162 -480h4l162 480h41l-183 -530h-45l-158 468h-4l-158 -468h-46z" />
    <glyph glyph-name="x.sc" horiz-adv-x="641" 
d="M519 530h46l-220 -252l241 -278h-49l-217 252l-220 -252h-46l243 277l-218 253h48l195 -226z" />
    <glyph glyph-name="y.sc" horiz-adv-x="603" 
d="M507 530h46l-232 -275v-255h-39v255l-231 275h48l204 -241z" />
    <glyph glyph-name="z.sc" horiz-adv-x="638" 
d="M562 34v-34h-501v25l439 471h-401v34h455v-26l-439 -470h447z" />
    <glyph glyph-name="ampersand.sc" horiz-adv-x="746" 
d="M519 503l-19 -29c-29 15 -74 33 -134 33c-73 0 -143 -29 -143 -83c0 -48 63 -94 93 -119l215 -182c37 30 74 67 111 114l31 -17c-38 -49 -77 -88 -116 -119l120 -101h-51l-96 80c-94 -68 -182 -91 -244 -91c-82 0 -210 39 -210 160c0 107 94 146 171 170
c-34 31 -62 62 -62 104c0 76 90 119 182 119c68 0 118 -22 152 -39zM288 284c-5 3 -9 7 -13 11c-63 -19 -160 -49 -160 -145c0 -98 107 -128 174 -128c55 0 132 20 215 80z" />
    <glyph glyph-name="aacute.sc" horiz-adv-x="681" 
d="M57 0l263 530h41l262 -530h-42l-91 185h-302l-91 -185h-40zM337 486l-133 -270h271l-133 270h-5zM285 608l149 111l51 -6l-168 -111z" />
    <glyph glyph-name="agrave.sc" horiz-adv-x="681" 
d="M57 0l263 530h41l262 -530h-42l-91 185h-302l-91 -185h-40zM337 486l-133 -270h271l-133 270h-5zM362 602l-168 111l51 6l148 -111z" />
    <glyph glyph-name="acircumflex.sc" horiz-adv-x="681" 
d="M57 0l263 530h41l262 -530h-42l-91 185h-302l-91 -185h-40zM337 486l-133 -270h271l-133 270h-5zM207 608l114 110h38l114 -110l-28 -6l-105 92l-105 -92z" />
    <glyph glyph-name="adieresis.sc" horiz-adv-x="681" 
d="M57 0l263 530h41l262 -530h-42l-91 185h-302l-91 -185h-40zM337 486l-133 -270h271l-133 270h-5zM403 648c0 14 11 26 27 26s28 -12 28 -26c0 -15 -12 -26 -28 -26s-27 11 -27 26zM222 648c0 14 11 26 27 26s28 -12 28 -26c0 -15 -12 -26 -28 -26s-27 11 -27 26z" />
    <glyph glyph-name="atilde.sc" horiz-adv-x="681" 
d="M57 0l263 530h41l262 -530h-42l-91 185h-302l-91 -185h-40zM337 486l-133 -270h271l-133 270h-5zM218 610l-25 14c23 35 47 61 80 61c24 0 41 -13 66 -32c18 -15 39 -28 61 -28c23 0 41 24 57 47l24 -14c-22 -34 -46 -62 -80 -62c-29 0 -52 14 -71 29
c-23 19 -38 32 -55 32c-24 0 -41 -25 -57 -47z" />
    <glyph glyph-name="aring.sc" horiz-adv-x="681" 
d="M57 0l263 530h41l262 -530h-42l-91 185h-302l-91 -185h-40zM337 486l-133 -270h271l-133 270h-5zM259 645c0 -38 31 -66 79 -66s81 28 81 66c0 39 -33 69 -81 69s-79 -30 -79 -69zM234 645c0 50 39 88 104 88s107 -38 107 -88c0 -48 -42 -87 -107 -87s-104 39 -104 87z
" />
    <glyph glyph-name="abreve.sc" horiz-adv-x="681" 
d="M57 0l263 530h41l262 -530h-42l-91 185h-302l-91 -185h-40zM337 486l-133 -270h271l-133 270h-5zM218 714h29c0 -41 16 -94 93 -94s93 53 93 94h29c0 -52 -22 -120 -122 -120s-122 68 -122 120z" />
    <glyph glyph-name="amacron.sc" horiz-adv-x="681" 
d="M57 0l263 530h41l262 -530h-42l-91 185h-302l-91 -185h-40zM337 486l-133 -270h271l-133 270h-5zM218 669h243v-29h-243v29z" />
    <glyph glyph-name="aogonek.sc" horiz-adv-x="681" 
d="M57 0l263 530h41l262 -530h-9c-40 -17 -139 -64 -139 -129c0 -45 42 -71 107 -71c23 0 47 4 70 8l4 -25c-26 -5 -52 -8 -79 -8c-82 0 -135 34 -135 90c0 68 84 117 136 139l-88 181h-302l-91 -185h-40zM337 486l-133 -270h271l-133 270h-5z" />
    <glyph glyph-name="aringacute.sc" horiz-adv-x="681" 
d="M57 0l263 530h41l262 -530h-42l-91 185h-302l-91 -185h-40zM337 486l-133 -270h271l-133 270h-5zM259 645c0 -38 31 -66 79 -66s81 28 81 66c0 39 -33 69 -81 69s-79 -30 -79 -69zM234 645c0 50 39 88 104 88s107 -38 107 -88c0 -48 -42 -87 -107 -87s-104 39 -104 87z
M285 767l149 111l51 -6l-168 -111z" />
    <glyph glyph-name="ccedilla.sc" horiz-adv-x="723" 
d="M628 113l27 -25c-64 -57 -154 -101 -259 -101h-2l-17 -61c16 4 36 8 58 8c42 0 91 -18 91 -73c0 -56 -66 -86 -149 -86c-56 0 -107 13 -150 25l8 22c41 -11 91 -23 141 -23c65 0 116 21 116 62s-37 52 -67 52c-21 0 -43 -5 -63 -10l-16 15l22 70
c-163 12 -284 133 -284 277c0 152 136 278 311 278c96 0 187 -36 248 -90l-26 -26c-56 49 -138 82 -221 82c-154 0 -272 -111 -272 -244s119 -244 273 -244c92 0 173 39 231 92z" />
    <glyph glyph-name="cacute.sc" horiz-adv-x="723" 
d="M628 113l27 -25c-64 -57 -154 -101 -259 -101c-177 0 -312 126 -312 278s136 278 311 278c96 0 187 -36 248 -90l-26 -26c-56 49 -138 82 -221 82c-154 0 -272 -111 -272 -244s119 -244 273 -244c92 0 173 39 231 92zM341 608l149 111l51 -6l-168 -111z" />
    <glyph glyph-name="ccaron.sc" horiz-adv-x="723" 
d="M628 113l27 -25c-64 -57 -154 -101 -259 -101c-177 0 -312 126 -312 278s136 278 311 278c96 0 187 -36 248 -90l-26 -26c-56 49 -138 82 -221 82c-154 0 -272 -111 -272 -244s119 -244 273 -244c92 0 173 39 231 92zM263 714l28 5l105 -92l105 92l28 -5l-114 -111h-38z
" />
    <glyph glyph-name="ccircumflex.sc" horiz-adv-x="723" 
d="M628 113l27 -25c-64 -57 -154 -101 -259 -101c-177 0 -312 126 -312 278s136 278 311 278c96 0 187 -36 248 -90l-26 -26c-56 49 -138 82 -221 82c-154 0 -272 -111 -272 -244s119 -244 273 -244c92 0 173 39 231 92zM263 608l114 110h38l114 -110l-28 -6l-105 92
l-105 -92z" />
    <glyph glyph-name="cdotaccent.sc" horiz-adv-x="723" 
d="M628 113l27 -25c-64 -57 -154 -101 -259 -101c-177 0 -312 126 -312 278s136 278 311 278c96 0 187 -36 248 -90l-26 -26c-56 49 -138 82 -221 82c-154 0 -272 -111 -272 -244s119 -244 273 -244c92 0 173 39 231 92zM369 648c0 14 11 26 27 26s28 -12 28 -26
c0 -15 -12 -26 -28 -26s-27 11 -27 26z" />
    <glyph glyph-name="dcaron.sc" horiz-adv-x="750" 
d="M353 0h-216v530h216c115 0 180 -32 236 -85c46 -47 74 -110 74 -180c0 -71 -28 -135 -77 -183c-56 -51 -121 -82 -233 -82zM176 34h175c101 0 154 28 203 71c43 41 69 98 69 160c0 61 -25 115 -65 157c-49 45 -104 74 -207 74h-175v-462zM234 714l28 5l105 -92l105 92
l28 -5l-114 -111h-38z" />
    <glyph glyph-name="dcroat.sc" horiz-adv-x="772" 
d="M73 265v31h87v234h215c115 0 181 -32 236 -85c47 -47 75 -110 75 -180c0 -71 -28 -135 -77 -183c-56 -51 -121 -82 -234 -82h-215v265h-87zM199 34h175c100 0 154 28 203 71c43 41 68 98 68 160c0 61 -24 115 -65 157c-49 45 -103 74 -206 74h-175v-200h201v-31h-201
v-231z" />
    <glyph glyph-name="eacute.sc" horiz-adv-x="661" 
d="M424 300v-35h-248v-231h426v-34h-465v530h447v-34h-408v-196h248zM303 608l149 111l51 -6l-168 -111z" />
    <glyph glyph-name="egrave.sc" horiz-adv-x="661" 
d="M424 300v-35h-248v-231h426v-34h-465v530h447v-34h-408v-196h248zM380 602l-168 111l51 6l148 -111z" />
    <glyph glyph-name="ecircumflex.sc" horiz-adv-x="661" 
d="M424 300v-35h-248v-231h426v-34h-465v530h447v-34h-408v-196h248zM225 608l114 110h38l114 -110l-28 -6l-105 92l-105 -92z" />
    <glyph glyph-name="edieresis.sc" horiz-adv-x="661" 
d="M424 300v-35h-248v-231h426v-34h-465v530h447v-34h-408v-196h248zM421 648c0 14 11 26 27 26s28 -12 28 -26c0 -15 -12 -26 -28 -26s-27 11 -27 26zM240 648c0 14 11 26 27 26s28 -12 28 -26c0 -15 -12 -26 -28 -26s-27 11 -27 26z" />
    <glyph glyph-name="ebreve.sc" horiz-adv-x="661" 
d="M424 300v-35h-248v-231h426v-34h-465v530h447v-34h-408v-196h248zM236 714h29c0 -41 16 -94 93 -94s93 53 93 94h29c0 -52 -22 -120 -122 -120s-122 68 -122 120z" />
    <glyph glyph-name="ecaron.sc" horiz-adv-x="661" 
d="M424 300v-35h-248v-231h426v-34h-465v530h447v-34h-408v-196h248zM225 714l28 5l105 -92l105 92l28 -5l-114 -111h-38z" />
    <glyph glyph-name="edotaccent.sc" horiz-adv-x="661" 
d="M424 300v-35h-248v-231h426v-34h-465v530h447v-34h-408v-196h248zM331 648c0 14 11 26 27 26s28 -12 28 -26c0 -15 -12 -26 -28 -26s-27 11 -27 26z" />
    <glyph glyph-name="emacron.sc" horiz-adv-x="661" 
d="M424 300v-35h-248v-231h426v-34h-465v530h447v-34h-408v-196h248zM236 669h243v-29h-243v29z" />
    <glyph glyph-name="eogonek.sc" horiz-adv-x="661" 
d="M424 300v-35h-248v-231h426v-34h-100c-40 -17 -139 -64 -139 -129c0 -45 42 -71 107 -71c23 0 47 4 70 8l4 -25c-26 -5 -52 -8 -79 -8c-82 0 -135 34 -135 90c0 64 74 111 126 135h-319v530h447v-34h-408v-196h248z" />
    <glyph glyph-name="gbreve.sc" horiz-adv-x="742" 
d="M633 461l-27 -24c-54 43 -132 72 -210 72c-152 0 -271 -111 -271 -244c0 -131 116 -244 274 -244c80 0 157 28 210 69v155h-195v35h231v-208c-65 -51 -156 -85 -248 -85c-174 0 -312 126 -312 278c0 153 139 278 311 278c87 0 172 -32 237 -82zM271 714h29
c0 -41 16 -94 93 -94s93 53 93 94h29c0 -52 -22 -120 -122 -120s-122 68 -122 120z" />
    <glyph glyph-name="gcircumflex.sc" horiz-adv-x="742" 
d="M633 461l-27 -24c-54 43 -132 72 -210 72c-152 0 -271 -111 -271 -244c0 -131 116 -244 274 -244c80 0 157 28 210 69v155h-195v35h231v-208c-65 -51 -156 -85 -248 -85c-174 0 -312 126 -312 278c0 153 139 278 311 278c87 0 172 -32 237 -82zM260 608l114 110h38
l114 -110l-28 -6l-105 92l-105 -92z" />
    <glyph glyph-name="uni0123.sc" horiz-adv-x="742" 
d="M633 461l-27 -24c-54 43 -132 72 -210 72c-152 0 -271 -111 -271 -244c0 -131 116 -244 274 -244c80 0 157 28 210 69v155h-195v35h231v-208c-65 -51 -156 -85 -248 -85c-174 0 -312 126 -312 278c0 153 139 278 311 278c87 0 172 -32 237 -82zM402 -55l27 12
c31 -22 59 -53 59 -94c0 -58 -54 -94 -140 -94c-24 0 -46 3 -69 7l4 25c20 -3 41 -6 60 -6c68 0 110 26 110 70c0 34 -23 60 -51 80z" />
    <glyph glyph-name="gdotaccent.sc" horiz-adv-x="742" 
d="M633 461l-27 -24c-54 43 -132 72 -210 72c-152 0 -271 -111 -271 -244c0 -131 116 -244 274 -244c80 0 157 28 210 69v155h-195v35h231v-208c-65 -51 -156 -85 -248 -85c-174 0 -312 126 -312 278c0 153 139 278 311 278c87 0 172 -32 237 -82zM366 648c0 14 11 26 27 26
s28 -12 28 -26c0 -15 -12 -26 -28 -26s-27 11 -27 26z" />
    <glyph glyph-name="hbar.sc" horiz-adv-x="767" 
d="M53 387v31h86v112h39v-112h411v112h39v-112h87v-31h-87v-387h-39v244h-411v-244h-39v387h-86zM178 279h411v108h-411v-108z" />
    <glyph glyph-name="hcircumflex.sc" horiz-adv-x="763" 
d="M176 0h-39v530h39v-226h411v226h39v-530h-39v269h-411v-269zM249 608l114 110h38l114 -110l-28 -6l-105 92l-105 -92z" />
    <glyph glyph-name="iacute.sc" horiz-adv-x="313" 
d="M176 0h-39v530h39v-530zM102 608l148 111l52 -6l-169 -111z" />
    <glyph glyph-name="igrave.sc" horiz-adv-x="313" 
d="M176 0h-39v530h39v-530zM61 719l149 -111l-32 -6l-168 111z" />
    <glyph glyph-name="icircumflex.sc" horiz-adv-x="313" 
d="M176 0h-39v530h39v-530zM23 608l115 110h37l115 -110l-29 -6l-104 92l-105 -92z" />
    <glyph glyph-name="idieresis.sc" horiz-adv-x="313" 
d="M176 0h-39v530h39v-530zM220 648c0 14 11 26 27 26s28 -12 28 -26c0 -15 -12 -26 -28 -26s-27 11 -27 26zM38 648c0 14 12 26 28 26s27 -12 27 -26c0 -15 -11 -26 -27 -26s-28 11 -28 26z" />
    <glyph glyph-name="ibreve.sc" horiz-adv-x="313" 
d="M176 0h-39v530h39v-530zM34 714h29c0 -41 17 -94 94 -94c76 0 93 53 93 94h29c0 -52 -22 -120 -122 -120c-101 0 -123 68 -123 120z" />
    <glyph glyph-name="idotaccent.sc" horiz-adv-x="313" 
d="M176 0h-39v530h39v-530zM129 648c0 14 12 26 28 26s27 -12 27 -26c0 -15 -11 -26 -27 -26s-28 11 -28 26z" />
    <glyph glyph-name="imacron.sc" horiz-adv-x="313" 
d="M176 0h-39v530h39v-530zM35 669h243v-29h-243v29z" />
    <glyph glyph-name="iogonek.sc" horiz-adv-x="313" 
d="M176 0c-44 -17 -142 -64 -142 -129c0 -45 42 -71 107 -71c22 0 46 4 70 8l4 -25c-26 -5 -53 -8 -79 -8c-83 0 -135 34 -135 90c0 68 84 116 136 139v526h39v-530z" />
    <glyph glyph-name="itilde.sc" horiz-adv-x="313" 
d="M176 0h-39v530h39v-530zM35 610l-26 14c24 35 47 61 81 61c23 0 40 -13 65 -32c19 -15 39 -28 61 -28c24 0 42 24 58 47l24 -14c-22 -34 -47 -62 -81 -62c-28 0 -52 14 -70 29c-24 19 -39 32 -56 32c-23 0 -41 -25 -56 -47z" />
    <glyph glyph-name="ij.sc" horiz-adv-x="947" 
d="M176 0h-39v530h39v-530zM783 530h39v-342c0 -127 -103 -201 -240 -201c-141 0 -193 78 -221 132l32 16c24 -46 68 -114 189 -114c115 0 201 61 201 167v342z" />
    <glyph glyph-name="jcircumflex.sc" horiz-adv-x="634" 
d="M470 530h39v-342c0 -127 -103 -201 -240 -201c-141 0 -193 78 -221 132l32 16c24 -46 68 -114 189 -114c115 0 201 61 201 167v342zM356 608l115 110h37l114 -110l-28 -6l-105 92l-105 -92z" />
    <glyph glyph-name="uni0137.sc" horiz-adv-x="679" 
d="M542 530h48l-215 -201l258 -329h-49l-236 303l-172 -161v-142h-39v530h39v-344zM352 -55l27 12c31 -22 59 -53 59 -94c0 -58 -54 -94 -140 -94c-24 0 -46 3 -69 7l4 25c20 -3 41 -6 60 -6c68 0 110 26 110 70c0 34 -23 60 -51 80z" />
    <glyph glyph-name="lacute.sc" horiz-adv-x="589" 
d="M137 530h39v-496h371v-34h-410v530zM102 608l149 111l51 -6l-168 -111z" />
    <glyph glyph-name="lcaron.sc" horiz-adv-x="589" 
d="M137 530h39v-496h371v-34h-410v530zM301 351c-2 0 -21 2 -23 3c23 56 32 130 32 202h37c0 -84 -12 -143 -46 -205z" />
    </font>
</defs>
</svg>
