<?xml version="1.0" standalone="no"?>
<!DOCTYPE svg PUBLIC "-//W3C//DTD SVG 1.1//EN" "http://www.w3.org/Graphics/SVG/1.1/DTD/svg11.dtd" >
<svg xmlns="http://www.w3.org/2000/svg" xmlns:xlink="http://www.w3.org/1999/xlink" version="1.1">
<metadata>
Created by FontForge 20190801 at Tue Feb 15 20:53:59 2011
 By Jimmy Wärting
Copyright (C) 2011 Markanna Studios Inc.www.SweetFonts.com
</metadata>
<defs>
<font id="SweetSansPro-ExLight" horiz-adv-x="500" >
  <font-face 
    font-family="Sweet Sans Pro ExLight"
    font-weight="250"
    font-stretch="normal"
    units-per-em="1000"
    panose-1="2 0 0 0 0 0 0 0 0 0"
    ascent="770"
    descent="-230"
    x-height="451"
    cap-height="653"
    bbox="-105 -304 1487 1030"
    underline-thickness="56"
    underline-position="-128"
    stemh="45"
    stemv="51"
    unicode-range="U+000D-FB04"
  />
<missing-glyph horiz-adv-x="579" 
d="M579 0h-579v653h579v-653zM289 293l-223 -251h446zM66 611l223 -251l222 251h-445zM319 327l213 -240v480zM259 327l-212 239v-479z" />
    <glyph glyph-name="f_i" unicode="fi" horiz-adv-x="585" 
d="M42 451h96v105c0 115 74 154 135 154c26 0 56 -6 73 -14l-9 -39c-14 6 -38 12 -56 12c-46 0 -95 -32 -95 -113v-105h154v-38h-154v-413h-48v413h-96v38zM484 0h-48v451h48v-451zM425 642c0 18 15 32 35 32s35 -14 35 -32c0 -19 -15 -32 -35 -32s-35 14 -35 32z" />
    <glyph glyph-name="f_l" unicode="fl" horiz-adv-x="610" 
d="M42 451h96v105c0 115 74 154 135 154c26 0 56 -6 73 -14l-9 -39c-14 6 -38 12 -56 12c-46 0 -95 -32 -95 -113v-105h154v-38h-154v-413h-48v413h-96v38zM499 0h-47v700h47v-700z" />
    <glyph glyph-name="f_f" unicode="ff" horiz-adv-x="663" 
d="M42 451h96v105c0 115 73 154 138 154c37 0 84 -12 111 -38l-13 -37c-21 22 -60 34 -90 34c-51 0 -98 -32 -98 -113v-105h268v105c0 115 73 154 139 154c36 0 84 -12 110 -38l-12 -37c-22 22 -61 34 -91 34c-50 0 -98 -32 -98 -113v-105h154v-38h-154v-413h-48v413h-268
v-413h-48v413h-96v38z" />
    <glyph glyph-name="f_f_i" unicode="ffi" horiz-adv-x="901" 
d="M454 0v413h-268v-413h-48v413h-96v38h96v105c0 115 73 154 138 154c37 0 84 -12 111 -38l-13 -37c-21 22 -60 34 -90 34c-51 0 -98 -32 -98 -113v-105h268v105c0 115 75 154 136 154c25 0 55 -6 73 -14l-10 -39c-14 6 -38 12 -56 12c-46 0 -95 -32 -95 -113v-105h154v-38
h-154v-413h-48zM753 0v451h47v-451h-47zM776 610c-20 0 -34 14 -34 32s14 32 34 32s35 -14 35 -32c0 -19 -15 -32 -35 -32z" />
    <glyph glyph-name="f_f_l" unicode="ffl" horiz-adv-x="927" 
d="M454 0v413h-268v-413h-48v413h-96v38h96v105c0 115 73 154 138 154c37 0 84 -12 111 -38l-13 -37c-21 22 -60 34 -90 34c-51 0 -98 -32 -98 -113v-105h268v105c0 115 75 154 136 154c25 0 55 -6 73 -14l-10 -39c-14 6 -38 12 -56 12c-46 0 -95 -32 -95 -113v-105h154v-38
h-154v-413h-48zM768 0v700h47v-700h-47z" />
    <glyph glyph-name="f_j" unicode="fj" horiz-adv-x="585" 
d="M42 451h96v105c0 115 74 154 135 154c26 0 56 -6 73 -14l-9 -39c-14 6 -38 12 -56 12c-46 0 -95 -32 -95 -113v-105h154v-38h-154v-413h-48v413h-96v38zM332 -227l-11 38c52 4 115 34 115 132v508h48v-508c0 -125 -85 -170 -152 -170zM425 642c0 18 15 32 35 32
s35 -14 35 -32c0 -19 -15 -32 -35 -32s-35 14 -35 32z" />
    <glyph glyph-name="f_f_j" unicode="ffj" horiz-adv-x="901" 
d="M454 0v413h-268v-413h-48v413h-96v38h96v105c0 115 73 154 138 154c37 0 84 -12 111 -38l-13 -37c-21 22 -60 34 -90 34c-51 0 -98 -32 -98 -113v-105h268v105c0 115 75 154 136 154c25 0 55 -6 73 -14l-10 -39c-14 6 -38 12 -56 12c-46 0 -95 -32 -95 -113v-105h154v-38
h-154v-413h-48zM649 -227l-12 38c52 4 116 34 116 132v508h47v-508c0 -125 -84 -170 -151 -170zM776 610c-20 0 -34 14 -34 32s14 32 34 32s35 -14 35 -32c0 -19 -15 -32 -35 -32z" />
    <glyph glyph-name="f_t" unicode="ft" horiz-adv-x="701" 
d="M346 696l-9 -39c-14 6 -38 12 -56 12c-46 0 -95 -32 -95 -113v-105h268v140h47v-140h161v-38h-161v-303c0 -60 38 -82 77 -82c32 0 71 12 90 25l8 -36c-21 -17 -67 -31 -106 -31c-52 0 -116 31 -116 124v303h-268v-413h-48v413h-96v38h96v105c0 115 74 154 135 154
c26 0 56 -6 73 -14z" />
    <glyph glyph-name="f_f_t" unicode="fft" horiz-adv-x="1017" 
d="M42 451h96v105c0 115 73 154 138 154c37 0 84 -12 111 -38l-13 -37c-21 22 -60 34 -90 34c-51 0 -98 -32 -98 -113v-105h268v105c0 115 75 154 136 154c25 0 55 -6 73 -14l-10 -39c-14 6 -38 12 -56 12c-46 0 -95 -32 -95 -113v-105h268v140h47v-140h161v-38h-161v-303
c0 -60 39 -82 77 -82c32 0 71 12 90 25l9 -36c-22 -17 -67 -31 -106 -31c-53 0 -117 31 -117 124v303h-268v-413h-48v413h-268v-413h-48v413h-96v38z" />
    <glyph glyph-name="t_t" unicode="tt" horiz-adv-x="741" 
d="M33 413v38h96v140h48v-140h310v140h47v-140h161v-38h-161v-303c0 -60 39 -82 77 -82c32 0 71 12 90 25l9 -36c-22 -17 -67 -31 -107 -31c-52 0 -116 31 -116 124v303h-310v-303c0 -60 39 -82 77 -82c31 0 71 12 89 25l9 -36c-21 -17 -67 -31 -106 -31
c-52 0 -117 31 -117 124v303h-96z" />
    <glyph glyph-name=".notdef" horiz-adv-x="579" 
d="M579 0h-579v653h579v-653zM289 293l-223 -251h446zM66 611l223 -251l222 251h-445zM319 327l213 -240v480zM259 327l-212 239v-479z" />
    <glyph glyph-name="space" unicode=" " horiz-adv-x="225" 
 />
    <glyph glyph-name="A" unicode="A" horiz-adv-x="750" 
d="M98 0h-53l303 653h54l303 -653h-56l-103 225h-345zM371 595l-151 -329h307l-150 329h-6z" />
    <glyph glyph-name="B" unicode="B" horiz-adv-x="819" 
d="M503 0h-370v653h355c72 0 126 -20 164 -58c27 -28 44 -62 44 -103c0 -66 -44 -128 -108 -144c83 -12 137 -82 137 -163c0 -45 -17 -91 -56 -128c-39 -38 -90 -57 -166 -57zM534 317h-350v-272h320c48 0 93 11 127 44c27 27 42 62 42 97s-14 66 -37 89
c-25 26 -62 42 -102 42zM484 608h-300v-249h330c36 0 68 13 92 36c23 24 37 55 37 89c0 32 -13 60 -34 81c-29 30 -69 43 -125 43z" />
    <glyph glyph-name="C" unicode="C" horiz-adv-x="789" 
d="M700 142l34 -33c-72 -70 -177 -123 -301 -123c-206 0 -360 153 -360 341c0 187 155 340 358 340c113 0 218 -43 289 -108l-34 -35c-64 60 -159 98 -254 98c-174 0 -306 -134 -306 -295c0 -163 133 -296 308 -296c106 0 200 47 266 111z" />
    <glyph glyph-name="D" unicode="D" horiz-adv-x="820" 
d="M391 0h-258v653h258c126 0 196 -37 261 -96c59 -59 93 -140 93 -230c0 -91 -36 -174 -96 -234c-65 -58 -131 -93 -258 -93zM184 45h205c111 0 164 31 220 80c51 52 83 123 83 202c0 78 -30 149 -82 200c-55 50 -111 81 -221 81h-205v-563z" />
    <glyph glyph-name="E" unicode="E" horiz-adv-x="720" 
d="M467 370v-45h-283v-280h488v-45h-539v653h518v-45h-467v-238h283z" />
    <glyph glyph-name="F" unicode="F" horiz-adv-x="651" 
d="M184 0h-51v653h503v-45h-452v-254h283v-45h-283v-309z" />
    <glyph glyph-name="G" unicode="G" horiz-adv-x="821" 
d="M710 568l-36 -32c-62 53 -152 86 -241 86c-173 0 -307 -133 -307 -295c0 -159 129 -296 311 -296c90 0 179 32 238 81v187h-223v45h270v-256c-75 -62 -182 -102 -288 -102c-202 0 -361 153 -361 341s160 340 359 340c102 0 201 -37 278 -99z" />
    <glyph glyph-name="H" unicode="H" horiz-adv-x="833" 
d="M184 0h-51v653h51v-278h465v278h51v-653h-51v330h-465v-330z" />
    <glyph glyph-name="I" unicode="I" horiz-adv-x="317" 
d="M184 0h-51v653h51v-653z" />
    <glyph glyph-name="J" unicode="J" horiz-adv-x="682" 
d="M512 653h51v-421c0 -157 -117 -246 -276 -246c-164 0 -225 94 -257 161l42 22c27 -58 77 -138 214 -138c130 0 226 72 226 201v421z" />
    <glyph glyph-name="K" unicode="K" horiz-adv-x="740" 
d="M601 653h63l-250 -248l300 -405h-65l-272 371l-193 -194v-177h-51v653h51v-419z" />
    <glyph glyph-name="L" unicode="L" horiz-adv-x="634" 
d="M133 653h51v-608h427v-45h-478v653z" />
    <glyph glyph-name="M" unicode="M" horiz-adv-x="920" 
d="M787 0h-51v565h-5l-263 -438h-18l-263 438h-5v-565h-49v653h60l267 -446h2l267 446h58v-653z" />
    <glyph glyph-name="N" unicode="N" horiz-adv-x="837" 
d="M653 653h51v-653h-50l-469 569h-1v-569h-51v653h50l469 -569h1v569z" />
    <glyph glyph-name="O" unicode="O" horiz-adv-x="859" 
d="M73 328c0 187 156 339 355 339s358 -152 358 -339c0 -190 -159 -342 -358 -342s-355 152 -355 342zM127 328c0 -164 132 -297 301 -297c170 0 305 133 305 297c0 162 -135 294 -305 294c-169 0 -301 -132 -301 -294z" />
    <glyph glyph-name="P" unicode="P" horiz-adv-x="746" 
d="M184 0h-51v653h342c76 0 132 -19 174 -63c32 -33 49 -74 49 -119c0 -49 -21 -94 -55 -127c-40 -39 -96 -56 -168 -56h-291v-288zM475 608h-291v-275h291c49 0 95 8 131 43c26 26 41 59 41 95c0 33 -12 63 -37 89c-32 35 -76 48 -135 48z" />
    <glyph glyph-name="Q" unicode="Q" horiz-adv-x="859" 
d="M73 328c0 187 156 339 355 339s358 -152 358 -339c0 -127 -71 -237 -178 -296l94 -128l-49 -16l-90 123c-42 -16 -87 -25 -135 -25c-199 0 -355 152 -355 342zM437 184l49 17l95 -131c91 52 152 148 152 258c0 162 -135 294 -305 294c-169 0 -301 -132 -301 -294
c0 -164 132 -297 301 -297c37 0 74 6 107 18z" />
    <glyph glyph-name="R" unicode="R" horiz-adv-x="798" 
d="M184 0h-51v653h359c80 0 136 -22 174 -62c30 -32 49 -75 49 -123c0 -88 -63 -161 -165 -175l168 -293h-58l-162 288h-314v-288zM492 608h-308v-275h334c90 0 146 63 146 136c0 36 -14 68 -37 92c-32 33 -76 47 -135 47z" />
    <glyph glyph-name="S" unicode="S" horiz-adv-x="747" 
d="M632 572l-31 -35c-42 37 -128 86 -249 86c-93 0 -202 -35 -202 -137c0 -101 123 -106 238 -112c112 -7 295 -17 295 -181c0 -144 -139 -207 -297 -207c-159 0 -257 67 -323 131l31 35c58 -56 148 -122 293 -122c132 0 245 49 245 157c0 119 -135 131 -244 138
c-136 7 -289 16 -289 157c0 140 142 185 255 185c130 0 230 -54 278 -95z" />
    <glyph glyph-name="T" unicode="T" horiz-adv-x="617" 
d="M32 608v45h552v-45h-250v-608h-51v608h-251z" />
    <glyph glyph-name="U" unicode="U" horiz-adv-x="805" 
d="M635 653h51v-421c0 -157 -122 -246 -284 -246s-283 89 -283 246v421h51v-421c0 -129 100 -201 232 -201c133 0 233 72 233 201v421z" />
    <glyph glyph-name="V" unicode="V" horiz-adv-x="750" 
d="M651 653h55l-305 -653h-53l-305 653h58l272 -591h6z" />
    <glyph glyph-name="W" unicode="W" horiz-adv-x="1008" 
d="M53 653h56l185 -579h4l184 579h46l184 -579h5l184 579h54l-211 -653h-58l-180 563h-4l-180 -563h-58z" />
    <glyph glyph-name="X" unicode="X" horiz-adv-x="696" 
d="M574 653h61l-255 -310l278 -343h-64l-246 307l-251 -307h-61l281 341l-252 312h64l221 -276z" />
    <glyph glyph-name="Y" unicode="Y" horiz-adv-x="663" 
d="M565 653h60l-268 -340v-313h-51v313l-268 340h64l231 -294z" />
    <glyph glyph-name="Z" unicode="Z" horiz-adv-x="687" 
d="M625 45v-45h-578v33l497 575h-457v45h528v-33l-497 -575h507z" />
    <glyph glyph-name="a" unicode="a" horiz-adv-x="593" 
d="M118 367l-18 38c37 24 108 58 198 58c94 0 198 -34 198 -134v-247c0 -24 3 -57 17 -82h-48c-13 20 -16 51 -17 75c-34 -33 -110 -85 -211 -85c-114 0 -181 67 -181 154c0 85 73 152 206 152c65 0 145 -17 186 -66v87c0 77 -77 106 -152 106c-79 0 -146 -33 -178 -56z
M246 30c109 0 195 73 202 87v72c-34 49 -110 69 -180 69c-111 0 -164 -50 -164 -114c0 -63 50 -114 142 -114z" />
    <glyph glyph-name="b" unicode="b" horiz-adv-x="624" 
d="M139 0h-45c7 35 9 69 9 101v599h47v-319c52 52 116 82 180 82c125 0 229 -94 229 -236c0 -145 -109 -239 -240 -239c-85 0 -148 51 -173 84c0 -24 -2 -49 -7 -72zM327 421c-62 0 -126 -31 -177 -79v-232c19 -22 78 -81 165 -81c105 0 192 78 192 198
c0 117 -81 194 -180 194z" />
    <glyph glyph-name="c" unicode="c" horiz-adv-x="563" 
d="M504 388l-32 -32c-46 44 -106 65 -163 65c-106 0 -193 -77 -193 -194c0 -120 91 -197 198 -197c86 0 144 48 169 75l33 -29c-19 -23 -90 -88 -206 -88c-132 0 -245 94 -245 239c0 142 110 236 244 236c70 0 140 -24 195 -75z" />
    <glyph glyph-name="d" unicode="d" horiz-adv-x="625" 
d="M530 0h-45c-4 23 -6 48 -7 72c-25 -33 -90 -84 -178 -84c-128 0 -234 94 -234 239c0 142 107 236 234 236c62 0 124 -28 174 -78v315h48v-599c0 -32 2 -66 8 -101zM304 421c-102 0 -186 -77 -186 -194c0 -120 83 -198 186 -198c90 0 151 59 170 81v232
c-49 48 -110 79 -170 79z" />
    <glyph glyph-name="e" unicode="e" horiz-adv-x="593" 
d="M487 104l32 -30c-48 -49 -125 -86 -217 -86c-147 0 -237 103 -237 232c0 136 105 243 240 243c105 0 224 -66 227 -216c0 -4 0 -10 -1 -15h-419v-11c0 -106 72 -191 194 -191c76 0 140 31 181 74zM303 423c-95 0 -167 -67 -186 -154h363c-3 104 -96 154 -177 154z" />
    <glyph glyph-name="f" unicode="f" horiz-adv-x="347" 
d="M42 451h96v105c0 115 73 154 138 154c37 0 84 -12 111 -38l-13 -37c-21 22 -60 34 -90 34c-51 0 -98 -32 -98 -113v-105h154v-38h-154v-413h-48v413h-96v38z" />
    <glyph glyph-name="g" unicode="g" horiz-adv-x="625" 
d="M474 -36v105c-52 -51 -115 -81 -180 -81c-124 0 -228 94 -228 236c0 145 109 239 240 239c85 0 148 -54 172 -86c1 24 4 49 13 74h45c-11 -35 -14 -69 -14 -101v-386c0 -105 -76 -191 -223 -191c-103 0 -163 37 -204 81l30 28c35 -38 86 -69 174 -69
c115 0 175 67 175 151zM298 29c62 0 125 32 176 80v232c-18 22 -77 80 -164 80c-106 0 -192 -77 -192 -197c0 -118 81 -195 180 -195z" />
    <glyph glyph-name="h" unicode="h" horiz-adv-x="605" 
d="M149 0h-47v700h47v-319c39 39 103 82 183 82c107 0 178 -66 178 -157v-306h-48v306c0 66 -54 115 -133 115c-80 0 -141 -45 -180 -83v-338z" />
    <glyph glyph-name="i" unicode="i" horiz-adv-x="251" 
d="M149 0h-47v451h47v-451zM91 642c0 18 14 32 34 32s35 -14 35 -32c0 -19 -15 -32 -35 -32s-34 14 -34 32z" />
    <glyph glyph-name="j" unicode="j" horiz-adv-x="251" 
d="M-2 -227l-12 38c52 4 116 34 116 132v508h47v-508c0 -125 -84 -170 -151 -170zM91 642c0 18 14 32 34 32s35 -14 35 -32c0 -19 -15 -32 -35 -32s-34 14 -34 32z" />
    <glyph glyph-name="k" unicode="k" horiz-adv-x="550" 
d="M435 451h65l-186 -156l215 -295h-59l-191 265l-129 -109v-156h-48v700h48v-493z" />
    <glyph glyph-name="l" unicode="l" horiz-adv-x="270" 
d="M159 0h-48v700h48v-700z" />
    <glyph glyph-name="m" unicode="m" horiz-adv-x="888" 
d="M151 0h-48v350c0 32 -4 66 -15 101h45c8 -25 12 -48 14 -73c36 41 91 85 169 85c75 0 124 -42 148 -92c35 46 94 92 173 92c91 0 157 -66 157 -157v-306h-48v306c0 66 -47 115 -116 115s-123 -45 -157 -83v-338h-48v337c-11 43 -48 84 -116 84c-69 0 -123 -45 -158 -83
v-338z" />
    <glyph glyph-name="n" unicode="n" horiz-adv-x="606" 
d="M151 0h-48v349c0 33 -4 67 -15 102h45c9 -25 12 -48 14 -74c41 42 103 86 190 86c102 0 175 -66 175 -157v-306h-48v306c0 66 -55 115 -133 115c-80 0 -141 -44 -180 -83v-338z" />
    <glyph glyph-name="o" unicode="o" horiz-adv-x="617" 
d="M65 227c0 131 106 236 242 236c137 0 245 -105 245 -236c0 -134 -108 -239 -245 -239c-136 0 -242 105 -242 239zM114 227c0 -110 84 -199 193 -199c111 0 196 89 196 199c0 107 -85 196 -196 196c-109 0 -193 -89 -193 -196z" />
    <glyph glyph-name="p" unicode="p" horiz-adv-x="625" 
d="M151 -213h-48v557c0 34 -3 70 -13 107h45c8 -26 11 -48 12 -73c43 46 110 85 184 85c125 0 229 -94 229 -238c0 -143 -110 -237 -241 -237c-75 0 -135 42 -168 81v-282zM151 341v-231c28 -31 87 -81 165 -81c105 0 192 77 192 196s-82 196 -181 196
c-71 0 -134 -40 -176 -80z" />
    <glyph glyph-name="q" unicode="q" horiz-adv-x="625" 
d="M522 -213h-48v282c-33 -39 -96 -81 -174 -81c-128 0 -234 94 -234 237c0 144 107 238 234 238c72 0 137 -39 178 -85c1 25 5 47 13 73h45c-11 -37 -14 -73 -14 -107v-557zM474 110v231c-39 40 -101 80 -170 80c-101 0 -186 -77 -186 -196s83 -196 186 -196
c80 0 142 50 170 81z" />
    <glyph glyph-name="r" unicode="r" horiz-adv-x="389" 
d="M151 0h-48v350c0 32 -4 66 -15 101h45c9 -28 12 -52 14 -81c32 46 79 93 145 93c30 0 60 -10 75 -30l-18 -41c-14 17 -44 26 -67 26c-57 0 -101 -51 -131 -92v-326z" />
    <glyph glyph-name="s" unicode="s" horiz-adv-x="544" 
d="M451 404l-20 -36c-31 23 -97 57 -173 57c-61 0 -134 -24 -134 -88c0 -68 87 -72 154 -75c77 -3 208 -10 208 -128c0 -100 -97 -147 -212 -147c-106 0 -172 39 -216 72l20 35c43 -31 103 -68 195 -68c90 0 166 34 166 104c0 79 -99 85 -161 88c-93 5 -201 11 -201 114
c0 100 99 132 181 132c86 0 160 -35 193 -60z" />
    <glyph glyph-name="t" unicode="t" horiz-adv-x="384" 
d="M33 413v38h96v140h48v-140h160v-38h-160v-303c0 -60 39 -82 77 -82c31 0 71 12 89 25l9 -36c-21 -17 -67 -31 -106 -31c-52 0 -117 31 -117 124v303h-96z" />
    <glyph glyph-name="u" unicode="u" horiz-adv-x="605" 
d="M455 451h47v-350c0 -32 2 -66 8 -101h-44c-5 23 -7 50 -7 73c-41 -41 -103 -85 -190 -85c-102 0 -175 66 -175 156v307h48v-307c0 -65 55 -115 133 -115c79 0 141 45 180 83v339z" />
    <glyph glyph-name="v" unicode="v" horiz-adv-x="526" 
d="M437 451h49l-199 -451h-48l-198 451h53l167 -389h7z" />
    <glyph glyph-name="w" unicode="w" horiz-adv-x="767" 
d="M668 451h52l-151 -451h-55l-128 385h-5l-128 -385h-55l-151 451h52l125 -391h4l130 391h53l130 -391h5z" />
    <glyph glyph-name="x" unicode="x" horiz-adv-x="529" 
d="M420 451h59l-186 -220l197 -231h-59l-167 200l-165 -200h-60l197 231l-187 220h60l155 -190z" />
    <glyph glyph-name="y" unicode="y" horiz-adv-x="544" 
d="M457 451h48l-327 -664h-48l109 218l-199 446h53l171 -393h3z" />
    <glyph glyph-name="z" unicode="z" horiz-adv-x="516" 
d="M459 38v-38h-414v30l341 383h-307v38h371v-30l-341 -383h350z" />
    <glyph glyph-name="ampersand" unicode="&#x26;" horiz-adv-x="817" 
d="M605 581l-26 -39c-31 18 -80 40 -143 40c-76 0 -146 -33 -146 -93c0 -55 68 -108 102 -139l222 -201c39 34 79 77 119 132l41 -22c-43 -58 -85 -104 -127 -140l132 -119h-69l-99 89c-101 -77 -194 -101 -262 -101c-94 0 -229 47 -229 185c0 118 95 168 182 196
c-36 36 -63 72 -63 119c0 90 97 139 197 139c75 0 130 -26 169 -46zM353 321l-18 16c-65 -21 -164 -57 -164 -162c0 -109 111 -142 182 -142c57 0 138 22 224 86z" />
    <glyph glyph-name="zero" unicode="0" horiz-adv-x="718" 
d="M69 268c0 156 131 282 289 282s292 -126 292 -282c0 -157 -134 -282 -292 -282s-289 125 -289 282zM119 268c0 -131 108 -237 239 -237s241 106 241 237c0 130 -110 237 -241 237s-239 -107 -239 -237z" />
    <glyph glyph-name="one" unicode="1" horiz-adv-x="370" 
d="M32 420l-11 41l172 75h50v-536h-50v490z" />
    <glyph glyph-name="one.alt" horiz-adv-x="305" 
d="M178 0h-51v536h51v-536z" />
    <glyph glyph-name="two" unicode="2" horiz-adv-x="588" 
d="M112 426l-29 36c59 44 120 88 224 88c107 0 213 -46 213 -146c0 -115 -135 -143 -218 -167c-98 -29 -185 -74 -185 -181v-16h396v-40h-447v52c0 137 116 198 233 230c57 15 170 38 170 121c0 70 -81 102 -161 102c-89 0 -143 -38 -196 -79z" />
    <glyph glyph-name="three" unicode="3" horiz-adv-x="671" 
d="M309 265v41h94c35 0 103 29 103 93c0 76 -92 106 -161 106c-84 0 -159 -45 -212 -92l-32 32c59 52 142 105 245 105c89 0 211 -40 211 -144c0 -62 -48 -100 -84 -112c48 -10 130 -43 130 -133c0 -111 -122 -175 -277 -175c-111 0 -201 35 -277 105l31 35
c58 -53 134 -95 246 -95c127 0 227 50 227 134c0 80 -99 100 -139 100h-105z" />
    <glyph glyph-name="four" unicode="4" horiz-adv-x="667" 
d="M623 175v-41h-111v-134h-51v134h-425v40l423 362h53v-361h111zM109 178v-3h352v298h-9c-112 -95 -231 -199 -343 -295z" />
    <glyph glyph-name="five" unicode="5" horiz-adv-x="638" 
d="M523 536v-44h-372v-187c50 26 100 49 186 49c119 0 236 -49 236 -174c0 -140 -135 -194 -264 -194c-128 0 -209 54 -250 86l27 35c37 -29 110 -76 224 -76c103 0 213 42 213 148c0 96 -92 132 -188 132c-87 0 -145 -25 -198 -51l-33 24v252h419z" />
    <glyph glyph-name="six" unicode="6" horiz-adv-x="654" 
d="M554 495l-27 -35c-42 28 -101 45 -166 45c-125 0 -242 -89 -244 -243c49 35 140 86 252 86c154 0 224 -93 224 -171c0 -103 -102 -191 -242 -191c-145 0 -280 94 -280 273c0 183 139 291 292 291c106 0 165 -38 191 -55zM364 307c-107 0 -199 -53 -245 -84
c16 -126 119 -192 233 -192c110 0 190 72 190 147c0 57 -53 129 -178 129z" />
    <glyph glyph-name="seven" unicode="7" horiz-adv-x="586" 
d="M57 492v44h471v-45l-311 -491h-66l319 492h-413z" />
    <glyph glyph-name="eight" unicode="8" horiz-adv-x="657" 
d="M328 -14c-126 0 -261 61 -261 168c0 85 82 133 167 145c-80 12 -126 50 -126 113c0 95 122 139 220 139c99 0 221 -44 221 -139c0 -63 -45 -101 -126 -113c85 -12 167 -60 167 -145c0 -107 -135 -168 -262 -168zM328 30c99 0 207 46 207 128c0 83 -113 121 -207 121
c-93 0 -206 -38 -206 -121c0 -82 109 -128 206 -128zM328 317c106 0 166 32 166 90c0 71 -91 103 -166 103c-73 0 -165 -32 -165 -103c0 -58 60 -90 165 -90z" />
    <glyph glyph-name="nine" unicode="9" horiz-adv-x="651" 
d="M97 41l27 36c42 -29 100 -46 165 -46c126 0 242 89 244 242c-50 -35 -140 -84 -251 -84c-154 0 -224 92 -224 170c0 103 101 191 242 191c145 0 280 -94 280 -272c0 -183 -139 -292 -291 -292c-107 0 -167 38 -192 55zM286 230c106 0 199 52 245 82
c-16 126 -119 193 -232 193c-110 0 -190 -72 -190 -147c0 -57 52 -128 177 -128z" />
    <glyph glyph-name="period" unicode="." horiz-adv-x="274" 
d="M91 34c0 23 19 42 46 42c26 0 45 -19 45 -42s-19 -42 -45 -42c-27 0 -46 19 -46 42z" />
    <glyph glyph-name="comma" unicode="," horiz-adv-x="302" 
d="M97 -170l-14 30c39 13 104 49 104 108c0 23 -11 40 -27 44c-8 -2 -16 -4 -23 -4c-22 0 -39 14 -39 33c0 20 16 35 39 35c48 0 89 -40 89 -97c0 -90 -74 -130 -129 -149z" />
    <glyph glyph-name="colon" unicode=":" horiz-adv-x="328" 
d="M119 34c0 23 19 42 45 42s46 -19 46 -42s-20 -42 -46 -42s-45 19 -45 42zM119 333c0 22 19 41 45 41s46 -19 46 -41c0 -23 -20 -42 -46 -42s-45 19 -45 42z" />
    <glyph glyph-name="semicolon" unicode=";" horiz-adv-x="341" 
d="M120 -170l-15 30c40 13 105 49 105 108c0 23 -11 40 -28 44c-8 -2 -15 -4 -23 -4c-22 0 -39 14 -39 33c0 20 17 35 39 35c48 0 89 -40 89 -97c0 -90 -74 -130 -128 -149zM120 333c0 22 19 41 45 41s46 -19 46 -41c0 -23 -20 -42 -46 -42s-45 19 -45 42z" />
    <glyph glyph-name="exclam" unicode="!" horiz-adv-x="284" 
d="M96 34c0 23 19 42 45 42s46 -19 46 -42s-20 -42 -46 -42s-45 19 -45 42zM159 190h-35l-10 305v158h55v-158z" />
    <glyph glyph-name="question" unicode="?" horiz-adv-x="602" 
d="M84 528l-32 30c61 60 131 108 264 108c112 0 219 -36 219 -154c0 -65 -37 -99 -86 -133c-77 -57 -159 -94 -176 -189h-47c14 116 110 159 189 217c44 29 74 53 74 104c0 85 -85 114 -174 114c-113 0 -176 -43 -231 -97zM213 34c0 23 20 42 46 42s46 -19 46 -42
s-20 -42 -46 -42s-46 19 -46 42z" />
    <glyph glyph-name="exclamdown" unicode="&#xa1;" horiz-adv-x="268" 
d="M159 420c0 -23 -19 -42 -45 -42s-46 19 -46 42s20 42 46 42s45 -19 45 -42zM96 264h35l10 -305v-158h-55v158z" />
    <glyph glyph-name="questiondown" unicode="&#xbf;" horiz-adv-x="601" 
d="M516 -74l32 -30c-61 -60 -131 -108 -264 -108c-112 0 -219 36 -219 154c0 65 37 99 86 133c77 57 159 94 176 189h47c-14 -116 -110 -159 -189 -217c-44 -29 -74 -53 -74 -104c0 -85 85 -114 174 -114c113 0 176 43 231 97zM387 420c0 -23 -20 -42 -46 -42s-46 19 -46 42
s20 42 46 42s46 -19 46 -42z" />
    <glyph glyph-name="quotesingle" unicode="'" horiz-adv-x="205" 
d="M118 438h-31l-10 131v84h51v-84z" />
    <glyph glyph-name="quotedbl" unicode="&#x22;" horiz-adv-x="389" 
d="M118 438h-31l-10 131v84h51v-84zM302 438h-32l-9 131v84h51v-84z" />
    <glyph glyph-name="quoteleft" unicode="&#x2018;" horiz-adv-x="259" 
d="M185 677l14 -30c-39 -12 -99 -46 -99 -104c0 -20 11 -34 27 -38c8 2 15 4 23 4c21 0 38 -13 38 -32s-16 -33 -38 -33c-47 0 -87 36 -87 88c0 88 69 126 122 145z" />
    <glyph glyph-name="quoteright" unicode="&#x2019;" horiz-adv-x="260" 
d="M81 434l-15 29c39 13 100 47 100 105c0 20 -11 34 -28 38c-8 -2 -15 -4 -22 -4c-21 0 -38 13 -38 32s16 33 38 33c47 0 87 -37 87 -88c0 -88 -70 -126 -122 -145z" />
    <glyph glyph-name="quotedblleft" unicode="&#x201c;" horiz-adv-x="466" 
d="M393 677l14 -30c-39 -12 -100 -46 -100 -104c0 -20 11 -34 28 -38c8 2 15 4 23 4c21 0 37 -13 37 -32s-16 -33 -37 -33c-47 0 -87 36 -87 88c0 88 69 126 122 145zM185 677l14 -30c-39 -12 -99 -46 -99 -104c0 -20 11 -34 27 -38c8 2 15 4 23 4c21 0 38 -13 38 -32
s-16 -33 -38 -33c-47 0 -87 36 -87 88c0 88 69 126 122 145z" />
    <glyph glyph-name="quotedblright" unicode="&#x201d;" horiz-adv-x="468" 
d="M81 434l-15 29c39 13 100 47 100 105c0 20 -11 34 -28 38c-8 -2 -15 -4 -22 -4c-21 0 -38 13 -38 32s16 33 38 33c47 0 87 -37 87 -88c0 -88 -70 -126 -122 -145zM288 434l-14 29c39 13 100 47 100 105c0 20 -11 34 -28 38c-8 -2 -15 -4 -23 -4c-21 0 -37 13 -37 32
s16 33 37 33c47 0 87 -37 87 -88c0 -88 -69 -126 -122 -145z" />
    <glyph glyph-name="quotesinglbase" unicode="&#x201a;" horiz-adv-x="301" 
d="M100 -157l-14 29c39 13 100 47 100 104c0 20 -11 35 -28 39c-8 -2 -15 -4 -23 -4c-21 0 -37 13 -37 32c0 18 16 33 37 33c47 0 87 -37 87 -88c0 -88 -69 -126 -122 -145z" />
    <glyph glyph-name="quotedblbase" unicode="&#x201e;" horiz-adv-x="509" 
d="M100 -157l-14 29c39 13 100 47 100 104c0 20 -11 35 -28 39c-8 -2 -15 -4 -23 -4c-21 0 -37 13 -37 32c0 18 16 33 37 33c47 0 87 -37 87 -88c0 -88 -69 -126 -122 -145zM308 -157l-14 29c39 13 99 47 99 104c0 20 -11 35 -27 39c-8 -2 -15 -4 -23 -4
c-21 0 -38 13 -38 32c0 18 16 33 38 33c47 0 87 -37 87 -88c0 -88 -69 -126 -122 -145z" />
    <glyph glyph-name="guilsinglleft" unicode="&#x2039;" horiz-adv-x="311" 
d="M172 377h57l-121 -133v-8l121 -132h-57l-111 122v28z" />
    <glyph glyph-name="guilsinglright" unicode="&#x203a;" horiz-adv-x="311" 
d="M83 377h57l111 -123v-28l-111 -122h-57l121 132v8z" />
    <glyph glyph-name="guillemotleft" unicode="&#xab;" horiz-adv-x="515" 
d="M172 377h57l-121 -133v-8l121 -132h-57l-111 122v28zM376 377h56l-121 -133v-8l121 -132h-56l-119 131v10z" />
    <glyph glyph-name="guillemotright" unicode="&#xbb;" horiz-adv-x="515" 
d="M286 377h57l112 -123v-28l-112 -122h-57l121 132v8zM83 377h57l118 -132v-10l-118 -131h-57l121 132v8z" />
    <glyph glyph-name="hyphen" unicode="-" horiz-adv-x="403" 
d="M73 226v46h257v-46h-257z" />
    <glyph glyph-name="endash" unicode="&#x2013;" horiz-adv-x="641" 
d="M73 230v42h494v-42h-494z" />
    <glyph glyph-name="emdash" unicode="&#x2014;" horiz-adv-x="1121" 
d="M73 230v42h974v-42h-974z" />
    <glyph glyph-name="underscore" unicode="_" horiz-adv-x="600" 
d="M-6 -134v34h612v-34h-612z" />
    <glyph glyph-name="ellipsis" unicode="&#x2026;" horiz-adv-x="1000" 
d="M136 34c0 23 20 42 46 42s45 -19 45 -42s-19 -42 -45 -42s-46 19 -46 42zM454 34c0 23 20 42 46 42s45 -19 45 -42s-19 -42 -45 -42s-46 19 -46 42zM772 34c0 23 19 42 46 42c26 0 45 -19 45 -42s-19 -42 -45 -42c-27 0 -46 19 -46 42z" />
    <glyph glyph-name="parenleft" unicode="(" horiz-adv-x="362" 
d="M335 -135l-26 -33c-161 78 -249 256 -249 432c0 175 88 355 249 433l26 -33c-142 -70 -224 -239 -224 -400c0 -162 82 -329 224 -399z" />
    <glyph glyph-name="parenright" unicode=")" horiz-adv-x="362" 
d="M28 664l25 33c161 -78 250 -258 250 -433c0 -176 -89 -354 -250 -432l-25 33c142 70 224 237 224 399c0 161 -82 330 -224 400z" />
    <glyph glyph-name="bracketleft" unicode="[" horiz-adv-x="335" 
d="M295 -113v-41h-189v843h189v-41h-142v-761h142z" />
    <glyph glyph-name="bracketright" unicode="]" horiz-adv-x="335" 
d="M40 689h189v-843h-189v41h142v761h-142v41z" />
    <glyph glyph-name="braceleft" unicode="{" horiz-adv-x="368" 
d="M332 -113v-41c-143 0 -183 26 -183 162v127c0 94 -58 115 -120 115v52c62 0 121 46 121 120v103c2 137 42 165 182 165v-41c-103 0 -133 -20 -135 -124v-103c0 -84 -59 -138 -121 -142v-8c63 -1 120 -29 120 -137v-127c0 -102 31 -121 136 -121z" />
    <glyph glyph-name="braceright" unicode="}" horiz-adv-x="368" 
d="M37 -154v41c102 0 135 19 135 121v127c0 107 58 135 120 137v8c-62 4 -121 58 -121 142v103c-2 104 -34 124 -134 124v41c139 0 179 -28 181 -165v-103c0 -74 59 -120 121 -120v-52c-62 0 -120 -21 -120 -115v-127c0 -136 -40 -162 -182 -162z" />
    <glyph glyph-name="backslash" unicode="\" horiz-adv-x="497" 
d="M407 -119l-343 772h47l343 -772h-47z" />
    <glyph glyph-name="slash" unicode="/" horiz-adv-x="493" 
d="M441 653l-343 -772h-47l343 772h47z" />
    <glyph glyph-name="asterisk" unicode="*" horiz-adv-x="566" 
d="M65 528l12 35l184 -56l3 193h39l3 -193l183 56l12 -35l-183 -63l111 -158l-30 -22l-116 154l-116 -154l-30 22l111 158z" />
    <glyph glyph-name="bullet" unicode="&#x2022;" horiz-adv-x="443" 
d="M222 150c-85 0 -154 64 -154 145s69 145 154 145c83 0 153 -64 153 -145s-70 -145 -153 -145z" />
    <glyph glyph-name="at" unicode="@" horiz-adv-x="995" 
d="M671 472h44l-96 -291c-3 -8 -4 -14 -4 -21c0 -38 27 -61 68 -61c87 0 214 102 214 257c0 160 -139 283 -349 283c-234 0 -444 -154 -444 -390c0 -238 214 -351 395 -351c97 0 217 32 268 60l14 -31c-53 -30 -178 -66 -284 -66c-197 0 -436 125 -436 388
c0 258 231 427 487 427c234 0 388 -139 388 -318c0 -180 -153 -296 -262 -296c-57 0 -97 30 -97 78v8c-47 -56 -103 -85 -159 -85c-72 0 -141 48 -141 156c0 154 140 268 245 268c67 0 111 -46 121 -97zM428 104c48 0 100 28 148 82l52 157c-8 52 -46 103 -106 103
c-82 0 -198 -90 -198 -222c0 -83 48 -120 104 -120z" />
    <glyph glyph-name="copyright" unicode="&#xa9;" horiz-adv-x="1002" 
d="M500 -133c-242 0 -441 180 -441 405c0 224 199 404 441 404c243 0 442 -180 442 -404c0 -225 -199 -405 -442 -405zM500 -99c222 0 403 166 403 371c0 204 -181 370 -403 370c-220 0 -401 -166 -401 -370c0 -205 181 -371 401 -371zM707 416l-19 -32
c-48 41 -113 67 -177 67c-120 0 -200 -80 -200 -179c0 -100 91 -165 203 -165c87 0 134 28 179 62l19 -32c-49 -38 -99 -68 -198 -68c-135 0 -247 81 -247 203c0 120 97 216 244 216c72 0 145 -31 196 -72z" />
    <glyph glyph-name="soundrecordingcopyright" unicode="&#x2117;" horiz-adv-x="1002" 
d="M942 272c0 -224 -200 -405 -442 -405s-441 181 -441 405c0 225 199 404 441 404s442 -179 442 -404zM903 272c0 205 -183 370 -403 370c-221 0 -401 -165 -401 -370c0 -204 180 -371 401 -371c220 0 403 167 403 371zM577 213h-194v-125h-44v385h207
c74 0 185 -20 185 -127c0 -91 -80 -133 -154 -133zM383 435v-184h194c52 0 111 28 111 95c0 74 -78 89 -133 89h-172z" />
    <glyph glyph-name="trademark" unicode="&#x2122;" horiz-adv-x="851" 
d="M757 326h-37v266h-3l-123 -207h-9l-123 207h-3v-266h-34v327h40l126 -213h1l126 213h39v-327zM55 623v30h274v-30h-119v-297h-36v297h-119z" />
    <glyph glyph-name="servicemark" unicode="&#x2120;" horiz-adv-x="906" 
d="M359 614l-21 -24c-20 18 -63 40 -123 40c-44 0 -92 -16 -92 -61s57 -47 112 -51c57 -3 149 -9 149 -94c0 -75 -68 -106 -148 -106c-81 0 -132 35 -167 67l21 24c29 -27 74 -60 147 -60c60 0 111 22 111 70c0 53 -57 60 -113 64c-69 4 -148 9 -148 82s72 96 129 96
c66 0 119 -27 143 -47zM821 326h-36v266h-3l-123 -207h-9l-124 207h-2v-266h-35v327h40l126 -213h1l127 213h38v-327z" />
    <glyph glyph-name="registered" unicode="&#xae;" horiz-adv-x="640" 
d="M318 207c-141 0 -251 102 -251 231c0 125 110 231 251 231c142 0 255 -106 255 -231c0 -129 -113 -231 -255 -231zM240 327h-29v235h152c47 0 83 -28 83 -67c0 -32 -23 -58 -62 -65l65 -103h-32l-62 100h-115v-100zM363 539h-123v-87h125c32 0 53 20 53 43
c0 25 -24 44 -55 44zM318 229c128 0 230 93 230 209c0 114 -102 209 -230 209c-127 0 -226 -95 -226 -209c0 -116 99 -209 226 -209z" />
    <glyph glyph-name="paragraph" unicode="&#xb6;" horiz-adv-x="834" 
d="M548 -206h-43v476h-227c-105 0 -227 54 -227 196c0 150 124 187 257 187h411v-859h-43v818h-128v-818zM308 612c-110 0 -210 -29 -210 -146c0 -112 98 -155 180 -155h227v301h-197z" />
    <glyph glyph-name="dagger" unicode="&#x2020;" horiz-adv-x="508" 
d="M454 516v-38h-179v-398h-43v398h-178v38h178v184h43v-184h179z" />
    <glyph glyph-name="daggerdbl" unicode="&#x2021;" horiz-adv-x="537" 
d="M247 80v188h-178v38h178v172h-178v38h178v184h43v-184h178v-38h-178v-172h178v-38h-178v-188h-43z" />
    <glyph glyph-name="litre" unicode="&#x2113;" horiz-adv-x="509" 
d="M70 114l-14 34l91 57v224c0 167 71 201 142 201c93 0 149 -64 149 -154s-67 -174 -185 -247l-58 -37v-72c0 -75 48 -91 94 -91c48 0 83 16 111 29l10 -37c-39 -20 -73 -33 -122 -33c-68 0 -141 25 -141 132v42zM195 429v-194l52 33c93 60 144 135 144 205
c0 69 -38 115 -102 115c-47 0 -94 -24 -94 -159z" />
    <glyph glyph-name="estimated" unicode="&#x212e;" horiz-adv-x="811" 
d="M190 450v-134c0 -3 4 -6 6 -6h426c4 0 8 1 8 6v134c0 6 -2 13 -6 21c-44 63 -120 98 -212 98c-73 0 -176 -40 -215 -98c-5 -8 -7 -15 -7 -21zM696 120c-72 -95 -179 -138 -284 -138c-170 0 -343 128 -341 309c0 187 172 307 341 307c181 0 339 -120 339 -316h-555
c-2 0 -6 -3 -6 -8v-138c0 -11 0 -19 7 -28c63 -67 136 -97 215 -97c89 0 168 38 228 109h56z" />
    <glyph glyph-name="degree" unicode="&#xb0;" horiz-adv-x="503" 
d="M249 294c-122 0 -187 78 -187 167c0 92 65 169 187 169c123 0 193 -77 193 -169c0 -89 -70 -167 -193 -167zM249 331c95 0 150 60 150 130c0 71 -55 131 -150 131c-94 0 -144 -60 -144 -131c0 -70 50 -130 144 -130z" />
    <glyph glyph-name="dollar" unicode="$" horiz-adv-x="669" 
d="M317 641h37v-94c99 -8 176 -47 217 -79l-30 -33c-34 28 -98 62 -187 70v-196c99 -4 253 -19 253 -151c0 -117 -117 -168 -253 -170v-119h-37v120c-125 7 -206 58 -262 107l30 33c48 -42 119 -91 232 -98v233c-114 8 -230 24 -230 132c0 116 126 153 227 153h3v92z
M559 153c0 91 -109 104 -205 109v-232c111 2 205 40 205 123zM136 400c0 -74 100 -85 181 -89v196h-5c-82 0 -176 -27 -176 -107z" />
    <glyph glyph-name="cent" unicode="&#xa2;" horiz-adv-x="553" 
d="M331 499h37l-22 -97c48 -9 93 -28 131 -59l-31 -31c-31 25 -70 42 -109 50l-74 -330c9 -1 18 -2 28 -2c80 0 135 41 160 65l33 -29c-17 -19 -84 -77 -193 -77c-13 0 -25 1 -37 3l-27 -123h-35l28 129c-92 25 -162 99 -162 202c0 125 102 208 228 208c8 0 16 -1 24 -1z
M109 200c0 -81 51 -139 120 -161l72 327c-5 1 -10 1 -15 1c-97 0 -177 -66 -177 -167z" />
    <glyph glyph-name="Euro" unicode="&#x20ac;" horiz-adv-x="775" 
d="M64 317v33h91c38 115 153 199 289 199c96 0 184 -33 245 -86l-31 -35c-54 47 -131 76 -214 76c-108 0 -200 -65 -236 -154h313v-33h-323c-3 -16 -5 -32 -5 -49c0 -14 1 -27 4 -40h324v-33h-316c33 -94 128 -163 239 -163c85 0 165 33 222 84l31 -35
c-66 -58 -155 -94 -253 -94c-140 0 -257 89 -292 208h-88v33h81c-2 13 -3 26 -3 40c0 16 1 33 4 49h-82z" />
    <glyph glyph-name="sterling" unicode="&#xa3;" horiz-adv-x="714" 
d="M67 269v37h143v87c0 107 105 156 208 156c56 0 143 -26 213 -66l-25 -35c-62 33 -139 56 -188 56c-77 0 -157 -34 -157 -111v-87h263v-37h-263v-109c0 -74 -20 -107 -71 -119h441v-41h-564v41h36c79 0 107 20 107 119v109h-143z" />
    <glyph glyph-name="yen" unicode="&#xa5;" horiz-adv-x="729" 
d="M75 317v33h183l-157 186h64l202 -235l200 235h60l-157 -186h184v-33h-212l-52 -62v-27h264v-33h-264v-195h-51v195h-264v33h264v27l-53 62h-211z" />
    <glyph glyph-name="florin" unicode="&#x192;" horiz-adv-x="480" 
d="M59 306h104l24 109c23 100 104 135 164 135c40 0 84 -17 100 -32l-20 -38c-12 14 -49 28 -82 28c-45 0 -98 -26 -113 -92l-25 -110h129v-37h-137l-60 -269c-25 -111 -110 -150 -177 -150v37c48 4 111 30 130 113l59 269h-96v37z" />
    <glyph glyph-name="colonmonetary" unicode="&#x20a1;" horiz-adv-x="706" 
d="M502 641h32l-26 -113c49 -16 93 -41 128 -73l-32 -28c-30 25 -65 45 -105 59l-101 -456c84 5 162 45 216 96l32 -28c-64 -60 -156 -107 -258 -110l-26 -119h-31l26 120c-36 2 -70 9 -101 19l-31 -139h-32l33 151c-103 47 -169 141 -169 248c0 146 122 266 286 279l21 94
h32l-21 -92c36 0 71 -5 103 -13zM108 268c0 -86 50 -162 128 -204l98 440c-130 -17 -226 -117 -226 -236zM265 51c31 -12 65 -20 101 -21l103 465c-30 8 -62 12 -95 12h-8z" />
    <glyph glyph-name="franc" unicode="&#x20a3;" horiz-adv-x="673" 
d="M62 139v33h95v364h447v-44h-396v-163h247v-45h-247v-112h164v-33h-164v-139h-51v139h-95z" />
    <glyph glyph-name="lira" unicode="&#x20a4;" horiz-adv-x="717" 
d="M73 317v33h143v43c0 107 105 156 207 156c57 0 144 -26 214 -66l-25 -35c-62 33 -139 56 -189 56c-77 0 -156 -34 -156 -111v-43h263v-33h-263v-89h263v-33h-263v-35c0 -74 -20 -107 -71 -119h440v-41h-563v41h36c79 0 107 20 107 119v35h-143v33h143v89h-143z" />
    <glyph glyph-name="peso" unicode="&#x20b1;" horiz-adv-x="784" 
d="M56 350v33h96v153h292c77 0 118 -19 154 -53c25 -27 41 -61 45 -100h89v-33h-89c-3 -44 -22 -76 -48 -104c-36 -34 -73 -52 -151 -52h-241v-194h-51v350h-96zM559 278c18 19 29 42 33 72h-389v-111h240c65 0 89 15 116 39zM444 492h-241v-109h389c-2 23 -10 45 -28 67
c-27 27 -54 42 -120 42z" />
    <glyph glyph-name="peseta" unicode="&#x20a7;" horiz-adv-x="1455" 
d="M140 0h-50v536h299c75 0 119 -16 157 -52c9 -10 18 -21 24 -33h99v140h47v-140h161v-38h-161v-303c0 -60 39 -82 77 -82c32 0 71 12 90 25l8 -36c-21 -17 -67 -31 -106 -31c-52 0 -116 31 -116 124v303h-84c2 -10 3 -19 3 -29c0 -40 -17 -74 -43 -100
c-38 -35 -79 -53 -157 -53h-248v-231zM389 492h-249v-217h248c63 0 92 14 119 39c19 18 30 43 30 70c0 25 -10 49 -27 67c-30 29 -64 41 -121 41zM1357 404l-20 -36c-30 23 -97 57 -172 57c-61 0 -134 -24 -134 -88c0 -68 86 -72 153 -75c77 -3 209 -10 209 -128
c0 -100 -97 -147 -213 -147c-105 0 -172 39 -216 72l20 35c43 -31 104 -68 196 -68c90 0 165 34 165 104c0 79 -99 85 -161 88c-93 5 -201 11 -201 114c0 100 100 132 181 132c86 0 161 -35 193 -60z" />
    <glyph glyph-name="rupiah" unicode="&#xf6dd;" horiz-adv-x="1266" 
d="M806 -213h-47v557c0 34 -3 70 -14 107h45c8 -25 12 -48 12 -73c43 46 111 85 184 85c125 0 229 -94 229 -238c0 -143 -109 -237 -240 -237c-76 0 -136 42 -169 81v-282zM806 341v-231c28 -31 87 -81 165 -81c106 0 192 77 192 196s-82 196 -181 196
c-71 0 -134 -40 -176 -80zM144 0h-51v536h312c81 0 124 -20 158 -54c26 -26 42 -60 42 -98c0 -76 -54 -135 -142 -146l144 -238h-57l-139 231h-267v-231zM405 492h-261v-216h284c77 0 126 49 126 108c0 25 -10 49 -28 68c-29 27 -59 40 -121 40z" />
    <glyph glyph-name="Rupee" unicode="&#x20b9;" horiz-adv-x="728" 
d="M108 350v33h405c-2 27 -12 48 -28 67c-22 25 -56 42 -113 42h-264v44h569v-33h-203c54 -20 84 -65 90 -120h113v-33h-113c-3 -43 -19 -77 -47 -105c-36 -33 -77 -47 -151 -47l-162 3l318 -201h-92l-322 207v32h256c58 0 91 11 117 38c19 20 30 42 32 73h-405z" />
    <glyph glyph-name="section" unicode="&#xa7;" horiz-adv-x="693" 
d="M589 90c-24 -22 -58 -38 -91 -48c11 -5 22 -13 29 -21c9 -11 16 -28 16 -50c0 -89 -110 -119 -195 -119c-72 0 -146 21 -199 56l23 34c47 -30 112 -50 177 -50c57 0 143 17 143 79c0 15 -4 26 -13 34c-27 25 -89 27 -158 35c-81 9 -166 26 -216 72c-29 26 -44 59 -44 97
c0 42 18 75 43 100c23 22 57 41 91 51c-11 5 -19 10 -25 17c-12 14 -18 31 -18 53c0 90 110 121 196 121c72 0 144 -21 198 -57l-23 -35c-47 31 -112 51 -176 51c-56 0 -144 -17 -144 -79c0 -15 5 -27 15 -35c28 -24 89 -27 155 -34c83 -9 169 -25 219 -74
c26 -24 42 -56 42 -96c0 -41 -17 -76 -45 -102zM372 318c-46 4 -104 9 -144 22c-28 -8 -60 -23 -80 -42c-22 -21 -36 -49 -36 -83c0 -29 10 -54 33 -75c39 -34 107 -48 177 -56c51 -5 103 -9 143 -22c27 7 57 19 80 40c24 22 38 50 38 85c0 31 -11 53 -31 72
c-38 36 -108 52 -180 59z" />
    <glyph glyph-name="numbersign" unicode="#" horiz-adv-x="864" 
d="M591 583h40l-33 -181h205v-37h-212l-39 -212h197v-37h-204l-38 -207h-39l38 207h-203l-38 -207h-41l38 207h-203v37h210l39 212h-195v37h202l33 181h40l-33 -181h203zM348 365l-39 -212h203l39 212h-203z" />
    <glyph glyph-name="percent" unicode="%" horiz-adv-x="1003" 
d="M60 418c0 89 81 164 184 164c102 0 186 -75 186 -164c0 -91 -84 -165 -186 -165c-103 0 -184 74 -184 165zM693 571l-339 -571h-41l339 571h41zM105 418c0 -69 61 -126 139 -126c77 0 142 57 142 126c0 68 -65 125 -142 125c-78 0 -139 -57 -139 -125zM576 155
c0 88 82 164 184 164s187 -76 187 -164c0 -92 -85 -166 -187 -166s-184 74 -184 166zM621 155c0 -70 61 -127 139 -127c77 0 142 57 142 127c0 67 -65 124 -142 124c-78 0 -139 -57 -139 -124z" />
    <glyph glyph-name="perthousand" unicode="&#x2030;" horiz-adv-x="1424" 
d="M61 418c0 89 81 164 184 164c102 0 186 -75 186 -164c0 -91 -84 -165 -186 -165c-103 0 -184 74 -184 165zM694 571l-339 -571h-41l338 571h42zM105 418c0 -69 62 -126 140 -126c77 0 142 57 142 126c0 68 -65 125 -142 125c-78 0 -140 -57 -140 -125zM577 155
c0 88 82 164 184 164s187 -76 187 -164c0 -92 -85 -166 -187 -166s-184 74 -184 166zM621 155c0 -70 62 -127 140 -127c77 0 142 57 142 127c0 67 -65 124 -142 124c-78 0 -140 -57 -140 -124zM998 155c0 88 82 164 184 164c101 0 187 -76 187 -164
c0 -92 -86 -166 -187 -166c-102 0 -184 74 -184 166zM1042 155c0 -70 63 -127 140 -127s142 57 142 127c0 67 -65 124 -142 124s-140 -57 -140 -124z" />
    <glyph glyph-name="currency" unicode="&#xa4;" horiz-adv-x="737" 
d="M93 258c0 63 23 122 62 168l-79 73l33 33l78 -73c48 42 111 68 180 68s133 -26 182 -69l79 74l33 -33l-80 -74c39 -46 63 -104 63 -167c0 -64 -24 -122 -63 -167l80 -74l-33 -33l-79 73c-49 -42 -113 -68 -182 -68s-132 26 -180 68l-78 -73l-33 33l79 73
c-39 46 -62 104 -62 168zM144 258c0 -123 101 -223 223 -223c123 0 226 100 226 223c0 122 -103 223 -226 223c-122 0 -223 -101 -223 -223z" />
    <glyph glyph-name="dollar.superior" horiz-adv-x="498" 
d="M236 738h31v-76c77 -7 136 -39 168 -63l-26 -30c-25 22 -74 48 -142 55v-153c78 -4 195 -17 195 -123c0 -95 -90 -138 -195 -139v-95h-31v96c-97 6 -160 48 -203 87l27 30c35 -33 90 -72 176 -79v184c-88 5 -178 18 -178 107c0 95 96 125 175 125h3v74zM419 343
c0 70 -78 81 -152 87v-183c83 1 152 31 152 96zM101 543c0 -58 76 -67 135 -70v153h-4c-62 0 -131 -21 -131 -83z" />
    <glyph glyph-name="cent.superior" horiz-adv-x="412" 
d="M249 625h32l-17 -78c37 -7 72 -23 102 -48l-29 -28c-23 20 -51 33 -80 40l-56 -262c6 -1 12 -1 18 -1c59 0 101 31 122 51l29 -25c-14 -17 -66 -63 -151 -63c-9 0 -18 0 -26 1l-21 -98h-32l22 105c-72 20 -126 80 -126 164c0 102 80 169 178 169c6 0 13 0 19 -1zM82 383
c0 -64 37 -110 88 -127l56 259c-4 1 -8 1 -12 1c-73 0 -132 -53 -132 -133z" />
    <glyph glyph-name="Euro.superior" horiz-adv-x="572" 
d="M38 475v29h70c30 92 119 160 223 160c74 0 142 -26 189 -69l-27 -32c-41 37 -99 60 -162 60c-80 0 -148 -50 -175 -119h235v-29h-243c-3 -12 -4 -25 -4 -38c0 -11 1 -22 3 -32h244v-29h-237c25 -73 94 -126 177 -126c65 0 125 25 168 66l28 -31
c-51 -47 -120 -76 -196 -76c-107 0 -197 71 -225 167h-68v29h62c-2 10 -2 21 -2 32c0 13 1 25 3 38h-63z" />
    <glyph glyph-name="sterling.superior" horiz-adv-x="525" 
d="M43 436v33h108v68c0 87 82 127 161 127c44 0 112 -22 167 -53l-23 -32c-48 27 -107 44 -144 44c-57 0 -116 -26 -116 -86v-68h200v-33h-200v-86c0 -58 -15 -84 -56 -93h338v-37h-435v37h28c59 0 80 16 80 93v86h-108z" />
    <glyph glyph-name="yen.superior" horiz-adv-x="542" 
d="M45 475v29h139l-120 149h57l152 -187l151 187h53l-120 -149h140v-29h-163l-40 -50v-20h203v-29h-203v-156h-46v156h-203v29h203v20l-41 50h-162z" />
    <glyph glyph-name="numbersign.superior" horiz-adv-x="646" 
d="M445 690h34l-25 -144h156v-33h-162l-29 -168h150v-33h-156l-29 -165h-35l29 165h-152l-29 -165h-35l29 165h-155v33h161l29 168h-148v33h154l25 144h35l-25 -144h152zM261 513l-29 -168h152l29 168h-152z" />
    <glyph glyph-name="percent.superior" horiz-adv-x="762" 
d="M36 558c0 72 63 133 142 133c78 0 144 -61 144 -133c0 -74 -66 -134 -144 -134c-79 0 -142 60 -142 134zM530 681l-261 -461h-37l261 461h37zM75 558c0 -54 46 -99 103 -99s105 45 105 99c0 53 -48 98 -105 98s-103 -45 -103 -98zM440 344c0 72 63 133 142 133
s144 -61 144 -133c0 -73 -64 -133 -144 -133c-79 0 -142 60 -142 133zM480 344c0 -54 46 -99 102 -99c58 0 105 45 105 99c0 53 -47 98 -105 98c-56 0 -102 -45 -102 -98z" />
    <glyph glyph-name="period.superior" horiz-adv-x="225" 
d="M75 247c0 19 16 35 38 35c21 0 37 -16 37 -35s-17 -34 -37 -34c-21 0 -38 15 -38 34z" />
    <glyph glyph-name="comma.superior" horiz-adv-x="243" 
d="M78 97l-13 27c24 7 61 27 70 61c4 18 -1 33 -11 41c-4 -2 -9 -3 -13 -3c-18 0 -33 13 -33 30c0 16 14 29 33 29c35 0 66 -29 66 -71c0 -69 -58 -100 -99 -114z" />
    <glyph glyph-name="hyphen.superior" horiz-adv-x="305" 
d="M62 373v41h182v-41h-182z" />
    <glyph glyph-name="parenleft.superior" unicode="&#x207d;" horiz-adv-x="255" 
d="M242 130l-22 -29c-115 57 -180 179 -180 305s65 249 180 306l22 -29c-98 -49 -156 -163 -156 -277s58 -226 156 -276z" />
    <glyph glyph-name="parenright.superior" unicode="&#x207e;" horiz-adv-x="255" 
d="M12 683l23 29c115 -57 179 -180 179 -306s-64 -248 -179 -305l-23 29c98 50 157 162 157 276s-59 228 -157 277z" />
    <glyph glyph-name="plus" unicode="+" horiz-adv-x="689" 
d="M82 229v42h239v224h46v-224h239v-42h-239v-224h-46v224h-239z" />
    <glyph glyph-name="minus" unicode="&#x2212;" horiz-adv-x="689" 
d="M82 229v42h524v-42h-524z" />
    <glyph glyph-name="multiply" unicode="&#xd7;" horiz-adv-x="689" 
d="M105 444l32 31l207 -195l208 195l30 -30l-206 -194l207 -194l-32 -31l-208 194l-207 -194l-31 30l207 194z" />
    <glyph glyph-name="divide" unicode="&#xf7;" horiz-adv-x="689" 
d="M82 229v42h524v-42h-524zM301 36c0 22 19 40 44 40s43 -18 43 -40c0 -23 -19 -39 -43 -39s-44 16 -44 39zM301 465c0 23 20 39 44 39s43 -16 43 -39c0 -22 -18 -40 -43 -40s-44 18 -44 40z" />
    <glyph glyph-name="equal" unicode="=" horiz-adv-x="689" 
d="M82 350v43h524v-43h-524zM82 109v42h524v-42h-524z" />
    <glyph glyph-name="approxequal" unicode="&#x2248;" horiz-adv-x="689" 
d="M82 94v44c45 35 89 56 143 56c52 0 86 -18 117 -37c29 -18 65 -37 112 -37c50 0 107 24 152 60v-45c-46 -36 -97 -58 -152 -58c-59 0 -96 24 -117 37c-31 20 -64 38 -113 38c-51 0 -97 -21 -142 -58zM82 336v44c45 35 89 56 143 56c52 0 86 -18 117 -37
c29 -18 65 -38 112 -38c50 0 107 25 152 61v-45c-46 -36 -97 -58 -152 -58c-59 0 -96 24 -117 37c-31 19 -64 38 -113 38c-51 0 -97 -21 -142 -58z" />
    <glyph glyph-name="notequal" unicode="&#x2260;" horiz-adv-x="689" 
d="M82 350v43h316l68 112h48l-68 -112h160v-43h-186l-121 -199h307v-42h-333l-68 -113h-48l68 113h-143v42h169l121 199h-290z" />
    <glyph glyph-name="plusminus" unicode="&#xb1;" horiz-adv-x="689" 
d="M82 290v43h239v189h46v-189h239v-43h-239v-189h-46v189h-239zM82 0v42h524v-42h-524z" />
    <glyph glyph-name="less" unicode="&#x3c;" horiz-adv-x="689" 
d="M606 477v-49l-466 -174v-7l466 -173v-49l-524 201v49z" />
    <glyph glyph-name="greater" unicode="&#x3e;" horiz-adv-x="689" 
d="M82 428v49l524 -202v-49l-524 -201v49l466 173v7z" />
    <glyph glyph-name="lessequal" unicode="&#x2264;" horiz-adv-x="689" 
d="M82 0v42h524v-42h-524zM606 533v-49l-466 -170v-7l466 -170v-49l-524 197v50z" />
    <glyph glyph-name="greaterequal" unicode="&#x2265;" horiz-adv-x="689" 
d="M606 42v-42h-524v42h524zM82 484v49l524 -198v-50l-524 -197v49l466 170v7z" />
    <glyph glyph-name="logicalnot" unicode="&#xac;" horiz-adv-x="689" 
d="M606 103h-47v256h-477v43h524v-299z" />
    <glyph glyph-name="periodcentered" unicode="&#xb7;" horiz-adv-x="689" 
d="M294 250c0 26 22 46 50 46s49 -20 49 -46c0 -25 -21 -44 -49 -44c-27 0 -50 19 -50 44z" />
    <glyph glyph-name="asciitilde" unicode="~" horiz-adv-x="689" 
d="M99 208l-35 23c54 60 104 97 159 97c62 0 100 -32 130 -61c25 -24 54 -53 103 -53c40 0 88 29 132 78l37 -23c-56 -65 -118 -100 -171 -100c-68 0 -105 38 -134 66c-27 24 -56 48 -98 48c-41 0 -81 -29 -123 -75z" />
    <glyph glyph-name="asciicircum" unicode="^" horiz-adv-x="689" 
d="M157 212h-53l215 401h53l213 -401h-53l-184 352h-6z" />
    <glyph glyph-name="brokenbar" unicode="&#xa6;" horiz-adv-x="350" 
d="M153 381v413h45v-413h-45zM153 -225v420h45v-420h-45z" />
    <glyph glyph-name="bar" unicode="|" horiz-adv-x="350" 
d="M153 -304v1205h45v-1205h-45z" />
    <glyph glyph-name="mu" unicode="&#xb5;" horiz-adv-x="595" 
d="M136 -230h-47v677h47v-310c2 -63 56 -110 134 -110c79 0 140 45 179 83v337h48v-346c0 -32 1 -66 7 -101h-44c-5 23 -7 48 -7 71c-41 -41 -103 -85 -190 -85c-57 0 -103 23 -127 65v-281z" />
    <glyph glyph-name="mu" unicode="&#x3bc;" horiz-adv-x="595" 
d="M136 -230h-47v677h47v-310c2 -63 56 -110 134 -110c79 0 140 45 179 83v337h48v-346c0 -32 1 -66 7 -101h-44c-5 23 -7 48 -7 71c-41 -41 -103 -85 -190 -85c-57 0 -103 23 -127 65v-281z" />
    <glyph glyph-name="pi" unicode="&#x3c0;" horiz-adv-x="700" 
d="M45 409v38h612v-38h-120l-34 -328c-3 -26 -3 -53 -1 -81h-47c-2 28 -2 53 1 81l34 328h-260l-42 -409h-47l42 409h-138z" />
    <glyph glyph-name="Delta" unicode="&#x394;" horiz-adv-x="732" 
d="M676 0h-620v41l283 612h54l283 -612v-41zM362 595l-255 -554h515l-254 554h-6z" />
    <glyph glyph-name="Delta" unicode="&#x2206;" horiz-adv-x="732" 
d="M676 0h-620v41l283 612h54l283 -612v-41zM362 595l-255 -554h515l-254 554h-6z" />
    <glyph glyph-name="Omega" unicode="&#x3a9;" horiz-adv-x="856" 
d="M78 0v41h203c-132 44 -213 158 -213 295c0 182 158 331 359 331s362 -149 362 -331c0 -134 -89 -250 -216 -295h202v-41h-269v41c134 33 229 151 229 295c0 157 -136 286 -308 286s-306 -129 -306 -286c0 -143 94 -260 226 -295v-41h-269z" />
    <glyph glyph-name="Omega" unicode="&#x2126;" horiz-adv-x="856" 
d="M78 0v41h203c-132 44 -213 158 -213 295c0 182 158 331 359 331s362 -149 362 -331c0 -134 -89 -250 -216 -295h202v-41h-269v41c134 33 229 151 229 295c0 157 -136 286 -308 286s-306 -129 -306 -286c0 -143 94 -260 226 -295v-41h-269z" />
    <glyph glyph-name="product" unicode="&#x220f;" horiz-adv-x="779" 
d="M50 608v45h679v-45h-126v-715h-51v715h-327v-715h-51v715h-124z" />
    <glyph glyph-name="summation" unicode="&#x2211;" horiz-adv-x="675" 
d="M618 653v-45h-483l377 -317v-34l-377 -319h483v-45h-568v33l409 345v6l-409 343v33h568z" />
    <glyph glyph-name="integral" unicode="&#x222b;" horiz-adv-x="384" 
d="M331 723v-42h-52c-41 0 -62 -33 -62 -69v-698c0 -53 -36 -101 -112 -101h-49v42h53c40 0 61 33 61 69v698c0 53 31 101 95 101h66z" />
    <glyph glyph-name="partialdiff" unicode="&#x2202;" horiz-adv-x="620" 
d="M284 454c102 0 164 -61 206 -133v14c0 118 -48 277 -284 277v42c283 0 335 -188 335 -351c0 -222 -100 -317 -244 -317c-127 0 -237 76 -237 233s110 235 224 235zM295 25c112 0 189 72 198 237c-42 81 -105 153 -205 153c-96 0 -181 -64 -181 -196s84 -194 188 -194z
" />
    <glyph glyph-name="infinity" unicode="&#x221e;" horiz-adv-x="1027" 
d="M258 442h12c44 0 94 -15 156 -75l87 -87l87 87c63 60 113 75 156 75h12c107 0 185 -84 185 -175v-33c0 -91 -78 -174 -185 -174h-12c-37 0 -92 14 -156 74l-87 85l-87 -86c-62 -59 -111 -73 -156 -73h-12c-106 0 -184 83 -184 174v33c0 91 78 175 184 175zM633 340
l-91 -89l91 -89c49 -48 89 -62 123 -62h12c81 0 140 65 140 134v33c0 70 -59 134 -140 134h-12c-33 0 -74 -13 -123 -61zM118 267v-33c0 -69 59 -134 140 -134h12c34 0 72 11 124 62l90 89l-90 89c-50 49 -91 61 -124 61h-12c-81 0 -140 -64 -140 -134z" />
    <glyph glyph-name="lozenge" unicode="&#x25ca;" horiz-adv-x="645" 
d="M307 653h30l255 -309v-33l-255 -311h-30l-255 311v33zM322 601l-222 -271v-5l222 -273h1l222 272v6l-222 271h-1z" />
    <glyph glyph-name="radical" unicode="&#x221a;" horiz-adv-x="698" 
d="M40 451h164l148 -385l256 688h49l-288 -754h-36l-162 413h-131v38z" />
    <glyph glyph-name="zero.tos" horiz-adv-x="656" 
d="M59 268c0 156 122 282 268 282s270 -126 270 -282c0 -157 -124 -282 -270 -282s-268 125 -268 282zM110 268c0 -131 97 -237 217 -237c119 0 219 106 219 237c0 130 -100 237 -219 237c-120 0 -217 -107 -217 -237z" />
    <glyph glyph-name="one.tos" horiz-adv-x="656" 
d="M123 0v40h224v450l-216 -62l-14 41l230 67h51v-496h179v-40h-454z" />
    <glyph glyph-name="two.tos" horiz-adv-x="656" 
d="M125 426l-29 36c65 44 132 88 246 88c118 0 235 -46 235 -146c0 -115 -148 -143 -241 -167c-111 -29 -210 -74 -210 -181v-16h444v-40h-494v52c0 137 128 198 257 230c66 15 193 38 193 121c0 70 -92 102 -183 102c-99 0 -160 -38 -218 -79z" />
    <glyph glyph-name="three.tos" horiz-adv-x="656" 
d="M305 265v41h92c34 0 100 29 100 93c0 76 -90 106 -157 106c-82 0 -154 -45 -207 -92l-31 32c58 52 139 105 239 105c88 0 207 -40 207 -144c0 -62 -46 -100 -82 -112c47 -10 128 -43 128 -133c0 -111 -121 -175 -272 -175c-109 0 -197 35 -271 105l31 35
c57 -53 131 -95 240 -95c123 0 221 50 221 134c0 80 -96 100 -135 100h-103z" />
    <glyph glyph-name="four.tos" horiz-adv-x="656" 
d="M609 175v-41h-109v-134h-51v134h-416v40l415 362h52v-361h109zM107 178v-3h342v298h-8c-109 -95 -225 -199 -334 -295z" />
    <glyph glyph-name="five.tos" horiz-adv-x="656" 
d="M537 536v-44h-383v-187c51 26 103 49 191 49c123 0 243 -49 243 -174c0 -140 -139 -194 -271 -194c-131 0 -214 54 -257 86l28 35c38 -29 113 -76 229 -76c107 0 221 42 221 148c0 96 -95 132 -195 132c-89 0 -149 -25 -203 -51l-33 24v252h430z" />
    <glyph glyph-name="six.tos" horiz-adv-x="656" 
d="M555 495l-28 -35c-42 28 -100 45 -165 45c-126 0 -243 -89 -245 -243c49 35 140 86 252 86c154 0 225 -93 225 -171c0 -103 -102 -191 -242 -191c-146 0 -282 94 -282 273c0 183 140 291 293 291c107 0 166 -38 192 -55zM365 307c-107 0 -200 -53 -246 -83
c16 -127 119 -193 234 -193c110 0 190 72 190 147c0 57 -53 129 -178 129z" />
    <glyph glyph-name="seven.tos" horiz-adv-x="656" 
d="M67 492v44h522v-45l-347 -491h-67l356 492h-464z" />
    <glyph glyph-name="eight.tos" horiz-adv-x="656" 
d="M328 -14c-127 0 -261 61 -261 168c0 85 82 133 166 145c-80 12 -126 50 -126 113c0 95 123 139 221 139s220 -44 220 -139c0 -63 -44 -101 -126 -113c85 -12 168 -60 168 -145c0 -107 -135 -168 -262 -168zM328 30c98 0 207 46 207 128c0 83 -113 121 -207 121
c-93 0 -207 -38 -207 -121c0 -82 109 -128 207 -128zM328 317c105 0 165 32 165 90c0 71 -91 103 -165 103s-165 -32 -165 -103c0 -58 59 -90 165 -90z" />
    <glyph glyph-name="nine.tos" horiz-adv-x="656" 
d="M98 41l26 36c43 -29 102 -46 168 -46c126 0 244 89 246 242c-51 -34 -142 -84 -253 -84c-156 0 -227 92 -227 170c0 103 103 191 244 191c146 0 283 -94 283 -272c0 -183 -141 -292 -294 -292c-107 0 -169 38 -193 55zM288 230c107 0 201 52 247 82
c-16 126 -120 193 -234 193c-111 0 -192 -72 -192 -147c0 -57 53 -128 179 -128z" />
    <glyph glyph-name="dollar.tos" horiz-adv-x="656" 
d="M311 641h36v-94c97 -8 172 -47 211 -79l-30 -33c-32 28 -95 62 -181 70v-196c97 -4 246 -19 246 -151c0 -117 -114 -168 -246 -170v-119h-36v120c-122 7 -200 58 -255 107l30 33c46 -42 115 -91 225 -98v233c-111 8 -224 24 -224 132c0 116 122 153 221 153h3v92z
M546 153c0 91 -106 104 -199 109v-232c107 1 199 40 199 123zM136 400c0 -74 97 -85 175 -89v196h-5c-79 0 -170 -27 -170 -107z" />
    <glyph glyph-name="cent.tos" horiz-adv-x="656" 
d="M391 499h37l-25 -96c56 -9 108 -29 153 -60l-31 -31c-38 26 -85 43 -133 50l-87 -330c12 -2 24 -2 37 -2c97 0 162 41 189 65l34 -29c-19 -19 -97 -77 -223 -77c-16 0 -32 1 -47 3l-32 -123h-36l33 129c-109 24 -190 98 -190 202c0 125 119 208 265 208c10 0 21 0 32 -1z
M121 200c0 -82 63 -141 150 -162l85 328c-7 1 -14 1 -21 1c-118 0 -214 -66 -214 -167z" />
    <glyph glyph-name="Euro.tos" horiz-adv-x="656" 
d="M47 317v33h78c32 115 131 199 248 199c83 0 159 -33 211 -86l-31 -35c-45 47 -110 76 -180 76c-90 0 -166 -65 -195 -154h262v-33h-271c-3 -16 -4 -32 -4 -49c0 -14 1 -27 3 -40h272v-33h-265c27 -94 105 -163 198 -163c72 0 140 33 187 84l31 -35
c-56 -58 -133 -94 -218 -94c-120 0 -220 89 -250 208h-76v33h70c-2 13 -3 26 -3 40c0 16 1 33 4 49h-71z" />
    <glyph glyph-name="sterling.tos" horiz-adv-x="656" 
d="M56 269v37h132v87c0 107 97 156 193 156c52 0 133 -26 199 -66l-26 -35c-57 33 -128 56 -173 56c-70 0 -142 -34 -142 -111v-87h241v-37h-241v-109c0 -74 -19 -107 -67 -119h407v-41h-523v41h35c72 0 97 20 97 119v109h-132z" />
    <glyph glyph-name="yen.tos" horiz-adv-x="656" 
d="M64 317v33h165l-141 186h64l178 -235l177 235h60l-142 -186h166v-33h-191l-47 -62v-27h238v-33h-238v-195h-51v195h-238v33h238v27l-48 62h-190z" />
    <glyph glyph-name="florin.tos" horiz-adv-x="656" 
d="M193 306h104l25 109c22 100 104 135 163 135c41 0 84 -17 100 -32l-19 -38c-13 14 -49 28 -82 28c-45 0 -99 -26 -114 -92l-25 -110h129v-37h-137l-59 -269c-25 -111 -110 -150 -178 -150v37c48 4 111 30 130 113l59 269h-96v37z" />
    <glyph glyph-name="colonmonetary.tos" horiz-adv-x="656" 
d="M466 641h31l-24 -114c45 -16 86 -41 118 -72l-32 -28c-27 25 -58 45 -94 59l-94 -456c77 6 148 46 197 96l32 -28c-58 -59 -143 -107 -238 -110l-24 -119h-30l24 120c-33 2 -64 8 -93 19l-28 -139h-32l31 152c-94 47 -155 140 -155 247c0 146 111 265 263 279l19 94h32
l-19 -92c33 0 64 -5 94 -13zM106 268c0 -85 44 -160 113 -202l90 438c-117 -18 -203 -118 -203 -236zM248 51c28 -12 59 -20 93 -21l95 465c-28 8 -58 12 -89 12h-6z" />
    <glyph glyph-name="franc.tos" horiz-adv-x="656" 
d="M58 139v33h93v364h439v-44h-388v-163h242v-45h-242v-112h160v-33h-160v-139h-51v139h-93z" />
    <glyph glyph-name="lira.tos" horiz-adv-x="656" 
d="M63 317v33h131v43c0 107 98 156 193 156c51 0 133 -26 197 -66l-25 -35c-57 33 -128 56 -172 56c-70 0 -143 -34 -143 -111v-43h242v-33h-242v-89h242v-33h-242v-35c0 -74 -18 -107 -66 -119h406v-41h-521v41h34c72 0 97 20 97 119v35h-131v33h131v89h-131z" />
    <glyph glyph-name="peso.tos" horiz-adv-x="656" 
d="M39 350v33h83v153h234c77 0 118 -19 155 -53c24 -27 40 -61 44 -100h76v-33h-76c-3 -44 -22 -76 -48 -104c-36 -34 -73 -52 -150 -52h-184v-194h-51v350h-83zM471 278c19 19 29 42 33 72h-331v-111h182c65 0 89 15 116 39zM356 492h-183v-109h331c-2 23 -10 45 -28 67
c-27 27 -54 42 -120 42z" />
    <glyph glyph-name="Rupee.tos" horiz-adv-x="656" 
d="M57 350v33h405c-2 27 -12 48 -28 67c-22 25 -56 42 -113 42h-264v44h569v-33h-203c55 -20 84 -65 90 -120h113v-33h-113c-3 -43 -19 -77 -47 -105c-35 -33 -77 -47 -151 -47l-162 3l318 -201h-92l-322 207v32h256c58 0 91 11 117 38c19 20 30 42 32 73h-405z" />
    <glyph glyph-name="section.tos" horiz-adv-x="656" 
d="M551 90c-22 -22 -53 -38 -83 -48c10 -5 19 -13 25 -21c10 -11 15 -28 15 -50c0 -89 -103 -119 -183 -119c-68 0 -136 21 -186 56l23 34c43 -30 103 -50 164 -50c52 0 131 17 131 79c0 15 -3 26 -12 34c-24 25 -82 27 -145 35c-75 9 -155 26 -203 72c-26 26 -40 59 -40 97
c0 42 16 75 41 100c19 22 51 41 82 51c-10 5 -17 10 -22 17c-11 14 -16 31 -16 53c0 90 102 121 183 121c67 0 135 -21 185 -57l-23 -35c-43 31 -103 51 -163 51c-51 0 -132 -17 -132 -79c0 -15 4 -27 13 -35c27 -24 83 -27 144 -34c76 -9 157 -25 205 -74
c24 -24 39 -56 39 -96c0 -41 -17 -76 -42 -102zM348 318c-43 4 -97 9 -135 22c-25 -8 -54 -23 -71 -42c-21 -21 -34 -49 -34 -83c0 -29 9 -54 30 -75c36 -34 99 -48 163 -56c47 -5 96 -9 134 -22c24 7 51 19 71 40c22 22 36 50 36 85c0 31 -11 53 -29 72
c-35 36 -99 52 -165 59z" />
    <glyph glyph-name="numbersign.tos" horiz-adv-x="656" 
d="M447 583h39l-26 -181h156v-37h-161l-30 -212h149v-37h-155l-29 -207h-39l29 207h-149l-29 -207h-39l29 207h-154v37h160l30 212h-148v37h153l26 181h39l-26 -181h149zM267 365l-30 -212h149l30 212h-149z" />
    <glyph glyph-name="percent.tos" horiz-adv-x="656" 
d="M29 418c0 89 55 164 124 164s126 -75 126 -164c0 -91 -57 -165 -126 -165s-124 74 -124 165zM464 571l-229 -571h-41l229 571h41zM69 418c0 -69 38 -126 84 -126c47 0 86 57 86 126c0 68 -39 125 -86 125c-46 0 -84 -57 -84 -125zM379 155c0 88 56 164 125 164
c68 0 126 -76 126 -164c0 -92 -58 -166 -126 -166c-69 0 -125 74 -125 166zM420 155c0 -70 37 -127 84 -127s85 57 85 127c0 67 -38 124 -85 124s-84 -57 -84 -124z" />
    <glyph glyph-name="zero.pl" horiz-adv-x="845" 
d="M76 307c0 177 156 320 345 320c190 0 349 -143 349 -320c0 -179 -159 -321 -349 -321c-189 0 -345 142 -345 321zM127 307c0 -153 132 -276 294 -276c163 0 298 123 298 276c0 151 -135 275 -298 275c-162 0 -294 -124 -294 -275z" />
    <glyph glyph-name="one.pl" horiz-adv-x="428" 
d="M31 486l-11 41l209 86h51v-613h-51v567z" />
    <glyph glyph-name="one.pl.alt" horiz-adv-x="347" 
d="M148 0v613h51v-613h-51z" />
    <glyph glyph-name="two.pl" horiz-adv-x="696" 
d="M126 493l-29 35c69 50 143 99 266 99c126 0 253 -51 253 -165c0 -130 -158 -160 -259 -188c-123 -34 -232 -88 -232 -215v-18h485v-41h-536v55c0 158 139 227 279 263c73 20 212 45 212 143c0 84 -102 121 -201 121c-109 0 -176 -43 -238 -89z" />
    <glyph glyph-name="three.pl" horiz-adv-x="797" 
d="M373 306v41h123c38 0 121 34 121 110c0 90 -116 125 -202 125c-103 0 -194 -50 -259 -104l-31 31c70 59 169 118 291 118c107 0 252 -45 252 -163c0 -72 -57 -115 -101 -129c57 -10 158 -48 158 -152c0 -126 -147 -197 -332 -197c-134 0 -241 38 -332 117l31 36
c71 -61 163 -108 301 -108c157 0 281 57 281 156c0 96 -123 119 -168 119h-133z" />
    <glyph glyph-name="four.pl" horiz-adv-x="793" 
d="M740 196v-41h-129v-155h-51v155h-517v42l511 416h57v-417h129zM116 200v-4h444v355h-11c-142 -114 -292 -237 -433 -351z" />
    <glyph glyph-name="five.pl" horiz-adv-x="749" 
d="M623 613v-45h-454v-216c60 33 121 57 225 57c145 0 286 -56 286 -199c0 -161 -161 -224 -315 -224s-251 65 -301 104l31 35c44 -36 133 -94 271 -94c128 0 263 51 263 178c0 114 -116 157 -236 157c-104 0 -175 -30 -238 -63l-34 25v285h502z" />
    <glyph glyph-name="six.pl" horiz-adv-x="768" 
d="M656 546l-32 -36c-51 45 -121 72 -200 72c-155 0 -299 -105 -299 -284c58 39 169 99 306 99c185 0 269 -106 269 -195c0 -116 -122 -216 -289 -216c-173 0 -333 106 -333 310c0 208 166 331 347 331c128 0 199 -55 231 -81zM427 356c-134 0 -247 -63 -300 -97
c18 -150 144 -228 285 -228c137 0 237 84 237 171c0 69 -66 154 -222 154z" />
    <glyph glyph-name="seven.pl" horiz-adv-x="672" 
d="M50 568v45h562v-45l-377 -568h-66l385 568h-504z" />
    <glyph glyph-name="eight.pl" horiz-adv-x="766" 
d="M383 -16c-150 0 -312 70 -312 192c0 98 103 152 207 167c-100 13 -156 57 -156 128c0 108 145 158 261 158s261 -50 261 -158c0 -71 -56 -115 -157 -128c105 -15 208 -69 208 -167c0 -122 -163 -192 -312 -192zM383 29c121 0 257 54 257 151c0 98 -141 142 -257 142
s-257 -44 -257 -142c0 -97 136 -151 257 -151zM383 362c131 0 206 37 206 105c0 83 -114 121 -206 121s-206 -38 -206 -121c0 -68 75 -105 206 -105z" />
    <glyph glyph-name="nine.pl" horiz-adv-x="766" 
d="M111 67l31 35c51 -44 122 -71 200 -71c155 0 299 105 300 284c-58 -39 -168 -99 -306 -99c-186 0 -270 106 -270 195c0 116 123 216 290 216c173 0 333 -106 333 -310c0 -208 -167 -331 -348 -331c-128 0 -198 55 -230 81zM340 257c133 0 247 63 300 97
c-19 150 -146 228 -285 228c-137 0 -238 -84 -238 -171c0 -69 67 -154 223 -154z" />
    <glyph glyph-name="dollar.pl" horiz-adv-x="700" 
d="M336 733h36v-109c109 -10 193 -54 237 -89l-30 -34c-37 33 -108 72 -207 81v-232c109 -5 278 -21 278 -169c0 -133 -128 -191 -278 -194v-137h-36v138c-138 7 -226 65 -287 121l30 34c52 -50 131 -106 257 -113v275c-124 8 -253 25 -253 149c0 131 138 172 247 172h6v107
zM602 175c0 108 -125 122 -230 128v-274c124 2 230 48 230 146zM132 457c0 -89 113 -100 204 -105v232h-7c-91 0 -197 -32 -197 -127z" />
    <glyph glyph-name="cent.pl" horiz-adv-x="583" 
d="M352 567h36l-23 -110c52 -10 101 -33 143 -69l-32 -32c-35 31 -77 50 -120 59l-82 -384c11 -1 21 -2 32 -2c90 0 150 49 176 76l33 -29c-18 -23 -91 -88 -209 -88c-14 0 -27 1 -40 3l-30 -141h-37l31 148c-101 28 -177 112 -177 229c0 142 111 236 248 236
c9 0 19 0 29 -1zM104 227c0 -95 57 -164 135 -188l82 381c-7 1 -14 1 -20 1c-109 0 -197 -77 -197 -194z" />
    <glyph glyph-name="Euro.pl" horiz-adv-x="825" 
d="M62 364v34h98c41 132 167 229 317 229c105 0 201 -37 268 -98l-32 -35c-59 54 -145 88 -236 88c-122 0 -225 -78 -263 -184h348v-34h-358c-4 -19 -6 -38 -6 -57c0 -17 1 -33 4 -48h360v-34h-352c36 -112 142 -194 267 -194c94 0 182 38 245 97l32 -35
c-72 -66 -169 -107 -277 -107c-153 0 -282 102 -319 239h-96v34h89c-3 15 -4 31 -4 48c0 19 2 38 5 57h-90z" />
    <glyph glyph-name="sterling.pl" horiz-adv-x="761" 
d="M67 310v38h159v101c0 123 115 178 226 178c61 0 156 -30 232 -74l-25 -35c-69 37 -153 64 -207 64c-86 0 -175 -41 -175 -133v-101h290v-38h-290v-130c0 -86 -22 -124 -77 -139h483v-41h-616v41h40c88 0 119 24 119 139v130h-159z" />
    <glyph glyph-name="yen.pl" horiz-adv-x="776" 
d="M73 364v34h204l-174 215h64l223 -274l223 274h60l-174 -215h204v-34h-232l-57 -71v-34h289v-34h-289v-225h-51v225h-290v34h290v34l-58 71h-232z" />
    <glyph glyph-name="florin.pl" horiz-adv-x="403" 
d="M55 348h113l27 125c25 114 113 154 178 154c45 0 92 -20 109 -38l-20 -37c-13 16 -54 34 -90 34c-50 0 -111 -32 -129 -113l-27 -125h142v-38h-150l-66 -310c-27 -126 -119 -170 -191 -170v37c53 4 123 35 144 133l65 310h-105v38z" />
    <glyph glyph-name="colonmonetary.pl" horiz-adv-x="742" 
d="M537 733h33l-28 -130c54 -18 101 -46 140 -82l-33 -29c-33 29 -72 52 -116 68l-112 -531c93 5 179 51 239 110l32 -29c-69 -68 -169 -120 -280 -123l-29 -137h-33l29 138c-40 2 -77 10 -112 22l-34 -160h-33l36 173c-113 53 -186 160 -186 284c0 166 134 303 314 318
l23 108h33l-23 -106c40 0 78 -5 114 -15zM101 307c0 -102 56 -191 145 -239l109 513c-146 -19 -254 -135 -254 -274zM276 54c34 -14 71 -24 112 -25l114 541c-33 9 -68 14 -105 14h-9z" />
    <glyph glyph-name="franc.pl" horiz-adv-x="693" 
d="M53 164v33h104v416h488v-45h-437v-194h274v-45h-274v-132h180v-33h-180v-164h-51v164h-104z" />
    <glyph glyph-name="lira.pl" horiz-adv-x="765" 
d="M75 364v34h158v51c0 123 115 178 226 178c62 0 157 -30 233 -74l-25 -35c-69 37 -154 64 -208 64c-85 0 -175 -41 -175 -133v-51h291v-34h-291v-105h291v-34h-291v-45c0 -86 -21 -124 -76 -139h483v-41h-616v41h40c88 0 118 24 118 139v45h-158v34h158v105h-158z" />
    <glyph glyph-name="peso.pl" horiz-adv-x="843" 
d="M56 405v34h104v174h319c81 0 128 -19 170 -61c28 -30 46 -69 49 -113h95v-34h-95c-3 -49 -24 -88 -55 -118c-41 -36 -78 -56 -164 -56h-268v-231h-51v405h-104zM479 568h-268v-129h436c-3 32 -16 60 -36 82c-30 29 -66 47 -132 47zM606 320c23 21 37 51 41 85h-436v-129
h267c65 0 98 16 128 44z" />
    <glyph glyph-name="peseta.pl" horiz-adv-x="1532" 
d="M163 0h-51v613h331c75 0 129 -17 170 -59c27 -28 43 -64 45 -103h89v140h48v-140h160v-38h-160v-303c0 -60 38 -82 79 -82c29 0 69 12 87 25l9 -36c-21 -17 -68 -31 -104 -31c-55 0 -119 31 -119 124v303h-90c-6 -36 -24 -67 -50 -91c-38 -37 -91 -54 -164 -54h-280v-268
zM443 568h-280v-254h280c54 0 97 12 128 41c23 22 37 53 37 86c0 30 -11 59 -34 83c-31 32 -75 44 -131 44zM1436 404l-20 -36c-30 23 -98 57 -172 57c-62 0 -134 -24 -134 -88c0 -66 81 -72 153 -75c77 -3 209 -10 209 -128c0 -100 -98 -147 -213 -147
c-106 0 -172 39 -216 72l20 35c42 -30 102 -68 196 -68c89 0 165 34 165 104c0 79 -98 85 -161 88c-93 5 -201 11 -201 114c0 100 100 132 181 132c86 0 160 -35 193 -60z" />
    <glyph glyph-name="rupiah.pl" horiz-adv-x="1338" 
d="M164 0h-51v613h347c87 0 133 -22 172 -60c28 -29 45 -68 45 -110c0 -85 -59 -153 -158 -166l161 -277h-57l-156 272h-303v-272zM460 568h-296v-250h322c86 0 140 56 140 125c0 31 -13 59 -34 81c-31 29 -65 44 -132 44zM872 -213h-47v557c0 34 -3 70 -14 107h45
c8 -25 12 -48 12 -73c44 46 109 85 186 85c122 0 227 -94 227 -237c0 -144 -110 -238 -238 -238c-76 0 -136 40 -171 81v-282zM872 341v-231c28 -31 88 -81 164 -81c107 0 193 77 193 197c0 118 -81 195 -182 195c-68 0 -133 -39 -175 -80z" />
    <glyph glyph-name="Rupee.pl" horiz-adv-x="807" 
d="M129 405v34h478c-3 34 -16 61 -36 82c-28 30 -70 47 -128 47h-313v45h623v-33h-201c57 -23 100 -72 106 -141h95v-34h-95c-3 -51 -24 -89 -54 -118c-41 -37 -88 -52 -165 -52l-213 3l377 -238h-91l-382 242v34h309c59 0 98 13 128 43c22 21 37 48 40 86h-478z" />
    <glyph glyph-name="section.pl" horiz-adv-x="722" 
d="M623 103c-27 -27 -65 -46 -102 -56c13 -6 25 -16 33 -25c10 -13 18 -31 18 -56c0 -100 -119 -135 -212 -135c-79 0 -159 25 -218 66l24 35c52 -36 123 -60 195 -60c64 0 160 21 160 94c0 17 -5 30 -14 39c-30 30 -100 33 -177 42c-90 11 -180 30 -236 81
c-31 31 -48 69 -48 112c0 47 19 85 47 113c25 26 65 48 103 60c-13 6 -22 13 -29 20c-14 16 -20 35 -20 60c0 102 119 136 212 136c79 0 159 -25 217 -66l-23 -35c-52 36 -123 60 -195 60c-63 0 -160 -21 -160 -94c0 -18 5 -32 16 -42c31 -28 99 -31 173 -40
c93 -10 185 -29 240 -84c28 -27 45 -63 45 -109c0 -48 -19 -87 -49 -116zM386 368c-51 6 -113 11 -156 25c-32 -10 -70 -28 -93 -51c-24 -25 -40 -57 -40 -96c0 -34 12 -64 38 -88c43 -41 117 -58 197 -67c56 -7 112 -11 155 -25c31 9 66 24 92 50c26 25 42 57 42 98
c1 36 -13 64 -35 85c-42 42 -118 60 -200 69z" />
    <glyph glyph-name="numbersign.pl" horiz-adv-x="918" 
d="M635 666h40l-37 -208h227v-38h-233l-44 -248h218v-38h-224l-42 -238h-40l41 238h-225l-42 -238h-40l41 238h-223v38h230l43 248h-214v38h221l37 208h40l-37 -208h226zM366 420l-44 -248h226l43 248h-225z" />
    <glyph glyph-name="percent.pl" horiz-adv-x="1072" 
d="M52 477c0 102 89 188 201 188c111 0 204 -86 204 -188c0 -104 -93 -189 -204 -189c-112 0 -201 85 -201 189zM742 653l-370 -653h-42l370 653h42zM97 477c0 -81 69 -149 156 -149c86 0 159 68 159 149s-73 149 -159 149c-87 0 -156 -68 -156 -149zM615 177
c0 102 89 188 201 188c111 0 204 -86 204 -188c0 -104 -93 -189 -204 -189c-112 0 -201 85 -201 189zM660 177c0 -82 70 -150 156 -150c87 0 160 68 160 150c0 81 -73 148 -160 148c-86 0 -156 -67 -156 -148z" />
    <glyph glyph-name="perthousand.pl" horiz-adv-x="1529" 
d="M52 477c0 102 89 188 201 188c111 0 204 -86 204 -188c0 -104 -93 -189 -204 -189c-112 0 -201 85 -201 189zM742 653l-370 -653h-42l371 653h41zM97 477c0 -81 70 -149 156 -149c87 0 160 68 160 149s-73 149 -160 149c-86 0 -156 -68 -156 -149zM616 177
c0 102 89 188 201 188c111 0 204 -86 204 -188c0 -104 -93 -189 -204 -189c-112 0 -201 85 -201 189zM661 177c0 -82 69 -150 156 -150c86 0 159 68 159 150c0 81 -73 148 -159 148c-87 0 -156 -67 -156 -148zM1076 177c0 102 89 188 201 188c111 0 204 -86 204 -188
c0 -104 -93 -189 -204 -189c-112 0 -201 85 -201 189zM1121 177c0 -82 70 -150 156 -150c87 0 160 68 160 150c0 81 -73 148 -160 148c-86 0 -156 -67 -156 -148z" />
    <glyph glyph-name="zero.tl" horiz-adv-x="764" 
d="M64 307c0 177 143 320 316 320c174 0 319 -143 319 -320c0 -179 -145 -321 -319 -321c-173 0 -316 142 -316 321zM115 307c0 -153 119 -276 265 -276c147 0 268 123 268 276c0 151 -121 275 -268 275c-146 0 -265 -124 -265 -275z" />
    <glyph glyph-name="one.tl" horiz-adv-x="764" 
d="M139 0v41h276v526l-266 -73l-13 41l279 78h51v-572h217v-41h-544z" />
    <glyph glyph-name="two.tl" horiz-adv-x="764" 
d="M138 493l-29 35c75 50 155 99 288 99c138 0 276 -51 276 -165c0 -130 -172 -160 -282 -188c-136 -34 -258 -88 -258 -215v-18h533v-41h-584v55c0 158 152 227 304 263c83 20 236 45 236 143c0 84 -113 121 -224 121c-119 0 -192 -43 -260 -89z" />
    <glyph glyph-name="three.tl" horiz-adv-x="764" 
d="M356 306v41h119c36 0 115 34 115 110c0 90 -110 125 -192 125c-100 0 -187 -50 -249 -104l-31 31c67 59 163 118 280 118c103 0 243 -45 243 -163c0 -72 -54 -115 -96 -129c54 -10 150 -48 150 -152c0 -126 -140 -197 -320 -197c-128 0 -232 38 -319 117l31 36
c68 -61 157 -108 289 -108c150 0 268 57 268 156c0 96 -116 119 -160 119h-128z" />
    <glyph glyph-name="four.tl" horiz-adv-x="764" 
d="M713 196v-41h-125v-155h-51v155h-497v42l493 416h55v-417h125zM112 200v-4h425v355h-11z" />
    <glyph glyph-name="five.tl" horiz-adv-x="764" 
d="M635 613v-45h-464v-216c62 33 124 57 230 57c147 0 291 -56 291 -199c0 -161 -164 -224 -320 -224s-255 65 -306 104l31 35c45 -36 136 -94 276 -94c131 0 268 51 268 178c0 114 -118 157 -241 157c-106 0 -178 -30 -242 -63l-34 25v285h511z" />
    <glyph glyph-name="six.tl" horiz-adv-x="764" 
d="M652 546l-31 -36c-51 45 -121 72 -200 72c-153 0 -297 -105 -297 -285c57 39 167 100 304 100c184 0 268 -106 268 -195c0 -116 -121 -216 -288 -216c-172 0 -331 106 -331 310c0 208 166 331 345 331c128 0 199 -55 230 -81zM424 356c-132 0 -246 -63 -298 -97
c18 -150 144 -228 283 -228c137 0 236 84 236 171c0 69 -66 154 -221 154z" />
    <glyph glyph-name="seven.tl" horiz-adv-x="764" 
d="M61 568v45h631v-45l-428 -568h-65l435 568h-573z" />
    <glyph glyph-name="eight.tl" horiz-adv-x="764" 
d="M382 -16c-149 0 -311 70 -311 192c0 98 102 152 206 167c-99 13 -155 57 -155 128c0 108 144 158 260 158s260 -50 260 -158c0 -71 -56 -115 -156 -128c105 -15 207 -69 207 -167c0 -122 -162 -192 -311 -192zM382 29c120 0 256 54 256 151c0 98 -140 142 -256 142
s-256 -44 -256 -142c0 -97 136 -151 256 -151zM382 362c130 0 205 37 205 105c0 83 -113 121 -205 121s-205 -38 -205 -121c0 -68 75 -105 205 -105z" />
    <glyph glyph-name="nine.tl" horiz-adv-x="764" 
d="M110 67l31 35c51 -44 121 -71 200 -71c153 0 297 104 298 284c-58 -39 -169 -99 -305 -99c-185 0 -268 106 -268 195c0 116 121 216 288 216c172 0 332 -106 332 -310c0 -208 -166 -331 -346 -331c-128 0 -199 55 -230 81zM338 257c132 0 245 63 299 97
c-18 150 -145 228 -284 228c-137 0 -236 -84 -236 -171c0 -69 65 -154 221 -154z" />
    <glyph glyph-name="dollar.tl" horiz-adv-x="764" 
d="M366 733h37v-109c115 -9 203 -54 249 -89l-30 -34c-39 33 -115 72 -219 81v-232c114 -5 295 -20 295 -169c0 -133 -137 -192 -295 -194v-137h-37v138c-147 6 -239 65 -303 121l29 34c57 -50 141 -106 274 -113v275c-132 8 -267 25 -267 149c0 131 146 172 261 172h6v107z
M649 175c0 108 -135 122 -246 128v-274c133 2 246 48 246 146zM148 457c0 -89 119 -100 218 -105v232h-7c-97 0 -211 -32 -211 -127z" />
    <glyph glyph-name="cent.tl" horiz-adv-x="764" 
d="M459 567h37l-30 -109c66 -10 129 -33 182 -70l-31 -32c-47 32 -104 52 -162 60l-103 -384c15 -2 31 -3 47 -3c119 0 196 49 227 76l33 -29c-23 -23 -113 -88 -260 -88c-20 0 -39 2 -57 4l-38 -142h-37l39 148c-127 27 -224 111 -224 229c0 142 139 236 311 236
c12 0 25 0 37 -1zM134 227c0 -97 78 -166 183 -189l102 382c-9 0 -18 1 -26 1c-144 0 -259 -77 -259 -194z" />
    <glyph glyph-name="Euro.tl" horiz-adv-x="764" 
d="M57 364v34h90c38 132 154 229 292 229c96 0 184 -37 246 -98l-32 -35c-54 54 -131 88 -214 88c-110 0 -204 -78 -239 -184h316v-34h-325c-3 -19 -5 -38 -5 -57c0 -17 1 -33 4 -48h326v-34h-319c33 -112 129 -194 242 -194c86 0 165 38 223 97l31 -35
c-66 -66 -155 -107 -254 -107c-141 0 -259 102 -294 239h-88v34h81c-2 15 -3 32 -3 48c0 19 2 38 5 57h-83z" />
    <glyph glyph-name="sterling.tl" horiz-adv-x="764" 
d="M72 310v38h155v101c0 123 114 178 223 178c60 0 154 -30 228 -74l-25 -35c-67 37 -151 64 -203 64c-84 0 -172 -41 -172 -133v-101h285v-38h-285v-130c0 -86 -21 -124 -76 -139h475v-41h-605v41h39c86 0 116 24 116 139v130h-155z" />
    <glyph glyph-name="yen.tl" horiz-adv-x="764" 
d="M80 364v34h194l-166 215h64l212 -274l211 274h60l-167 -215h196v-34h-222l-55 -71v-34h277v-34h-277v-225h-51v225h-276v34h276v34l-55 71h-221z" />
    <glyph glyph-name="florin.tl" horiz-adv-x="764" 
d="M235 348h113l27 125c25 114 113 154 178 154c45 0 92 -20 109 -38l-20 -37c-14 16 -54 34 -90 34c-51 0 -111 -32 -129 -113l-27 -125h142v-38h-150l-66 -310c-27 -126 -119 -170 -191 -170v37c53 4 123 35 144 133l65 310h-105v38z" />
    <glyph glyph-name="colonmonetary.tl" horiz-adv-x="764" 
d="M549 733h33l-28 -130c54 -18 102 -46 141 -82l-32 -29c-34 29 -74 52 -118 68l-114 -531c95 5 181 51 243 110l32 -29c-71 -68 -172 -120 -284 -123l-29 -137h-33l29 138c-40 2 -79 10 -114 22l-34 -160h-33l37 173c-114 53 -189 160 -189 284c0 166 136 303 318 318
l23 108h33l-23 -106c40 0 79 -5 116 -15zM107 307c0 -102 57 -191 147 -239l110 513c-147 -19 -257 -135 -257 -274zM284 54c35 -14 73 -24 114 -25l116 541c-34 9 -70 14 -107 14h-9z" />
    <glyph glyph-name="franc.tl" horiz-adv-x="764" 
d="M56 164v33h115v416h537v-45h-486v-194h305v-45h-305v-132h198v-33h-198v-164h-51v164h-115z" />
    <glyph glyph-name="lira.tl" horiz-adv-x="764" 
d="M83 364v34h153v51c0 123 112 178 220 178c60 0 152 -30 226 -74l-25 -35c-66 37 -149 64 -201 64c-82 0 -169 -41 -169 -133v-51h282v-34h-282v-105h282v-34h-282v-45c0 -86 -21 -124 -75 -139h469v-41h-598v41h38c85 0 115 24 115 139v45h-153v34h153v105h-153z" />
    <glyph glyph-name="peso.tl" horiz-adv-x="764" 
d="M44 405v34h97v174h282c81 0 128 -19 171 -61c27 -30 45 -69 48 -113h89v-34h-89c-3 -49 -24 -88 -55 -118c-41 -36 -78 -56 -164 -56h-231v-231h-51v405h-97zM423 568h-231v-129h399c-3 32 -16 60 -36 82c-30 29 -65 47 -132 47zM550 320c23 21 37 51 41 85h-399v-129
h231c64 0 97 16 127 44z" />
    <glyph glyph-name="Rupee.tl" horiz-adv-x="764" 
d="M86 405v34h479c-3 34 -17 61 -37 82c-28 30 -69 47 -128 47h-313v45h623v-33h-201c57 -23 100 -72 107 -141h94v-34h-94c-3 -51 -25 -89 -55 -118c-41 -37 -88 -52 -165 -52l-213 3l378 -238h-92l-382 242v34h309c59 0 98 13 128 43c22 21 37 48 41 86h-479z" />
    <glyph glyph-name="section.tl" horiz-adv-x="764" 
d="M653 103c-28 -27 -69 -46 -107 -56c14 -6 26 -16 35 -25c10 -13 18 -31 18 -56c0 -100 -123 -135 -219 -135c-82 0 -164 25 -225 66l24 35c53 -36 127 -60 201 -60c69 0 168 21 168 94c0 17 -5 30 -14 39c-31 30 -105 33 -185 42c-94 11 -187 30 -244 81
c-33 31 -49 69 -49 112c0 47 19 85 48 113c26 26 68 48 107 60c-13 6 -23 13 -30 20c-14 16 -21 35 -21 60c0 102 123 136 219 136c83 0 165 -25 226 -66l-24 -35c-54 36 -128 60 -203 60c-66 0 -167 -21 -167 -94c0 -18 6 -32 17 -42c32 -28 103 -31 181 -40
c97 -10 191 -29 247 -84c30 -27 48 -63 48 -109c0 -48 -20 -87 -51 -116zM408 368c-54 6 -118 11 -162 25c-34 -10 -74 -28 -99 -51c-24 -25 -40 -57 -40 -96c-1 -34 11 -64 38 -88c45 -41 122 -58 206 -67c59 -7 117 -11 160 -25c33 9 70 24 98 50c27 25 44 57 44 98
c0 36 -14 64 -37 85c-43 42 -124 60 -208 69z" />
    <glyph glyph-name="numbersign.tl" horiz-adv-x="764" 
d="M527 666h39l-31 -208h188v-38h-193l-37 -248h181v-38h-186l-35 -238h-39l35 238h-185l-35 -238h-39l35 238h-186v38h191l37 248h-179v38h185l31 208h39l-31 -208h184zM306 420l-37 -248h185l37 248h-185z" />
    <glyph glyph-name="percent.tl" horiz-adv-x="764" 
d="M24 477c0 102 65 188 148 188c82 0 150 -86 150 -188c0 -104 -68 -189 -150 -189c-83 0 -148 85 -148 189zM538 653l-273 -653h-41l274 653h40zM64 477c0 -81 49 -149 108 -149s110 68 110 149s-51 149 -110 149s-108 -68 -108 -149zM441 177c0 102 65 188 148 188
c82 0 150 -86 150 -188c0 -104 -68 -189 -150 -189c-83 0 -148 85 -148 189zM481 177c0 -82 48 -150 108 -150c59 0 110 68 110 150c0 81 -51 148 -110 148c-60 0 -108 -67 -108 -148z" />
    <glyph glyph-name="zero.superior" unicode="&#x2070;" horiz-adv-x="580" 
d="M43 437c0 126 112 227 246 227c135 0 247 -101 247 -227c0 -127 -112 -228 -247 -228c-134 0 -246 101 -246 228zM89 437c0 -104 90 -187 200 -187s202 83 202 187c0 103 -92 186 -202 186s-200 -83 -200 -186z" />
    <glyph glyph-name="one.superior" unicode="&#xb9;" horiz-adv-x="295" 
d="M18 557l-10 36l144 60h46v-433h-46v392z" />
    <glyph glyph-name="two.superior" unicode="&#xb2;" horiz-adv-x="476" 
d="M84 560l-26 32c50 36 102 72 190 72c90 0 181 -37 181 -118c0 -94 -115 -116 -185 -136c-82 -22 -155 -59 -155 -142v-11h334v-37h-379v44c0 110 98 160 197 186c47 12 142 30 142 96c0 54 -68 77 -134 77c-75 0 -122 -29 -165 -63z" />
    <glyph glyph-name="three.superior" unicode="&#xb3;" horiz-adv-x="544" 
d="M253 432v36h87c27 0 80 24 80 73c0 60 -77 82 -135 82c-71 0 -135 -34 -180 -72l-27 27c50 43 121 86 207 86c76 0 180 -32 180 -116c0 -50 -38 -81 -67 -91c38 -7 106 -34 106 -106c0 -91 -104 -142 -235 -142c-94 0 -171 27 -235 85l27 31c49 -43 114 -75 208 -75
c106 0 190 37 190 104c0 63 -81 78 -113 78h-93z" />
    <glyph glyph-name="four.superior" unicode="&#x2074;" horiz-adv-x="557" 
d="M524 364v-37h-90v-107h-45v107h-360v35l359 291h46v-289h90zM95 366v-2h294v233h-8c-94 -75 -193 -156 -286 -231z" />
    <glyph glyph-name="five.superior" unicode="&#x2075;" horiz-adv-x="514" 
d="M433 653v-40h-313v-143c41 23 84 40 155 40c101 0 201 -41 201 -142c0 -115 -115 -159 -224 -159s-178 40 -213 64l24 35c31 -22 93 -58 189 -58c87 0 179 33 179 118c0 74 -77 103 -157 103c-73 0 -123 -22 -167 -45l-30 22v205h356z" />
    <glyph glyph-name="six.superior" unicode="&#x2076;" horiz-adv-x="526" 
d="M459 608l-27 -32c-36 30 -86 47 -140 47c-106 0 -204 -69 -205 -190c42 28 118 68 211 68c130 0 190 -74 190 -138c0 -83 -86 -154 -205 -154c-123 0 -239 76 -239 220c0 148 119 235 248 235c93 0 145 -39 167 -56zM295 465c-89 0 -167 -42 -206 -66
c14 -99 100 -149 195 -149c92 0 159 55 159 114c0 45 -44 101 -148 101z" />
    <glyph glyph-name="seven.superior" unicode="&#x2077;" horiz-adv-x="461" 
d="M31 613v40h400v-40l-263 -393h-59l270 393h-348z" />
    <glyph glyph-name="eight.superior" unicode="&#x2078;" horiz-adv-x="526" 
d="M263 208c-108 0 -222 49 -222 136c0 69 69 107 140 117c-68 9 -106 40 -106 91c0 77 105 113 188 113c84 0 188 -36 188 -113c0 -51 -38 -82 -106 -91c71 -10 140 -48 140 -117c0 -87 -114 -136 -222 -136zM263 248c82 0 174 36 174 100c0 65 -96 95 -174 95
s-173 -30 -173 -95c0 -64 91 -100 173 -100zM263 478c89 0 139 25 139 70c0 55 -77 81 -139 81s-139 -26 -139 -81c0 -45 51 -70 139 -70z" />
    <glyph glyph-name="nine.superior" unicode="&#x2079;" horiz-adv-x="526" 
d="M67 265l28 32c36 -30 85 -47 140 -47c105 0 205 69 206 191c-42 -29 -119 -69 -213 -69c-130 0 -190 74 -190 138c0 83 87 154 205 154c124 0 239 -76 239 -220c0 -148 -119 -235 -248 -235c-93 0 -144 39 -167 56zM232 408c90 0 168 42 207 67c-16 98 -102 148 -196 148
c-92 0 -159 -55 -159 -114c0 -45 44 -101 148 -101z" />
    <glyph glyph-name="zero.inferior" unicode="&#x2080;" horiz-adv-x="579" 
d="M43 49c0 126 112 227 245 227c135 0 248 -101 248 -227c0 -127 -113 -228 -248 -228c-133 0 -245 101 -245 228zM88 49c0 -104 90 -187 200 -187c111 0 203 83 203 187c0 103 -92 186 -203 186c-110 0 -200 -83 -200 -186z" />
    <glyph glyph-name="one.inferior" unicode="&#x2081;" horiz-adv-x="294" 
d="M17 169l-10 36l145 60h45v-433h-45v392z" />
    <glyph glyph-name="two.inferior" unicode="&#x2082;" horiz-adv-x="477" 
d="M84 172l-26 32c50 36 102 72 190 72c90 0 180 -37 180 -118c0 -94 -114 -116 -184 -136c-82 -22 -155 -59 -155 -142v-11h334v-37h-379v44c0 110 98 160 197 186c47 12 142 30 142 96c0 54 -68 77 -134 77c-75 0 -122 -29 -165 -63z" />
    <glyph glyph-name="three.inferior" unicode="&#x2083;" horiz-adv-x="545" 
d="M253 44v36h87c27 0 79 24 79 73c0 60 -77 82 -135 82c-71 0 -134 -34 -179 -72l-27 27c50 43 120 86 207 86c75 0 180 -32 180 -116c0 -50 -39 -81 -67 -91c38 -7 105 -34 105 -106c0 -91 -104 -142 -234 -142c-95 0 -171 27 -236 85l28 31c49 -43 113 -75 208 -75
c105 0 189 37 189 104c0 63 -80 78 -112 78h-93z" />
    <glyph glyph-name="four.inferior" unicode="&#x2084;" horiz-adv-x="555" 
d="M524 -24v-37h-90v-107h-45v107h-360v35l359 291h46v-289h90zM95 -22v-2h294v233h-8c-94 -75 -193 -156 -286 -231z" />
    <glyph glyph-name="five.inferior" unicode="&#x2085;" horiz-adv-x="514" 
d="M433 265v-40h-313v-143c41 23 84 40 155 40c101 0 201 -41 201 -142c0 -115 -115 -159 -224 -159s-178 40 -213 64l24 35c31 -22 93 -58 189 -58c87 0 179 33 179 118c0 74 -77 103 -157 103c-73 0 -123 -22 -167 -45l-30 22v205h356z" />
    <glyph glyph-name="six.inferior" unicode="&#x2086;" horiz-adv-x="526" 
d="M460 220l-28 -32c-36 30 -86 47 -140 47c-106 0 -204 -69 -205 -190c42 28 118 68 211 68c131 0 190 -74 190 -138c0 -83 -86 -154 -205 -154c-123 0 -238 76 -238 220c0 148 118 235 248 235c93 0 144 -39 167 -56zM295 77c-89 0 -167 -42 -206 -66
c14 -98 100 -149 195 -149c92 0 159 55 159 114c0 45 -44 101 -148 101z" />
    <glyph glyph-name="seven.inferior" unicode="&#x2087;" horiz-adv-x="460" 
d="M32 225v40h400v-40l-264 -393h-58l270 393h-348z" />
    <glyph glyph-name="eight.inferior" unicode="&#x2088;" horiz-adv-x="526" 
d="M263 -180c-108 0 -222 49 -222 136c0 69 69 107 140 117c-68 9 -106 40 -106 91c0 77 105 113 188 113c84 0 188 -36 188 -113c0 -51 -38 -82 -106 -91c71 -10 140 -48 140 -117c0 -87 -114 -136 -222 -136zM263 -140c82 0 174 36 174 100c0 65 -96 95 -174 95
s-173 -30 -173 -95c0 -64 91 -100 173 -100zM263 90c89 0 139 25 139 70c0 55 -77 81 -139 81s-139 -26 -139 -81c0 -45 51 -70 139 -70z" />
    <glyph glyph-name="nine.inferior" unicode="&#x2089;" horiz-adv-x="526" 
d="M67 -123l28 32c36 -30 85 -47 140 -47c105 0 205 70 206 191c-42 -29 -119 -69 -213 -69c-130 0 -190 74 -190 138c0 83 87 154 205 154c124 0 239 -76 239 -220c0 -148 -119 -235 -248 -235c-93 0 -144 39 -167 56zM232 20c90 0 168 42 207 67c-16 98 -102 148 -196 148
c-92 0 -159 -55 -159 -114c0 -45 44 -101 148 -101z" />
    <glyph glyph-name="zero.numerator" horiz-adv-x="579" 
d="M43 437c0 126 112 227 245 227c135 0 248 -101 248 -227c0 -127 -113 -228 -248 -228c-133 0 -245 101 -245 228zM88 437c0 -104 90 -187 200 -187c111 0 203 83 203 187c0 103 -92 186 -203 186c-110 0 -200 -83 -200 -186z" />
    <glyph glyph-name="one.numerator" horiz-adv-x="294" 
d="M17 557l-10 36l145 60h45v-433h-45v392z" />
    <glyph glyph-name="two.numerator" horiz-adv-x="477" 
d="M84 560l-26 32c50 36 102 72 190 72c90 0 180 -37 180 -118c0 -94 -114 -116 -184 -136c-82 -22 -155 -59 -155 -142v-11h334v-37h-379v44c0 110 98 160 197 186c47 12 142 30 142 96c0 54 -68 77 -134 77c-75 0 -122 -29 -165 -63z" />
    <glyph glyph-name="three.numerator" horiz-adv-x="545" 
d="M253 432v36h87c27 0 80 24 80 73c0 60 -77 82 -135 82c-71 0 -135 -34 -180 -72l-27 27c50 43 121 86 207 86c76 0 180 -32 180 -116c0 -50 -38 -81 -67 -91c38 -7 106 -34 106 -106c0 -91 -104 -142 -235 -142c-94 0 -171 27 -235 85l27 31c49 -43 114 -75 208 -75
c106 0 190 37 190 104c0 63 -81 78 -113 78h-93z" />
    <glyph glyph-name="four.numerator" horiz-adv-x="555" 
d="M524 364v-37h-90v-107h-45v107h-360v35l359 291h46v-289h90zM95 366v-2h294v233h-8c-94 -75 -193 -156 -286 -231z" />
    <glyph glyph-name="five.numerator" horiz-adv-x="514" 
d="M433 653v-40h-313v-143c41 23 84 40 155 40c101 0 201 -41 201 -142c0 -115 -115 -159 -224 -159s-178 40 -213 64l24 35c31 -22 93 -58 189 -58c87 0 179 33 179 118c0 74 -77 103 -157 103c-73 0 -123 -22 -167 -45l-30 22v205h356z" />
    <glyph glyph-name="six.numerator" horiz-adv-x="526" 
d="M460 608l-28 -32c-36 30 -86 47 -140 47c-106 0 -204 -69 -205 -190c42 28 118 68 211 68c131 0 190 -74 190 -138c0 -83 -86 -154 -205 -154c-123 0 -238 76 -238 220c0 148 118 235 248 235c93 0 144 -39 167 -56zM295 465c-89 0 -167 -42 -206 -66
c14 -99 100 -149 195 -149c92 0 159 55 159 114c0 45 -44 101 -148 101z" />
    <glyph glyph-name="seven.numerator" horiz-adv-x="460" 
d="M32 613v40h400v-40l-264 -393h-58l270 393h-348z" />
    <glyph glyph-name="eight.numerator" horiz-adv-x="526" 
d="M263 208c-108 0 -222 49 -222 136c0 69 69 107 140 117c-68 9 -106 40 -106 91c0 77 105 113 188 113c84 0 188 -36 188 -113c0 -51 -38 -82 -106 -91c71 -10 140 -48 140 -117c0 -87 -114 -136 -222 -136zM263 248c82 0 174 36 174 100c0 65 -96 95 -174 95
s-173 -30 -173 -95c0 -64 91 -100 173 -100zM263 478c89 0 139 25 139 70c0 55 -77 81 -139 81s-139 -26 -139 -81c0 -45 51 -70 139 -70z" />
    <glyph glyph-name="nine.numerator" horiz-adv-x="526" 
d="M67 265l28 32c36 -30 85 -47 140 -47c105 0 205 69 206 191c-42 -29 -119 -69 -213 -69c-130 0 -190 74 -190 138c0 83 87 154 205 154c124 0 239 -76 239 -220c0 -148 -119 -235 -248 -235c-93 0 -144 39 -167 56zM232 408c90 0 168 42 207 67c-16 98 -102 148 -196 148
c-92 0 -159 -55 -159 -114c0 -45 44 -101 148 -101z" />
    <glyph glyph-name="zero.denominator" horiz-adv-x="579" 
d="M43 217c0 126 112 227 245 227c135 0 248 -101 248 -227c0 -127 -113 -228 -248 -228c-133 0 -245 101 -245 228zM88 217c0 -104 90 -187 200 -187c111 0 203 83 203 187c0 103 -92 186 -203 186c-110 0 -200 -83 -200 -186z" />
    <glyph glyph-name="one.denominator" horiz-adv-x="294" 
d="M17 337l-10 36l145 60h45v-433h-45v392z" />
    <glyph glyph-name="two.denominator" horiz-adv-x="477" 
d="M84 340l-26 32c50 36 102 72 190 72c90 0 180 -37 180 -118c0 -94 -114 -116 -184 -136c-82 -22 -155 -59 -155 -142v-11h334v-37h-379v44c0 110 98 160 197 186c47 12 142 30 142 96c0 54 -68 77 -134 77c-75 0 -122 -29 -165 -63z" />
    <glyph glyph-name="three.denominator" horiz-adv-x="545" 
d="M253 212v36h87c27 0 79 24 79 73c0 60 -77 82 -135 82c-71 0 -134 -34 -179 -72l-27 27c50 43 120 86 207 86c75 0 180 -32 180 -116c0 -50 -39 -81 -67 -91c38 -7 105 -34 105 -106c0 -91 -104 -142 -234 -142c-95 0 -171 27 -236 85l28 31c49 -43 113 -75 208 -75
c105 0 189 37 189 104c0 63 -80 78 -112 78h-93z" />
    <glyph glyph-name="four.denominator" horiz-adv-x="555" 
d="M524 144v-37h-90v-107h-45v107h-360v35l359 291h46v-289h90zM95 146v-2h294v233h-8c-94 -75 -193 -156 -286 -231z" />
    <glyph glyph-name="five.denominator" horiz-adv-x="514" 
d="M433 433v-40h-313v-143c41 23 84 40 155 40c101 0 201 -41 201 -142c0 -115 -115 -159 -224 -159s-178 40 -213 64l24 35c31 -22 93 -58 189 -58c87 0 179 33 179 118c0 74 -77 103 -157 103c-73 0 -123 -22 -167 -45l-30 22v205h356z" />
    <glyph glyph-name="six.denominator" horiz-adv-x="526" 
d="M460 388l-28 -32c-36 30 -86 47 -140 47c-106 0 -204 -69 -205 -190c42 28 118 68 211 68c131 0 190 -74 190 -138c0 -83 -86 -154 -205 -154c-123 0 -238 76 -238 220c0 148 118 235 248 235c93 0 144 -39 167 -56zM295 245c-89 0 -167 -42 -206 -66
c14 -99 100 -149 195 -149c92 0 159 55 159 114c0 45 -44 101 -148 101z" />
    <glyph glyph-name="seven.denominator" horiz-adv-x="460" 
d="M32 393v40h400v-40l-264 -393h-58l270 393h-348z" />
    <glyph glyph-name="eight.denominator" horiz-adv-x="526" 
d="M263 -12c-108 0 -222 49 -222 136c0 69 69 107 140 117c-68 9 -106 40 -106 91c0 77 105 113 188 113c84 0 188 -36 188 -113c0 -51 -38 -82 -106 -91c71 -10 140 -48 140 -117c0 -87 -114 -136 -222 -136zM263 28c82 0 174 36 174 100c0 65 -96 95 -174 95
s-173 -30 -173 -95c0 -64 91 -100 173 -100zM263 258c89 0 139 25 139 70c0 55 -77 81 -139 81s-139 -26 -139 -81c0 -45 51 -70 139 -70z" />
    <glyph glyph-name="nine.denominator" horiz-adv-x="526" 
d="M67 45l28 32c36 -30 85 -47 140 -47c105 0 205 69 206 191c-42 -29 -119 -69 -213 -69c-130 0 -190 74 -190 138c0 83 87 154 205 154c124 0 239 -76 239 -220c0 -148 -119 -235 -248 -235c-93 0 -144 39 -167 56zM232 188c90 0 168 42 207 67c-16 98 -102 148 -196 148
c-92 0 -159 -55 -159 -114c0 -45 44 -101 148 -101z" />
    <glyph glyph-name="onehalf" unicode="&#xbd;" horiz-adv-x="991" 
d="M17 557l-10 36l145 60h45v-433h-45v392zM611 653l-370 -653h-42l371 653h41zM598 340l-26 32c50 36 102 72 190 72c90 0 180 -37 180 -118c0 -94 -114 -116 -184 -136c-82 -22 -155 -59 -155 -142v-11h334v-37h-379v44c0 110 98 160 197 186c47 12 142 30 142 96
c0 54 -68 77 -134 77c-75 0 -122 -29 -165 -63z" />
    <glyph glyph-name="onequarter" unicode="&#xbc;" horiz-adv-x="1018" 
d="M17 557l-10 36l145 60h45v-433h-45v392zM611 653l-370 -653h-42l371 653h41zM987 144v-37h-90v-107h-45v107h-360v35l359 291h46v-289h90zM558 146v-2h294v233h-8c-94 -75 -193 -156 -286 -231z" />
    <glyph glyph-name="threequarters" unicode="&#xbe;" horiz-adv-x="1269" 
d="M253 432v36h87c27 0 80 24 80 73c0 60 -77 82 -135 82c-71 0 -135 -34 -180 -72l-27 27c50 43 121 86 207 86c76 0 180 -32 180 -116c0 -50 -38 -81 -67 -91c38 -7 106 -34 106 -106c0 -91 -104 -142 -235 -142c-94 0 -171 27 -235 85l27 31c49 -43 114 -75 208 -75
c106 0 190 37 190 104c0 63 -81 78 -113 78h-93zM862 653l-370 -653h-42l371 653h41zM1238 144v-37h-90v-107h-45v107h-360v35l359 291h46v-289h90zM809 146v-2h294v233h-8c-94 -75 -193 -156 -286 -231z" />
    <glyph glyph-name="onethird" unicode="&#x2153;" horiz-adv-x="1059" 
d="M17 557l-10 36l145 60h45v-433h-45v392zM611 653l-370 -653h-42l371 653h41zM767 212v36h87c27 0 79 24 79 73c0 60 -77 82 -135 82c-71 0 -134 -34 -179 -72l-27 27c50 43 120 86 207 86c75 0 180 -32 180 -116c0 -50 -39 -81 -67 -91c38 -7 105 -34 105 -106
c0 -91 -104 -142 -234 -142c-95 0 -171 27 -236 85l28 31c49 -43 113 -75 208 -75c105 0 189 37 189 104c0 63 -80 78 -112 78h-93z" />
    <glyph glyph-name="twothirds" unicode="&#x2154;" horiz-adv-x="1242" 
d="M84 560l-26 32c50 36 102 72 190 72c90 0 180 -37 180 -118c0 -94 -114 -116 -184 -136c-82 -22 -155 -59 -155 -142v-11h334v-37h-379v44c0 110 98 160 197 186c47 12 142 30 142 96c0 54 -68 77 -134 77c-75 0 -122 -29 -165 -63zM794 653l-370 -653h-42l371 653h41z
M950 212v36h87c27 0 79 24 79 73c0 60 -77 82 -135 82c-71 0 -134 -34 -179 -72l-27 27c50 43 120 86 207 86c75 0 180 -32 180 -116c0 -50 -39 -81 -67 -91c38 -7 105 -34 105 -106c0 -91 -104 -142 -234 -142c-95 0 -171 27 -236 85l28 31c49 -43 113 -75 208 -75
c105 0 189 37 189 104c0 63 -80 78 -112 78h-93z" />
    <glyph glyph-name="oneeighth" unicode="&#x215b;" horiz-adv-x="1040" 
d="M17 557l-10 36l145 60h45v-433h-45v392zM611 653l-370 -653h-42l371 653h41zM777 -12c-108 0 -222 49 -222 136c0 69 69 107 140 117c-68 9 -106 40 -106 91c0 77 105 113 188 113c84 0 188 -36 188 -113c0 -51 -38 -82 -106 -91c71 -10 140 -48 140 -117
c0 -87 -114 -136 -222 -136zM777 28c82 0 174 36 174 100c0 65 -96 95 -174 95s-173 -30 -173 -95c0 -64 91 -100 173 -100zM777 258c89 0 139 25 139 70c0 55 -77 81 -139 81s-139 -26 -139 -81c0 -45 51 -70 139 -70z" />
    <glyph glyph-name="threeeighths" unicode="&#x215c;" horiz-adv-x="1291" 
d="M253 432v36h87c27 0 80 24 80 73c0 60 -77 82 -135 82c-71 0 -135 -34 -180 -72l-27 27c50 43 121 86 207 86c76 0 180 -32 180 -116c0 -50 -38 -81 -67 -91c38 -7 106 -34 106 -106c0 -91 -104 -142 -235 -142c-94 0 -171 27 -235 85l27 31c49 -43 114 -75 208 -75
c106 0 190 37 190 104c0 63 -81 78 -113 78h-93zM862 653l-370 -653h-42l371 653h41zM1028 -12c-108 0 -222 49 -222 136c0 69 69 107 140 117c-68 9 -106 40 -106 91c0 77 105 113 188 113c84 0 188 -36 188 -113c0 -51 -38 -82 -106 -91c71 -10 140 -48 140 -117
c0 -87 -114 -136 -222 -136zM1028 28c82 0 174 36 174 100c0 65 -96 95 -174 95s-173 -30 -173 -95c0 -64 91 -100 173 -100zM1028 258c89 0 139 25 139 70c0 55 -77 81 -139 81s-139 -26 -139 -81c0 -45 51 -70 139 -70z" />
    <glyph glyph-name="fiveeighths" unicode="&#x215d;" horiz-adv-x="1260" 
d="M433 653v-40h-313v-143c41 23 84 40 155 40c101 0 201 -41 201 -142c0 -115 -115 -159 -224 -159s-178 40 -213 64l24 35c31 -22 93 -58 189 -58c87 0 179 33 179 118c0 74 -77 103 -157 103c-73 0 -123 -22 -167 -45l-30 22v205h356zM831 653l-370 -653h-42l371 653h41z
M997 -12c-108 0 -222 49 -222 136c0 69 69 107 140 117c-68 9 -106 40 -106 91c0 77 105 113 188 113c84 0 188 -36 188 -113c0 -51 -38 -82 -106 -91c71 -10 140 -48 140 -117c0 -87 -114 -136 -222 -136zM997 28c82 0 174 36 174 100c0 65 -96 95 -174 95
s-173 -30 -173 -95c0 -64 91 -100 173 -100zM997 258c89 0 139 25 139 70c0 55 -77 81 -139 81s-139 -26 -139 -81c0 -45 51 -70 139 -70z" />
    <glyph glyph-name="seveneighths" unicode="&#x215e;" horiz-adv-x="1137" 
d="M32 613v40h400v-40l-264 -393h-58l270 393h-348zM708 653l-370 -653h-42l371 653h41zM874 -12c-108 0 -222 49 -222 136c0 69 69 107 140 117c-68 9 -106 40 -106 91c0 77 105 113 188 113c84 0 188 -36 188 -113c0 -51 -38 -82 -106 -91c71 -10 140 -48 140 -117
c0 -87 -114 -136 -222 -136zM874 28c82 0 174 36 174 100c0 65 -96 95 -174 95s-173 -30 -173 -95c0 -64 91 -100 173 -100zM874 258c89 0 139 25 139 70c0 55 -77 81 -139 81s-139 -26 -139 -81c0 -45 51 -70 139 -70z" />
    <glyph glyph-name="fraction" unicode="&#x2044;" horiz-adv-x="220" 
d="M317 653l-370 -653h-42l371 653h41z" />
    <glyph glyph-name="Aacute" unicode="&#xc1;" horiz-adv-x="750" 
d="M98 0h-53l303 653h54l303 -653h-56l-103 225h-345zM371 595l-151 -329h307l-150 329h-6zM316 743l144 115l61 -5l-163 -114z" />
    <glyph glyph-name="Agrave" unicode="&#xc0;" horiz-adv-x="750" 
d="M98 0h-53l303 653h54l303 -653h-56l-103 225h-345zM371 595l-151 -329h307l-150 329h-6zM390 739l-163 114l62 5l144 -115z" />
    <glyph glyph-name="Acircumflex" unicode="&#xc2;" horiz-adv-x="750" 
d="M98 0h-53l303 653h54l303 -653h-56l-103 225h-345zM371 595l-151 -329h307l-150 329h-6zM237 743l113 115h50l112 -115l-37 -4l-100 89l-101 -89z" />
    <glyph glyph-name="Adieresis" unicode="&#xc4;" horiz-adv-x="750" 
d="M98 0h-53l303 653h54l303 -653h-56l-103 225h-345zM371 595l-151 -329h307l-150 329h-6zM468 819c19 0 33 -14 33 -31c0 -18 -14 -31 -33 -31s-33 13 -33 31c0 17 14 31 33 31zM281 819c20 0 34 -14 34 -31c0 -18 -14 -31 -34 -31c-19 0 -33 13 -33 31c0 17 14 31 33 31z
" />
    <glyph glyph-name="Atilde" unicode="&#xc3;" horiz-adv-x="750" 
d="M98 0h-53l303 653h54l303 -653h-56l-103 225h-345zM371 595l-151 -329h307l-150 329h-6zM254 745l-32 18c26 40 51 66 86 66c24 0 42 -13 67 -32c18 -14 38 -28 60 -28c23 0 41 24 57 47l30 -17c-24 -38 -50 -66 -86 -66c-28 0 -52 13 -70 28c-23 18 -38 31 -56 31
c-23 0 -40 -25 -56 -47z" />
    <glyph glyph-name="Aring" unicode="&#xc5;" horiz-adv-x="750" 
d="M98 0h-53l303 653h54l303 -653h-56l-103 225h-345zM371 595l-151 -329h307l-150 329h-6zM296 786c0 -37 30 -65 77 -65c46 0 78 28 78 65c0 38 -32 67 -78 67c-47 0 -77 -29 -77 -67zM373 696c-68 0 -108 40 -108 90s40 91 108 91s110 -41 110 -91s-42 -90 -110 -90z" />
    <glyph glyph-name="Abreve" unicode="&#x102;" horiz-adv-x="750" 
d="M98 0h-53l303 653h54l303 -653h-56l-103 225h-345zM371 595l-151 -329h307l-150 329h-6zM248 854h37c0 -40 16 -90 90 -90s90 50 90 90h36c0 -53 -22 -123 -126 -123s-127 70 -127 123z" />
    <glyph glyph-name="Amacron" unicode="&#x100;" horiz-adv-x="750" 
d="M98 0h-53l303 653h54l303 -653h-56l-103 225h-345zM371 595l-151 -329h307l-150 329h-6zM252 812h246v-37h-246v37z" />
    <glyph glyph-name="Aogonek" unicode="&#x104;" horiz-adv-x="750" 
d="M98 0h-53l303 653h54l303 -653h-19c-40 -17 -134 -62 -134 -126c0 -42 40 -67 101 -67c22 0 45 4 69 8l4 -31c-26 -6 -54 -9 -80 -9c-84 0 -136 35 -136 92c0 68 84 117 135 140l-99 218h-345zM371 595l-151 -329h307l-150 329h-6z" />
    <glyph glyph-name="Aringacute" unicode="&#x1fa;" horiz-adv-x="750" 
d="M98 0h-53l303 653h54l303 -653h-56l-103 225h-345zM371 595l-151 -329h307l-150 329h-6zM296 786c0 -37 30 -65 77 -65c46 0 78 28 78 65c0 38 -32 67 -78 67c-47 0 -77 -29 -77 -67zM373 696c-68 0 -108 40 -108 90s40 91 108 91s110 -41 110 -91s-42 -90 -110 -90z
M316 915l144 115l61 -5l-163 -114z" />
    <glyph glyph-name="Ccedilla" unicode="&#xc7;" horiz-adv-x="789" 
d="M700 142l34 -33c-72 -70 -177 -123 -301 -123h-6l-18 -57c16 4 34 8 54 8c43 0 92 -20 92 -75c0 -56 -65 -87 -151 -87c-55 0 -105 12 -148 24l8 28c42 -10 91 -22 138 -22c63 0 110 20 110 58s-34 48 -64 48c-20 0 -41 -5 -59 -10l-18 18l22 69
c-186 18 -320 163 -320 339c0 187 155 340 358 340c113 0 218 -43 289 -108l-34 -35c-64 60 -159 98 -254 98c-174 0 -306 -134 -306 -295c0 -163 133 -296 308 -296c106 0 200 47 266 111z" />
    <glyph glyph-name="Cacute" unicode="&#x106;" horiz-adv-x="789" 
d="M700 142l34 -33c-72 -70 -177 -123 -301 -123c-206 0 -360 153 -360 341c0 187 155 340 358 340c113 0 218 -43 289 -108l-34 -35c-64 60 -159 98 -254 98c-174 0 -306 -134 -306 -295c0 -163 133 -296 308 -296c106 0 200 47 266 111zM374 743l144 115l61 -5l-163 -114z
" />
    <glyph glyph-name="Ccaron" unicode="&#x10c;" horiz-adv-x="789" 
d="M700 142l34 -33c-72 -70 -177 -123 -301 -123c-206 0 -360 153 -360 341c0 187 155 340 358 340c113 0 218 -43 289 -108l-34 -35c-64 60 -159 98 -254 98c-174 0 -306 -134 -306 -295c0 -163 133 -296 308 -296c106 0 200 47 266 111zM332 859l101 -90l100 90l37 -5
l-112 -114h-50l-113 114z" />
    <glyph glyph-name="Ccircumflex" unicode="&#x108;" horiz-adv-x="789" 
d="M700 142l34 -33c-72 -70 -177 -123 -301 -123c-206 0 -360 153 -360 341c0 187 155 340 358 340c113 0 218 -43 289 -108l-34 -35c-64 60 -159 98 -254 98c-174 0 -306 -134 -306 -295c0 -163 133 -296 308 -296c106 0 200 47 266 111zM295 743l113 115h50l112 -115
l-37 -4l-100 89l-101 -89z" />
    <glyph glyph-name="Cdotaccent" unicode="&#x10a;" horiz-adv-x="789" 
d="M700 142l34 -33c-72 -70 -177 -123 -301 -123c-206 0 -360 153 -360 341c0 187 155 340 358 340c113 0 218 -43 289 -108l-34 -35c-64 60 -159 98 -254 98c-174 0 -306 -134 -306 -295c0 -163 133 -296 308 -296c106 0 200 47 266 111zM433 819c19 0 33 -14 33 -31
c0 -18 -14 -31 -33 -31s-33 13 -33 31c0 17 14 31 33 31z" />
    <glyph glyph-name="Dcaron" unicode="&#x10e;" horiz-adv-x="820" 
d="M391 0h-258v653h258c126 0 196 -37 261 -96c59 -59 93 -140 93 -230c0 -91 -36 -174 -96 -234c-65 -58 -131 -93 -258 -93zM184 45h205c111 0 164 31 220 80c51 52 83 123 83 202c0 78 -30 149 -82 200c-55 50 -111 81 -221 81h-205v-563zM302 859l101 -90l100 90l37 -5
l-112 -114h-50l-113 114z" />
    <glyph glyph-name="Dcroat" unicode="&#x110;" horiz-adv-x="844" 
d="M57 325v41h100v287h258c126 0 196 -37 261 -96c58 -59 93 -140 93 -230c0 -91 -36 -174 -96 -234c-65 -58 -131 -93 -258 -93h-258v325h-100zM208 45h205c111 0 164 31 220 80c51 52 83 123 83 202c0 78 -30 149 -82 200c-55 50 -111 81 -221 81h-205v-242h229v-41h-229
v-280z" />
    <glyph glyph-name="Eacute" unicode="&#xc9;" horiz-adv-x="720" 
d="M467 370v-45h-283v-280h488v-45h-539v653h518v-45h-467v-238h283zM335 743l144 115l61 -5l-163 -114z" />
    <glyph glyph-name="Egrave" unicode="&#xc8;" horiz-adv-x="720" 
d="M467 370v-45h-283v-280h488v-45h-539v653h518v-45h-467v-238h283zM409 739l-163 114l62 5l144 -115z" />
    <glyph glyph-name="Ecircumflex" unicode="&#xca;" horiz-adv-x="720" 
d="M467 370v-45h-283v-280h488v-45h-539v653h518v-45h-467v-238h283zM256 743l113 115h50l112 -115l-37 -4l-100 89l-101 -89z" />
    <glyph glyph-name="Edieresis" unicode="&#xcb;" horiz-adv-x="720" 
d="M467 370v-45h-283v-280h488v-45h-539v653h518v-45h-467v-238h283zM487 819c19 0 33 -14 33 -31c0 -18 -14 -31 -33 -31s-33 13 -33 31c0 17 14 31 33 31zM300 819c20 0 34 -14 34 -31c0 -18 -14 -31 -34 -31c-19 0 -33 13 -33 31c0 17 14 31 33 31z" />
    <glyph glyph-name="Ebreve" unicode="&#x114;" horiz-adv-x="720" 
d="M467 370v-45h-283v-280h488v-45h-539v653h518v-45h-467v-238h283zM267 854h37c0 -40 16 -90 90 -90s90 50 90 90h36c0 -53 -22 -123 -126 -123s-127 70 -127 123z" />
    <glyph glyph-name="Ecaron" unicode="&#x11a;" horiz-adv-x="720" 
d="M467 370v-45h-283v-280h488v-45h-539v653h518v-45h-467v-238h283zM293 859l101 -90l100 90l37 -5l-112 -114h-50l-113 114z" />
    <glyph glyph-name="Edotaccent" unicode="&#x116;" horiz-adv-x="720" 
d="M467 370v-45h-283v-280h488v-45h-539v653h518v-45h-467v-238h283zM394 819c19 0 33 -14 33 -31c0 -18 -14 -31 -33 -31s-33 13 -33 31c0 17 14 31 33 31z" />
    <glyph glyph-name="Emacron" unicode="&#x112;" horiz-adv-x="720" 
d="M467 370v-45h-283v-280h488v-45h-539v653h518v-45h-467v-238h283zM271 812h246v-37h-246v37z" />
    <glyph glyph-name="Eogonek" unicode="&#x118;" horiz-adv-x="720" 
d="M467 370v-45h-283v-280h488v-45h-88c-40 -17 -134 -62 -134 -126c0 -42 40 -67 101 -67c22 0 45 4 69 8l4 -31c-26 -6 -54 -9 -80 -9c-84 0 -136 35 -136 92c0 62 69 108 120 133h-395v653h518v-45h-467v-238h283z" />
    <glyph glyph-name="Gbreve" unicode="&#x11e;" horiz-adv-x="821" 
d="M710 568l-36 -32c-62 53 -152 86 -241 86c-173 0 -307 -133 -307 -295c0 -159 129 -296 311 -296c90 0 179 32 238 81v187h-223v45h270v-256c-75 -62 -182 -102 -288 -102c-202 0 -361 153 -361 341s160 340 359 340c102 0 201 -37 278 -99zM306 854h37
c0 -40 16 -90 90 -90s90 50 90 90h36c0 -53 -22 -123 -126 -123s-127 70 -127 123z" />
    <glyph glyph-name="Gcircumflex" unicode="&#x11c;" horiz-adv-x="821" 
d="M710 568l-36 -32c-62 53 -152 86 -241 86c-173 0 -307 -133 -307 -295c0 -159 129 -296 311 -296c90 0 179 32 238 81v187h-223v45h270v-256c-75 -62 -182 -102 -288 -102c-202 0 -361 153 -361 341s160 340 359 340c102 0 201 -37 278 -99zM295 743l113 115h50l112 -115
l-37 -4l-100 89l-101 -89z" />
    <glyph glyph-name="uni0122" unicode="&#x122;" horiz-adv-x="821" 
d="M710 568l-36 -32c-62 53 -152 86 -241 86c-173 0 -307 -133 -307 -295c0 -159 129 -296 311 -296c90 0 179 32 238 81v187h-223v45h270v-256c-75 -62 -182 -102 -288 -102c-202 0 -361 153 -361 341s160 340 359 340c102 0 201 -37 278 -99zM434 -56l36 13
c29 -21 57 -52 57 -93c0 -61 -56 -98 -144 -98c-24 0 -47 3 -71 8l4 31c21 -3 41 -5 60 -5c65 0 106 24 106 67c0 32 -23 58 -48 77z" />
    <glyph glyph-name="Gdotaccent" unicode="&#x120;" horiz-adv-x="821" 
d="M710 568l-36 -32c-62 53 -152 86 -241 86c-173 0 -307 -133 -307 -295c0 -159 129 -296 311 -296c90 0 179 32 238 81v187h-223v45h270v-256c-75 -62 -182 -102 -288 -102c-202 0 -361 153 -361 341s160 340 359 340c102 0 201 -37 278 -99zM433 819c19 0 33 -14 33 -31
c0 -18 -14 -31 -33 -31s-33 13 -33 31c0 17 14 31 33 31z" />
    <glyph glyph-name="Hbar" unicode="&#x126;" horiz-adv-x="839" 
d="M36 476v41h100v136h51v-136h465v136h51v-136h100v-41h-100v-476h-51v303h-465v-303h-51v476h-100zM187 349h465v127h-465v-127z" />
    <glyph glyph-name="Hcircumflex" unicode="&#x124;" horiz-adv-x="833" 
d="M184 0h-51v653h51v-278h465v278h51v-653h-51v330h-465v-330zM278 743l113 115h50l112 -115l-37 -4l-100 89l-101 -89z" />
    <glyph glyph-name="Iacute" unicode="&#xcd;" horiz-adv-x="317" 
d="M184 0h-51v653h51v-653zM99 743l144 115l62 -5l-163 -114z" />
    <glyph glyph-name="Igrave" unicode="&#xcc;" horiz-adv-x="317" 
d="M184 0h-51v653h51v-653zM73 858l144 -115l-43 -4l-163 114z" />
    <glyph glyph-name="Icircumflex" unicode="&#xce;" horiz-adv-x="317" 
d="M184 0h-51v653h51v-653zM21 743l113 115h50l112 -115l-37 -4l-100 89l-101 -89z" />
    <glyph glyph-name="Idieresis" unicode="&#xcf;" horiz-adv-x="317" 
d="M184 0h-51v653h51v-653zM251 819c20 0 34 -14 34 -31c0 -18 -14 -31 -34 -31c-19 0 -33 13 -33 31c0 17 14 31 33 31zM65 819c19 0 33 -14 33 -31c0 -18 -14 -31 -33 -31s-33 13 -33 31c0 17 14 31 33 31z" />
    <glyph glyph-name="Ibreve" unicode="&#x12c;" horiz-adv-x="317" 
d="M184 0h-51v653h51v-653zM32 854h36c0 -40 16 -90 91 -90c74 0 90 50 90 90h36c0 -53 -23 -123 -126 -123c-104 0 -127 70 -127 123z" />
    <glyph glyph-name="Idotaccent" unicode="&#x130;" horiz-adv-x="317" 
d="M184 0h-51v653h51v-653zM159 819c19 0 33 -14 33 -31c0 -18 -14 -31 -33 -31c-20 0 -33 13 -33 31c0 17 13 31 33 31z" />
    <glyph glyph-name="Imacron" unicode="&#x12a;" horiz-adv-x="317" 
d="M184 0h-51v653h51v-653zM36 812h245v-37h-245v37z" />
    <glyph glyph-name="Iogonek" unicode="&#x12e;" horiz-adv-x="317" 
d="M184 0c-41 -17 -136 -62 -136 -126c0 -42 40 -67 101 -67c22 0 45 4 69 8l4 -31c-26 -6 -54 -9 -80 -9c-83 0 -136 35 -136 92c0 64 75 111 127 135v651h51v-653z" />
    <glyph glyph-name="Itilde" unicode="&#x128;" horiz-adv-x="317" 
d="M184 0h-51v653h51v-653zM38 745l-32 18c25 40 51 66 86 66c24 0 42 -13 66 -32c19 -14 39 -28 60 -28c24 0 41 24 57 47l31 -17c-24 -38 -50 -66 -86 -66c-28 0 -52 13 -71 28c-23 18 -38 31 -55 31c-23 0 -40 -25 -56 -47z" />
    <glyph glyph-name="IJ" unicode="&#x132;" horiz-adv-x="999" 
d="M184 0h-51v653h51v-653zM829 653h51v-421c0 -157 -117 -246 -276 -246c-164 0 -225 94 -257 161l42 22c27 -58 77 -138 214 -138c130 0 226 72 226 201v421z" />
    <glyph glyph-name="Jcircumflex" unicode="&#x134;" horiz-adv-x="682" 
d="M512 653h51v-421c0 -157 -117 -246 -276 -246c-164 0 -225 94 -257 161l42 22c27 -58 77 -138 214 -138c130 0 226 72 226 201v421zM401 743l113 115h50l113 -115l-38 -4l-100 89l-100 -89z" />
    <glyph glyph-name="uni0136" unicode="&#x136;" horiz-adv-x="740" 
d="M601 653h63l-250 -248l300 -405h-65l-272 371l-193 -194v-177h-51v653h51v-419zM378 -56l36 13c29 -21 57 -52 57 -93c0 -61 -56 -98 -144 -98c-24 0 -47 3 -71 8l4 31c21 -3 41 -5 60 -5c65 0 106 24 106 67c0 32 -23 58 -48 77z" />
    <glyph glyph-name="Lacute" unicode="&#x139;" horiz-adv-x="634" 
d="M133 653h51v-608h427v-45h-478v653zM100 743l144 115l61 -5l-163 -114z" />
    <glyph glyph-name="Lcaron" unicode="&#x13d;" horiz-adv-x="634" 
d="M133 0v653h51v-608h427v-45h-478zM341 491c-2 1 -27 2 -29 3c20 55 27 138 27 206h48c0 -86 -12 -145 -46 -209z" />
    <glyph glyph-name="uni013B" unicode="&#x13b;" horiz-adv-x="634" 
d="M133 653h51v-608h427v-45h-478v653zM325 -56l36 13c29 -21 57 -52 57 -93c0 -61 -56 -98 -144 -98c-24 0 -47 3 -71 8l4 31c21 -3 41 -5 60 -5c65 0 106 24 106 67c0 32 -23 58 -48 77z" />
    <glyph glyph-name="Ldot" unicode="&#x13f;" horiz-adv-x="654" 
d="M133 653h51v-608h427v-45h-478v653zM465 419c19 0 33 -14 33 -31c0 -18 -14 -31 -33 -31s-33 13 -33 31c0 17 14 31 33 31z" />
    <glyph glyph-name="Lslash" unicode="&#x141;" horiz-adv-x="649" 
d="M149 653h51v-291l200 115l3 -40l-203 -117v-275h427v-45h-478v290l-100 -57l-3 40l103 59v321z" />
    <glyph glyph-name="Ntilde" unicode="&#xd1;" horiz-adv-x="837" 
d="M653 653h51v-653h-50l-469 569h-1v-569h-51v653h50l469 -569h1v569zM297 745l-32 18c26 40 51 66 86 66c24 0 42 -13 67 -32c18 -14 38 -28 60 -28c23 0 41 24 57 47l30 -17c-24 -38 -50 -66 -86 -66c-28 0 -52 13 -70 28c-23 18 -38 31 -56 31c-23 0 -40 -25 -56 -47z
" />
    <glyph glyph-name="Nacute" unicode="&#x143;" horiz-adv-x="837" 
d="M653 653h51v-653h-50l-469 569h-1v-569h-51v653h50l469 -569h1v569zM359 743l144 115l61 -5l-163 -114z" />
    <glyph glyph-name="Ncaron" unicode="&#x147;" horiz-adv-x="837" 
d="M653 653h51v-653h-50l-469 569h-1v-569h-51v653h50l469 -569h1v569zM317 859l101 -90l100 90l37 -5l-112 -114h-50l-113 114z" />
    <glyph glyph-name="uni0145" unicode="&#x145;" horiz-adv-x="837" 
d="M653 653h51v-653h-50l-469 569h-1v-569h-51v653h50l469 -569h1v569zM418 -56l36 13c29 -21 57 -52 57 -93c0 -61 -56 -98 -144 -98c-24 0 -47 3 -71 8l4 31c21 -3 41 -5 60 -5c65 0 106 24 106 67c0 32 -23 58 -48 77z" />
    <glyph glyph-name="Eng" unicode="&#x14a;" horiz-adv-x="837" 
d="M653 84v569h51v-634c0 -157 -118 -246 -277 -246v45c126 0 220 68 226 189h-5l-463 562h-1v-569h-51v653h50l469 -569h1z" />
    <glyph glyph-name="Oacute" unicode="&#xd3;" horiz-adv-x="859" 
d="M73 328c0 187 156 339 355 339s358 -152 358 -339c0 -190 -159 -342 -358 -342s-355 152 -355 342zM127 328c0 -164 132 -297 301 -297c170 0 305 133 305 297c0 162 -135 294 -305 294c-169 0 -301 -132 -301 -294zM370 743l144 115l61 -5l-163 -114z" />
    <glyph glyph-name="Ograve" unicode="&#xd2;" horiz-adv-x="859" 
d="M73 328c0 187 156 339 355 339s358 -152 358 -339c0 -190 -159 -342 -358 -342s-355 152 -355 342zM127 328c0 -164 132 -297 301 -297c170 0 305 133 305 297c0 162 -135 294 -305 294c-169 0 -301 -132 -301 -294zM444 739l-163 114l62 5l144 -115z" />
    <glyph glyph-name="Ocircumflex" unicode="&#xd4;" horiz-adv-x="859" 
d="M73 328c0 187 156 339 355 339s358 -152 358 -339c0 -190 -159 -342 -358 -342s-355 152 -355 342zM127 328c0 -164 132 -297 301 -297c170 0 305 133 305 297c0 162 -135 294 -305 294c-169 0 -301 -132 -301 -294zM291 743l113 115h50l112 -115l-37 -4l-100 89
l-101 -89z" />
    <glyph glyph-name="Odieresis" unicode="&#xd6;" horiz-adv-x="859" 
d="M73 328c0 187 156 339 355 339s358 -152 358 -339c0 -190 -159 -342 -358 -342s-355 152 -355 342zM127 328c0 -164 132 -297 301 -297c170 0 305 133 305 297c0 162 -135 294 -305 294c-169 0 -301 -132 -301 -294zM522 819c19 0 33 -14 33 -31c0 -18 -14 -31 -33 -31
s-33 13 -33 31c0 17 14 31 33 31zM335 819c20 0 34 -14 34 -31c0 -18 -14 -31 -34 -31c-19 0 -33 13 -33 31c0 17 14 31 33 31z" />
    <glyph glyph-name="Otilde" unicode="&#xd5;" horiz-adv-x="859" 
d="M73 328c0 187 156 339 355 339s358 -152 358 -339c0 -190 -159 -342 -358 -342s-355 152 -355 342zM127 328c0 -164 132 -297 301 -297c170 0 305 133 305 297c0 162 -135 294 -305 294c-169 0 -301 -132 -301 -294zM308 745l-32 18c26 40 51 66 86 66
c24 0 42 -13 67 -32c18 -14 38 -28 60 -28c23 0 41 24 57 47l30 -17c-24 -38 -50 -66 -86 -66c-28 0 -52 13 -70 28c-23 18 -38 31 -56 31c-23 0 -40 -25 -56 -47z" />
    <glyph glyph-name="Obreve" unicode="&#x14e;" horiz-adv-x="859" 
d="M73 328c0 187 156 339 355 339s358 -152 358 -339c0 -190 -159 -342 -358 -342s-355 152 -355 342zM127 328c0 -164 132 -297 301 -297c170 0 305 133 305 297c0 162 -135 294 -305 294c-169 0 -301 -132 -301 -294zM302 854h37c0 -40 16 -90 90 -90s90 50 90 90h36
c0 -53 -22 -123 -126 -123s-127 70 -127 123z" />
    <glyph glyph-name="Ohungarumlaut" unicode="&#x150;" horiz-adv-x="859" 
d="M73 328c0 187 156 339 355 339s358 -152 358 -339c0 -190 -159 -342 -358 -342s-355 152 -355 342zM127 328c0 -164 132 -297 301 -297c170 0 305 133 305 297c0 162 -135 294 -305 294c-169 0 -301 -132 -301 -294zM349 732l-32 4l64 134l43 -4zM513 732l-32 4l64 134
l43 -4z" />
    <glyph glyph-name="Omacron" unicode="&#x14c;" horiz-adv-x="859" 
d="M73 328c0 187 156 339 355 339s358 -152 358 -339c0 -190 -159 -342 -358 -342s-355 152 -355 342zM127 328c0 -164 132 -297 301 -297c170 0 305 133 305 297c0 162 -135 294 -305 294c-169 0 -301 -132 -301 -294zM306 812h246v-37h-246v37z" />
    <glyph glyph-name="Oslash" unicode="&#xd8;" horiz-adv-x="859" 
d="M73 328c0 187 156 339 355 339c66 0 127 -17 180 -46l60 87l35 -24l-59 -85c86 -62 142 -161 142 -271c0 -190 -159 -342 -358 -342c-66 0 -127 17 -179 46l-60 -86l-36 23l59 85c-85 62 -139 162 -139 274zM733 328c0 94 -46 177 -117 231l-340 -489
c44 -25 96 -39 152 -39c170 0 305 133 305 297zM127 328c0 -95 44 -179 113 -234l340 488c-44 25 -96 40 -152 40c-169 0 -301 -132 -301 -294z" />
    <glyph glyph-name="Oslashacute" unicode="&#x1fe;" horiz-adv-x="859" 
d="M73 328c0 187 156 339 355 339c66 0 127 -17 180 -46l60 87l35 -24l-59 -85c86 -62 142 -161 142 -271c0 -190 -159 -342 -358 -342c-66 0 -127 17 -179 46l-60 -86l-36 23l59 85c-85 62 -139 162 -139 274zM733 328c0 94 -46 177 -117 231l-340 -489
c44 -25 96 -39 152 -39c170 0 305 133 305 297zM127 328c0 -95 44 -179 113 -234l340 488c-44 25 -96 40 -152 40c-169 0 -301 -132 -301 -294zM370 743l144 115l61 -5l-163 -114z" />
    <glyph glyph-name="Racute" unicode="&#x154;" horiz-adv-x="798" 
d="M184 0h-51v653h359c80 0 136 -22 174 -62c30 -32 49 -75 49 -123c0 -88 -63 -161 -165 -175l168 -293h-58l-162 288h-314v-288zM492 608h-308v-275h334c90 0 146 63 146 136c0 36 -14 68 -37 92c-32 33 -76 47 -135 47zM340 743l144 115l61 -5l-163 -114z" />
    <glyph glyph-name="Rcaron" unicode="&#x158;" horiz-adv-x="798" 
d="M184 0h-51v653h359c80 0 136 -22 174 -62c30 -32 49 -75 49 -123c0 -88 -63 -161 -165 -175l168 -293h-58l-162 288h-314v-288zM492 608h-308v-275h334c90 0 146 63 146 136c0 36 -14 68 -37 92c-32 33 -76 47 -135 47zM298 859l101 -90l100 90l37 -5l-112 -114h-50
l-113 114z" />
    <glyph glyph-name="uni0156" unicode="&#x156;" horiz-adv-x="798" 
d="M184 0h-51v653h359c80 0 136 -22 174 -62c30 -32 49 -75 49 -123c0 -88 -63 -161 -165 -175l168 -293h-58l-162 288h-314v-288zM492 608h-308v-275h334c90 0 146 63 146 136c0 36 -14 68 -37 92c-32 33 -76 47 -135 47zM407 -56l36 13c29 -21 57 -52 57 -93
c0 -61 -56 -98 -144 -98c-24 0 -47 3 -71 8l4 31c21 -3 41 -5 60 -5c65 0 106 24 106 67c0 32 -23 58 -48 77z" />
    <glyph glyph-name="Scaron" unicode="&#x160;" horiz-adv-x="747" 
d="M632 572l-31 -35c-42 37 -128 86 -249 86c-93 0 -202 -35 -202 -137c0 -101 123 -106 238 -112c112 -7 295 -17 295 -181c0 -144 -139 -207 -297 -207c-159 0 -257 67 -323 131l31 35c58 -56 148 -122 293 -122c132 0 245 49 245 157c0 119 -135 131 -244 138
c-136 7 -289 16 -289 157c0 140 142 185 255 185c130 0 230 -54 278 -95zM272 859l101 -90l100 90l37 -5l-112 -114h-50l-113 114z" />
    <glyph glyph-name="Sacute" unicode="&#x15a;" horiz-adv-x="747" 
d="M632 572l-31 -35c-42 37 -128 86 -249 86c-93 0 -202 -35 -202 -137c0 -101 123 -106 238 -112c112 -7 295 -17 295 -181c0 -144 -139 -207 -297 -207c-159 0 -257 67 -323 131l31 35c58 -56 148 -122 293 -122c132 0 245 49 245 157c0 119 -135 131 -244 138
c-136 7 -289 16 -289 157c0 140 142 185 255 185c130 0 230 -54 278 -95zM314 743l144 115l61 -5l-163 -114z" />
    <glyph glyph-name="Scedilla" unicode="&#x15e;" horiz-adv-x="747" 
d="M633 572l-31 -35c-42 37 -128 86 -249 86c-93 0 -202 -35 -202 -137c0 -101 123 -106 238 -112c112 -7 295 -17 295 -181c0 -143 -137 -206 -293 -207l-18 -57c16 4 34 8 54 8c43 0 92 -20 92 -75c0 -56 -65 -87 -151 -87c-55 0 -105 12 -148 24l8 28
c42 -10 91 -22 138 -22c63 0 110 20 110 58s-34 48 -64 48c-20 0 -41 -5 -59 -10l-18 18l22 68c-142 8 -231 70 -293 130l31 35c58 -56 148 -122 293 -122c132 0 245 49 245 157c0 119 -135 131 -244 138c-136 7 -289 16 -289 157c0 140 142 185 255 185
c130 0 230 -54 278 -95z" />
    <glyph glyph-name="Scircumflex" unicode="&#x15c;" horiz-adv-x="747" 
d="M632 572l-31 -35c-42 37 -128 86 -249 86c-93 0 -202 -35 -202 -137c0 -101 123 -106 238 -112c112 -7 295 -17 295 -181c0 -144 -139 -207 -297 -207c-159 0 -257 67 -323 131l31 35c58 -56 148 -122 293 -122c132 0 245 49 245 157c0 119 -135 131 -244 138
c-136 7 -289 16 -289 157c0 140 142 185 255 185c130 0 230 -54 278 -95zM235 743l113 115h50l112 -115l-37 -4l-100 89l-101 -89z" />
    <glyph glyph-name="uni0218" unicode="&#x218;" horiz-adv-x="747" 
d="M632 572l-31 -35c-42 37 -128 86 -249 86c-93 0 -202 -35 -202 -137c0 -101 123 -106 238 -112c112 -7 295 -17 295 -181c0 -144 -139 -207 -297 -207c-159 0 -257 67 -323 131l31 35c58 -56 148 -122 293 -122c132 0 245 49 245 157c0 119 -135 131 -244 138
c-136 7 -289 16 -289 157c0 140 142 185 255 185c130 0 230 -54 278 -95zM381 -56l36 13c29 -21 57 -52 57 -93c0 -61 -56 -98 -144 -98c-24 0 -47 3 -71 8l4 31c21 -3 41 -5 60 -5c65 0 106 24 106 67c0 32 -23 58 -48 77z" />
    <glyph glyph-name="Tbar" unicode="&#x166;" horiz-adv-x="617" 
d="M32 608v45h552v-45h-250v-242h150v-41h-150v-325h-51v325h-150v41h150v242h-251z" />
    <glyph glyph-name="Tcaron" unicode="&#x164;" horiz-adv-x="617" 
d="M32 608v45h552v-45h-250v-608h-51v608h-251zM207 859l101 -90l100 90l37 -5l-112 -114h-50l-113 114z" />
    <glyph glyph-name="uni0162" unicode="&#x162;" horiz-adv-x="617" 
d="M32 608v45h552v-45h-250v-608l-23 -71c16 4 34 8 54 8c43 0 92 -20 92 -75c0 -56 -65 -87 -151 -87c-55 0 -105 12 -148 24l8 28c42 -10 91 -22 138 -22c63 0 110 20 110 58s-34 48 -64 48c-20 0 -41 -5 -59 -10l-18 18l26 81h-16v608h-251z" />
    <glyph glyph-name="uni021A" unicode="&#x21a;" horiz-adv-x="617" 
d="M32 608v45h552v-45h-250v-608h-51v608h-251zM316 -56l36 13c29 -21 57 -52 57 -93c0 -61 -56 -98 -144 -98c-24 0 -47 3 -71 8l4 31c21 -3 41 -5 60 -5c65 0 106 24 106 67c0 32 -23 58 -48 77z" />
    <glyph glyph-name="Uacute" unicode="&#xda;" horiz-adv-x="805" 
d="M635 653h51v-421c0 -157 -122 -246 -284 -246s-283 89 -283 246v421h51v-421c0 -129 100 -201 232 -201c133 0 233 72 233 201v421zM343 743l144 115l61 -5l-163 -114z" />
    <glyph glyph-name="Ugrave" unicode="&#xd9;" horiz-adv-x="805" 
d="M635 653h51v-421c0 -157 -122 -246 -284 -246s-283 89 -283 246v421h51v-421c0 -129 100 -201 232 -201c133 0 233 72 233 201v421zM417 739l-163 114l62 5l144 -115z" />
    <glyph glyph-name="Ucircumflex" unicode="&#xdb;" horiz-adv-x="805" 
d="M635 653h51v-421c0 -157 -122 -246 -284 -246s-283 89 -283 246v421h51v-421c0 -129 100 -201 232 -201c133 0 233 72 233 201v421zM264 743l113 115h50l112 -115l-37 -4l-100 89l-101 -89z" />
    <glyph glyph-name="Udieresis" unicode="&#xdc;" horiz-adv-x="805" 
d="M635 653h51v-421c0 -157 -122 -246 -284 -246s-283 89 -283 246v421h51v-421c0 -129 100 -201 232 -201c133 0 233 72 233 201v421zM495 819c19 0 33 -14 33 -31c0 -18 -14 -31 -33 -31s-33 13 -33 31c0 17 14 31 33 31zM308 819c20 0 34 -14 34 -31
c0 -18 -14 -31 -34 -31c-19 0 -33 13 -33 31c0 17 14 31 33 31z" />
    <glyph glyph-name="Ubreve" unicode="&#x16c;" horiz-adv-x="805" 
d="M635 653h51v-421c0 -157 -122 -246 -284 -246s-283 89 -283 246v421h51v-421c0 -129 100 -201 232 -201c133 0 233 72 233 201v421zM275 854h37c0 -40 16 -90 90 -90s90 50 90 90h36c0 -53 -22 -123 -126 -123s-127 70 -127 123z" />
    <glyph glyph-name="Uhungarumlaut" unicode="&#x170;" horiz-adv-x="805" 
d="M635 653h51v-421c0 -157 -122 -246 -284 -246s-283 89 -283 246v421h51v-421c0 -129 100 -201 232 -201c133 0 233 72 233 201v421zM322 732l-32 4l64 134l43 -4zM486 732l-32 4l64 134l43 -4z" />
    <glyph glyph-name="Umacron" unicode="&#x16a;" horiz-adv-x="805" 
d="M635 653h51v-421c0 -157 -122 -246 -284 -246s-283 89 -283 246v421h51v-421c0 -129 100 -201 232 -201c133 0 233 72 233 201v421zM279 812h246v-37h-246v37z" />
    <glyph glyph-name="Uogonek" unicode="&#x172;" horiz-adv-x="805" 
d="M635 653h51v-421c0 -148 -109 -235 -257 -245c-45 -22 -105 -62 -105 -113c0 -42 40 -67 101 -67c22 0 45 4 69 8l4 -31c-26 -6 -54 -9 -80 -9c-84 0 -136 35 -136 92c0 52 49 93 95 120c-150 8 -258 96 -258 245v421h51v-421c0 -129 100 -201 232 -201
c133 0 233 72 233 201v421z" />
    <glyph glyph-name="Uring" unicode="&#x16e;" horiz-adv-x="805" 
d="M635 653h51v-421c0 -157 -122 -246 -284 -246s-283 89 -283 246v421h51v-421c0 -129 100 -201 232 -201c133 0 233 72 233 201v421zM323 786c0 -37 30 -65 77 -65c46 0 78 28 78 65c0 38 -32 67 -78 67c-47 0 -77 -29 -77 -67zM400 696c-68 0 -108 40 -108 90
s40 91 108 91s110 -41 110 -91s-42 -90 -110 -90z" />
    <glyph glyph-name="Utilde" unicode="&#x168;" horiz-adv-x="805" 
d="M635 653h51v-421c0 -157 -122 -246 -284 -246s-283 89 -283 246v421h51v-421c0 -129 100 -201 232 -201c133 0 233 72 233 201v421zM281 745l-32 18c26 40 51 66 86 66c24 0 42 -13 67 -32c18 -14 38 -28 60 -28c23 0 41 24 57 47l30 -17c-24 -38 -50 -66 -86 -66
c-28 0 -52 13 -70 28c-23 18 -38 31 -56 31c-23 0 -40 -25 -56 -47z" />
    <glyph glyph-name="Wacute" unicode="&#x1e82;" horiz-adv-x="1008" 
d="M53 653h56l185 -579h4l184 579h46l184 -579h5l184 579h54l-211 -653h-58l-180 563h-4l-180 -563h-58zM445 743l144 115l61 -5l-163 -114z" />
    <glyph glyph-name="Wcircumflex" unicode="&#x174;" horiz-adv-x="1008" 
d="M53 653h56l185 -579h4l184 579h46l184 -579h5l184 579h54l-211 -653h-58l-180 563h-4l-180 -563h-58zM366 743l113 115h50l112 -115l-37 -4l-100 89l-101 -89z" />
    <glyph glyph-name="Wdieresis" unicode="&#x1e84;" horiz-adv-x="1008" 
d="M53 653h56l185 -579h4l184 579h46l184 -579h5l184 579h54l-211 -653h-58l-180 563h-4l-180 -563h-58zM597 819c19 0 33 -14 33 -31c0 -18 -14 -31 -33 -31s-33 13 -33 31c0 17 14 31 33 31zM410 819c20 0 34 -14 34 -31c0 -18 -14 -31 -34 -31c-19 0 -33 13 -33 31
c0 17 14 31 33 31z" />
    <glyph glyph-name="Wgrave" unicode="&#x1e80;" horiz-adv-x="1008" 
d="M53 653h56l185 -579h4l184 579h46l184 -579h5l184 579h54l-211 -653h-58l-180 563h-4l-180 -563h-58zM519 739l-163 114l62 5l144 -115z" />
    <glyph glyph-name="Yacute" unicode="&#xdd;" horiz-adv-x="663" 
d="M565 653h60l-268 -340v-313h-51v313l-268 340h64l231 -294zM272 743l144 115l61 -5l-163 -114z" />
    <glyph glyph-name="Ydieresis" unicode="&#x178;" horiz-adv-x="663" 
d="M565 653h60l-268 -340v-313h-51v313l-268 340h64l231 -294zM424 819c19 0 33 -14 33 -31c0 -18 -14 -31 -33 -31s-33 13 -33 31c0 17 14 31 33 31zM237 819c20 0 34 -14 34 -31c0 -18 -14 -31 -34 -31c-19 0 -33 13 -33 31c0 17 14 31 33 31z" />
    <glyph glyph-name="Ycircumflex" unicode="&#x176;" horiz-adv-x="663" 
d="M565 653h60l-268 -340v-313h-51v313l-268 340h64l231 -294zM193 743l113 115h50l112 -115l-37 -4l-100 89l-101 -89z" />
    <glyph glyph-name="Ygrave" unicode="&#x1ef2;" horiz-adv-x="663" 
d="M565 653h60l-268 -340v-313h-51v313l-268 340h64l231 -294zM346 739l-163 114l62 5l144 -115z" />
    <glyph glyph-name="Zcaron" unicode="&#x17d;" horiz-adv-x="687" 
d="M625 45v-45h-578v33l497 575h-457v45h528v-33l-497 -575h507zM242 859l101 -90l100 90l37 -5l-112 -114h-50l-113 114z" />
    <glyph glyph-name="Zacute" unicode="&#x179;" horiz-adv-x="687" 
d="M625 45v-45h-578v33l497 575h-457v45h528v-33l-497 -575h507zM284 743l144 115l61 -5l-163 -114z" />
    <glyph glyph-name="Zdotaccent" unicode="&#x17b;" horiz-adv-x="687" 
d="M625 45v-45h-578v33l497 575h-457v45h528v-33l-497 -575h507zM343 819c19 0 33 -14 33 -31c0 -18 -14 -31 -33 -31s-33 13 -33 31c0 17 14 31 33 31z" />
    <glyph glyph-name="Eth" unicode="&#xd0;" horiz-adv-x="844" 
d="M57 325v41h100v287h258c126 0 196 -37 261 -96c58 -59 93 -140 93 -230c0 -91 -36 -174 -96 -234c-65 -58 -131 -93 -258 -93h-258v325h-100zM208 45h205c111 0 164 31 220 80c51 52 83 123 83 202c0 78 -30 149 -82 200c-55 50 -111 81 -221 81h-205v-242h229v-41h-229
v-280z" />
    <glyph glyph-name="Thorn" unicode="&#xde;" horiz-adv-x="759" 
d="M133 653h51v-137h299c88 0 130 -23 170 -61c33 -35 52 -79 52 -128c0 -51 -21 -97 -55 -131c-41 -36 -84 -58 -167 -58h-299v-138h-51v653zM483 471h-299v-288h299c57 0 96 13 130 45c26 26 41 61 41 99s-14 72 -39 97c-34 33 -70 47 -132 47z" />
    <glyph glyph-name="AE" unicode="&#xc6;" horiz-adv-x="1090" 
d="M65 0h-57l480 653h533v-45h-467v-241h284v-46h-284v-276h488v-45h-538v225h-274zM500 595l-241 -329h245v329h-4z" />
    <glyph glyph-name="AEacute" unicode="&#x1fc;" horiz-adv-x="1090" 
d="M65 0h-57l480 653h533v-45h-467v-241h284v-46h-284v-276h488v-45h-538v225h-274zM500 595l-241 -329h245v329h-4zM532 743l144 115l61 -5l-163 -114z" />
    <glyph glyph-name="OE" unicode="&#x152;" horiz-adv-x="1320" 
d="M1271 45v-45h-538v189c-47 -128 -170 -203 -309 -203c-196 0 -351 152 -351 342c0 187 155 339 351 339c139 0 262 -74 309 -202v188h517v-45h-466v-241h283v-46h-283v-276h487zM127 328c0 -164 130 -297 297 -297c172 0 309 133 309 297c0 162 -137 294 -309 294
c-167 0 -297 -132 -297 -294z" />
    <glyph glyph-name="Schwa" unicode="&#x18f;" horiz-adv-x="817" 
d="M394 -14c-155 0 -326 97 -320 319h613c1 16 1 33 0 49c-9 152 -120 268 -293 268c-117 0 -211 -48 -269 -108l-35 33c67 69 175 120 304 120c215 0 349 -149 349 -335c0 -196 -155 -346 -349 -346zM395 32c142 0 258 96 286 230h-553c3 -156 142 -230 267 -230z" />
    <glyph glyph-name="acute.cap" 
d="M191 743l144 115l61 -5l-163 -114z" />
    <glyph glyph-name="grave.cap" 
d="M265 739l-163 114l62 5l144 -115z" />
    <glyph glyph-name="circumflex.cap" 
d="M112 743l113 115h50l112 -115l-37 -4l-100 89l-101 -89z" />
    <glyph glyph-name="dieresis.cap" 
d="M343 819c19 0 33 -14 33 -31c0 -18 -14 -31 -33 -31s-33 13 -33 31c0 17 14 31 33 31zM156 819c20 0 34 -14 34 -31c0 -18 -14 -31 -34 -31c-19 0 -33 13 -33 31c0 17 14 31 33 31z" />
    <glyph glyph-name="tilde.cap" 
d="M129 745l-32 18c26 40 51 66 86 66c24 0 42 -13 67 -32c18 -14 38 -28 60 -28c23 0 41 24 57 47l30 -17c-24 -38 -50 -66 -86 -66c-28 0 -52 13 -70 28c-23 18 -38 31 -56 31c-23 0 -40 -25 -56 -47z" />
    <glyph glyph-name="ring.cap" 
d="M171 786c0 -37 30 -65 77 -65c46 0 78 28 78 65c0 38 -32 67 -78 67c-47 0 -77 -29 -77 -67zM248 696c-68 0 -108 40 -108 90s40 91 108 91s110 -41 110 -91s-42 -90 -110 -90z" />
    <glyph glyph-name="cedilla.cap" 
d="M258 7h34l-25 -78c16 4 34 8 54 8c43 0 92 -20 92 -75c0 -56 -65 -87 -151 -87c-55 0 -105 12 -148 24l8 28c42 -10 91 -22 138 -22c63 0 110 20 110 58s-34 48 -64 48c-20 0 -41 -5 -59 -10l-18 18z" />
    <glyph glyph-name="breve.cap" 
d="M123 854h37c0 -40 16 -90 90 -90s90 50 90 90h36c0 -53 -22 -123 -126 -123s-127 70 -127 123z" />
    <glyph glyph-name="caron.cap" 
d="M149 859l101 -90l100 90l37 -5l-112 -114h-50l-113 114z" />
    <glyph glyph-name="dotaccent.cap" 
d="M250 819c19 0 33 -14 33 -31c0 -18 -14 -31 -33 -31s-33 13 -33 31c0 17 14 31 33 31z" />
    <glyph glyph-name="hungarumlaut.cap" 
d="M170 732l-32 4l64 134l43 -4zM334 732l-32 4l64 134l43 -4z" />
    <glyph glyph-name="macron.cap" 
d="M127 812h246v-37h-246v37z" />
    <glyph glyph-name="ogonek.cap" 
d="M263 16l22 -15c-39 -16 -137 -62 -137 -127c0 -42 40 -67 101 -67c22 0 45 4 69 8l4 -31c-26 -6 -54 -9 -80 -9c-84 0 -136 35 -136 92c0 79 113 132 157 149z" />
    <glyph glyph-name="commaaccent.cap" 
d="M258 -56l36 13c29 -21 57 -52 57 -93c0 -61 -56 -98 -144 -98c-24 0 -47 3 -71 8l4 31c21 -3 41 -5 60 -5c65 0 106 24 106 67c0 32 -23 58 -48 77z" />
    <glyph glyph-name="caron.cap.alt" 
d="M210 494c20 55 27 138 27 206h48c0 -86 -12 -145 -46 -209c-2 1 -28 2 -29 3z" />
    <glyph glyph-name="ampersand.cap" horiz-adv-x="775" 
d="M550 619l-25 -39c-32 19 -83 42 -147 42c-76 0 -147 -36 -147 -101c0 -60 70 -115 103 -147l223 -217c39 37 78 82 117 139l41 -22c-42 -60 -84 -109 -126 -148l131 -126h-68l-99 95c-100 -81 -192 -108 -260 -108c-86 0 -232 43 -232 198c0 130 101 179 185 207
c-36 38 -66 78 -66 129c0 95 98 147 199 147c75 0 132 -28 171 -49zM292 346l-15 14c-64 -22 -165 -60 -165 -173c0 -117 113 -155 185 -155c59 0 139 25 224 93z" />
    <glyph glyph-name="zero.cap" horiz-adv-x="841" 
d="M73 327c0 188 157 341 346 341c190 0 349 -153 349 -341c0 -190 -159 -342 -349 -342c-189 0 -346 152 -346 342zM124 327c0 -164 133 -297 295 -297c163 0 298 133 298 297c0 162 -135 296 -298 296c-162 0 -295 -134 -295 -296z" />
    <glyph glyph-name="one.cap" horiz-adv-x="421" 
d="M27 520l-12 41l209 92h51v-653h-51v607z" />
    <glyph glyph-name="one.cap.alt" horiz-adv-x="407" 
d="M229 0h-51v653h51v-653z" />
    <glyph glyph-name="two.cap" horiz-adv-x="689" 
d="M122 528l-30 35c70 53 143 105 266 105c126 0 254 -55 254 -176c0 -137 -159 -170 -260 -199c-122 -36 -232 -95 -232 -232v-20h485v-41h-536v57c0 168 139 241 279 280c74 22 213 48 213 154c0 91 -102 132 -202 132c-108 0 -175 -46 -237 -95z" />
    <glyph glyph-name="three.cap" horiz-adv-x="788" 
d="M367 328v41h123c38 0 122 36 122 119c0 97 -116 135 -203 135c-103 0 -193 -54 -259 -112l-31 32c70 62 169 125 291 125c107 0 253 -48 253 -174c0 -77 -58 -122 -102 -137c57 -11 158 -51 158 -162c0 -134 -147 -210 -332 -210c-134 0 -241 41 -332 125l31 36
c71 -65 164 -116 301 -116c157 0 281 62 281 169c0 103 -123 129 -168 129h-133z" />
    <glyph glyph-name="four.cap" horiz-adv-x="785" 
d="M737 207v-41h-129v-166h-51v166h-516v43l511 444h56v-446h129zM113 211v-4h444v384h-11c-142 -123 -291 -256 -433 -380z" />
    <glyph glyph-name="five.cap" horiz-adv-x="743" 
d="M621 653v-45h-455v-233c61 35 122 60 226 60c144 0 286 -59 286 -212c0 -170 -161 -238 -315 -238s-251 69 -302 111l32 35c44 -39 133 -101 270 -101c129 0 264 56 264 192c0 124 -116 170 -236 170c-104 0 -176 -31 -238 -66l-34 25v302h502z" />
    <glyph glyph-name="six.cap" horiz-adv-x="761" 
d="M653 581l-31 -36c-51 49 -122 78 -200 78c-155 0 -300 -113 -300 -306c57 41 168 106 306 106c186 0 270 -114 270 -208c0 -123 -123 -230 -290 -230c-173 0 -333 113 -333 330c0 222 167 353 347 353c129 0 199 -59 231 -87zM424 382c-133 0 -248 -68 -300 -104
c17 -164 144 -248 285 -248c137 0 238 91 238 185c0 74 -67 167 -223 167z" />
    <glyph glyph-name="seven.cap" horiz-adv-x="645" 
d="M33 608v45h562v-45l-377 -608h-66l385 608h-504z" />
    <glyph glyph-name="eight.cap" horiz-adv-x="762" 
d="M381 -17c-150 0 -312 75 -312 204c0 105 103 163 207 179c-100 14 -156 60 -156 136c0 115 145 168 261 168s261 -53 261 -168c0 -76 -56 -122 -157 -136c105 -16 208 -74 208 -179c0 -129 -163 -204 -312 -204zM381 28c121 0 257 59 257 163c0 106 -141 154 -257 154
s-257 -48 -257 -154c0 -104 136 -163 257 -163zM381 385c131 0 206 40 206 113c0 90 -114 131 -206 131s-206 -41 -206 -131c0 -73 75 -113 206 -113z" />
    <glyph glyph-name="nine.cap" horiz-adv-x="763" 
d="M109 72l32 35c51 -48 121 -77 200 -77c154 0 299 112 300 306c-58 -42 -169 -106 -306 -106c-186 0 -270 114 -270 208c0 123 122 230 290 230c173 0 333 -113 333 -330c0 -222 -167 -353 -348 -353c-128 0 -199 59 -231 87zM339 271c133 0 247 68 300 104
c-17 163 -145 248 -285 248c-138 0 -238 -91 -238 -185c0 -74 66 -167 223 -167z" />
    <glyph glyph-name="exclamdown.cap" horiz-adv-x="321" 
d="M186 619c0 -23 -19 -42 -45 -42s-46 19 -46 42s20 42 46 42s45 -19 45 -42zM123 463h35l10 -305v-158h-55v158z" />
    <glyph glyph-name="questiondown.cap" horiz-adv-x="602" 
d="M498 125l32 -30c-61 -60 -131 -108 -264 -108c-112 0 -219 36 -219 154c0 65 37 99 86 133c77 57 159 94 176 189h47c-14 -116 -110 -159 -189 -217c-44 -29 -74 -53 -74 -104c0 -85 85 -114 174 -114c113 0 176 43 231 97zM369 619c0 -23 -20 -42 -46 -42s-46 19 -46 42
s20 42 46 42s46 -19 46 -42z" />
    <glyph glyph-name="guilsinglleft.cap" horiz-adv-x="308" 
d="M173 480h57l-121 -132v-8l121 -132h-57l-111 122v27z" />
    <glyph glyph-name="guilsinglright.cap" horiz-adv-x="308" 
d="M78 480h57l111 -123v-27l-111 -122h-57l121 132v8z" />
    <glyph glyph-name="guillemotleft.cap" horiz-adv-x="512" 
d="M173 480h57l-121 -132v-8l121 -132h-57l-111 122v27zM377 480h57l-121 -132v-8l121 -132h-57l-118 130v11z" />
    <glyph glyph-name="guillemotright.cap" horiz-adv-x="512" 
d="M282 480h57l111 -123v-27l-111 -122h-57l121 132v8zM78 480h57l118 -131v-11l-118 -130h-57l121 132v8z" />
    <glyph glyph-name="hyphen.cap" horiz-adv-x="401" 
d="M72 330v45h257v-45h-257z" />
    <glyph glyph-name="endash.cap" horiz-adv-x="638" 
d="M72 334v41h494v-41h-494z" />
    <glyph glyph-name="emdash.cap" horiz-adv-x="1118" 
d="M72 334v41h974v-41h-974z" />
    <glyph glyph-name="parenleft.cap" horiz-adv-x="361" 
d="M335 -83l-26 -33c-161 78 -249 256 -249 432c0 175 88 354 249 432l26 -32c-142 -71 -224 -239 -224 -400c0 -163 82 -329 224 -399z" />
    <glyph glyph-name="parenright.cap" horiz-adv-x="361" 
d="M26 716l25 32c162 -78 250 -257 250 -432c0 -176 -88 -354 -250 -432l-25 33c142 70 224 236 224 399c0 161 -82 329 -224 400z" />
    <glyph glyph-name="bracketleft.cap" horiz-adv-x="334" 
d="M295 -61v-41h-189v843h189v-42h-142v-760h142z" />
    <glyph glyph-name="bracketright.cap" horiz-adv-x="334" 
d="M39 741h189v-843h-189v41h142v760h-142v42z" />
    <glyph glyph-name="braceleft.cap" horiz-adv-x="372" 
d="M336 -61v-41c-143 0 -183 26 -183 162v127c0 93 -58 115 -120 115v51c62 0 121 47 121 121v103c2 137 42 165 182 165v-42c-103 0 -133 -20 -135 -123v-103c0 -84 -59 -138 -121 -142v-8c63 -1 120 -29 120 -137v-127c0 -102 31 -121 136 -121z" />
    <glyph glyph-name="braceright.cap" horiz-adv-x="372" 
d="M36 -102v41c103 0 136 19 136 121v127c0 107 57 135 120 137v8c-62 4 -121 58 -121 142v103c-2 103 -34 123 -135 123v42c140 0 180 -28 182 -165v-103c0 -74 59 -121 121 -121v-51c-62 0 -120 -22 -120 -115v-127c0 -136 -40 -162 -183 -162z" />
    <glyph glyph-name="bullet.cap" horiz-adv-x="491" 
d="M246 201c-85 0 -154 65 -154 146c0 80 69 145 154 145c83 0 153 -65 153 -145c0 -81 -70 -146 -153 -146z" />
    <glyph glyph-name="at.cap" horiz-adv-x="995" 
d="M674 510h44l-96 -291c-3 -8 -4 -15 -4 -22c0 -38 27 -60 68 -60c87 0 214 102 214 256c0 160 -139 283 -349 283c-234 0 -444 -153 -444 -389c0 -238 214 -351 395 -351c97 0 217 32 268 60l14 -31c-53 -30 -178 -66 -284 -66c-197 0 -436 125 -436 387
c0 259 231 427 487 427c234 0 388 -138 388 -318c0 -179 -153 -295 -262 -295c-57 0 -97 30 -97 78v8c-47 -56 -103 -85 -159 -85c-72 0 -141 48 -141 155c0 154 140 268 245 268c67 0 111 -46 121 -97zM431 142c48 0 100 27 148 82l52 157c-8 52 -46 102 -106 102
c-82 0 -198 -90 -198 -221c0 -83 48 -120 104 -120z" />
    <glyph glyph-name="copyright.cap" horiz-adv-x="1002" 
d="M500 -96c-242 0 -441 180 -441 405c0 224 199 404 441 404c243 0 442 -180 442 -404c0 -225 -199 -405 -442 -405zM500 -62c222 0 403 166 403 371c0 204 -181 370 -403 370c-220 0 -401 -166 -401 -370c0 -205 181 -371 401 -371zM707 453l-19 -32
c-48 41 -113 66 -177 66c-120 0 -200 -79 -200 -178c0 -100 91 -165 203 -165c87 0 134 28 179 62l19 -32c-49 -38 -99 -68 -198 -68c-135 0 -247 81 -247 203c0 120 97 216 244 216c72 0 145 -31 196 -72z" />
    <glyph glyph-name="soundrecordingcopyright.cap" horiz-adv-x="1002" 
d="M942 309c0 -225 -200 -405 -442 -405s-441 180 -441 405s199 404 441 404s442 -179 442 -404zM903 309c0 205 -183 370 -403 370c-221 0 -401 -166 -401 -370s180 -371 401 -371c220 0 403 167 403 371zM577 250h-194v-125h-44v385h207c74 0 185 -20 185 -127
c0 -91 -80 -133 -154 -133zM383 472v-185h194c52 0 111 29 111 96c0 74 -78 89 -133 89h-172z" />
    <glyph glyph-name="dollar.cap" horiz-adv-x="712" 
d="M342 781h37v-117c108 -10 192 -57 236 -94l-30 -34c-37 35 -107 76 -206 86v-250c109 -5 278 -22 278 -180c0 -140 -129 -203 -278 -206v-146h-37v147c-138 7 -226 70 -287 129l30 34c53 -53 132 -112 257 -120v297c-125 8 -252 26 -252 157c0 139 137 182 247 182h5v115
zM608 187c0 117 -124 131 -229 138v-296c124 2 229 51 229 158zM138 487c0 -96 113 -108 204 -113v250h-7c-91 0 -197 -34 -197 -137z" />
    <glyph glyph-name="cent.cap" horiz-adv-x="589" 
d="M355 603h37l-24 -118c52 -11 102 -35 144 -73l-32 -32c-35 33 -77 53 -120 63l-83 -413c11 -1 22 -2 33 -2c89 0 149 54 176 82l33 -29c-18 -25 -91 -94 -209 -94c-14 0 -28 1 -41 3l-30 -150h-36l31 158c-101 29 -177 118 -177 243c0 151 111 250 248 250
c9 0 18 0 27 -1zM108 241c0 -102 57 -175 135 -202l81 409c-7 1 -13 1 -19 1c-109 0 -197 -82 -197 -208z" />
    <glyph glyph-name="Euro.cap" horiz-adv-x="822" 
d="M60 389v34h98c41 141 167 245 317 245c105 0 201 -40 268 -105l-31 -35c-59 58 -145 95 -237 95c-122 0 -226 -85 -264 -200h349v-34h-358c-4 -20 -6 -41 -6 -62c0 -18 1 -35 4 -52h360v-34h-352c35 -121 142 -211 267 -211c95 0 183 41 246 104l31 -35
c-72 -70 -169 -114 -277 -114c-153 0 -283 110 -320 256h-95v34h89c-3 17 -4 34 -4 52c0 21 2 42 5 62h-90z" />
    <glyph glyph-name="sterling.cap" horiz-adv-x="751" 
d="M65 332v38h159v108c0 131 115 190 225 190c62 0 157 -32 233 -79l-25 -35c-69 40 -154 69 -208 69c-85 0 -174 -45 -174 -145v-108h290v-38h-290v-142c0 -92 -22 -133 -77 -149h483v-41h-616v41h40c88 0 119 26 119 149v142h-159z" />
    <glyph glyph-name="yen.cap" horiz-adv-x="767" 
d="M69 389v34h205l-176 230h64l223 -294l223 294h60l-175 -230h205v-34h-231l-58 -76v-38h289v-34h-289v-241h-51v241h-289v34h289v38l-58 76h-231z" />
    <glyph glyph-name="florin.cap" horiz-adv-x="400" 
d="M54 370h113l27 133c25 122 113 165 178 165c45 0 92 -22 109 -42l-20 -37c-13 18 -54 38 -90 38c-50 0 -111 -35 -129 -125l-27 -132h142v-38h-149l-67 -332c-26 -134 -119 -181 -191 -181v38c53 3 123 37 144 143l66 332h-106v38z" />
    <glyph glyph-name="colonmonetary.cap" horiz-adv-x="752" 
d="M543 781h33l-28 -139c54 -19 101 -49 140 -87l-32 -29c-33 31 -72 56 -116 73l-114 -571c94 6 180 54 241 117l31 -29c-69 -72 -169 -127 -280 -130l-29 -146h-33l29 147c-40 3 -78 11 -112 24l-34 -171h-32l36 184c-113 57 -186 172 -186 303c0 176 133 322 314 338
l23 116h32l-23 -114h1c39 0 77 -5 113 -15zM108 327c0 -109 56 -205 144 -257l110 551c-146 -20 -254 -145 -254 -294zM281 55c34 -16 72 -25 112 -27l116 581c-34 10 -69 15 -105 15h-9z" />
    <glyph glyph-name="franc.cap" horiz-adv-x="704" 
d="M63 177v33h104v443h487v-45h-436v-211h273v-44h-273v-143h179v-33h-179v-177h-51v177h-104z" />
    <glyph glyph-name="lira.cap" horiz-adv-x="756" 
d="M73 389v34h158v55c0 131 115 190 226 190c62 0 157 -32 233 -79l-25 -35c-69 40 -154 69 -208 69c-85 0 -175 -45 -175 -145v-55h291v-34h-291v-114h291v-34h-291v-51c0 -92 -21 -133 -76 -149h483v-41h-616v41h40c88 0 118 26 118 149v51h-158v34h158v114h-158z" />
    <glyph glyph-name="peso.cap" horiz-adv-x="835" 
d="M54 434v34h104v185h316c89 0 134 -23 174 -63c28 -33 44 -75 47 -122h96v-34h-96c-3 -49 -22 -93 -53 -126c-40 -36 -83 -58 -168 -58h-265v-250h-51v434h-104zM474 608h-265v-140h435c-2 33 -14 67 -35 92c-33 34 -71 48 -135 48zM603 339c23 25 37 58 41 95h-435v-138
h265c61 0 97 12 129 43z" />
    <glyph glyph-name="peseta.cap" horiz-adv-x="1540" 
d="M160 0h-51v653h342c90 0 135 -24 174 -63c32 -33 49 -74 49 -119c0 -7 -1 -14 -1 -20h83v140h48v-140h160v-38h-160v-303c0 -60 39 -82 77 -82c31 0 71 12 89 25l9 -36c-21 -17 -67 -31 -106 -31c-52 0 -117 31 -117 124v303h-92c-10 -26 -25 -49 -45 -68
c-40 -35 -82 -57 -168 -57h-291v-288zM451 608h-291v-275h291c60 0 96 12 130 43c26 24 42 58 42 94c0 35 -13 66 -36 90c-34 33 -72 48 -136 48zM1445 404l-20 -36c-30 23 -97 57 -173 57c-61 0 -134 -24 -134 -88c0 -68 87 -72 154 -75c77 -3 208 -10 208 -128
c0 -100 -97 -147 -212 -147c-106 0 -172 39 -216 72l20 35c43 -31 103 -68 195 -68c90 0 166 34 166 104c0 79 -99 85 -161 88c-93 5 -201 11 -201 114c0 100 99 132 181 132c86 0 160 -35 193 -60z" />
    <glyph glyph-name="rupiah.cap" horiz-adv-x="1354" 
d="M890 -213h-47v557c0 34 -3 70 -14 107h45c8 -25 12 -48 12 -73c43 46 111 85 184 85c125 0 229 -94 229 -238c0 -143 -109 -237 -240 -237c-76 0 -136 42 -169 81v-282zM890 341v-231c28 -31 87 -81 165 -81c106 0 192 77 192 196s-82 196 -181 196
c-70 0 -134 -40 -176 -80zM164 0h-51v653h359c80 0 136 -22 175 -62c30 -32 48 -75 48 -123c0 -88 -62 -161 -164 -175l167 -293h-57l-162 288h-315v-288zM472 608h-308v-275h334c90 0 146 63 146 136c0 36 -14 68 -37 92c-31 33 -75 47 -135 47z" />
    <glyph glyph-name="Rupee.cap" horiz-adv-x="805" 
d="M115 434v34h484c-2 35 -14 67 -35 92c-31 35 -76 48 -132 48h-317v45h631v-33h-202c70 -27 102 -87 106 -152h96v-34h-96c-3 -44 -17 -90 -53 -126c-38 -38 -89 -54 -168 -54l-216 3l403 -257h-91l-410 262v34h314c55 0 98 8 130 42c25 26 37 59 40 96h-484z" />
    <glyph glyph-name="section.cap" horiz-adv-x="734" 
d="M631 110c-27 -29 -65 -50 -102 -61c13 -6 25 -16 33 -26c10 -14 18 -33 18 -60c0 -106 -120 -143 -212 -143c-80 0 -159 27 -218 71l24 35c51 -39 123 -65 194 -65c65 0 161 23 161 102c0 18 -5 32 -14 42c-30 33 -101 36 -177 46c-91 12 -181 31 -236 86
c-32 33 -48 73 -48 119c0 50 19 90 47 120c25 28 64 52 103 65c-13 6 -23 13 -29 21c-14 17 -21 37 -21 64c0 108 120 144 213 144c79 0 158 -27 217 -71l-24 -35c-51 39 -122 65 -194 65c-63 0 -161 -23 -161 -102c0 -20 6 -35 17 -46c31 -30 99 -33 173 -43
c93 -11 185 -31 240 -89c28 -29 45 -67 45 -116c0 -51 -19 -92 -49 -123zM394 394c-51 6 -114 12 -157 27c-32 -11 -69 -31 -92 -56c-24 -27 -40 -61 -40 -103c0 -37 11 -69 38 -95c42 -44 117 -63 196 -72c57 -7 113 -12 155 -27c31 10 66 27 93 55c25 27 42 61 42 105
c0 39 -13 69 -35 92c-42 45 -119 64 -200 74z" />
    <glyph glyph-name="numbersign.cap" horiz-adv-x="924" 
d="M638 709h41l-37 -222h226v-38h-232l-44 -267h217v-38h-223l-42 -255h-41l42 255h-225l-42 -255h-41l42 255h-224v38h230l44 267h-215v38h221l37 222h41l-37 -222h225zM370 449l-44 -267h225l44 267h-225z" />
    <glyph glyph-name="percent.cap" horiz-adv-x="1081" 
d="M56 477c0 102 89 188 201 188c111 0 204 -86 204 -188c0 -104 -93 -189 -204 -189c-112 0 -201 85 -201 189zM746 653l-370 -653h-42l370 653h42zM101 477c0 -81 69 -149 156 -149s159 68 159 149s-72 149 -159 149s-156 -68 -156 -149zM620 177c0 102 89 188 201 188
c111 0 204 -86 204 -188c0 -104 -93 -189 -204 -189c-112 0 -201 85 -201 189zM664 177c0 -82 70 -150 157 -150c86 0 159 68 159 150c0 81 -73 148 -159 148c-87 0 -157 -67 -157 -148z" />
    <glyph glyph-name="perthousand.cap" horiz-adv-x="1541" 
d="M58 477c0 102 89 188 201 188c111 0 204 -86 204 -188c0 -104 -93 -189 -204 -189c-112 0 -201 85 -201 189zM748 653l-370 -653h-42l370 653h42zM103 477c0 -81 69 -149 156 -149c86 0 159 68 159 149s-73 149 -159 149c-87 0 -156 -68 -156 -149zM621 177
c0 102 89 188 201 188c111 0 204 -86 204 -188c0 -104 -93 -189 -204 -189c-112 0 -201 85 -201 189zM666 177c0 -82 70 -150 156 -150c87 0 160 68 160 150c0 81 -73 148 -160 148c-86 0 -156 -67 -156 -148zM1082 177c0 102 89 188 201 188c111 0 204 -86 204 -188
c0 -104 -93 -189 -204 -189c-112 0 -201 85 -201 189zM1127 177c0 -82 69 -150 156 -150c86 0 159 68 159 150c0 81 -73 148 -159 148c-87 0 -156 -67 -156 -148z" />
    <glyph glyph-name="aacute" unicode="&#xe1;" horiz-adv-x="593" 
d="M118 367l-18 38c37 24 108 58 198 58c94 0 198 -34 198 -134v-247c0 -24 3 -57 17 -82h-48c-13 20 -16 51 -17 75c-34 -33 -110 -85 -211 -85c-114 0 -181 67 -181 154c0 85 73 152 206 152c65 0 145 -17 186 -66v87c0 77 -77 106 -152 106c-79 0 -146 -33 -178 -56z
M246 30c109 0 195 73 202 87v72c-34 49 -110 69 -180 69c-111 0 -164 -50 -164 -114c0 -63 50 -114 142 -114zM347 688l52 -4l-102 -146l-42 4z" />
    <glyph glyph-name="agrave" unicode="&#xe0;" horiz-adv-x="593" 
d="M118 367l-18 38c37 24 108 58 198 58c94 0 198 -34 198 -134v-247c0 -24 3 -57 17 -82h-48c-13 20 -16 51 -17 75c-34 -33 -110 -85 -211 -85c-114 0 -181 67 -181 154c0 85 73 152 206 152c65 0 145 -17 186 -66v87c0 77 -77 106 -152 106c-79 0 -146 -33 -178 -56z
M246 30c109 0 195 73 202 87v72c-34 49 -110 69 -180 69c-111 0 -164 -50 -164 -114c0 -63 50 -114 142 -114zM193 684l53 4l92 -146l-42 -4z" />
    <glyph glyph-name="acircumflex" unicode="&#xe2;" horiz-adv-x="593" 
d="M118 367l-18 38c37 24 108 58 198 58c94 0 198 -34 198 -134v-247c0 -24 3 -57 17 -82h-48c-13 20 -16 51 -17 75c-34 -33 -110 -85 -211 -85c-114 0 -181 67 -181 154c0 85 73 152 206 152c65 0 145 -17 186 -66v87c0 77 -77 106 -152 106c-79 0 -146 -33 -178 -56z
M246 30c109 0 195 73 202 87v72c-34 49 -110 69 -180 69c-111 0 -164 -50 -164 -114c0 -63 50 -114 142 -114zM159 545l113 121h50l112 -121l-37 -5l-100 97l-101 -97z" />
    <glyph glyph-name="adieresis" unicode="&#xe4;" horiz-adv-x="593" 
d="M118 367l-18 38c37 24 108 58 198 58c94 0 198 -34 198 -134v-247c0 -24 3 -57 17 -82h-48c-13 20 -16 51 -17 75c-34 -33 -110 -85 -211 -85c-114 0 -181 67 -181 154c0 85 73 152 206 152c65 0 145 -17 186 -66v87c0 77 -77 106 -152 106c-79 0 -146 -33 -178 -56z
M246 30c109 0 195 73 202 87v72c-34 49 -110 69 -180 69c-111 0 -164 -50 -164 -114c0 -63 50 -114 142 -114zM357 589c0 17 14 31 33 31s33 -14 33 -31c0 -18 -14 -31 -33 -31s-33 14 -33 31zM170 589c0 17 14 31 33 31c20 0 34 -14 34 -31c0 -18 -14 -31 -34 -31
c-19 0 -33 14 -33 31z" />
    <glyph glyph-name="atilde" unicode="&#xe3;" horiz-adv-x="593" 
d="M118 367l-18 38c37 24 108 58 198 58c94 0 198 -34 198 -134v-247c0 -24 3 -57 17 -82h-48c-13 20 -16 51 -17 75c-34 -33 -110 -85 -211 -85c-114 0 -181 67 -181 154c0 85 73 152 206 152c65 0 145 -17 186 -66v87c0 77 -77 106 -152 106c-79 0 -146 -33 -178 -56z
M246 30c109 0 195 73 202 87v72c-34 49 -110 69 -180 69c-111 0 -164 -50 -164 -114c0 -63 50 -114 142 -114zM176 546l-32 18c26 40 51 66 86 66c24 0 42 -13 67 -32c18 -14 38 -27 60 -27c23 0 41 24 57 46l30 -17c-24 -38 -50 -66 -86 -66c-28 0 -52 13 -70 28
c-23 18 -38 31 -56 31c-23 0 -40 -25 -56 -47z" />
    <glyph glyph-name="aring" unicode="&#xe5;" horiz-adv-x="593" 
d="M118 367l-18 38c37 24 108 58 198 58c94 0 198 -34 198 -134v-247c0 -24 3 -57 17 -82h-48c-13 20 -16 51 -17 75c-34 -33 -110 -85 -211 -85c-114 0 -181 67 -181 154c0 85 73 152 206 152c65 0 145 -17 186 -66v87c0 77 -77 106 -152 106c-79 0 -146 -33 -178 -56z
M246 30c109 0 195 73 202 87v72c-34 49 -110 69 -180 69c-111 0 -164 -50 -164 -114c0 -63 50 -114 142 -114zM218 621c0 -37 30 -65 77 -65c46 0 78 28 78 65c0 38 -32 67 -78 67c-47 0 -77 -29 -77 -67zM187 621c0 50 40 91 108 91s110 -41 110 -91s-42 -89 -110 -89
s-108 39 -108 89z" />
    <glyph glyph-name="abreve" unicode="&#x103;" horiz-adv-x="593" 
d="M118 367l-18 38c37 24 108 58 198 58c94 0 198 -34 198 -134v-247c0 -24 3 -57 17 -82h-48c-13 20 -16 51 -17 75c-34 -33 -110 -85 -211 -85c-114 0 -181 67 -181 154c0 85 73 152 206 152c65 0 145 -17 186 -66v87c0 77 -77 106 -152 106c-79 0 -146 -33 -178 -56z
M246 30c109 0 195 73 202 87v72c-34 49 -110 69 -180 69c-111 0 -164 -50 -164 -114c0 -63 50 -114 142 -114zM170 662h37c0 -42 16 -97 90 -97s90 55 90 97h36c0 -56 -22 -130 -126 -130s-127 74 -127 130z" />
    <glyph glyph-name="amacron" unicode="&#x101;" horiz-adv-x="593" 
d="M118 367l-18 38c37 24 108 58 198 58c94 0 198 -34 198 -134v-247c0 -24 3 -57 17 -82h-48c-13 20 -16 51 -17 75c-34 -33 -110 -85 -211 -85c-114 0 -181 67 -181 154c0 85 73 152 206 152c65 0 145 -17 186 -66v87c0 77 -77 106 -152 106c-79 0 -146 -33 -178 -56z
M246 30c109 0 195 73 202 87v72c-34 49 -110 69 -180 69c-111 0 -164 -50 -164 -114c0 -63 50 -114 142 -114zM174 613h246v-37h-246v37z" />
    <glyph glyph-name="aogonek" unicode="&#x105;" horiz-adv-x="593" 
d="M118 367l-18 38c37 24 108 58 198 58c94 0 198 -34 198 -134v-247c0 -24 3 -57 17 -82h-4c-40 -17 -134 -62 -134 -126c0 -42 40 -67 101 -67c22 0 45 4 69 8l4 -31c-26 -6 -54 -9 -80 -9c-84 0 -136 35 -136 92c0 66 77 114 129 137c-11 20 -13 49 -14 71
c-34 -33 -110 -85 -211 -85c-114 0 -181 67 -181 154c0 85 73 152 206 152c65 0 145 -17 186 -66v87c0 77 -77 106 -152 106c-79 0 -146 -33 -178 -56zM246 30c109 0 195 73 202 87v72c-34 49 -110 69 -180 69c-111 0 -164 -50 -164 -114c0 -63 50 -114 142 -114z" />
    <glyph glyph-name="aringacute" unicode="&#x1fb;" horiz-adv-x="593" 
d="M118 367l-18 38c37 24 108 58 198 58c94 0 198 -34 198 -134v-247c0 -24 3 -57 17 -82h-48c-13 20 -16 51 -17 75c-34 -33 -110 -85 -211 -85c-114 0 -181 67 -181 154c0 85 73 152 206 152c65 0 145 -17 186 -66v87c0 77 -77 106 -152 106c-79 0 -146 -33 -178 -56z
M246 30c109 0 195 73 202 87v72c-34 49 -110 69 -180 69c-111 0 -164 -50 -164 -114c0 -63 50 -114 142 -114zM218 621c0 -37 30 -65 77 -65c46 0 78 28 78 65c0 38 -32 67 -78 67c-47 0 -77 -29 -77 -67zM187 621c0 50 40 91 108 91s110 -41 110 -91s-42 -89 -110 -89
s-108 39 -108 89zM238 763l144 115l61 -5l-163 -114z" />
    <glyph glyph-name="ccedilla" unicode="&#xe7;" horiz-adv-x="563" 
d="M504 388l-32 -32c-46 44 -106 65 -163 65c-106 0 -193 -77 -193 -194c0 -120 91 -197 198 -197c86 0 144 48 169 75l33 -29c-19 -23 -89 -87 -204 -88l-19 -59c16 4 34 8 54 8c43 0 92 -20 92 -75c0 -56 -65 -87 -151 -87c-55 0 -105 12 -148 24l8 28
c42 -10 91 -22 138 -22c63 0 110 20 110 58s-34 48 -64 48c-20 0 -41 -5 -59 -10l-18 18l23 71c-118 13 -213 103 -213 237c0 142 110 236 244 236c70 0 140 -24 195 -75z" />
    <glyph glyph-name="cacute" unicode="&#x107;" horiz-adv-x="563" 
d="M504 388l-32 -32c-46 44 -106 65 -163 65c-106 0 -193 -77 -193 -194c0 -120 91 -197 198 -197c86 0 144 48 169 75l33 -29c-19 -23 -90 -88 -206 -88c-132 0 -245 94 -245 239c0 142 110 236 244 236c70 0 140 -24 195 -75zM358 688l52 -4l-102 -146l-42 4z" />
    <glyph glyph-name="ccaron" unicode="&#x10d;" horiz-adv-x="563" 
d="M504 388l-32 -32c-46 44 -106 65 -163 65c-106 0 -193 -77 -193 -194c0 -120 91 -197 198 -197c86 0 144 48 169 75l33 -29c-19 -23 -90 -88 -206 -88c-132 0 -245 94 -245 239c0 142 110 236 244 236c70 0 140 -24 195 -75zM170 663l37 5l101 -97l100 97l37 -5
l-112 -122h-50z" />
    <glyph glyph-name="ccircumflex" unicode="&#x109;" horiz-adv-x="563" 
d="M504 388l-32 -32c-46 44 -106 65 -163 65c-106 0 -193 -77 -193 -194c0 -120 91 -197 198 -197c86 0 144 48 169 75l33 -29c-19 -23 -90 -88 -206 -88c-132 0 -245 94 -245 239c0 142 110 236 244 236c70 0 140 -24 195 -75zM170 545l113 121h50l112 -121l-37 -5l-100 97
l-101 -97z" />
    <glyph glyph-name="cdotaccent" unicode="&#x10b;" horiz-adv-x="563" 
d="M504 388l-32 -32c-46 44 -106 65 -163 65c-106 0 -193 -77 -193 -194c0 -120 91 -197 198 -197c86 0 144 48 169 75l33 -29c-19 -23 -90 -88 -206 -88c-132 0 -245 94 -245 239c0 142 110 236 244 236c70 0 140 -24 195 -75zM275 589c0 17 14 31 33 31s33 -14 33 -31
c0 -18 -14 -31 -33 -31s-33 14 -33 31z" />
    <glyph glyph-name="dcaron" unicode="&#x10f;" horiz-adv-x="625" 
d="M474 110v232c-49 48 -110 79 -170 79c-102 0 -186 -77 -186 -194c0 -120 83 -198 186 -198c90 0 151 59 170 81zM530 0h-45c-4 23 -6 48 -7 72c-25 -33 -90 -84 -178 -84c-128 0 -234 94 -234 239c0 142 107 236 234 236c62 0 124 -28 174 -78v315h48v-599
c0 -32 2 -66 8 -101zM605 491c-2 1 -28 2 -29 3c20 55 27 138 27 206h48c0 -86 -12 -145 -46 -209z" />
    <glyph glyph-name="dcroat" unicode="&#x111;" horiz-adv-x="625" 
d="M304 560v33h170v107h48v-107h89v-33h-89v-459c0 -32 2 -66 8 -101h-45c-4 23 -6 48 -7 72c-25 -33 -90 -84 -178 -84c-128 0 -234 94 -234 239c0 142 107 236 234 236c62 0 124 -28 174 -78v175h-170zM304 421c-102 0 -186 -77 -186 -194c0 -120 83 -198 186 -198
c90 0 151 59 170 81v232c-49 48 -110 79 -170 79z" />
    <glyph glyph-name="eacute" unicode="&#xe9;" horiz-adv-x="593" 
d="M487 104l32 -30c-48 -49 -125 -86 -217 -86c-147 0 -237 103 -237 232c0 136 105 243 240 243c105 0 224 -66 227 -216c0 -4 0 -10 -1 -15h-419v-11c0 -106 72 -191 194 -191c76 0 140 31 181 74zM303 423c-95 0 -167 -67 -186 -154h363c-3 104 -96 154 -177 154z
M356 688l52 -4l-102 -146l-42 4z" />
    <glyph glyph-name="egrave" unicode="&#xe8;" horiz-adv-x="593" 
d="M487 104l32 -30c-48 -49 -125 -86 -217 -86c-147 0 -237 103 -237 232c0 136 105 243 240 243c105 0 224 -66 227 -216c0 -4 0 -10 -1 -15h-419v-11c0 -106 72 -191 194 -191c76 0 140 31 181 74zM303 423c-95 0 -167 -67 -186 -154h363c-3 104 -96 154 -177 154z
M202 684l53 4l92 -146l-42 -4z" />
    <glyph glyph-name="ecircumflex" unicode="&#xea;" horiz-adv-x="593" 
d="M487 104l32 -30c-48 -49 -125 -86 -217 -86c-147 0 -237 103 -237 232c0 136 105 243 240 243c105 0 224 -66 227 -216c0 -4 0 -10 -1 -15h-419v-11c0 -106 72 -191 194 -191c76 0 140 31 181 74zM303 423c-95 0 -167 -67 -186 -154h363c-3 104 -96 154 -177 154z
M168 545l113 121h50l112 -121l-37 -5l-100 97l-101 -97z" />
    <glyph glyph-name="edieresis" unicode="&#xeb;" horiz-adv-x="593" 
d="M487 104l32 -30c-48 -49 -125 -86 -217 -86c-147 0 -237 103 -237 232c0 136 105 243 240 243c105 0 224 -66 227 -216c0 -4 0 -10 -1 -15h-419v-11c0 -106 72 -191 194 -191c76 0 140 31 181 74zM303 423c-95 0 -167 -67 -186 -154h363c-3 104 -96 154 -177 154z
M366 589c0 17 14 31 33 31s33 -14 33 -31c0 -18 -14 -31 -33 -31s-33 14 -33 31zM179 589c0 17 14 31 33 31c20 0 34 -14 34 -31c0 -18 -14 -31 -34 -31c-19 0 -33 14 -33 31z" />
    <glyph glyph-name="ebreve" unicode="&#x115;" horiz-adv-x="593" 
d="M487 104l32 -30c-48 -49 -125 -86 -217 -86c-147 0 -237 103 -237 232c0 136 105 243 240 243c105 0 224 -66 227 -216c0 -4 0 -10 -1 -15h-419v-11c0 -106 72 -191 194 -191c76 0 140 31 181 74zM303 423c-95 0 -167 -67 -186 -154h363c-3 104 -96 154 -177 154z
M179 662h37c0 -42 16 -97 90 -97s90 55 90 97h36c0 -56 -22 -130 -126 -130s-127 74 -127 130z" />
    <glyph glyph-name="ecaron" unicode="&#x11b;" horiz-adv-x="593" 
d="M487 104l32 -30c-48 -49 -125 -86 -217 -86c-147 0 -237 103 -237 232c0 136 105 243 240 243c105 0 224 -66 227 -216c0 -4 0 -10 -1 -15h-419v-11c0 -106 72 -191 194 -191c76 0 140 31 181 74zM303 423c-95 0 -167 -67 -186 -154h363c-3 104 -96 154 -177 154z
M168 663l37 5l101 -97l100 97l37 -5l-112 -122h-50z" />
    <glyph glyph-name="edotaccent" unicode="&#x117;" horiz-adv-x="593" 
d="M487 104l32 -30c-48 -49 -125 -86 -217 -86c-147 0 -237 103 -237 232c0 136 105 243 240 243c105 0 224 -66 227 -216c0 -4 0 -10 -1 -15h-419v-11c0 -106 72 -191 194 -191c76 0 140 31 181 74zM303 423c-95 0 -167 -67 -186 -154h363c-3 104 -96 154 -177 154z
M273 589c0 17 14 31 33 31s33 -14 33 -31c0 -18 -14 -31 -33 -31s-33 14 -33 31z" />
    <glyph glyph-name="emacron" unicode="&#x113;" horiz-adv-x="593" 
d="M487 104l32 -30c-48 -49 -125 -86 -217 -86c-147 0 -237 103 -237 232c0 136 105 243 240 243c105 0 224 -66 227 -216c0 -4 0 -10 -1 -15h-419v-11c0 -106 72 -191 194 -191c76 0 140 31 181 74zM303 423c-95 0 -167 -67 -186 -154h363c-3 104 -96 154 -177 154z
M183 613h246v-37h-246v37z" />
    <glyph glyph-name="eogonek" unicode="&#x119;" horiz-adv-x="593" 
d="M487 104l32 -30c-31 -32 -74 -58 -125 -73c-39 -16 -137 -62 -137 -127c0 -42 40 -67 101 -67c22 0 45 4 69 8l4 -31c-26 -6 -54 -9 -80 -9c-84 0 -136 35 -136 92c0 53 50 95 97 121h-10c-147 0 -237 103 -237 232c0 136 105 243 240 243c105 0 224 -66 227 -216
c0 -4 0 -10 -1 -15h-419v-11c0 -106 72 -191 194 -191c76 0 140 31 181 74zM303 423c-95 0 -167 -67 -186 -154h363c-3 104 -96 154 -177 154z" />
    <glyph glyph-name="gbreve" unicode="&#x11f;" horiz-adv-x="625" 
d="M474 -36v105c-52 -51 -115 -81 -180 -81c-124 0 -228 94 -228 236c0 145 109 239 240 239c85 0 148 -54 172 -86c1 24 4 49 13 74h45c-11 -35 -14 -69 -14 -101v-386c0 -105 -76 -191 -223 -191c-103 0 -163 37 -204 81l30 28c35 -38 86 -69 174 -69
c115 0 175 67 175 151zM298 29c62 0 125 32 176 80v232c-18 22 -77 80 -164 80c-106 0 -192 -77 -192 -197c0 -118 81 -195 180 -195zM185 662h37c0 -42 16 -97 90 -97s90 55 90 97h36c0 -56 -22 -130 -126 -130s-127 74 -127 130z" />
    <glyph glyph-name="gcircumflex" unicode="&#x11d;" horiz-adv-x="625" 
d="M474 -36v105c-52 -51 -115 -81 -180 -81c-124 0 -228 94 -228 236c0 145 109 239 240 239c85 0 148 -54 172 -86c1 24 4 49 13 74h45c-11 -35 -14 -69 -14 -101v-386c0 -105 -76 -191 -223 -191c-103 0 -163 37 -204 81l30 28c35 -38 86 -69 174 -69
c115 0 175 67 175 151zM298 29c62 0 125 32 176 80v232c-18 22 -77 80 -164 80c-106 0 -192 -77 -192 -197c0 -118 81 -195 180 -195zM174 545l113 121h50l112 -121l-37 -5l-100 97l-101 -97z" />
    <glyph glyph-name="uni0123" unicode="&#x123;" horiz-adv-x="625" 
d="M326 548l-37 -12c-30 22 -59 52 -59 94c0 59 54 97 141 97c21 0 40 -2 61 -6l-2 -31c-18 3 -37 5 -55 5c-61 0 -100 -24 -100 -68c0 -33 23 -59 51 -79zM474 -36v105c-52 -51 -115 -81 -180 -81c-124 0 -228 94 -228 236c0 145 109 239 240 239c85 0 148 -54 172 -86
c1 24 4 49 13 74h45c-11 -35 -14 -69 -14 -101v-386c0 -105 -76 -191 -223 -191c-103 0 -163 37 -204 81l30 28c35 -38 86 -69 174 -69c115 0 175 67 175 151zM298 29c62 0 125 32 176 80v232c-18 22 -77 80 -164 80c-106 0 -192 -77 -192 -197c0 -118 81 -195 180 -195z
" />
    <glyph glyph-name="gdotaccent" unicode="&#x121;" horiz-adv-x="625" 
d="M474 -36v105c-52 -51 -115 -81 -180 -81c-124 0 -228 94 -228 236c0 145 109 239 240 239c85 0 148 -54 172 -86c1 24 4 49 13 74h45c-11 -35 -14 -69 -14 -101v-386c0 -105 -76 -191 -223 -191c-103 0 -163 37 -204 81l30 28c35 -38 86 -69 174 -69
c115 0 175 67 175 151zM298 29c62 0 125 32 176 80v232c-18 22 -77 80 -164 80c-106 0 -192 -77 -192 -197c0 -118 81 -195 180 -195zM279 589c0 17 14 31 33 31s33 -14 33 -31c0 -18 -14 -31 -33 -31s-33 14 -33 31z" />
    <glyph glyph-name="hbar" unicode="&#x127;" horiz-adv-x="605" 
d="M12 560v33h90v107h47v-107h170v-33h-170v-179c39 39 103 82 183 82c107 0 178 -66 178 -157v-306h-48v306c0 66 -54 115 -133 115c-80 0 -141 -45 -180 -83v-338h-47v560h-90z" />
    <glyph glyph-name="hcircumflex" unicode="&#x125;" horiz-adv-x="605" 
d="M27 754l-37 5l113 114h50l112 -114l-37 -5l-100 89zM149 0h-47v700h47v-319c39 39 103 82 183 82c107 0 178 -66 178 -157v-306h-48v306c0 66 -54 115 -133 115c-80 0 -141 -45 -180 -83v-338z" />
    <glyph glyph-name="iacute" unicode="&#xed;" horiz-adv-x="251" 
d="M149 0h-47v451h47v-451zM176 688l52 -4l-102 -146l-43 4z" />
    <glyph glyph-name="igrave" unicode="&#xec;" horiz-adv-x="251" 
d="M149 0h-47v451h47v-451zM22 684l53 4l92 -146l-42 -4z" />
    <glyph glyph-name="icircumflex" unicode="&#xee;" horiz-adv-x="251" 
d="M149 0h-47v451h47v-451zM-12 545l113 121h50l112 -121l-37 -5l-100 97l-101 -97z" />
    <glyph glyph-name="idieresis" unicode="&#xef;" horiz-adv-x="251" 
d="M149 0h-47v451h47v-451zM186 589c0 17 13 31 33 31c19 0 33 -14 33 -31c0 -18 -14 -31 -33 -31c-20 0 -33 14 -33 31zM-1 589c0 17 14 31 33 31s34 -14 34 -31c0 -18 -15 -31 -34 -31s-33 14 -33 31z" />
    <glyph glyph-name="ibreve" unicode="&#x12d;" horiz-adv-x="251" 
d="M149 0h-47v451h47v-451zM-1 662h37c0 -42 16 -97 90 -97s90 55 90 97h36c0 -56 -23 -130 -126 -130c-104 0 -127 74 -127 130z" />
    <glyph glyph-name="imacron" unicode="&#x12b;" horiz-adv-x="251" 
d="M149 0h-47v451h47v-451zM3 613h245v-37h-245v37z" />
    <glyph glyph-name="iogonek" unicode="&#x12f;" horiz-adv-x="251" 
d="M149 0c-42 -17 -136 -62 -136 -126c0 -42 40 -67 101 -67c22 0 45 4 69 8l4 -31c-26 -6 -54 -9 -80 -9c-84 0 -136 35 -136 92c0 67 79 114 131 138v446h47v-451zM91 642c0 18 14 32 34 32s35 -14 35 -32c0 -19 -15 -32 -35 -32s-34 14 -34 32z" />
    <glyph glyph-name="itilde" unicode="&#x129;" horiz-adv-x="251" 
d="M149 0h-47v451h47v-451zM5 546l-32 18c26 40 51 66 86 66c24 0 42 -13 67 -32c18 -14 38 -27 59 -27c24 0 42 24 58 46l30 -17c-24 -38 -50 -66 -86 -66c-28 0 -52 13 -71 28c-22 18 -37 31 -55 31c-23 0 -40 -25 -56 -47z" />
    <glyph glyph-name="ij" unicode="&#x133;" horiz-adv-x="502" 
d="M149 0h-47v451h47v-451zM91 642c0 18 14 32 34 32s35 -14 35 -32c0 -19 -15 -32 -35 -32s-34 14 -34 32zM249 -227l-12 38c52 4 116 34 116 132v508h47v-508c0 -125 -84 -170 -151 -170zM342 642c0 18 14 32 34 32s35 -14 35 -32c0 -19 -15 -32 -35 -32s-34 14 -34 32z
" />
    <glyph glyph-name="dotlessi" unicode="&#x131;" horiz-adv-x="251" 
d="M149 0h-47v451h47v-451z" />
    <glyph glyph-name="jcircumflex" unicode="&#x135;" horiz-adv-x="251" 
d="M-2 -227l-12 38c52 4 116 34 116 132v508h47v-508c0 -125 -84 -170 -151 -170zM-12 545l113 121h50l112 -121l-37 -5l-100 97l-101 -97z" />
    <glyph glyph-name="dotlessj" unicode="&#x237;" horiz-adv-x="251" 
d="M-2 -227l-12 38c52 4 116 34 116 132v508h47v-508c0 -125 -84 -170 -151 -170z" />
    <glyph glyph-name="uni0137" unicode="&#x137;" horiz-adv-x="550" 
d="M435 451h65l-186 -156l215 -295h-59l-191 265l-129 -109v-156h-48v700h48v-493zM266 -55l37 12c30 -22 59 -51 59 -93c0 -60 -54 -98 -142 -98c-21 0 -40 2 -60 6l1 31c18 -3 38 -4 55 -4c62 0 101 23 101 67c0 33 -24 59 -51 79z" />
    <glyph glyph-name="kgreenlandic" unicode="&#x138;" horiz-adv-x="550" 
d="M435 451h65l-186 -156l215 -295h-59l-191 265l-129 -109v-156h-48v451h48v-244z" />
    <glyph glyph-name="lacute" unicode="&#x13a;" horiz-adv-x="270" 
d="M111 0v700h48v-700h-48zM76 759l149 114l56 -5l-163 -114z" />
    <glyph glyph-name="lcaron" unicode="&#x13e;" horiz-adv-x="270" 
d="M159 0h-48v700h48v-700zM241 491c-1 1 -27 2 -28 3c19 55 26 138 26 206h48c0 -86 -12 -145 -46 -209z" />
    <glyph glyph-name="uni013C" unicode="&#x13c;" horiz-adv-x="270" 
d="M159 0h-48v700h48v-700zM142 -55l37 12c30 -22 59 -51 59 -93c0 -60 -54 -98 -142 -98c-21 0 -40 2 -60 6l1 31c18 -3 38 -4 55 -4c62 0 101 23 101 67c0 33 -24 59 -51 79z" />
    <glyph glyph-name="ldot" unicode="&#x140;" horiz-adv-x="287" 
d="M232 366c0 17 14 31 33 31s33 -14 33 -31c0 -18 -14 -31 -33 -31s-33 13 -33 31zM159 0h-48v700h48v-700z" />
    <glyph glyph-name="lslash" unicode="&#x142;" horiz-adv-x="301" 
d="M174 0h-47v339l-81 -47l-17 29l98 57v322h47v-294l94 55l18 -29l-112 -66v-366z" />
    <glyph glyph-name="ntilde" unicode="&#xf1;" horiz-adv-x="606" 
d="M151 0h-48v349c0 33 -4 67 -15 102h45c9 -25 12 -48 14 -74c41 42 103 86 190 86c102 0 175 -66 175 -157v-306h-48v306c0 66 -55 115 -133 115c-80 0 -141 -44 -180 -83v-338zM182 546l-32 18c26 40 51 66 86 66c24 0 42 -13 67 -32c18 -14 38 -27 60 -27
c23 0 41 24 57 46l30 -17c-24 -38 -50 -66 -86 -66c-28 0 -52 13 -70 28c-23 18 -38 31 -56 31c-23 0 -40 -25 -56 -47z" />
    <glyph glyph-name="nacute" unicode="&#x144;" horiz-adv-x="606" 
d="M151 0h-48v349c0 33 -4 67 -15 102h45c9 -25 12 -48 14 -74c41 42 103 86 190 86c102 0 175 -66 175 -157v-306h-48v306c0 66 -55 115 -133 115c-80 0 -141 -44 -180 -83v-338zM353 688l52 -4l-102 -146l-42 4z" />
    <glyph glyph-name="ncaron" unicode="&#x148;" horiz-adv-x="606" 
d="M151 0h-48v349c0 33 -4 67 -15 102h45c9 -25 12 -48 14 -74c41 42 103 86 190 86c102 0 175 -66 175 -157v-306h-48v306c0 66 -55 115 -133 115c-80 0 -141 -44 -180 -83v-338zM165 663l37 5l101 -97l100 97l37 -5l-112 -122h-50z" />
    <glyph glyph-name="uni0146" unicode="&#x146;" horiz-adv-x="606" 
d="M151 0h-48v349c0 33 -4 67 -15 102h45c9 -25 12 -48 14 -74c41 42 103 86 190 86c102 0 175 -66 175 -157v-306h-48v306c0 66 -55 115 -133 115c-80 0 -141 -44 -180 -83v-338zM299 -55l37 12c30 -22 59 -51 59 -93c0 -60 -54 -98 -142 -98c-21 0 -40 2 -60 6l1 31
c18 -3 38 -4 55 -4c62 0 101 23 101 67c0 33 -24 59 -51 79z" />
    <glyph glyph-name="eng" unicode="&#x14b;" horiz-adv-x="606" 
d="M512 306v-363c0 -125 -85 -170 -152 -170l-12 38c52 4 116 34 116 132v363c0 66 -55 115 -133 115c-80 0 -141 -44 -180 -83v-338h-48v349c0 33 -4 67 -15 102h45c9 -25 12 -48 14 -74c41 42 103 86 190 86c102 0 175 -66 175 -157z" />
    <glyph glyph-name="napostrophe" unicode="&#x149;" horiz-adv-x="606" 
d="M-3 518l-16 25c34 11 86 42 86 96c0 20 -11 33 -27 38c-7 -2 -14 -4 -21 -4c-16 0 -28 11 -28 27s13 28 32 28c43 0 79 -33 79 -80c0 -79 -59 -113 -105 -130zM151 0h-48v349c0 33 -4 67 -15 102h45c9 -25 12 -48 14 -74c41 42 103 86 190 86c102 0 175 -66 175 -157
v-306h-48v306c0 66 -55 115 -133 115c-80 0 -141 -44 -180 -83v-338z" />
    <glyph glyph-name="oacute" unicode="&#xf3;" horiz-adv-x="617" 
d="M65 227c0 131 106 236 242 236c137 0 245 -105 245 -236c0 -134 -108 -239 -245 -239c-136 0 -242 105 -242 239zM114 227c0 -110 84 -199 193 -199c111 0 196 89 196 199c0 107 -85 196 -196 196c-109 0 -193 -89 -193 -196zM358 688l52 -4l-102 -146l-42 4z" />
    <glyph glyph-name="ograve" unicode="&#xf2;" horiz-adv-x="617" 
d="M65 227c0 131 106 236 242 236c137 0 245 -105 245 -236c0 -134 -108 -239 -245 -239c-136 0 -242 105 -242 239zM114 227c0 -110 84 -199 193 -199c111 0 196 89 196 199c0 107 -85 196 -196 196c-109 0 -193 -89 -193 -196zM204 684l53 4l92 -146l-42 -4z" />
    <glyph glyph-name="ocircumflex" unicode="&#xf4;" horiz-adv-x="617" 
d="M65 227c0 131 106 236 242 236c137 0 245 -105 245 -236c0 -134 -108 -239 -245 -239c-136 0 -242 105 -242 239zM114 227c0 -110 84 -199 193 -199c111 0 196 89 196 199c0 107 -85 196 -196 196c-109 0 -193 -89 -193 -196zM170 545l113 121h50l112 -121l-37 -5
l-100 97l-101 -97z" />
    <glyph glyph-name="odieresis" unicode="&#xf6;" horiz-adv-x="617" 
d="M65 227c0 131 106 236 242 236c137 0 245 -105 245 -236c0 -134 -108 -239 -245 -239c-136 0 -242 105 -242 239zM114 227c0 -110 84 -199 193 -199c111 0 196 89 196 199c0 107 -85 196 -196 196c-109 0 -193 -89 -193 -196zM368 589c0 17 14 31 33 31s33 -14 33 -31
c0 -18 -14 -31 -33 -31s-33 14 -33 31zM181 589c0 17 14 31 33 31c20 0 34 -14 34 -31c0 -18 -14 -31 -34 -31c-19 0 -33 14 -33 31z" />
    <glyph glyph-name="otilde" unicode="&#xf5;" horiz-adv-x="617" 
d="M65 227c0 131 106 236 242 236c137 0 245 -105 245 -236c0 -134 -108 -239 -245 -239c-136 0 -242 105 -242 239zM114 227c0 -110 84 -199 193 -199c111 0 196 89 196 199c0 107 -85 196 -196 196c-109 0 -193 -89 -193 -196zM187 546l-32 18c26 40 51 66 86 66
c24 0 42 -13 67 -32c18 -14 38 -27 60 -27c23 0 41 24 57 46l30 -17c-24 -38 -50 -66 -86 -66c-28 0 -52 13 -70 28c-23 18 -38 31 -56 31c-23 0 -40 -25 -56 -47z" />
    <glyph glyph-name="obreve" unicode="&#x14f;" horiz-adv-x="617" 
d="M65 227c0 131 106 236 242 236c137 0 245 -105 245 -236c0 -134 -108 -239 -245 -239c-136 0 -242 105 -242 239zM114 227c0 -110 84 -199 193 -199c111 0 196 89 196 199c0 107 -85 196 -196 196c-109 0 -193 -89 -193 -196zM181 662h37c0 -42 16 -97 90 -97
s90 55 90 97h36c0 -56 -22 -130 -126 -130s-127 74 -127 130z" />
    <glyph glyph-name="ohungarumlaut" unicode="&#x151;" horiz-adv-x="617" 
d="M65 227c0 131 106 236 242 236c137 0 245 -105 245 -236c0 -134 -108 -239 -245 -239c-136 0 -242 105 -242 239zM114 227c0 -110 84 -199 193 -199c111 0 196 89 196 199c0 107 -85 196 -196 196c-109 0 -193 -89 -193 -196zM228 533l-32 4l64 134l43 -3zM392 533l-32 4
l64 134l43 -3z" />
    <glyph glyph-name="omacron" unicode="&#x14d;" horiz-adv-x="617" 
d="M65 227c0 131 106 236 242 236c137 0 245 -105 245 -236c0 -134 -108 -239 -245 -239c-136 0 -242 105 -242 239zM114 227c0 -110 84 -199 193 -199c111 0 196 89 196 199c0 107 -85 196 -196 196c-109 0 -193 -89 -193 -196zM185 613h246v-37h-246v37z" />
    <glyph glyph-name="oslash" unicode="&#xf8;" horiz-adv-x="617" 
d="M135 -50l-27 20l48 68c-56 44 -91 111 -91 189c0 131 106 236 242 236c45 0 88 -12 124 -32l49 70l28 -20l-49 -69c57 -43 93 -110 93 -185c0 -134 -108 -239 -245 -239c-46 0 -87 12 -123 32zM503 227c0 59 -27 113 -69 149l-226 -321c29 -17 63 -27 99 -27
c111 0 196 89 196 199zM114 227c0 -61 26 -116 67 -152l225 321c-29 17 -63 27 -99 27c-109 0 -193 -89 -193 -196z" />
    <glyph glyph-name="oslashacute" unicode="&#x1ff;" horiz-adv-x="617" 
d="M358 688l52 -4l-102 -146l-42 4zM135 -50l-27 20l48 68c-56 44 -91 111 -91 189c0 131 106 236 242 236c45 0 88 -12 124 -32l49 70l28 -20l-49 -69c57 -43 93 -110 93 -185c0 -134 -108 -239 -245 -239c-46 0 -87 12 -123 32zM503 227c0 59 -27 113 -69 149l-226 -321
c29 -17 63 -27 99 -27c111 0 196 89 196 199zM114 227c0 -61 26 -116 67 -152l225 321c-29 17 -63 27 -99 27c-109 0 -193 -89 -193 -196z" />
    <glyph glyph-name="racute" unicode="&#x155;" horiz-adv-x="389" 
d="M151 0h-48v350c0 32 -4 66 -15 101h45c9 -28 12 -52 14 -81c32 46 79 93 145 93c30 0 60 -10 75 -30l-18 -41c-14 17 -44 26 -67 26c-57 0 -101 -51 -131 -92v-326zM245 688l52 -4l-102 -146l-42 4z" />
    <glyph glyph-name="rcaron" unicode="&#x159;" horiz-adv-x="389" 
d="M151 0h-48v350c0 32 -4 66 -15 101h45c9 -28 12 -52 14 -81c32 46 79 93 145 93c30 0 60 -10 75 -30l-18 -41c-14 17 -44 26 -67 26c-57 0 -101 -51 -131 -92v-326zM57 663l37 5l101 -97l100 97l37 -5l-112 -122h-50z" />
    <glyph glyph-name="uni0157" unicode="&#x157;" horiz-adv-x="389" 
d="M151 0h-48v350c0 32 -4 66 -15 101h45c9 -28 12 -52 14 -81c32 46 79 93 145 93c30 0 60 -10 75 -30l-18 -41c-14 17 -44 26 -67 26c-57 0 -101 -51 -131 -92v-326zM160 -55l37 12c30 -22 59 -51 59 -93c0 -60 -54 -98 -142 -98c-21 0 -40 2 -60 6l1 31
c18 -3 38 -4 55 -4c62 0 101 23 101 67c0 33 -24 59 -51 79z" />
    <glyph glyph-name="scaron" unicode="&#x161;" horiz-adv-x="544" 
d="M451 404l-20 -36c-31 23 -97 57 -173 57c-61 0 -134 -24 -134 -88c0 -68 87 -72 154 -75c77 -3 208 -10 208 -128c0 -100 -97 -147 -212 -147c-106 0 -172 39 -216 72l20 35c43 -31 103 -68 195 -68c90 0 166 34 166 104c0 79 -99 85 -161 88c-93 5 -201 11 -201 114
c0 100 99 132 181 132c86 0 160 -35 193 -60zM133 663l37 5l101 -97l100 97l37 -5l-112 -122h-50z" />
    <glyph glyph-name="sacute" unicode="&#x15b;" horiz-adv-x="544" 
d="M451 404l-20 -36c-31 23 -97 57 -173 57c-61 0 -134 -24 -134 -88c0 -68 87 -72 154 -75c77 -3 208 -10 208 -128c0 -100 -97 -147 -212 -147c-106 0 -172 39 -216 72l20 35c43 -31 103 -68 195 -68c90 0 166 34 166 104c0 79 -99 85 -161 88c-93 5 -201 11 -201 114
c0 100 99 132 181 132c86 0 160 -35 193 -60zM321 688l52 -4l-102 -146l-42 4z" />
    <glyph glyph-name="scedilla" unicode="&#x15f;" horiz-adv-x="544" 
d="M451 404l-20 -36c-31 23 -97 57 -173 57c-61 0 -134 -24 -134 -88c0 -68 87 -72 154 -75c77 -3 208 -10 208 -128c0 -97 -92 -144 -203 -147l-18 -58c16 4 34 8 54 8c43 0 92 -20 92 -75c0 -56 -65 -87 -151 -87c-55 0 -105 12 -148 24l8 28c42 -10 91 -22 138 -22
c63 0 110 20 110 58s-34 48 -64 48c-20 0 -41 -5 -59 -10l-18 18l22 69c-91 5 -151 40 -191 71l20 35c43 -31 103 -68 195 -68c90 0 166 34 166 104c0 79 -99 85 -161 88c-93 5 -201 11 -201 114c0 100 99 132 181 132c86 0 160 -35 193 -60z" />
    <glyph glyph-name="scircumflex" unicode="&#x15d;" horiz-adv-x="544" 
d="M451 404l-20 -36c-31 23 -97 57 -173 57c-61 0 -134 -24 -134 -88c0 -68 87 -72 154 -75c77 -3 208 -10 208 -128c0 -100 -97 -147 -212 -147c-106 0 -172 39 -216 72l20 35c43 -31 103 -68 195 -68c90 0 166 34 166 104c0 79 -99 85 -161 88c-93 5 -201 11 -201 114
c0 100 99 132 181 132c86 0 160 -35 193 -60zM133 545l113 121h50l112 -121l-37 -5l-100 97l-101 -97z" />
    <glyph glyph-name="uni0219" unicode="&#x219;" horiz-adv-x="544" 
d="M451 404l-20 -36c-31 23 -97 57 -173 57c-61 0 -134 -24 -134 -88c0 -68 87 -72 154 -75c77 -3 208 -10 208 -128c0 -100 -97 -147 -212 -147c-106 0 -172 39 -216 72l20 35c43 -31 103 -68 195 -68c90 0 166 34 166 104c0 79 -99 85 -161 88c-93 5 -201 11 -201 114
c0 100 99 132 181 132c86 0 160 -35 193 -60zM242 -55l37 12c30 -22 59 -51 59 -93c0 -60 -54 -98 -142 -98c-21 0 -40 2 -60 6l1 31c18 -3 38 -4 55 -4c62 0 101 23 101 67c0 33 -24 59 -51 79z" />
    <glyph glyph-name="tbar" unicode="&#x167;" horiz-adv-x="384" 
d="M33 413v38h96v140h48v-140h160v-38h-160v-154h160v-33h-160v-116c0 -60 39 -82 77 -82c31 0 71 12 89 25l9 -36c-21 -17 -67 -31 -106 -31c-52 0 -117 31 -117 124v116h-96v33h96v154h-96z" />
    <glyph glyph-name="tcaron" unicode="&#x165;" horiz-adv-x="384" 
d="M33 413v38h96v140h48v-140h160v-38h-160v-303c0 -60 39 -82 77 -82c31 0 71 12 89 25l9 -36c-21 -17 -67 -31 -106 -31c-52 0 -117 31 -117 124v303h-96zM305 520c-2 1 -28 2 -29 3c20 55 27 138 27 206h48c0 -85 -12 -145 -46 -209z" />
    <glyph glyph-name="uni0163" unicode="&#x163;" horiz-adv-x="384" 
d="M33 413v38h96v140h48v-140h160v-38h-160v-303c0 -60 39 -82 77 -82c31 0 71 12 89 25l9 -36c-21 -17 -67 -31 -106 -31c-7 0 -13 1 -20 2l-19 -59c16 4 34 8 54 8c43 0 92 -20 92 -75c0 -56 -65 -87 -151 -87c-55 0 -105 12 -148 24l8 28c42 -10 91 -22 138 -22
c63 0 110 20 110 58s-34 48 -64 48c-20 0 -41 -5 -59 -10l-18 18l25 78c-35 15 -65 50 -65 113v303h-96z" />
    <glyph glyph-name="uni021B" unicode="&#x21b;" horiz-adv-x="384" 
d="M33 413v38h96v140h48v-140h160v-38h-160v-303c0 -60 39 -82 77 -82c31 0 71 12 89 25l9 -36c-21 -17 -67 -31 -106 -31c-52 0 -117 31 -117 124v303h-96zM204 -55l37 12c30 -22 59 -51 59 -93c0 -60 -54 -98 -142 -98c-21 0 -40 2 -60 6l1 31c18 -3 38 -4 55 -4
c62 0 101 23 101 67c0 33 -24 59 -51 79z" />
    <glyph glyph-name="uacute" unicode="&#xfa;" horiz-adv-x="605" 
d="M455 451h47v-350c0 -32 2 -66 8 -101h-44c-5 23 -7 50 -7 73c-41 -41 -103 -85 -190 -85c-102 0 -175 66 -175 156v307h48v-307c0 -65 55 -115 133 -115c79 0 141 45 180 83v339zM353 688l52 -4l-102 -146l-42 4z" />
    <glyph glyph-name="ugrave" unicode="&#xf9;" horiz-adv-x="605" 
d="M455 451h47v-350c0 -32 2 -66 8 -101h-44c-5 23 -7 50 -7 73c-41 -41 -103 -85 -190 -85c-102 0 -175 66 -175 156v307h48v-307c0 -65 55 -115 133 -115c79 0 141 45 180 83v339zM199 684l53 4l92 -146l-42 -4z" />
    <glyph glyph-name="ucircumflex" unicode="&#xfb;" horiz-adv-x="605" 
d="M455 451h47v-350c0 -32 2 -66 8 -101h-44c-5 23 -7 50 -7 73c-41 -41 -103 -85 -190 -85c-102 0 -175 66 -175 156v307h48v-307c0 -65 55 -115 133 -115c79 0 141 45 180 83v339zM165 545l113 121h50l112 -121l-37 -5l-100 97l-101 -97z" />
    <glyph glyph-name="udieresis" unicode="&#xfc;" horiz-adv-x="605" 
d="M455 451h47v-350c0 -32 2 -66 8 -101h-44c-5 23 -7 50 -7 73c-41 -41 -103 -85 -190 -85c-102 0 -175 66 -175 156v307h48v-307c0 -65 55 -115 133 -115c79 0 141 45 180 83v339zM363 589c0 17 14 31 33 31s33 -14 33 -31c0 -18 -14 -31 -33 -31s-33 14 -33 31zM176 589
c0 17 14 31 33 31c20 0 34 -14 34 -31c0 -18 -14 -31 -34 -31c-19 0 -33 14 -33 31z" />
    <glyph glyph-name="ubreve" unicode="&#x16d;" horiz-adv-x="605" 
d="M455 451h47v-350c0 -32 2 -66 8 -101h-44c-5 23 -7 50 -7 73c-41 -41 -103 -85 -190 -85c-102 0 -175 66 -175 156v307h48v-307c0 -65 55 -115 133 -115c79 0 141 45 180 83v339zM176 662h37c0 -42 16 -97 90 -97s90 55 90 97h36c0 -56 -22 -130 -126 -130
s-127 74 -127 130z" />
    <glyph glyph-name="uhungarumlaut" unicode="&#x171;" horiz-adv-x="605" 
d="M455 451h47v-350c0 -32 2 -66 8 -101h-44c-5 23 -7 50 -7 73c-41 -41 -103 -85 -190 -85c-102 0 -175 66 -175 156v307h48v-307c0 -65 55 -115 133 -115c79 0 141 45 180 83v339zM223 533l-32 4l64 134l43 -3zM387 533l-32 4l64 134l43 -3z" />
    <glyph glyph-name="umacron" unicode="&#x16b;" horiz-adv-x="605" 
d="M455 451h47v-350c0 -32 2 -66 8 -101h-44c-5 23 -7 50 -7 73c-41 -41 -103 -85 -190 -85c-102 0 -175 66 -175 156v307h48v-307c0 -65 55 -115 133 -115c79 0 141 45 180 83v339zM180 613h246v-37h-246v37z" />
    <glyph glyph-name="uogonek" unicode="&#x173;" horiz-adv-x="605" 
d="M455 451h47v-350c0 -32 2 -66 8 -101h-3c-40 -17 -134 -62 -134 -126c0 -42 40 -67 101 -67c22 0 45 4 69 8l4 -31c-26 -6 -54 -9 -80 -9c-84 0 -136 35 -136 92c0 68 82 116 133 139c-4 22 -5 46 -5 67c-41 -41 -103 -85 -190 -85c-102 0 -175 66 -175 156v307h48v-307
c0 -65 55 -115 133 -115c79 0 141 45 180 83v339z" />
    <glyph glyph-name="uring" unicode="&#x16f;" horiz-adv-x="605" 
d="M455 451h47v-350c0 -32 2 -66 8 -101h-44c-5 23 -7 50 -7 73c-41 -41 -103 -85 -190 -85c-102 0 -175 66 -175 156v307h48v-307c0 -65 55 -115 133 -115c79 0 141 45 180 83v339zM224 621c0 -37 30 -65 77 -65c46 0 78 28 78 65c0 38 -32 67 -78 67
c-47 0 -77 -29 -77 -67zM193 621c0 50 40 91 108 91s110 -41 110 -91s-42 -89 -110 -89s-108 39 -108 89z" />
    <glyph glyph-name="utilde" unicode="&#x169;" horiz-adv-x="605" 
d="M455 451h47v-350c0 -32 2 -66 8 -101h-44c-5 23 -7 50 -7 73c-41 -41 -103 -85 -190 -85c-102 0 -175 66 -175 156v307h48v-307c0 -65 55 -115 133 -115c79 0 141 45 180 83v339zM182 546l-32 18c26 40 51 66 86 66c24 0 42 -13 67 -32c18 -14 38 -27 60 -27
c23 0 41 24 57 46l30 -17c-24 -38 -50 -66 -86 -66c-28 0 -52 13 -70 28c-23 18 -38 31 -56 31c-23 0 -40 -25 -56 -47z" />
    <glyph glyph-name="wacute" unicode="&#x1e83;" horiz-adv-x="767" 
d="M668 451h52l-151 -451h-55l-128 385h-5l-128 -385h-55l-151 451h52l125 -391h4l130 391h53l130 -391h5zM433 688l52 -4l-102 -146l-42 4z" />
    <glyph glyph-name="wcircumflex" unicode="&#x175;" horiz-adv-x="767" 
d="M668 451h52l-151 -451h-55l-128 385h-5l-128 -385h-55l-151 451h52l125 -391h4l130 391h53l130 -391h5zM245 545l113 121h50l112 -121l-37 -5l-100 97l-101 -97z" />
    <glyph glyph-name="wdieresis" unicode="&#x1e85;" horiz-adv-x="767" 
d="M668 451h52l-151 -451h-55l-128 385h-5l-128 -385h-55l-151 451h52l125 -391h4l130 391h53l130 -391h5zM443 589c0 17 14 31 33 31s33 -14 33 -31c0 -18 -14 -31 -33 -31s-33 14 -33 31zM256 589c0 17 14 31 33 31c20 0 34 -14 34 -31c0 -18 -14 -31 -34 -31
c-19 0 -33 14 -33 31z" />
    <glyph glyph-name="wgrave" unicode="&#x1e81;" horiz-adv-x="767" 
d="M668 451h52l-151 -451h-55l-128 385h-5l-128 -385h-55l-151 451h52l125 -391h4l130 391h53l130 -391h5zM279 684l53 4l92 -146l-42 -4z" />
    <glyph glyph-name="yacute" unicode="&#xfd;" horiz-adv-x="544" 
d="M457 451h48l-327 -664h-48l109 218l-199 446h53l171 -393h3zM322 688l52 -4l-102 -146l-42 4z" />
    <glyph glyph-name="ydieresis" unicode="&#xff;" horiz-adv-x="544" 
d="M457 451h48l-327 -664h-48l109 218l-199 446h53l171 -393h3zM332 589c0 17 14 31 33 31s33 -14 33 -31c0 -18 -14 -31 -33 -31s-33 14 -33 31zM145 589c0 17 14 31 33 31c20 0 34 -14 34 -31c0 -18 -14 -31 -34 -31c-19 0 -33 14 -33 31z" />
    <glyph glyph-name="ycircumflex" unicode="&#x177;" horiz-adv-x="544" 
d="M457 451h48l-327 -664h-48l109 218l-199 446h53l171 -393h3zM134 545l113 121h50l112 -121l-37 -5l-100 97l-101 -97z" />
    <glyph glyph-name="ygrave" unicode="&#x1ef3;" horiz-adv-x="544" 
d="M457 451h48l-327 -664h-48l109 218l-199 446h53l171 -393h3zM168 684l53 4l92 -146l-42 -4z" />
    <glyph glyph-name="zcaron" unicode="&#x17e;" horiz-adv-x="516" 
d="M459 38v-38h-414v30l341 383h-307v38h371v-30l-341 -383h350zM120 663l37 5l101 -97l100 97l37 -5l-112 -122h-50z" />
    <glyph glyph-name="zacute" unicode="&#x17a;" horiz-adv-x="516" 
d="M459 38v-38h-414v30l341 383h-307v38h371v-30l-341 -383h350zM308 688l52 -4l-102 -146l-42 4z" />
    <glyph glyph-name="zdotaccent" unicode="&#x17c;" horiz-adv-x="516" 
d="M459 38v-38h-414v30l341 383h-307v38h371v-30l-341 -383h350zM225 589c0 17 14 31 33 31s33 -14 33 -31c0 -18 -14 -31 -33 -31s-33 14 -33 31z" />
    <glyph glyph-name="eth" unicode="&#xf0;" horiz-adv-x="627" 
d="M187 521l-12 32l151 55c-43 33 -91 58 -138 79l48 14c47 -21 93 -45 135 -77l118 43l12 -33l-100 -36l21 -21c64 -69 121 -177 121 -328c0 -75 -19 -143 -64 -190c-43 -45 -107 -71 -174 -71c-129 0 -240 104 -240 234c0 131 106 233 230 233c85 0 166 -43 191 -119
c-15 96 -55 170 -107 224c-7 8 -15 15 -22 22zM115 222c0 -107 84 -192 190 -192c52 0 103 20 139 58c30 33 50 79 50 140c0 113 -86 186 -190 186c-105 0 -189 -85 -189 -192z" />
    <glyph glyph-name="thorn" unicode="&#xfe;" horiz-adv-x="625" 
d="M138 341v-231c28 -31 88 -81 165 -81c106 0 192 77 192 196s-82 196 -180 196c-71 0 -135 -40 -177 -80zM138 700v-318c43 44 107 81 180 81c125 0 229 -94 229 -238c0 -143 -109 -237 -240 -237c-75 0 -136 42 -169 81v-282h-47v913h47z" />
    <glyph glyph-name="ae" unicode="&#xe6;" horiz-adv-x="976" 
d="M246 30c111 0 195 65 221 94c-9 19 -16 43 -18 64c-39 50 -110 70 -181 70c-111 0 -164 -50 -164 -114c0 -63 50 -114 142 -114zM687 -12c-93 0 -164 41 -203 103c-48 -50 -140 -103 -247 -103c-114 0 -181 69 -181 156c0 85 73 152 206 152c65 0 147 -17 188 -66v87
c0 77 -79 106 -154 106c-79 0 -146 -33 -178 -56l-18 38c37 24 108 58 198 58c81 0 176 -26 185 -113v-25c31 86 115 138 204 138c111 0 233 -70 228 -231h-418c0 -10 0 -19 2 -40c10 -91 81 -162 188 -162c82 0 143 31 183 74l32 -30c-48 -49 -120 -86 -215 -86zM499 269
h364c-3 104 -95 154 -176 154c-96 0 -169 -65 -188 -154z" />
    <glyph glyph-name="aeacute" unicode="&#x1fd;" horiz-adv-x="976" 
d="M246 30c111 0 195 65 221 94c-9 19 -16 43 -18 64c-39 50 -110 70 -181 70c-111 0 -164 -50 -164 -114c0 -63 50 -114 142 -114zM687 -12c-93 0 -164 41 -203 103c-48 -50 -140 -103 -247 -103c-114 0 -181 69 -181 156c0 85 73 152 206 152c65 0 147 -17 188 -66v87
c0 77 -79 106 -154 106c-79 0 -146 -33 -178 -56l-18 38c37 24 108 58 198 58c81 0 176 -26 185 -113v-25c31 86 115 138 204 138c111 0 233 -70 228 -231h-418c0 -10 0 -19 2 -40c10 -91 81 -162 188 -162c82 0 143 31 183 74l32 -30c-48 -49 -120 -86 -215 -86zM499 269
h364c-3 104 -95 154 -176 154c-96 0 -169 -65 -188 -154zM537 688l52 -4l-102 -146l-42 4z" />
    <glyph glyph-name="oe" unicode="&#x153;" horiz-adv-x="1031" 
d="M926 104l31 -30c-47 -49 -120 -86 -215 -86c-110 0 -194 63 -218 152c-28 -89 -121 -152 -217 -152c-130 0 -243 105 -243 239c0 131 113 236 243 236c98 0 193 -66 220 -157c26 92 116 157 215 157c111 0 233 -70 228 -231h-418c0 -10 0 -20 2 -35
c7 -94 79 -167 188 -167c82 0 143 31 184 74zM113 227c0 -110 85 -199 194 -199s196 87 196 199c0 107 -85 196 -196 196c-109 0 -194 -89 -194 -196zM742 423c-94 0 -167 -65 -186 -154h362c-2 104 -94 154 -176 154z" />
    <glyph glyph-name="schwa" unicode="&#x259;" horiz-adv-x="595" 
d="M108 347l-32 30c48 49 121 86 216 86c145 0 238 -103 238 -230c0 -137 -105 -245 -238 -245c-112 0 -234 70 -228 231h418c1 4 1 9 1 14c0 103 -75 188 -191 188c-83 0 -144 -31 -184 -74zM292 28c93 0 165 64 185 154h-362c3 -104 95 -154 177 -154z" />
    <glyph glyph-name="ij.alt" horiz-adv-x="502" 
d="M149 0h-47v451h47v-451zM91 642c0 18 14 32 34 32s35 -14 35 -32c0 -19 -15 -32 -35 -32s-34 14 -34 32zM146 -189l12 37c20 -20 59 -33 91 -33c52 0 104 32 104 113v523h47v-523c0 -115 -76 -155 -143 -155c-38 0 -85 13 -111 38zM342 642c0 18 14 32 34 32
s35 -14 35 -32c0 -19 -15 -32 -35 -32s-34 14 -34 32z" />
    <glyph glyph-name="j.alt" horiz-adv-x="251" 
d="M-105 -189l12 37c20 -20 59 -33 91 -33c52 0 104 32 104 113v523h47v-523c0 -115 -76 -155 -143 -155c-38 0 -85 13 -111 38zM91 642c0 18 14 32 34 32s35 -14 35 -32c0 -19 -15 -32 -35 -32s-34 14 -34 32z" />
    <glyph glyph-name="jcircumflex.alt" horiz-adv-x="251" 
d="M-12 545l113 121h50l112 -121l-37 -5l-100 97l-101 -97zM-105 -189l12 37c20 -20 59 -33 91 -33c52 0 104 32 104 113v523h47v-523c0 -115 -76 -155 -143 -155c-38 0 -85 13 -111 38z" />
    <glyph glyph-name="dotlessj.alt" horiz-adv-x="251" 
d="M-105 -189l12 37c20 -20 59 -33 91 -33c52 0 104 32 104 113v523h47v-523c0 -115 -76 -155 -143 -155c-38 0 -85 13 -111 38z" />
    <glyph glyph-name="r.alt" horiz-adv-x="489" 
d="M290 419c-60 0 -108 -52 -139 -93v-326h-48v350c0 32 -4 66 -15 101h45c9 -28 12 -52 14 -81c32 46 82 93 152 93c89 0 150 -65 147 -157h-46c2 68 -45 113 -110 113z" />
    <glyph glyph-name="racute.alt" horiz-adv-x="489" 
d="M290 419c-60 0 -108 -52 -139 -93v-326h-48v350c0 32 -4 66 -15 101h45c9 -28 12 -52 14 -81c32 46 82 93 152 93c89 0 150 -65 147 -157h-46c2 68 -45 113 -110 113zM309 688l52 -4l-102 -146l-42 4z" />
    <glyph glyph-name="rcaron.alt" horiz-adv-x="489" 
d="M290 419c-60 0 -108 -52 -139 -93v-326h-48v350c0 32 -4 66 -15 101h45c9 -28 12 -52 14 -81c32 46 82 93 152 93c89 0 150 -65 147 -157h-46c2 68 -45 113 -110 113zM121 663l37 5l101 -97l100 97l37 -5l-112 -122h-50z" />
    <glyph glyph-name="uni0157.alt" horiz-adv-x="489" 
d="M290 419c-60 0 -108 -52 -139 -93v-326h-48v350c0 32 -4 66 -15 101h45c9 -28 12 -52 14 -81c32 46 82 93 152 93c89 0 150 -65 147 -157h-46c2 68 -45 113 -110 113zM210 -55l37 12c30 -22 59 -51 59 -93c0 -60 -54 -98 -142 -98c-21 0 -40 2 -60 6l1 31
c18 -3 38 -4 55 -4c62 0 101 23 101 67c0 33 -24 59 -51 79z" />
    <glyph glyph-name="y.alt" horiz-adv-x="544" 
d="M221 -31l18 36l-199 446h53l171 -393h3l190 393h48l-250 -510c-44 -87 -106 -168 -209 -168c-55 0 -103 15 -135 39l15 38c28 -21 71 -37 121 -37c83 0 134 71 174 156z" />
    <glyph glyph-name="yacute.alt" horiz-adv-x="544" 
d="M221 -31l18 36l-199 446h53l171 -393h3l190 393h48l-250 -510c-44 -87 -106 -168 -209 -168c-55 0 -103 15 -135 39l15 38c28 -21 71 -37 121 -37c83 0 134 71 174 156zM322 688l52 -4l-102 -146l-42 4z" />
    <glyph glyph-name="ydieresis.alt" horiz-adv-x="544" 
d="M221 -31l18 36l-199 446h53l171 -393h3l190 393h48l-250 -510c-44 -87 -106 -168 -209 -168c-55 0 -103 15 -135 39l15 38c28 -21 71 -37 121 -37c83 0 134 71 174 156zM332 589c0 17 14 31 33 31s33 -14 33 -31c0 -18 -14 -31 -33 -31s-33 14 -33 31zM145 589
c0 17 14 31 33 31c20 0 34 -14 34 -31c0 -18 -14 -31 -34 -31c-19 0 -33 14 -33 31z" />
    <glyph glyph-name="ycircumflex.alt" horiz-adv-x="544" 
d="M221 -31l18 36l-199 446h53l171 -393h3l190 393h48l-250 -510c-44 -87 -106 -168 -209 -168c-55 0 -103 15 -135 39l15 38c28 -21 71 -37 121 -37c83 0 134 71 174 156zM134 545l113 121h50l112 -121l-37 -5l-100 97l-101 -97z" />
    <glyph glyph-name="ygrave.alt" horiz-adv-x="544" 
d="M221 -31l18 36l-199 446h53l171 -393h3l190 393h48l-250 -510c-44 -87 -106 -168 -209 -168c-55 0 -103 15 -135 39l15 38c28 -21 71 -37 121 -37c83 0 134 71 174 156zM168 684l53 4l92 -146l-42 -4z" />
    <glyph glyph-name="acute" unicode="&#xb4;" 
d="M300 688l52 -4l-102 -146l-42 4z" />
    <glyph glyph-name="grave" unicode="`" 
d="M146 684l53 4l92 -146l-42 -4z" />
    <glyph glyph-name="circumflex" unicode="&#x2c6;" 
d="M112 545l113 121h50l112 -121l-37 -5l-100 97l-101 -97z" />
    <glyph glyph-name="dieresis" unicode="&#xa8;" 
d="M310 589c0 17 14 31 33 31s33 -14 33 -31c0 -18 -14 -31 -33 -31s-33 14 -33 31zM123 589c0 17 14 31 33 31c20 0 34 -14 34 -31c0 -18 -14 -31 -34 -31c-19 0 -33 14 -33 31z" />
    <glyph glyph-name="tilde" unicode="&#x2dc;" 
d="M129 546l-32 18c26 40 51 66 86 66c24 0 42 -13 67 -32c18 -14 38 -27 60 -27c23 0 41 24 57 46l30 -17c-24 -38 -50 -66 -86 -66c-28 0 -52 13 -70 28c-23 18 -38 31 -56 31c-23 0 -40 -25 -56 -47z" />
    <glyph glyph-name="ring" unicode="&#x2da;" 
d="M171 621c0 -37 30 -65 77 -65c46 0 78 28 78 65c0 38 -32 67 -78 67c-47 0 -77 -29 -77 -67zM140 621c0 50 40 91 108 91s110 -41 110 -91s-42 -89 -110 -89s-108 39 -108 89z" />
    <glyph glyph-name="cedilla" unicode="&#xb8;" 
d="M258 7h34l-25 -78c16 4 34 8 54 8c43 0 92 -20 92 -75c0 -56 -65 -87 -151 -87c-55 0 -105 12 -148 24l8 28c42 -10 91 -22 138 -22c63 0 110 20 110 58s-34 48 -64 48c-20 0 -41 -5 -59 -10l-18 18z" />
    <glyph glyph-name="breve" unicode="&#x2d8;" 
d="M123 662h37c0 -42 16 -97 90 -97s90 55 90 97h36c0 -56 -22 -130 -126 -130s-127 74 -127 130z" />
    <glyph glyph-name="caron" unicode="&#x2c7;" 
d="M112 663l37 5l101 -97l100 97l37 -5l-112 -122h-50z" />
    <glyph glyph-name="dotaccent" unicode="&#x2d9;" 
d="M217 589c0 17 14 31 33 31s33 -14 33 -31c0 -18 -14 -31 -33 -31s-33 14 -33 31z" />
    <glyph glyph-name="hungarumlaut" unicode="&#x2dd;" 
d="M170 533l-32 4l64 134l43 -3zM334 533l-32 4l64 134l43 -3z" />
    <glyph glyph-name="macron" unicode="&#xaf;" 
d="M127 613h246v-37h-246v37z" />
    <glyph glyph-name="ogonek" unicode="&#x2db;" 
d="M263 16l22 -15c-39 -16 -137 -62 -137 -127c0 -42 40 -67 101 -67c22 0 45 4 69 8l4 -31c-26 -6 -54 -9 -80 -9c-84 0 -136 35 -136 92c0 79 113 132 157 149z" />
    <glyph glyph-name="commaaccent" unicode="&#xf6c3;" 
d="M250 -55l37 12c30 -22 59 -51 59 -93c0 -60 -54 -98 -142 -98c-21 0 -40 2 -60 6l1 31c18 -3 38 -4 55 -4c62 0 101 23 101 67c0 33 -24 59 -51 79z" />
    <glyph glyph-name="caron.alt" 
d="M239 491c-2 1 -28 2 -29 3c20 55 27 138 27 206h48c0 -86 -12 -145 -46 -209z" />
    <glyph glyph-name="germandbls" unicode="&#xdf;" horiz-adv-x="601" 
d="M313 -10l-4 37c119 0 180 65 180 151c0 127 -135 188 -183 202l4 38c43 10 96 65 96 137c0 68 -50 116 -124 116c-65 0 -133 -38 -133 -137v-534h-47v534c0 129 92 177 180 177c105 0 173 -68 173 -153s-67 -141 -105 -156c64 -21 189 -95 189 -225
c0 -106 -79 -187 -226 -187z" />
    <glyph glyph-name="fi" horiz-adv-x="585" 
d="M42 451h96v105c0 115 74 154 135 154c26 0 56 -6 73 -14l-9 -39c-14 6 -38 12 -56 12c-46 0 -95 -32 -95 -113v-105h154v-38h-154v-413h-48v413h-96v38zM484 0h-48v451h48v-451zM425 642c0 18 15 32 35 32s35 -14 35 -32c0 -19 -15 -32 -35 -32s-35 14 -35 32z" />
    <glyph glyph-name="fl" horiz-adv-x="610" 
d="M42 451h96v105c0 115 74 154 135 154c26 0 56 -6 73 -14l-9 -39c-14 6 -38 12 -56 12c-46 0 -95 -32 -95 -113v-105h154v-38h-154v-413h-48v413h-96v38zM499 0h-47v700h47v-700z" />
    <glyph glyph-name="f_j.alt" horiz-adv-x="585" 
d="M42 451h96v105c0 115 74 154 135 154c26 0 56 -6 73 -14l-9 -39c-14 6 -38 12 -56 12c-46 0 -95 -32 -95 -113v-105h154v-38h-154v-413h-48v413h-96v38zM229 -189l12 37c20 -20 59 -33 91 -33c52 0 104 32 104 113v523h48v-523c0 -115 -77 -155 -144 -155
c-38 0 -85 13 -111 38zM425 642c0 18 15 32 35 32s35 -14 35 -32c0 -19 -15 -32 -35 -32s-35 14 -35 32z" />
    <glyph glyph-name="f_f_j.alt" horiz-adv-x="901" 
d="M454 0v413h-268v-413h-48v413h-96v38h96v105c0 115 73 154 138 154c37 0 84 -12 111 -38l-13 -37c-21 22 -60 34 -90 34c-51 0 -98 -32 -98 -113v-105h268v105c0 115 75 154 136 154c25 0 55 -6 73 -14l-10 -39c-14 6 -38 12 -56 12c-46 0 -95 -32 -95 -113v-105h154v-38
h-154v-413h-48zM545 -189l13 37c16 -16 58 -33 93 -33c48 0 102 32 102 113v523h47v-523c0 -115 -78 -155 -141 -155c-44 0 -93 20 -114 38zM776 610c-20 0 -34 14 -34 32s14 32 34 32s35 -14 35 -32c0 -19 -15 -32 -35 -32z" />
    <glyph glyph-name="ordfeminine" unicode="&#xaa;" horiz-adv-x="453" 
d="M87 489l-15 32c29 19 86 44 157 44c74 0 155 -25 155 -100v-184c0 -18 3 -43 13 -61h-42c-9 14 -12 36 -13 53c-26 -24 -84 -62 -161 -62c-89 0 -141 51 -141 116c0 63 57 113 161 113c49 0 110 -12 141 -46v61c0 54 -58 75 -115 75c-61 0 -114 -24 -140 -41zM189 247
c83 0 148 52 153 62v50c-29 36 -83 48 -135 48c-86 0 -125 -35 -125 -80c0 -44 38 -80 107 -80z" />
    <glyph glyph-name="ordmasculine" unicode="&#xba;" horiz-adv-x="467" 
d="M43 389c0 97 88 176 190 176c103 0 191 -79 191 -176c0 -100 -88 -178 -191 -178c-102 0 -190 78 -190 178zM86 389c0 -79 63 -142 147 -142s148 63 148 142c0 77 -64 140 -148 140s-147 -63 -147 -140z" />
    <glyph glyph-name="a.superior" horiz-adv-x="453" 
d="M87 489l-15 32c29 19 86 44 157 44c74 0 155 -25 155 -100v-184c0 -18 3 -43 13 -61h-42c-9 14 -12 36 -13 53c-26 -24 -84 -62 -161 -62c-89 0 -141 51 -141 116c0 63 57 113 161 113c49 0 110 -12 141 -46v61c0 54 -58 75 -115 75c-61 0 -114 -24 -140 -41zM189 247
c83 0 148 52 153 62v50c-29 36 -83 48 -135 48c-86 0 -125 -35 -125 -80c0 -44 38 -80 107 -80z" />
    <glyph glyph-name="b.superior" horiz-adv-x="475" 
d="M105 220h-39c6 27 7 53 7 78v402h42v-195c39 38 88 60 137 60c97 0 178 -70 178 -176c0 -109 -84 -178 -186 -178c-65 0 -114 37 -133 62c0 -17 -2 -36 -6 -53zM249 529c-48 0 -96 -23 -134 -57v-168c14 -16 60 -58 125 -58c80 0 145 56 145 143c0 84 -62 140 -136 140z
" />
    <glyph glyph-name="d.superior" horiz-adv-x="474" 
d="M408 220h-39c-4 17 -5 36 -6 53c-19 -25 -69 -62 -137 -62c-100 0 -182 69 -182 178c0 106 84 176 182 176c48 0 95 -21 134 -56v191h41v-402c0 -25 2 -51 7 -78zM230 529c-77 0 -140 -56 -140 -140c0 -87 63 -143 140 -143c68 0 115 42 130 58v168
c-38 34 -84 57 -130 57z" />
    <glyph glyph-name="e.superior" horiz-adv-x="454" 
d="M372 300l28 -25c-39 -37 -95 -64 -170 -64c-113 0 -186 77 -186 172c0 102 83 182 186 182c88 0 184 -53 179 -175h-323v-7c0 -74 57 -136 144 -136c64 0 110 23 142 53zM230 530c-70 0 -123 -46 -139 -108h272c-1 73 -70 108 -133 108z" />
    <glyph glyph-name="h.superior" horiz-adv-x="459" 
d="M115 220h-42v480h42v-195c29 29 77 60 138 60c84 0 139 -49 139 -117v-228h-42v228c0 46 -41 81 -100 81c-60 0 -106 -33 -135 -61v-248z" />
    <glyph glyph-name="i.superior" horiz-adv-x="188" 
d="M115 220h-42v335h42v-335zM64 677c0 14 13 27 30 27s29 -12 29 -27c0 -16 -12 -27 -29 -27s-30 12 -30 27z" />
    <glyph glyph-name="l.superior" horiz-adv-x="187" 
d="M115 220h-42v480h42v-480z" />
    <glyph glyph-name="m.superior" horiz-adv-x="681" 
d="M115 220h-42v258c0 25 -2 51 -11 77h39c6 -18 9 -34 10 -53c28 31 70 63 130 63c58 0 97 -30 116 -68c27 34 72 68 133 68c72 0 124 -49 124 -117v-228h-42v228c0 46 -36 81 -88 81c-53 0 -93 -33 -119 -61v-248h-42v247c-9 32 -37 62 -88 62c-53 0 -93 -33 -120 -61
v-248z" />
    <glyph glyph-name="n.superior" unicode="&#x207f;" horiz-adv-x="460" 
d="M115 220h-42v257c0 26 -2 52 -11 78h39c7 -18 9 -34 10 -54c32 32 78 64 146 64c79 0 136 -49 136 -117v-228h-42v228c0 46 -41 81 -101 81c-59 0 -105 -32 -135 -61v-248z" />
    <glyph glyph-name="o.superior" horiz-adv-x="467" 
d="M43 389c0 97 88 176 190 176c103 0 191 -79 191 -176c0 -100 -88 -178 -191 -178c-102 0 -190 78 -190 178zM86 389c0 -79 63 -142 147 -142s148 63 148 142c0 77 -64 140 -148 140s-147 -63 -147 -140z" />
    <glyph glyph-name="r.superior" horiz-adv-x="303" 
d="M115 220h-41v258c0 25 -4 51 -12 77h39c7 -20 9 -38 10 -59c26 34 61 69 112 69c24 0 47 -7 58 -21l-15 -36c-11 11 -34 18 -51 18c-43 0 -76 -37 -100 -66v-240z" />
    <glyph glyph-name="s.superior" horiz-adv-x="418" 
d="M351 522l-17 -31c-24 17 -76 41 -137 41c-44 0 -99 -18 -99 -60c0 -49 64 -52 117 -54c60 -3 163 -8 163 -99c0 -74 -75 -110 -166 -110c-82 0 -135 30 -170 54l17 31c34 -22 81 -50 154 -50c67 0 124 25 124 72c0 56 -75 61 -122 63c-75 3 -159 9 -159 88
c0 74 79 99 142 99c68 0 127 -26 153 -44z" />
    <glyph glyph-name="t.superior" horiz-adv-x="322" 
d="M36 523v32h74v104h42v-104h121v-32h-121v-221c0 -41 28 -57 58 -57c23 0 53 8 68 17l6 -32c-16 -11 -52 -21 -82 -21c-41 0 -92 23 -92 93v221h-74z" />
    <glyph glyph-name="a.sc" horiz-adv-x="687" 
d="M52 0l266 536h51l265 -536h-55l-87 178h-300l-87 -178h-53zM339 478l-128 -260h261l-127 260h-6z" />
    <glyph glyph-name="b.sc" horiz-adv-x="747" 
d="M457 0h-324v536h309c66 0 118 -15 153 -51c21 -22 33 -50 33 -81c0 -55 -40 -104 -91 -117c68 -8 119 -66 119 -133c0 -42 -18 -78 -45 -105c-38 -37 -86 -49 -154 -49zM481 257h-297v-212h271c44 0 89 8 118 37c20 20 29 48 29 73s-10 47 -27 65c-21 23 -53 37 -94 37z
M437 492h-253v-194h283c34 0 60 11 79 29s30 43 30 68c0 23 -9 44 -24 60c-25 26 -63 37 -115 37z" />
    <glyph glyph-name="c.sc" horiz-adv-x="725" 
d="M627 123l34 -33c-64 -57 -156 -104 -265 -104c-181 0 -316 128 -316 282s135 282 314 282c99 0 191 -37 254 -91l-34 -34c-56 48 -138 80 -220 80c-149 0 -261 -108 -261 -237s113 -237 263 -237c93 0 174 40 231 92z" />
    <glyph glyph-name="d.sc" horiz-adv-x="754" 
d="M362 0h-229v536h229c115 0 179 -32 234 -84c48 -47 75 -112 75 -184s-27 -138 -77 -187c-55 -50 -119 -81 -232 -81zM184 45h176c97 0 147 26 193 67c41 40 65 96 65 156s-23 114 -62 154c-47 42 -97 70 -196 70h-176v-447z" />
    <glyph glyph-name="e.sc" horiz-adv-x="665" 
d="M429 307v-45h-245v-217h422v-45h-473v536h454v-44h-403v-185h245z" />
    <glyph glyph-name="f.sc" horiz-adv-x="608" 
d="M184 0h-51v536h442v-44h-391v-195h244v-45h-244v-252z" />
    <glyph glyph-name="g.sc" horiz-adv-x="745" 
d="M640 465l-35 -32c-53 44 -133 72 -210 72c-148 0 -262 -108 -262 -237c0 -126 109 -237 267 -237c76 0 153 26 204 64v147h-194v45h240v-216c-67 -51 -161 -85 -253 -85c-177 0 -317 127 -317 282s140 282 315 282c89 0 177 -32 245 -85z" />
    <glyph glyph-name="h.sc" horiz-adv-x="764" 
d="M184 0h-51v536h51v-223h396v223h50v-536h-50v268h-396v-268z" />
    <glyph glyph-name="i.sc" horiz-adv-x="317" 
d="M184 0h-51v536h51v-536z" />
    <glyph glyph-name="j.sc" horiz-adv-x="632" 
d="M460 536h50v-346c0 -129 -102 -204 -241 -204c-144 0 -197 79 -225 134l42 21c22 -45 66 -110 182 -110c110 0 192 57 192 159v346z" />
    <glyph glyph-name="k.sc" horiz-adv-x="689" 
d="M541 536h62l-220 -204l265 -332h-65l-236 299l-163 -150v-149h-51v536h51v-330z" />
    <glyph glyph-name="l.sc" horiz-adv-x="595" 
d="M133 536h51v-491h371v-45h-422v536z" />
    <glyph glyph-name="m.sc" horiz-adv-x="841" 
d="M133 0v536h58l230 -358h1l229 358h57v-536h-51v451h-4l-226 -350h-16l-225 350h-4v-451h-49z" />
    <glyph glyph-name="n.sc" horiz-adv-x="767" 
d="M584 536h50v-536h-48l-401 458h-1v-458h-51v536h49l401 -457h1v457z" />
    <glyph glyph-name="o.sc" horiz-adv-x="780" 
d="M81 269c0 154 136 281 308 281s311 -127 311 -281c0 -157 -139 -283 -311 -283s-308 126 -308 283zM134 269c0 -131 112 -238 255 -238c144 0 258 107 258 238c0 129 -114 236 -258 236c-143 0 -255 -107 -255 -236z" />
    <glyph glyph-name="p.sc" horiz-adv-x="692" 
d="M184 0h-51v536h299c75 0 119 -16 157 -52c27 -27 42 -62 42 -100c0 -40 -17 -74 -43 -100c-37 -35 -79 -53 -156 -53h-248v-231zM432 492h-248v-217h247c63 0 92 14 119 39c19 18 30 43 30 70c0 25 -10 49 -27 67c-30 29 -63 41 -121 41z" />
    <glyph glyph-name="q.sc" horiz-adv-x="780" 
d="M81 269c0 154 136 281 308 281s311 -127 311 -281c0 -103 -60 -193 -150 -243l84 -110l-50 -15l-80 105c-35 -13 -74 -20 -115 -20c-172 0 -308 126 -308 283zM391 155l49 15l81 -106c76 41 126 118 126 205c0 129 -114 236 -258 236c-143 0 -255 -107 -255 -236
c0 -131 112 -238 255 -238c30 0 59 5 86 13z" />
    <glyph glyph-name="r.sc" horiz-adv-x="735" 
d="M184 0h-51v536h312c81 0 124 -20 159 -54c25 -26 41 -60 41 -98c0 -76 -54 -135 -142 -146l145 -238h-58l-139 231h-267v-231zM445 492h-261v-216h284c77 0 126 49 126 108c0 25 -10 49 -28 68c-29 27 -58 40 -121 40z" />
    <glyph glyph-name="s.sc" horiz-adv-x="690" 
d="M575 470l-32 -34c-35 30 -112 70 -218 70c-80 0 -172 -29 -172 -108c0 -78 106 -82 205 -88c98 -5 259 -14 259 -151c0 -120 -121 -173 -259 -173c-141 0 -228 57 -287 110l31 35c51 -44 130 -101 257 -101c111 0 207 40 207 123c0 93 -113 104 -208 109
c-120 7 -256 14 -256 133c0 117 126 155 224 155c115 0 206 -46 249 -80z" />
    <glyph glyph-name="t.sc" horiz-adv-x="577" 
d="M43 492v44h491v-44h-220v-492h-50v492h-221z" />
    <glyph glyph-name="u.sc" horiz-adv-x="740" 
d="M568 536h50v-349c0 -128 -106 -201 -249 -201c-141 0 -248 73 -248 201v349h51v-349c0 -100 85 -156 197 -156c114 0 199 57 199 156v349z" />
    <glyph glyph-name="v.sc" horiz-adv-x="686" 
d="M581 536h54l-266 -536h-51l-267 536h57l234 -478h6z" />
    <glyph glyph-name="w.sc" horiz-adv-x="918" 
d="M63 536h56l157 -469h4l158 469h44l158 -469h4l157 469h54l-185 -536h-55l-154 452h-5l-153 -452h-56z" />
    <glyph glyph-name="x.sc" horiz-adv-x="653" 
d="M520 536h62l-224 -255l243 -281h-64l-211 246l-215 -246h-61l245 279l-220 257h64l189 -221z" />
    <glyph glyph-name="y.sc" horiz-adv-x="611" 
d="M506 536h59l-234 -281v-255h-51v255l-234 281h63l198 -235z" />
    <glyph glyph-name="z.sc" horiz-adv-x="641" 
d="M566 45v-45h-505v32l426 460h-392v44h464v-33l-426 -458h433z" />
    <glyph glyph-name="ampersand.sc" horiz-adv-x="747" 
d="M521 508l-25 -39c-28 16 -73 35 -132 35c-68 0 -131 -28 -131 -79c0 -47 67 -97 95 -122l198 -170c37 31 74 69 111 118l41 -21c-40 -51 -80 -92 -119 -125l123 -105h-67l-92 77c-92 -66 -178 -89 -240 -89c-84 0 -211 42 -211 164c0 105 89 146 166 170
c-33 32 -56 63 -56 103c0 79 90 124 183 124c69 0 121 -23 156 -41zM291 276l-18 15c-59 -18 -150 -47 -150 -138c0 -92 100 -121 164 -121c52 0 125 19 203 74z" />
    <glyph glyph-name="aacute.sc" horiz-adv-x="687" 
d="M52 0l266 536h51l265 -536h-55l-87 178h-300l-87 -178h-53zM339 478l-128 -260h261l-127 260h-6zM284 613l144 114l61 -5l-163 -114z" />
    <glyph glyph-name="agrave.sc" horiz-adv-x="687" 
d="M52 0l266 536h51l265 -536h-55l-87 178h-300l-87 -178h-53zM339 478l-128 -260h261l-127 260h-6zM358 608l-163 114l62 5l144 -114z" />
    <glyph glyph-name="acircumflex.sc" horiz-adv-x="687" 
d="M52 0l266 536h51l265 -536h-55l-87 178h-300l-87 -178h-53zM339 478l-128 -260h261l-127 260h-6zM205 613l113 114h50l112 -114l-37 -5l-100 89l-101 -89z" />
    <glyph glyph-name="adieresis.sc" horiz-adv-x="687" 
d="M52 0l266 536h51l265 -536h-55l-87 178h-300l-87 -178h-53zM339 478l-128 -260h261l-127 260h-6zM403 657c0 17 14 31 33 31s33 -14 33 -31c0 -18 -14 -31 -33 -31s-33 14 -33 31zM216 657c0 17 14 31 33 31c20 0 34 -14 34 -31c0 -18 -14 -31 -34 -31
c-19 0 -33 14 -33 31z" />
    <glyph glyph-name="atilde.sc" horiz-adv-x="687" 
d="M52 0l266 536h51l265 -536h-55l-87 178h-300l-87 -178h-53zM339 478l-128 -260h261l-127 260h-6zM222 614l-32 18c26 41 51 66 86 66c24 0 42 -12 67 -32c18 -14 38 -27 60 -27c23 0 41 24 57 46l30 -16c-24 -39 -50 -67 -86 -67c-28 0 -52 14 -70 28
c-23 18 -38 31 -56 31c-23 0 -40 -25 -56 -47z" />
    <glyph glyph-name="aring.sc" horiz-adv-x="687" 
d="M52 0l266 536h51l265 -536h-55l-87 178h-300l-87 -178h-53zM339 478l-128 -260h261l-127 260h-6zM264 655c0 -37 30 -64 77 -64c46 0 78 27 78 64c0 38 -32 67 -78 67c-47 0 -77 -29 -77 -67zM233 655c0 50 40 91 108 91s110 -41 110 -91s-42 -89 -110 -89
s-108 39 -108 89z" />
    <glyph glyph-name="abreve.sc" horiz-adv-x="687" 
d="M52 0l266 536h51l265 -536h-55l-87 178h-300l-87 -178h-53zM339 478l-128 -260h261l-127 260h-6zM216 723h37c0 -40 16 -89 90 -89s90 49 90 89h36c0 -53 -22 -123 -126 -123s-127 70 -127 123z" />
    <glyph glyph-name="amacron.sc" horiz-adv-x="687" 
d="M52 0l266 536h51l265 -536h-55l-87 178h-300l-87 -178h-53zM339 478l-128 -260h261l-127 260h-6zM220 681h246v-37h-246v37z" />
    <glyph glyph-name="aogonek.sc" horiz-adv-x="687" 
d="M52 0l266 536h51l265 -536h-11c-40 -17 -134 -62 -134 -126c0 -42 40 -67 101 -67c22 0 45 4 69 8l4 -31c-26 -6 -54 -9 -80 -9c-84 0 -136 35 -136 92c0 66 78 114 130 137l-85 174h-300l-87 -178h-53zM339 478l-128 -260h261l-127 260h-6z" />
    <glyph glyph-name="aringacute.sc" horiz-adv-x="687" 
d="M52 0l266 536h51l265 -536h-55l-87 178h-300l-87 -178h-53zM339 478l-128 -260h261l-127 260h-6zM264 655c0 -37 30 -64 77 -64c46 0 78 27 78 64c0 38 -32 67 -78 67c-47 0 -77 -29 -77 -67zM233 655c0 50 40 91 108 91s110 -41 110 -91s-42 -89 -110 -89
s-108 39 -108 89zM284 780l144 114l61 -5l-163 -114z" />
    <glyph glyph-name="ccedilla.sc" horiz-adv-x="725" 
d="M627 123l34 -33c-64 -57 -155 -103 -263 -104l-18 -57c16 4 34 8 54 8c43 0 92 -20 92 -75c0 -56 -65 -87 -151 -87c-55 0 -105 12 -148 24l8 28c42 -10 91 -22 138 -22c63 0 110 20 110 58s-34 48 -64 48c-20 0 -41 -5 -59 -10l-18 18l22 69c-165 13 -284 135 -284 280
c0 154 135 282 314 282c99 0 191 -37 254 -91l-34 -34c-56 48 -138 80 -220 80c-149 0 -261 -108 -261 -237s113 -237 263 -237c93 0 174 40 231 92z" />
    <glyph glyph-name="cacute.sc" horiz-adv-x="725" 
d="M627 123l34 -33c-64 -57 -156 -104 -265 -104c-181 0 -316 128 -316 282s135 282 314 282c99 0 191 -37 254 -91l-34 -34c-56 48 -138 80 -220 80c-149 0 -261 -108 -261 -237s113 -237 263 -237c93 0 174 40 231 92zM336 613l144 114l61 -5l-163 -114z" />
    <glyph glyph-name="ccaron.sc" horiz-adv-x="725" 
d="M627 123l34 -33c-64 -57 -156 -104 -265 -104c-181 0 -316 128 -316 282s135 282 314 282c99 0 191 -37 254 -91l-34 -34c-56 48 -138 80 -220 80c-149 0 -261 -108 -261 -237s113 -237 263 -237c93 0 174 40 231 92zM257 723l37 5l101 -89l100 89l37 -5l-112 -114h-50z
" />
    <glyph glyph-name="ccircumflex.sc" horiz-adv-x="725" 
d="M627 123l34 -33c-64 -57 -156 -104 -265 -104c-181 0 -316 128 -316 282s135 282 314 282c99 0 191 -37 254 -91l-34 -34c-56 48 -138 80 -220 80c-149 0 -261 -108 -261 -237s113 -237 263 -237c93 0 174 40 231 92zM257 613l113 114h50l112 -114l-37 -5l-100 89
l-101 -89z" />
    <glyph glyph-name="cdotaccent.sc" horiz-adv-x="725" 
d="M627 123l34 -33c-64 -57 -156 -104 -265 -104c-181 0 -316 128 -316 282s135 282 314 282c99 0 191 -37 254 -91l-34 -34c-56 48 -138 80 -220 80c-149 0 -261 -108 -261 -237s113 -237 263 -237c93 0 174 40 231 92zM362 657c0 17 14 31 33 31s33 -14 33 -31
c0 -18 -14 -31 -33 -31s-33 14 -33 31z" />
    <glyph glyph-name="dcaron.sc" horiz-adv-x="754" 
d="M362 0h-229v536h229c115 0 179 -32 234 -84c48 -47 75 -112 75 -184s-27 -138 -77 -187c-55 -50 -119 -81 -232 -81zM184 45h176c97 0 147 26 193 67c41 40 65 96 65 156s-23 114 -62 154c-47 42 -97 70 -196 70h-176v-447zM228 723l37 5l101 -89l100 89l37 -5l-112 -114
h-50z" />
    <glyph glyph-name="dcroat.sc" horiz-adv-x="778" 
d="M70 262v41h87v233h229c115 0 179 -32 234 -84c48 -47 75 -112 75 -184s-27 -138 -77 -187c-55 -50 -120 -81 -232 -81h-229v262h-87zM208 45h176c96 0 146 26 193 67c41 40 65 96 65 156s-23 114 -62 154c-47 42 -97 70 -196 70h-176v-189h197v-41h-197v-217z" />
    <glyph glyph-name="eacute.sc" horiz-adv-x="665" 
d="M429 307v-45h-245v-217h422v-45h-473v536h454v-44h-403v-185h245zM299 613l144 114l61 -5l-163 -114z" />
    <glyph glyph-name="egrave.sc" horiz-adv-x="665" 
d="M429 307v-45h-245v-217h422v-45h-473v536h454v-44h-403v-185h245zM373 608l-163 114l62 5l144 -114z" />
    <glyph glyph-name="ecircumflex.sc" horiz-adv-x="665" 
d="M429 307v-45h-245v-217h422v-45h-473v536h454v-44h-403v-185h245zM220 613l113 114h50l112 -114l-37 -5l-100 89l-101 -89z" />
    <glyph glyph-name="edieresis.sc" horiz-adv-x="665" 
d="M429 307v-45h-245v-217h422v-45h-473v536h454v-44h-403v-185h245zM418 657c0 17 14 31 33 31s33 -14 33 -31c0 -18 -14 -31 -33 -31s-33 14 -33 31zM231 657c0 17 14 31 33 31c20 0 34 -14 34 -31c0 -18 -14 -31 -34 -31c-19 0 -33 14 -33 31z" />
    <glyph glyph-name="ebreve.sc" horiz-adv-x="665" 
d="M429 307v-45h-245v-217h422v-45h-473v536h454v-44h-403v-185h245zM231 723h37c0 -40 16 -89 90 -89s90 49 90 89h36c0 -53 -22 -123 -126 -123s-127 70 -127 123z" />
    <glyph glyph-name="ecaron.sc" horiz-adv-x="665" 
d="M429 307v-45h-245v-217h422v-45h-473v536h454v-44h-403v-185h245zM220 723l37 5l101 -89l100 89l37 -5l-112 -114h-50z" />
    <glyph glyph-name="edotaccent.sc" horiz-adv-x="665" 
d="M429 307v-45h-245v-217h422v-45h-473v536h454v-44h-403v-185h245zM325 657c0 17 14 31 33 31s33 -14 33 -31c0 -18 -14 -31 -33 -31s-33 14 -33 31z" />
    <glyph glyph-name="emacron.sc" horiz-adv-x="665" 
d="M429 307v-45h-245v-217h422v-45h-473v536h454v-44h-403v-185h245zM235 681h246v-37h-246v37z" />
    <glyph glyph-name="eogonek.sc" horiz-adv-x="665" 
d="M429 307v-45h-245v-217h422v-45h-88c-40 -17 -134 -62 -134 -126c0 -42 40 -67 101 -67c22 0 45 4 69 8l4 -31c-26 -6 -54 -9 -80 -9c-84 0 -136 35 -136 92c0 62 69 108 120 133h-329v536h454v-44h-403v-185h245z" />
    <glyph glyph-name="gbreve.sc" horiz-adv-x="745" 
d="M640 465l-35 -32c-53 44 -133 72 -210 72c-148 0 -262 -108 -262 -237c0 -126 109 -237 267 -237c76 0 153 26 204 64v147h-194v45h240v-216c-67 -51 -161 -85 -253 -85c-177 0 -317 127 -317 282s140 282 315 282c89 0 177 -32 245 -85zM265 723h37c0 -40 16 -89 90 -89
s90 49 90 89h36c0 -53 -22 -123 -126 -123s-127 70 -127 123z" />
    <glyph glyph-name="gcircumflex.sc" horiz-adv-x="745" 
d="M640 465l-35 -32c-53 44 -133 72 -210 72c-148 0 -262 -108 -262 -237c0 -126 109 -237 267 -237c76 0 153 26 204 64v147h-194v45h240v-216c-67 -51 -161 -85 -253 -85c-177 0 -317 127 -317 282s140 282 315 282c89 0 177 -32 245 -85zM254 613l113 114h50l112 -114
l-37 -5l-100 89l-101 -89z" />
    <glyph glyph-name="uni0123.sc" horiz-adv-x="745" 
d="M640 465l-35 -32c-53 44 -133 72 -210 72c-148 0 -262 -108 -262 -237c0 -126 109 -237 267 -237c76 0 153 26 204 64v147h-194v45h240v-216c-67 -51 -161 -85 -253 -85c-177 0 -317 127 -317 282s140 282 315 282c89 0 177 -32 245 -85zM395 -56l36 13
c29 -21 57 -52 57 -93c0 -61 -56 -98 -144 -98c-24 0 -47 3 -71 8l4 31c21 -3 41 -5 60 -5c65 0 106 24 106 67c0 32 -23 58 -48 77z" />
    <glyph glyph-name="gdotaccent.sc" horiz-adv-x="745" 
d="M640 465l-35 -32c-53 44 -133 72 -210 72c-148 0 -262 -108 -262 -237c0 -126 109 -237 267 -237c76 0 153 26 204 64v147h-194v45h240v-216c-67 -51 -161 -85 -253 -85c-177 0 -317 127 -317 282s140 282 315 282c89 0 177 -32 245 -85zM359 657c0 17 14 31 33 31
s33 -14 33 -31c0 -18 -14 -31 -33 -31s-33 14 -33 31z" />
    <glyph glyph-name="hbar.sc" horiz-adv-x="770" 
d="M49 390v41h87v105h51v-105h396v105h51v-105h87v-41h-87v-390h-51v241h-396v-241h-51v390h-87zM187 286h396v104h-396v-104z" />
    <glyph glyph-name="hcircumflex.sc" horiz-adv-x="764" 
d="M184 0h-51v536h51v-223h396v223h50v-536h-50v268h-396v-268zM244 613l113 114h50l112 -114l-37 -5l-100 89l-101 -89z" />
    <glyph glyph-name="iacute.sc" horiz-adv-x="317" 
d="M184 0h-51v536h51v-536zM99 613l144 114l62 -5l-163 -114z" />
    <glyph glyph-name="igrave.sc" horiz-adv-x="317" 
d="M184 0h-51v536h51v-536zM73 727l144 -114l-43 -5l-163 114z" />
    <glyph glyph-name="icircumflex.sc" horiz-adv-x="317" 
d="M184 0h-51v536h51v-536zM21 613l113 114h50l112 -114l-37 -5l-100 89l-101 -89z" />
    <glyph glyph-name="idieresis.sc" horiz-adv-x="317" 
d="M184 0h-51v536h51v-536zM218 657c0 17 14 31 33 31c20 0 34 -14 34 -31c0 -18 -14 -31 -34 -31c-19 0 -33 14 -33 31zM32 657c0 17 14 31 33 31s33 -14 33 -31c0 -18 -14 -31 -33 -31s-33 14 -33 31z" />
    <glyph glyph-name="ibreve.sc" horiz-adv-x="317" 
d="M184 0h-51v536h51v-536zM32 723h36c0 -40 16 -89 91 -89c74 0 90 49 90 89h36c0 -53 -23 -123 -126 -123c-104 0 -127 70 -127 123z" />
    <glyph glyph-name="idotaccent.sc" horiz-adv-x="317" 
d="M184 0h-51v536h51v-536zM126 657c0 17 13 31 33 31c19 0 33 -14 33 -31c0 -18 -14 -31 -33 -31c-20 0 -33 14 -33 31z" />
    <glyph glyph-name="imacron.sc" horiz-adv-x="317" 
d="M184 0h-51v536h51v-536zM36 681h245v-37h-245v37z" />
    <glyph glyph-name="iogonek.sc" horiz-adv-x="317" 
d="M184 0c-41 -17 -136 -62 -136 -126c0 -42 40 -67 101 -67c22 0 46 4 69 8l5 -31c-27 -6 -54 -9 -81 -9c-83 0 -136 35 -136 92c0 64 75 111 127 135v534h51v-536z" />
    <glyph glyph-name="itilde.sc" horiz-adv-x="317" 
d="M184 0h-51v536h51v-536zM38 614l-32 18c25 41 51 66 86 66c24 0 42 -12 66 -32c19 -14 39 -27 60 -27c24 0 41 24 57 46l31 -16c-24 -39 -50 -67 -86 -67c-28 0 -52 14 -71 28c-23 18 -38 31 -55 31c-23 0 -40 -25 -56 -47z" />
    <glyph glyph-name="ij.sc" horiz-adv-x="949" 
d="M184 0h-51v536h51v-536zM777 536h50v-346c0 -129 -102 -204 -241 -204c-144 0 -197 79 -225 134l42 21c22 -45 66 -110 182 -110c110 0 192 57 192 159v346z" />
    <glyph glyph-name="jcircumflex.sc" horiz-adv-x="632" 
d="M460 536h50v-346c0 -129 -102 -204 -241 -204c-144 0 -197 79 -225 134l42 21c22 -45 66 -110 182 -110c110 0 192 57 192 159v346zM347 613l113 114h50l112 -114l-37 -5l-100 89l-101 -89z" />
    </font>
</defs>
</svg>
