<?xml version="1.0" standalone="no"?>
<!DOCTYPE svg PUBLIC "-//W3C//DTD SVG 1.1//EN" "http://www.w3.org/Graphics/SVG/1.1/DTD/svg11.dtd" >
<svg xmlns="http://www.w3.org/2000/svg" xmlns:xlink="http://www.w3.org/1999/xlink" version="1.1">
<metadata>
Created by FontForge 20190801 at Fri Jan  1 01:00:00 1904
 By Jimmy Wärting
(c)Ryan Molag 2015
</metadata>
<defs>
<font id="Relancer-Regular" horiz-adv-x="519" >
  <font-face 
    font-family="Relancer "
    font-weight="500"
    font-stretch="normal"
    units-per-em="1000"
    panose-1="0 0 0 0 0 0 0 0 0 0"
    ascent="800"
    descent="-200"
    x-height="675"
    cap-height="675"
    bbox="0 -57 696 739"
    underline-thickness="0"
    underline-position="0"
    unicode-range="U+0020-007A"
  />
<missing-glyph horiz-adv-x="472" 
d="M0 700v-700h432v700h-432zM50 50v600h332v-600h-332z" />
    <glyph glyph-name=".notdef" horiz-adv-x="472" 
d="M0 700v-700h432v700h-432zM50 50v600h332v-600h-332z" />
    <glyph glyph-name=".notdef" horiz-adv-x="472" 
d="M0 700v-700h432v700h-432zM50 50v600h332v-600h-332z" />
    <glyph glyph-name="space" unicode=" " horiz-adv-x="300" 
 />
    <glyph glyph-name="exclam" unicode="!" horiz-adv-x="133" 
d="M20 675v0v0v0v0zM20 675v0v0v0v0zM20 675v0v0v0v0zM20 675v0v0v0v0zM20 675v0v0v0v0zM20 675v0v0v0v0zM25 674v-505h68v505h-68zM20 113v0v0v0v0zM20 113v0v0v0v0zM20 113v0v0v0v0zM20 113v0v0v0v0zM20 113v0v0v0v0zM20 113v0v0v0v0zM25 113v-112h68v112h-68z" />
    <glyph glyph-name="dollar" unicode="$" horiz-adv-x="500" 
d="M256 0c113 0 204 91 204 202s-91 202 -202 202v0c-55 0 -102 47 -102 102c0 56 47 102 102 102v0c47 0 91 -13 129 -33v0c11 -7 20 -13 31 -20v78c-42 24 -86 38 -133 40c-9 0 -18 2 -24 2c-94 0 -171 -75 -171 -169c0 -93 75 -166 171 -166c75 0 135 -62 135 -138
c0 -75 -60 -135 -135 -135v0c-47 0 -91 13 -129 33v0c-25 13 -42 29 -60 44l-47 -46l3 -3c6 -6 13 -13 20 -17v0c6 -7 15 -11 22 -18c4 -2 6 -4 11 -7c4 -2 6 -4 9 -6c44 -27 93 -43 142 -45c9 0 18 -2 24 -2v0v0v0v0zM216 739v0v0v0v0zM216 739v0v0v0v0zM216 739v0v0v0v0z
M216 739v0v0v0v0zM216 739v0v0v0v0zM216 739v0v0v0v0zM221 738v-795h68v795h-68z" />
    <glyph glyph-name="ampersand" unicode="&#x26;" horiz-adv-x="646" 
d="M509 99l4 4c41 43 70 95 84 157h-71c-6 -21 -13 -41 -25 -59c-11 -19 -25 -37 -41 -53l-221 224v0l-4 4l-30 32v0c-9 9 -16 17 -23 23c-18 18 -27 43 -27 71v4c2 55 48 101 102 101v0v0c25 0 48 -10 67 -25h93c-30 54 -87 93 -155 93c-96 0 -176 -78 -176 -176
c0 -43 16 -82 41 -111c-61 -37 -102 -103 -102 -178c0 -59 25 -107 64 -144c32 -30 73 -52 123 -61c10 -2 11 -2 18 -3v0c14 -2 27 -2 41 -2c41 0 83 9 121 22c10 3 16 6 25 10c2 1 4 1 7 3c-3 -2 13 5 21 10c4 2 9 5 13 7l53 -52h95zM399 93c-39 -16 -83 -26 -126 -27
c-42 -1 -102 7 -136 41c-28 28 -44 66 -44 105c2 57 37 105 87 125l55 -54l177 -180c-1 -2 -4 -5 -4 -5l-4 -3z" />
    <glyph glyph-name="comma" unicode="," horiz-adv-x="40" 
 />
    <glyph glyph-name="hyphen" unicode="-" horiz-adv-x="688" 
d="M189 417v-67h349v67h-349z" />
    <glyph glyph-name="period" unicode="." horiz-adv-x="133" 
d="M25 99v-98h68v98h-68z" />
    <glyph glyph-name="question" unicode="?" horiz-adv-x="437" 
d="M397 534c0 97 -81 177 -180 177v0c-10 0 -19 0 -26 -2c-50 -5 -99 -19 -142 -43v-82c9 7 21 14 33 21v0c40 24 88 35 137 35v0c59 0 109 -49 109 -108s-52 -108 -111 -108h-33v-259h71v198c80 16 142 84 142 171zM20 675v0v0v0v0zM186 115v-112h67v112h-67z" />
    <glyph glyph-name="A" unicode="A" horiz-adv-x="666" 
d="M481 179l75 -179h70l-273 675h-58l-273 -673h70l71 177h318zM456 245h-264l132 324z" />
    <glyph glyph-name="B" unicode="B" 
d="M479 201c0 78 -46 146 -113 180c33 31 55 75 55 124c0 93 -75 168 -168 170v0h-161h-56h-11v-675h11v0h242v66h-186v270h186c75 0 135 -59 135 -135c0 -75 -60 -135 -135 -135v-66c110 0 201 91 201 201zM92 403v0v203h159c55 0 102 -46 102 -101
c0 -56 -47 -102 -102 -102v0h-159z" />
    <glyph glyph-name="C" unicode="C" horiz-adv-x="634" 
d="M590 198c-50 -76 -135 -130 -232 -130c-148 0 -270 121 -270 270c0 148 122 270 270 270c74 0 140 -30 189 -77l47 47c-60 61 -144 97 -236 97c-187 0 -337 -151 -337 -337c0 -187 150 -338 337 -338c90 0 171 36 232 92v106z" />
    <glyph glyph-name="D" unicode="D" horiz-adv-x="623" 
d="M583 343c2 182 -148 332 -330 332v0h-161h-56h-11v-675h11v0h215v0v0c184 0 332 148 332 332v11zM519 339v-7c0 -148 -120 -268 -268 -268v0h-159v542h159v0c148 0 268 -119 268 -267z" />
    <glyph glyph-name="E" unicode="E" 
d="M479 0v66h-387v270h225v67h-225v203h371v69h-371h-67v-69v-203v-67v-270v-66v0h67v0h387z" />
    <glyph glyph-name="F" unicode="F" horiz-adv-x="506" 
d="M92 609h374v66h-374h-66v-66v-204v-66v-339h66v339h226v66h-226v204z" />
    <glyph glyph-name="G" unicode="G" horiz-adv-x="634" 
d="M295 405v-67h227v-214c-45 -36 -101 -56 -164 -56c-148 0 -270 121 -270 270c0 148 122 270 270 270c74 0 140 -30 189 -77l47 47c-60 61 -144 97 -236 97c-187 0 -337 -151 -337 -337c0 -187 150 -338 337 -338c90 0 171 36 232 92v12v0v234v67h-295z" />
    <glyph glyph-name="H" unicode="H" 
d="M479 675h-66v-270h-321v270h-67v-270v-66v-339h67v339h321v-339h66v675z" />
    <glyph glyph-name="I" unicode="I" horiz-adv-x="133" 
d="M20 675v0v0v0v0zM20 675v0v0v0v0zM20 675v0v0v0v0zM20 675v0v0v0v0zM20 675v0v0v0v0zM20 675v0v0v0v0zM25 674v-673h68v673h-68z" />
    <glyph glyph-name="J" unicode="J" horiz-adv-x="470" 
d="M430 675h-67v-553c-44 -33 -100 -55 -160 -55c-44 0 -89 11 -126 31l-49 -49c51 -31 111 -49 173 -49c89 0 169 36 229 91v0v104v480z" />
    <glyph glyph-name="K" unicode="K" horiz-adv-x="623" 
d="M149 346l340 -346h94l-386 393l281 282l-95 -2l-292 -291v291h-66v-673h66v287z" />
    <glyph glyph-name="L" unicode="L" 
d="M479 66h-387v609h-67v-609v-66v0h454v66z" />
    <glyph glyph-name="M" unicode="M" horiz-adv-x="649" 
d="M609 675h-67l-225 -230l-228 230h-67v-675h67v571l228 -232l225 232v-571h67v675z" />
    <glyph glyph-name="N" unicode="N" horiz-adv-x="585" 
d="M545 675h-66v-398l-387 398v0h-67v-675h67v569l387 -399v-170h66v675z" />
    <glyph glyph-name="O" unicode="O" horiz-adv-x="736" 
d="M696 338c0 186 -153 337 -338 337c-187 0 -337 -151 -337 -337c0 -187 150 -338 337 -338s338 151 338 338zM628 338c-2 -149 -124 -270 -270 -270c-148 0 -270 121 -270 270c0 148 122 270 270 270c149 0 270 -122 270 -270z" />
    <glyph glyph-name="P" unicode="P" horiz-adv-x="520" 
d="M480 506c0 91 -71 165 -162 169v0h-226h-67v-67v-204v-67v-337h67v337h218c93 0 170 76 170 169zM414 506c0 -55 -47 -102 -102 -102v0h-218v204h218c55 0 102 -46 102 -102z" />
    <glyph glyph-name="Q" unicode="Q" horiz-adv-x="729" 
d="M589 102c62 61 100 145 100 239c0 185 -149 334 -334 334s-334 -149 -334 -334s149 -334 334 -334c67 0 129 20 182 53l58 -60h94zM355 74c-147 0 -268 120 -268 267s121 267 268 267s267 -120 267 -267s-120 -267 -267 -267z" />
    <glyph glyph-name="R" unicode="R" horiz-adv-x="604" 
d="M158 339l332 -339h93l-332 339h58c93 0 170 75 170 168c0 91 -71 164 -162 168v0h-225h-67v-66v-204v-66v-337h67v337h66zM92 405v204h217c55 0 101 -47 101 -102c0 -56 -46 -102 -101 -102v0h-217z" />
    <glyph glyph-name="S" unicode="S" horiz-adv-x="500" 
d="M256 0c113 0 204 91 204 202s-91 202 -202 202v0c-55 0 -102 47 -102 102c0 56 47 102 102 102v0c47 0 91 -13 129 -33v0c11 -7 20 -13 31 -20v78c-42 24 -86 38 -133 40c-9 0 -18 2 -24 2c-94 0 -171 -75 -171 -169c0 -93 75 -166 171 -166c75 0 135 -62 135 -138
c0 -75 -60 -135 -135 -135v0c-47 0 -91 13 -129 33v0c-25 13 -42 29 -60 44l-47 -46l3 -3c6 -6 13 -13 20 -17v0c6 -7 15 -11 22 -18c4 -2 6 -4 11 -7c4 -2 6 -4 9 -6c44 -27 93 -43 142 -45c9 0 18 -2 24 -2v0v0v0v0z" />
    <glyph glyph-name="T" unicode="T" horiz-adv-x="597" 
d="M557 609v66h-235h-66h-232v-66h232v-609h66v609h235z" />
    <glyph glyph-name="U" unicode="U" horiz-adv-x="543" 
d="M503 675h-67v-545c-13 -12 -27 -23 -42 -32c-38 -22 -83 -33 -130 -33s-92 13 -130 33c-15 9 -29 18 -42 29v548h-67v-460v-114c60 -63 145 -101 239 -101c89 0 170 31 239 101v574z" />
    <glyph glyph-name="V" unicode="V" horiz-adv-x="630" 
d="M332 0l258 675h-64l-219 -569l-220 569h-64l258 -675h9v0h15h13v0h14z" />
    <glyph glyph-name="W" unicode="W" horiz-adv-x="653" 
d="M608 675h5h-67v-477c-25 -40 -58 -73 -100 -96c-29 -15 -61 -26 -96 -31v604h-67v-606c-33 5 -67 16 -96 31v0c-40 23 -73 56 -98 94v481h-67v-497v0c16 -29 36 -55 56 -76v0c2 -2 4 -4 7 -6c6 -7 13 -14 20 -18v0c6 -7 15 -11 22 -18c4 -2 7 -4 11 -7c2 -2 7 -4 9 -6
c45 -27 94 -43 143 -45c9 0 17 -2 24 -2s18 0 25 2c51 5 98 18 142 45c2 2 7 4 9 6c5 3 7 5 11 7c9 5 16 11 23 18v0c6 4 13 11 20 18l6 6v0c20 23 40 47 58 76v497z" />
    <glyph glyph-name="X" unicode="X" horiz-adv-x="727" 
d="M399 336l288 339h-93l-239 -283l-242 283h-92l287 -339l-287 -336h95l239 281l236 -281h96z" />
    <glyph glyph-name="Y" unicode="Y" horiz-adv-x="528" 
d="M488 198v0v477h-66v-272h-174c-83 0 -149 67 -149 149v18v105h-67v-105v-22c0 -118 95 -212 211 -212h179v-213c-12 -7 -21 -16 -32 -21c-38 -22 -82 -33 -129 -33s-91 13 -129 33v0c-20 12 -40 27 -58 43l-49 -47l2 -2c7 -7 14 -14 20 -18v0c7 -7 16 -11 23 -18
c4 -2 6 -4 11 -7c2 -2 6 -4 9 -6c44 -27 93 -43 142 -45c9 0 18 -2 25 -2c6 0 18 0 24 2c51 5 98 18 143 45c2 2 6 4 9 6c4 3 6 5 11 7c9 5 15 11 22 18v0c5 4 11 9 16 13z" />
    <glyph glyph-name="Z" unicode="Z" horiz-adv-x="619" 
d="M162 68l417 607h-64h-27h-401v-68h355l-421 -607h94v0h464v68h-417z" />
    <glyph glyph-name="backslash" unicode="\" horiz-adv-x="40" 
 />
    <glyph glyph-name="a" unicode="a" horiz-adv-x="666" 
d="M481 179l75 -179h70l-273 675h-58l-273 -673h70l71 177h318zM456 245h-264l132 324z" />
    <glyph glyph-name="b" unicode="b" 
d="M479 201c0 78 -46 146 -113 180c33 31 55 75 55 124c0 93 -75 168 -168 170v0h-161h-56h-11v-675h11v0h242v66h-186v270h186c75 0 135 -59 135 -135c0 -75 -60 -135 -135 -135v-66c110 0 201 91 201 201zM92 403v0v203h159c55 0 102 -46 102 -101
c0 -56 -47 -102 -102 -102v0h-159z" />
    <glyph glyph-name="c" unicode="c" horiz-adv-x="634" 
d="M590 198c-50 -76 -135 -130 -232 -130c-148 0 -270 121 -270 270c0 148 122 270 270 270c74 0 140 -30 189 -77l47 47c-60 61 -144 97 -236 97c-187 0 -337 -151 -337 -337c0 -187 150 -338 337 -338c90 0 171 36 232 92v106z" />
    <glyph glyph-name="d" unicode="d" horiz-adv-x="623" 
d="M583 343c2 182 -148 332 -330 332v0h-161h-56h-11v-675h11v0h215v0v0c184 0 332 148 332 332v11zM519 339v-7c0 -148 -120 -268 -268 -268v0h-159v542h159v0c148 0 268 -119 268 -267z" />
    <glyph glyph-name="e" unicode="e" 
d="M479 0v66h-387v270h225v67h-225v203h371v69h-371h-67v-69v-203v-67v-270v-66v0h67v0h387z" />
    <glyph glyph-name="f" unicode="f" horiz-adv-x="506" 
d="M92 609h374v66h-374h-66v-66v-204v-66v-339h66v339h226v66h-226v204z" />
    <glyph glyph-name="g" unicode="g" horiz-adv-x="634" 
d="M295 405v-67h227v-214c-45 -36 -101 -56 -164 -56c-148 0 -270 121 -270 270c0 148 122 270 270 270c74 0 140 -30 189 -77l47 47c-60 61 -144 97 -236 97c-187 0 -337 -151 -337 -337c0 -187 150 -338 337 -338c90 0 171 36 232 92v12v0v234v67h-295z" />
    <glyph glyph-name="h" unicode="h" 
d="M479 675h-66v-270h-321v270h-67v-270v-66v-339h67v339h321v-339h66v675z" />
    <glyph glyph-name="i" unicode="i" horiz-adv-x="133" 
d="M20 675v0v0v0v0zM20 675v0v0v0v0zM20 675v0v0v0v0zM20 675v0v0v0v0zM20 675v0v0v0v0zM20 675v0v0v0v0zM25 674v-673h68v673h-68z" />
    <glyph glyph-name="j" unicode="j" horiz-adv-x="470" 
d="M430 675h-67v-553c-44 -33 -100 -55 -160 -55c-44 0 -89 11 -126 31l-49 -49c51 -31 111 -49 173 -49c89 0 169 36 229 91v0v104v480z" />
    <glyph glyph-name="k" unicode="k" horiz-adv-x="623" 
d="M149 346l340 -346h94l-386 393l281 282l-95 -2l-292 -291v291h-66v-673h66v287z" />
    <glyph glyph-name="l" unicode="l" 
d="M479 66h-387v609h-67v-609v-66v0h454v66z" />
    <glyph glyph-name="m" unicode="m" horiz-adv-x="649" 
d="M609 675h-67l-225 -230l-228 230h-67v-675h67v571l228 -232l225 232v-571h67v675z" />
    <glyph glyph-name="n" unicode="n" horiz-adv-x="585" 
d="M545 675h-66v-398l-387 398v0h-67v-675h67v569l387 -399v-170h66v675z" />
    <glyph glyph-name="o" unicode="o" horiz-adv-x="736" 
d="M696 338c0 186 -153 337 -338 337c-187 0 -337 -151 -337 -337c0 -187 150 -338 337 -338s338 151 338 338zM628 338c-2 -149 -124 -270 -270 -270c-148 0 -270 121 -270 270c0 148 122 270 270 270c149 0 270 -122 270 -270z" />
    <glyph glyph-name="p" unicode="p" horiz-adv-x="520" 
d="M480 506c0 91 -71 165 -162 169v0h-226h-67v-67v-204v-67v-337h67v337h218c93 0 170 76 170 169zM414 506c0 -55 -47 -102 -102 -102v0h-218v204h218c55 0 102 -46 102 -102z" />
    <glyph glyph-name="q" unicode="q" horiz-adv-x="729" 
d="M589 102c62 61 100 145 100 239c0 185 -149 334 -334 334s-334 -149 -334 -334s149 -334 334 -334c67 0 129 20 182 53l58 -60h94zM355 74c-147 0 -268 120 -268 267s121 267 268 267s267 -120 267 -267s-120 -267 -267 -267z" />
    <glyph glyph-name="r" unicode="r" horiz-adv-x="623" 
d="M158 339l332 -339h93l-332 339h58c93 0 170 75 170 168c0 91 -71 164 -162 168v0h-225h-67v-66v-204v-66v-337h67v337h66zM92 405v204h217c55 0 101 -47 101 -102c0 -56 -46 -102 -101 -102v0h-217z" />
    <glyph glyph-name="s" unicode="s" horiz-adv-x="500" 
d="M256 0c113 0 204 91 204 202s-91 202 -202 202v0c-55 0 -102 47 -102 102c0 56 47 102 102 102v0c47 0 91 -13 129 -33v0c11 -7 20 -13 31 -20v78c-42 24 -86 38 -133 40c-9 0 -18 2 -24 2c-94 0 -171 -75 -171 -169c0 -93 75 -166 171 -166c75 0 135 -62 135 -138
c0 -75 -60 -135 -135 -135v0c-47 0 -91 13 -129 33v0c-25 13 -42 29 -60 44l-47 -46l3 -3c6 -6 13 -13 20 -17v0c6 -7 15 -11 22 -18c4 -2 6 -4 11 -7c4 -2 6 -4 9 -6c44 -27 93 -43 142 -45c9 0 18 -2 24 -2v0v0v0v0z" />
    <glyph glyph-name="t" unicode="t" horiz-adv-x="597" 
d="M557 609v66h-235h-66h-232v-66h232v-609h66v609h235z" />
    <glyph glyph-name="u" unicode="u" horiz-adv-x="543" 
d="M503 675h-67v-545c-13 -12 -27 -23 -42 -32c-38 -22 -83 -33 -130 -33s-92 13 -130 33c-15 9 -29 18 -42 29v548h-67v-460v-114c60 -63 145 -101 239 -101c89 0 170 31 239 101v574z" />
    <glyph glyph-name="v" unicode="v" horiz-adv-x="630" 
d="M332 0l258 675h-64l-219 -569l-220 569h-64l258 -675h9v0h15h13v0h14z" />
    <glyph glyph-name="w" unicode="w" horiz-adv-x="653" 
d="M608 675h5h-67v-477c-25 -40 -58 -73 -100 -96c-29 -15 -61 -26 -96 -31v604h-67v-606c-33 5 -67 16 -96 31v0c-40 23 -73 56 -98 94v481h-67v-497v0c16 -29 36 -55 56 -76v0c2 -2 4 -4 7 -6c6 -7 13 -14 20 -18v0c6 -7 15 -11 22 -18c4 -2 7 -4 11 -7c2 -2 7 -4 9 -6
c45 -27 94 -43 143 -45c9 0 17 -2 24 -2s18 0 25 2c51 5 98 18 142 45c2 2 7 4 9 6c5 3 7 5 11 7c9 5 16 11 23 18v0c6 4 13 11 20 18l6 6v0c20 23 40 47 58 76v497z" />
    <glyph glyph-name="x" unicode="x" horiz-adv-x="727" 
d="M399 336l288 339h-93l-239 -283l-242 283h-92l287 -339l-287 -336h95l239 281l236 -281h96z" />
    <glyph glyph-name="y" unicode="y" horiz-adv-x="528" 
d="M488 198v0v477h-66v-272h-174c-83 0 -149 67 -149 149v18v105h-67v-105v-22c0 -118 95 -212 211 -212h179v-213c-12 -7 -21 -16 -32 -21c-38 -22 -82 -33 -129 -33s-91 13 -129 33v0c-20 12 -40 27 -58 43l-49 -47l2 -2c7 -7 14 -14 20 -18v0c7 -7 16 -11 23 -18
c4 -2 6 -4 11 -7c2 -2 6 -4 9 -6c44 -27 93 -43 142 -45c9 0 18 -2 25 -2c6 0 18 0 24 2c51 5 98 18 143 45c2 2 6 4 9 6c4 3 6 5 11 7c9 5 15 11 22 18v0c5 4 11 9 16 13z" />
    <glyph glyph-name="z" unicode="z" horiz-adv-x="619" 
d="M162 68l417 607h-64h-27h-401v-68h355l-421 -607h94v0h464v68h-417z" />
  </font>
</defs>
</svg>
